  0
SECTION
  2
HEADER
  9
$ACADVER
  1
AC1015
  9
$ACADMAINTVER
 70
     6
  9
$DWGCODEPAGE
  3
ANSI_1251
  9
$INSBASE
 10
0.0
 20
0.0
 30
0.0
  9
$EXTMIN
 10
-14.0
 20
-21.5
 30
0.0
  9
$EXTMAX
 10
14.0
 20
42.5
 30
0.0
  9
$LIMMIN
 10
0.0
 20
0.0
  9
$LIMMAX
 10
420.0
 20
297.0
  9
$ORTHOMODE
 70
     0
  9
$REGENMODE
 70
     1
  9
$FILLMODE
 70
     1
  9
$QTEXTMODE
 70
     0
  9
$MIRRTEXT
 70
     1
  9
$LTSCALE
 40
1.0
  9
$ATTMODE
 70
     1
  9
$TEXTSIZE
 40
4.0
  9
$TRACEWID
 40
1.0
  9
$TEXTSTYLE
  7
Standard
  9
$CLAYER
  8
0
  9
$CELTYPE
  6
ByLayer
  9
$CECOLOR
 62
   256
  9
$CELTSCALE
 40
1.0
  9
$DISPSILH
 70
     0
  9
$DIMSCALE
 40
1.0
  9
$DIMASZ
 40
6.0
  9
$DIMEXO
 40
1.0
  9
$DIMDLI
 40
3.75
  9
$DIMRND
 40
0.0
  9
$DIMDLE
 40
0.0
  9
$DIMEXE
 40
1.0
  9
$DIMTP
 40
0.0
  9
$DIMTM
 40
0.0
  9
$DIMTXT
 40
4.0
  9
$DIMCEN
 40
2.5
  9
$DIMTSZ
 40
0.0
  9
$DIMTOL
 70
     0
  9
$DIMLIM
 70
     0
  9
$DIMTIH
 70
     1
  9
$DIMTOH
 70
     1
  9
$DIMSE1
 70
     0
  9
$DIMSE2
 70
     0
  9
$DIMTAD
 70
     1
  9
$DIMZIN
 70
     0
  9
$DIMBLK
  1

  9
$DIMASO
 70
     1
  9
$DIMSHO
 70
     1
  9
$DIMPOST
  1

  9
$DIMAPOST
  1

  9
$DIMALT
 70
     0
  9
$DIMALTD
 70
     3
  9
$DIMALTF
 40
0.0393700787
  9
$DIMLFAC
 40
1.0
  9
$DIMTOFL
 70
     1
  9
$DIMTVP
 40
0.0
  9
$DIMTIX
 70
     0
  9
$DIMSOXD
 70
     0
  9
$DIMSAH
 70
     0
  9
$DIMBLK1
  1

  9
$DIMBLK2
  1

  9
$DIMSTYLE
  2
ISO-25
  9
$DIMCLRD
 70
     0
  9
$DIMCLRE
 70
     0
  9
$DIMCLRT
 70
     0
  9
$DIMTFAC
 40
1.0
  9
$DIMGAP
 40
3.0
  9
$DIMJUST
 70
     0
  9
$DIMSD1
 70
     0
  9
$DIMSD2
 70
     0
  9
$DIMTOLJ
 70
     0
  9
$DIMTZIN
 70
     0
  9
$DIMALTZ
 70
     0
  9
$DIMALTTZ
 70
     0
  9
$DIMUPT
 70
     0
  9
$DIMDEC
 70
     2
  9
$DIMTDEC
 70
     4
  9
$DIMALTU
 70
     2
  9
$DIMALTTD
 70
     3
  9
$DIMTXSTY
  7
Standard
  9
$DIMAUNIT
 70
     0
  9
$DIMADEC
 70
     2
  9
$DIMALTRND
 40
0.0
  9
$DIMAZIN
 70
     0
  9
$DIMDSEP
 70
    44
  9
$DIMATFIT
 70
     3
  9
$DIMFRAC
 70
     0
  9
$DIMLDRBLK
  1

  9
$DIMLUNIT
 70
     2
  9
$DIMLWD
 70
    -2
  9
$DIMLWE
 70
    -2
  9
$DIMTMOVE
 70
     0
  9
$LUNITS
 70
     2
  9
$LUPREC
 70
     2
  9
$SKETCHINC
 40
1.0
  9
$FILLETRAD
 40
10.0
  9
$AUNITS
 70
     0
  9
$AUPREC
 70
     2
  9
$MENU
  1
.
  9
$ELEVATION
 40
0.0
  9
$PELEVATION
 40
0.0
  9
$THICKNESS
 40
0.0
  9
$LIMCHECK
 70
     0
  9
$CHAMFERA
 40
0.0
  9
$CHAMFERB
 40
0.0
  9
$CHAMFERC
 40
0.0
  9
$CHAMFERD
 40
0.0
  9
$SKPOLY
 70
     0
  9
$TDCREATE
 40
2458309.438459907
  9
$TDUCREATE
 40
2458309.313459907
  9
$TDUPDATE
 40
2458309.438489248
  9
$TDUUPDATE
 40
2458309.313489248
  9
$TDINDWG
 40
0.0000000116
  9
$TDUSRTIMER
 40
0.0000000116
  9
$USRTIMER
 70
     1
  9
$ANGBASE
 50
0.0
  9
$ANGDIR
 70
     0
  9
$PDMODE
 70
     0
  9
$PDSIZE
 40
-1.0
  9
$PLINEWID
 40
0.0
  9
$SPLFRAME
 70
     0
  9
$SPLINETYPE
 70
     6
  9
$SPLINESEGS
 70
     8
  9
$HANDSEED
  5
120
  9
$SURFTAB1
 70
     6
  9
$SURFTAB2
 70
     6
  9
$SURFTYPE
 70
     6
  9
$SURFU
 70
     6
  9
$SURFV
 70
     6
  9
$UCSBASE
  2

  9
$UCSNAME
  2

  9
$UCSORG
 10
0.0
 20
0.0
 30
0.0
  9
$UCSXDIR
 10
1.0
 20
0.0
 30
0.0
  9
$UCSYDIR
 10
0.0
 20
1.0
 30
0.0
  9
$UCSORTHOREF
  2

  9
$UCSORTHOVIEW
 70
     0
  9
$UCSORGTOP
 10
0.0
 20
0.0
 30
0.0
  9
$UCSORGBOTTOM
 10
0.0
 20
0.0
 30
0.0
  9
$UCSORGLEFT
 10
0.0
 20
0.0
 30
0.0
  9
$UCSORGRIGHT
 10
0.0
 20
0.0
 30
0.0
  9
$UCSORGFRONT
 10
0.0
 20
0.0
 30
0.0
  9
$UCSORGBACK
 10
0.0
 20
0.0
 30
0.0
  9
$PUCSBASE
  2

  9
$PUCSNAME
  2

  9
$PUCSORG
 10
0.0
 20
0.0
 30
0.0
  9
$PUCSXDIR
 10
1.0
 20
0.0
 30
0.0
  9
$PUCSYDIR
 10
0.0
 20
1.0
 30
0.0
  9
$PUCSORTHOREF
  2

  9
$PUCSORTHOVIEW
 70
     0
  9
$PUCSORGTOP
 10
0.0
 20
0.0
 30
0.0
  9
$PUCSORGBOTTOM
 10
0.0
 20
0.0
 30
0.0
  9
$PUCSORGLEFT
 10
0.0
 20
0.0
 30
0.0
  9
$PUCSORGRIGHT
 10
0.0
 20
0.0
 30
0.0
  9
$PUCSORGFRONT
 10
0.0
 20
0.0
 30
0.0
  9
$PUCSORGBACK
 10
0.0
 20
0.0
 30
0.0
  9
$USERI1
 70
     0
  9
$USERI2
 70
     0
  9
$USERI3
 70
     0
  9
$USERI4
 70
     0
  9
$USERI5
 70
     0
  9
$USERR1
 40
0.0
  9
$USERR2
 40
0.0
  9
$USERR3
 40
0.0
  9
$USERR4
 40
0.0
  9
$USERR5
 40
0.0
  9
$WORLDVIEW
 70
     1
  9
$SHADEDGE
 70
     3
  9
$SHADEDIF
 70
    70
  9
$TILEMODE
 70
     1
  9
$MAXACTVP
 70
    64
  9
$PINSBASE
 10
0.0
 20
0.0
 30
0.0
  9
$PLIMCHECK
 70
     0
  9
$PEXTMIN
 10
1.0000000000E+20
 20
1.0000000000E+20
 30
1.0000000000E+20
  9
$PEXTMAX
 10
-1.0000000000E+20
 20
-1.0000000000E+20
 30
-1.0000000000E+20
  9
$PLIMMIN
 10
0.0
 20
0.0
  9
$PLIMMAX
 10
420.0
 20
297.0
  9
$UNITMODE
 70
     0
  9
$VISRETAIN
 70
     1
  9
$PLINEGEN
 70
     0
  9
$PSLTSCALE
 70
     1
  9
$TREEDEPTH
 70
  3020
  9
$CMLSTYLE
  2
Standard
  9
$CMLJUST
 70
     0
  9
$CMLSCALE
 40
20.0
  9
$PROXYGRAPHICS
 70
     1
  9
$MEASUREMENT
 70
     1
  9
$CELWEIGHT
370
    -1
  9
$ENDCAPS
280
     0
  9
$JOINSTYLE
280
     0
  9
$LWDISPLAY
290
     1
  9
$INSUNITS
 70
     4
  9
$HYPERLINKBASE
  1

  9
$STYLESHEET
  1

  9
$XEDIT
290
     1
  9
$CEPSNTYPE
380
     0
  9
$PSTYLEMODE
290
     1
  9
$FINGERPRINTGUID
  2
{3DBEB4FF-1379-466A-8402-BABE7E6ED2E4}
  9
$VERSIONGUID
  2
{FAEB1C32-E019-11D5-929B-00C0DF256EC4}
  9
$EXTNAMES
290
     1
  9
$PSVPSCALE
 40
0.0
  9
$OLESTARTUP
290
     0
  0
ENDSEC
  0
SECTION
  2
CLASSES
  0
CLASS
  1
ACDBDICTIONARYWDFLT
  2
AcDbDictionaryWithDefault
  3
ObjectDBX Classes
 90
        0
280
     0
281
     0
  0
CLASS
  1
VISUALSTYLE
  2
AcDbVisualStyle
  3
ObjectDBX Classes
 90
     4095
280
     0
281
     0
  0
CLASS
  1
MATERIAL
  2
AcDbMaterial
  3
ObjectDBX Classes
 90
     1153
280
     0
281
     0
  0
CLASS
  1
SCALE
  2
AcDbScale
  3
ObjectDBX Classes
 90
     1153
280
     0
281
     0
  0
CLASS
  1
TABLESTYLE
  2
AcDbTableStyle
  3
ObjectDBX Classes
 90
     4095
280
     0
281
     0
  0
CLASS
  1
MLEADERSTYLE
  2
AcDbMLeaderStyle
  3
ACDB_MLEADERSTYLE_CLASS
 90
     4095
280
     0
281
     0
  0
CLASS
  1
SUN
  2
AcDbSun
  3
SCENEOE
 90
     1153
280
     0
281
     0
  0
CLASS
  1
ACDBPLACEHOLDER
  2
AcDbPlaceHolder
  3
ObjectDBX Classes
 90
        0
280
     0
281
     0
  0
CLASS
  1
LAYOUT
  2
AcDbLayout
  3
ObjectDBX Classes
 90
        0
280
     0
281
     0
  0
ENDSEC
  0
SECTION
  2
TABLES
  0
TABLE
  2
VPORT
  5
8
330
0
100
AcDbSymbolTable
 70
     1
  0
VPORT
  5
29
330
8
100
AcDbSymbolTableRecord
100
AcDbViewportTableRecord
  2
*Active
 70
     0
 10
0.0
 20
0.0
 11
1.0
 21
1.0
 12
0.0
 22
10.5
 13
0.0
 23
0.0
 14
10.0
 24
10.0
 15
10.0
 25
10.0
 16
0.0
 26
0.0
 36
1.0
 17
0.0
 27
0.0
 37
0.0
 40
65.28
 41
0.4375
 42
50.0
 43
0.0
 44
0.0
 50
0.0
 51
0.0
 71
     0
 72
   100
 73
     1
 74
     3
 75
     0
 76
     0
 77
     0
 78
     0
281
     0
 65
     1
110
0.0
120
0.0
130
0.0
111
1.0
121
0.0
131
0.0
112
0.0
122
1.0
132
0.0
 79
     0
146
0.0
  0
ENDTAB
  0
TABLE
  2
LTYPE
  5
5
330
0
100
AcDbSymbolTable
 70
     6
  0
LTYPE
  5
14
330
5
100
AcDbSymbolTableRecord
100
AcDbLinetypeTableRecord
  2
ByBlock
 70
     0
  3

 72
    65
 73
     0
 40
0.0
  0
LTYPE
  5
15
330
5
100
AcDbSymbolTableRecord
100
AcDbLinetypeTableRecord
  2
ByLayer
 70
     0
  3

 72
    65
 73
     0
 40
0.0
  0
LTYPE
  5
16
330
5
100
AcDbSymbolTableRecord
100
AcDbLinetypeTableRecord
  2
Continuous
 70
     0
  3
Solid line
 72
    65
 73
     0
 40
0.0
  0
LTYPE
  5
6E
330
5
100
AcDbSymbolTableRecord
100
AcDbLinetypeTableRecord
  2
HIDDEN
 70
     0
  3
Hidden __ __ __ __ __ __ __ __ __ __ __ __ __ __
 72
    65
 73
     2
 40
1.905
 49
1.27
 74
     0
 49
-0.635
 74
     0
  0
LTYPE
  5
6F
330
5
100
AcDbSymbolTableRecord
100
AcDbLinetypeTableRecord
  2
PHANTOM
 70
     0
  3
Phantom ______  __  __  ______  __  __  ______
 72
    65
 73
     6
 40
12.7
 49
6.35
 74
     0
 49
-1.27
 74
     0
 49
1.27
 74
     0
 49
-1.27
 74
     0
 49
1.27
 74
     0
 49
-1.27
 74
     0
  0
LTYPE
  5
70
330
5
100
AcDbSymbolTableRecord
100
AcDbLinetypeTableRecord
  2
CENTER
 70
     0
  3
Center ____ _ ____ _ ____ _ ____ _ ____ _ ____
 72
    65
 73
     4
 40
10.16
 49
6.35
 74
     0
 49
-1.27
 74
     0
 49
1.27
 74
     0
 49
-1.27
 74
     0
  0
LTYPE
  5
71
330
5
100
AcDbSymbolTableRecord
100
AcDbLinetypeTableRecord
  2
CENTERX2
 70
     0
  3
Center (2x) ________  __  ________  __  _____
 72
    65
 73
     4
 40
20.32
 49
12.7
 74
     0
 49
-2.54
 74
     0
 49
2.54
 74
     0
 49
-2.54
 74
     0
  0
LTYPE
  5
72
330
5
100
AcDbSymbolTableRecord
100
AcDbLinetypeTableRecord
  2
DOT2
 70
     0
  3
Dot (.5x) ........................................
 72
    65
 73
     2
 40
0.635
 49
0.0
 74
     0
 49
-0.635
 74
     0
  0
ENDTAB
  0
TABLE
  2
LAYER
  5
2
330
0
100
AcDbSymbolTable
 70
     1
  0
LAYER
  5
10
330
2
100
AcDbSymbolTableRecord
100
AcDbLayerTableRecord
  2
0
 70
     0
 62
     7
  6
Continuous
370
    -3
390
F
  0
ENDTAB
  0
TABLE
  2
STYLE
  5
3
330
0
100
AcDbSymbolTable
 70
     2
  0
STYLE
  5
11
330
3
100
AcDbSymbolTableRecord
100
AcDbTextStyleTableRecord
  2
Standard
 70
     0
 40
0.0
 41
1.0
 50
0.0
 71
     0
 42
4.0
  3
txt
  4

  0
STYLE
  5
11D
330
3
100
AcDbSymbolTableRecord
100
AcDbTextStyleTableRecord
  2
SLDTEXTSTYLE0
 70
     0
 40
0.0
 41
0.7
 50
0.0
 71
     0
 42
4.0
  3
TXT
  4
bigfont
  0
ENDTAB
  0
TABLE
  2
VIEW
  5
6
330
0
100
AcDbSymbolTable
 70
     0
  0
ENDTAB
  0
TABLE
  2
UCS
  5
7
330
0
100
AcDbSymbolTable
 70
     0
  0
ENDTAB
  0
TABLE
  2
APPID
  5
9
330
0
100
AcDbSymbolTable
 70
     1
  0
APPID
  5
12
330
9
100
AcDbSymbolTableRecord
100
AcDbRegAppTableRecord
  2
ACAD
 70
     0
  0
ENDTAB
  0
TABLE
  2
DIMSTYLE
  5
A
330
0
100
AcDbSymbolTable
 70
     1
100
AcDbDimStyleTable
  0
DIMSTYLE
105
27
330
A
100
AcDbSymbolTableRecord
100
AcDbDimStyleTableRecord
  2
ISO-25
 70
     0
 41
2.5
 42
0.625
 43
3.75
 44
1.25
 73
     0
 74
     0
 77
     1
 78
     8
140
2.5
141
2.5
143
0.0393700787
147
0.625
171
     3
172
     1
178
     0
271
     2
272
     2
274
     3
278
    44
283
     0
284
     8
340
11
  0
ENDTAB
  0
TABLE
  2
BLOCK_RECORD
  5
1
330
0
100
AcDbSymbolTable
 70
     1
  0
BLOCK_RECORD
  5
1F
330
1
100
AcDbSymbolTableRecord
100
AcDbBlockTableRecord
  2
*Model_Space
340
22
  0
BLOCK_RECORD
  5
1B
330
1
100
AcDbSymbolTableRecord
100
AcDbBlockTableRecord
  2
*Paper_Space
340
1E
  0
BLOCK_RECORD
  5
23
330
1
100
AcDbSymbolTableRecord
100
AcDbBlockTableRecord
  2
*Paper_Space0
340
26
  0
ENDTAB
  0
ENDSEC
  0
SECTION
  2
BLOCKS
  0
BLOCK
  5
20
330
1F
100
AcDbEntity
  8
0
100
AcDbBlockBegin
  2
*Model_Space
 70
     0
 10
0.0
 20
0.0
 30
0.0
  3
*Model_Space
  1

  0
ENDBLK
  5
21
330
1F
100
AcDbEntity
  8
0
100
AcDbBlockEnd
  0
BLOCK
  5
1C
330
1B
100
AcDbEntity
 67
     1
  8
0
100
AcDbBlockBegin
  2
*Paper_Space
 70
     0
 10
0.0
 20
0.0
 30
0.0
  3
*Paper_Space
  1

  0
ENDBLK
  5
1D
330
1B
100
AcDbEntity
 67
     1
  8
0
100
AcDbBlockEnd
  0
BLOCK
  5
24
330
23
100
AcDbEntity
  8
0
100
AcDbBlockBegin
  2
*Paper_Space0
 70
     0
 10
0.0
 20
0.0
 30
0.0
  3
*Paper_Space0
  1

  0
ENDBLK
  5
25
330
23
100
AcDbEntity
  8
0
100
AcDbBlockEnd
  0
ENDSEC
  0
SECTION
  2
ENTITIES
  0
SPLINE
  5
73
330
1F
100
AcDbEntity
  8
0
  6
Continuous
 62
     7
370
    15
100
AcDbSpline
210
0.0
220
0.0
230
1.0
 70
     8
 71
     3
 72
    23
 73
    19
 74
     0
 42
0.000000001
 43
0.00000001
 40
0.0
 40
0.0
 40
0.0
 40
0.0
 40
0.0689192924954838
 40
0.1349047630310735
 40
0.1997359372185633
 40
0.2626235683021053
 40
0.3245009044534108
 40
0.385513564146932
 40
0.4473909002982379
 40
0.5091777877173262
 40
0.5709054639226033
 40
0.6308224246856539
 40
0.6901440794890966
 40
0.7497767565007375
 40
0.8097188419376902
 40
0.8709145541025364
 40
0.9345907756293
 40
1.0
 40
1.0
 40
1.0
 40
1.0
 10
0.9975901302109417
 20
9.830271277612816
 30
0.0
 10
0.9795678527896267
 20
9.829852762035252
 30
0.0
 10
0.9442904873848367
 20
9.829033546649084
 30
0.0
 10
0.8923191645968412
 20
9.823268734831517
 30
0.0
 10
0.8425079636457635
 20
9.813712156175955
 30
0.0
 10
0.7949451833896567
 20
9.799532938891032
 30
0.0
 10
0.7494570910099125
 20
9.782299780912215
 30
0.0
 10
0.7063635274600433
 20
9.760270485001534
 30
0.0
 10
0.6653628457981144
 20
9.734673208979475
 30
0.0
 10
0.6266183510566693
 20
9.705393405211396
 30
0.0
 10
0.5915688503162797
 20
9.67257999164337
 30
0.0
 10
0.5595156253535214
 20
9.637626405575583
 30
0.0
 10
0.5329787661891735
 20
9.598994677349925
 30
0.0
 10
0.5094498336691686
 20
9.558484791249414
 30
0.0
 10
0.4910265203477852
 20
9.514832489280368
 30
0.0
 10
0.4765228759991456
 20
9.468680823996067
 30
0.0
 10
0.466198544823232
 20
9.419902603529593
 30
0.0
 10
0.4627351982094762
 20
9.38631185632713
 30
0.0
 10
0.4609802767761752
 20
9.369291000836641
 30
0.0
  0
SPLINE
  5
75
330
1F
100
AcDbEntity
  8
0
  6
Continuous
 62
     7
370
    15
100
AcDbSpline
210
0.0
220
0.0
230
1.0
 70
     8
 71
     3
 72
    15
 73
    11
 74
     0
 42
0.000000001
 43
0.00000001
 40
0.0
 40
0.0
 40
0.0
 40
0.0
 40
0.1481645315864626
 40
0.2896940731271313
 40
0.4223767178539485
 40
0.5484618558405243
 40
0.6673940763989474
 40
0.7829662373357238
 40
0.8927208011042123
 40
1.0
 40
1.0
 40
1.0
 40
1.0
 10
1.514649480836004
 20
9.369291000836641
 30
0.0
 10
1.512576801115485
 20
9.385605280624223
 30
0.0
 10
1.508524258822833
 20
9.41750326667523
 30
0.0
 10
1.499994308835116
 20
9.463639717777028
 30
0.0
 10
1.488618068494848
 20
9.5066246929337
 30
0.0
 10
1.474917130123329
 20
9.546296739470655
 30
0.0
 10
1.458209765992522
 20
9.58273180630283
 30
0.0
 10
1.439333165546365
 20
9.615985798933412
 30
0.0
 10
1.418240935178373
 20
9.646413848419918
 30
0.0
 10
1.401848026006362
 20
9.664097366424624
 30
0.0
 10
1.393745055565467
 20
9.672838281303099
 30
0.0
  0
SPLINE
  5
76
330
1F
100
AcDbEntity
  8
0
  6
Continuous
 62
     7
370
    15
100
AcDbSpline
210
0.0
220
0.0
230
1.0
 70
     8
 71
     3
 72
    15
 73
    11
 74
     0
 42
0.000000001
 43
0.00000001
 40
0.0
 40
0.0
 40
0.0
 40
0.0
 40
0.1236858458754523
 40
0.2443006868683379
 40
0.3642287799698428
 40
0.4860022042768579
 40
0.6084407848564807
 40
0.7336696181582744
 40
0.8637723073991284
 40
1.0
 40
1.0
 40
1.0
 40
1.0
 10
1.393745055565467
 20
9.672838281303099
 30
0.0
 10
1.380798355947237
 20
9.685474672094216
 30
0.0
 10
1.355226411259268
 20
9.710433703808448
 30
0.0
 10
1.312591057844866
 20
9.742607492578513
 30
0.0
 10
1.266770644582739
 20
9.76928882928172
 30
0.0
 10
1.218655975302575
 20
9.792309916477214
 30
0.0
 10
1.167170854851412
 20
9.808988091003561
 30
0.0
 10
1.113346088599386
 20
9.821587484492598
 30
0.0
 10
1.056432423691896
 20
9.828724823232262
 30
0.0
 10
1.017502660544243
 20
9.829747949612832
 30
0.0
 10
0.9975901302109417
 20
9.830271277612816
 30
0.0
  0
SPLINE
  5
79
330
1F
100
AcDbEntity
  8
0
  6
Continuous
 62
     7
370
    15
100
AcDbSpline
210
0.0
220
0.0
230
1.0
 70
     8
 71
     3
 72
    23
 73
    19
 74
     0
 42
0.000000001
 43
0.00000001
 40
0.0
 40
0.0
 40
0.0
 40
0.0
 40
0.1023841564703342
 40
0.1969081362747434
 40
0.2843368240351292
 40
0.3643249708112329
 40
0.4375162865090517
 40
0.5044435037670015
 40
0.5646142090610632
 40
0.6185235416419107
 40
0.6690874724287883
 40
0.7164984114335902
 40
0.7622168674016423
 40
0.8081366638793318
 40
0.853274912886009
 40
0.8996629994662709
 40
0.9483682986863944
 40
0.9999999999999999
 40
0.9999999999999999
 40
0.9999999999999999
 40
0.9999999999999999
 10
0.891605825505705
 20
-1.389334257910685
 30
0.0
 10
0.9157951824197338
 20
-1.389231632204368
 30
0.0
 10
0.9623168450659075
 20
-1.389034259512523
 30
0.0
 10
1.029358727147484
 20
-1.3848977973571
 30
0.0
 10
1.091120542600334
 20
-1.380603319628172
 30
0.0
 10
1.147300650514946
 20
-1.371798027664744
 30
0.0
 10
1.198491611255643
 20
-1.36257274720712
 30
0.0
 10
1.244209230143808
 20
-1.350205797581504
 30
0.0
 10
1.284608108678505
 20
-1.336028250125618
 30
0.0
 10
1.319784124546977
 20
-1.319297645447906
 30
0.0
 10
1.350457140259411
 20
-1.300464095586902
 30
0.0
 10
1.3763608462756
 20
-1.278383803029373
 30
0.0
 10
1.399045457593999
 20
-1.254521850800749
 30
0.0
 10
1.417538428250909
 20
-1.227858498394043
 30
0.0
 10
1.431687404750713
 20
-1.198481139694753
 30
0.0
 10
1.441268577977225
 20
-1.166689987697204
 30
0.0
 10
1.447747371420361
 20
-1.132522872053515
 30
0.0
 10
1.44843916860448
 20
-1.108799066525373
 30
0.0
 10
1.448795155582265
 20
-1.096591202681175
 30
0.0
  0
SPLINE
  5
7A
330
1F
100
AcDbEntity
  8
0
  6
Continuous
 62
     7
370
    15
100
AcDbSpline
210
0.0
220
0.0
230
1.0
 70
     8
 71
     3
 72
    19
 73
    15
 74
     0
 42
0.000000001
 43
0.00000001
 40
0.0
 40
0.0
 40
0.0
 40
0.0
 40
0.0853065143465835
 40
0.1689090422673419
 40
0.255919720997025
 40
0.349577379468233
 40
0.4012471646746134
 40
0.4593620970957413
 40
0.5253606746555136
 40
0.6006172251359576
 40
0.6851572250514705
 40
0.779745280453434
 40
0.8846018894288497
 40
1.0
 40
1.0
 40
1.0
 40
1.0
 10
1.448795155582265
 20
-1.096591202681175
 30
0.0
 10
1.447560544084045
 20
-1.077423844893323
 30
0.0
 10
1.445115982290213
 20
-1.03947199477332
 30
0.0
 10
1.426740098316882
 20
-0.9843104253140222
 30
0.0
 10
1.395791256598081
 20
-0.9333578118412498
 30
0.0
 10
1.361478701861638
 20
-0.8936485434747621
 30
0.0
 10
1.325829339164466
 20
-0.8647820083685469
 30
0.0
 10
1.290606797023742
 20
-0.8464832677465943
 30
0.0
 10
1.248388021710302
 20
-0.831517802846805
 30
0.0
 10
1.199509574430549
 20
-0.817839468126285
 30
0.0
 10
1.143062517112032
 20
-0.8087518984911668
 30
0.0
 10
1.07973221007635
 20
-0.801430109400288
 30
0.0
 10
1.009126089481406
 20
-0.7975928103002017
 30
0.0
 10
0.959693159861617
 20
-0.7969710760231015
 30
0.0
 10
0.9337937526213818
 20
-0.7966453306270314
 30
0.0
  0
SPLINE
  5
8B
330
1F
100
AcDbEntity
  8
0
  6
Continuous
 62
     7
370
    15
100
AcDbSpline
210
0.0
220
0.0
230
1.0
 70
     8
 71
     3
 72
    23
 73
    19
 74
     0
 42
0.000000001
 43
0.00000001
 40
0.0
 40
0.0
 40
0.0
 40
0.0
 40
0.0554391595915614
 40
0.1095294958040212
 40
0.162684457390549
 40
0.2155534236619141
 40
0.2682971845783199
 40
0.321693931076115
 40
0.3768051857593898
 40
0.4332146042904355
 40
0.4914789578935238
 40
0.5516111692499169
 40
0.614820995581061
 40
0.6817245077462327
 40
0.7531776645536356
 40
0.8301053794924114
 40
0.9121111678221105
 40
1.0
 40
1.0
 40
1.0
 40
1.0
 10
1.778066781850962
 20
-1.095562228849083
 30
0.0
 10
1.777682884651805
 20
-1.115493345918105
 30
0.0
 10
1.77692443039359
 20
-1.154870660066878
 30
0.0
 10
1.767561079646403
 20
-1.212703529233951
 30
0.0
 10
1.753890014412541
 20
-1.268620276445264
 30
0.0
 10
1.73432456061107
 20
-1.322337108213936
 30
0.0
 10
1.708704916456515
 20
-1.373474166650263
 30
0.0
 10
1.678333872124801
 20
-1.42291142881474
 30
0.0
 10
1.641529927683695
 20
-1.469462931713678
 30
0.0
 10
1.599859515790809
 20
-1.514076528437651
 30
0.0
 10
1.552074878130992
 20
-1.555108332744862
 30
0.0
 10
1.496775631518762
 20
-1.590045179683953
 30
0.0
 10
1.435238623971093
 20
-1.620073875643359
 30
0.0
 10
1.36675505967296
 20
-1.643947516909305
 30
0.0
 10
1.291746681285671
 20
-1.663145214412042
 30
0.0
 10
1.209909695776949
 20
-1.675928102695059
 30
0.0
 10
1.12159269584165
 20
-1.684506471341291
 30
0.0
 10
1.060551358451447
 20
-1.685279053920586
 30
0.0
 10
1.028973832089677
 20
-1.685678721552512
 30
0.0
  0
SPLINE
  5
8C
330
1F
100
AcDbEntity
  8
0
  6
Continuous
 62
     7
370
    15
100
AcDbSpline
210
0.0
220
0.0
230
1.0
 70
     8
 71
     3
 72
    23
 73
    19
 74
     0
 42
0.000000001
 43
0.00000001
 40
0.0
 40
0.0
 40
0.0
 40
0.0
 40
0.0834736108596593
 40
0.1626584931048567
 40
0.2369713290851453
 40
0.3072242378808623
 40
0.3741446380496317
 40
0.437466139956789
 40
0.4985971638002343
 40
0.5571426058364742
 40
0.6141421484259805
 40
0.6690140195938875
 40
0.7225079143609312
 40
0.7754321191358157
 40
0.8290380868837348
 40
0.8837484415274448
 40
0.9404007173962445
 40
1.0
 40
1.0
 40
1.0
 40
1.0
 10
0.9610615591717582
 20
-0.5003008669852045
 30
0.0
 10
0.9928014800749637
 20
-0.5008183564365782
 30
0.0
 10
1.054650580074516
 20
-0.5018267476334035
 30
0.0
 10
1.144536793617953
 20
-0.5089381855517793
 30
0.0
 10
1.228816805639876
 20
-0.5210850341213578
 30
0.0
 10
1.307326499840369
 20
-0.5387576921730419
 30
0.0
 10
1.380511047303035
 20
-0.5604166555801849
 30
0.0
 10
1.4479874767237
 20
-0.5879574162352997
 30
0.0
 10
1.509789392616653
 20
-0.6201686028956543
 30
0.0
 10
1.565815369632201
 20
-0.6574685320014616
 30
0.0
 10
1.615709265380777
 20
-0.6990076458133904
 30
0.0
 10
1.659322522494842
 20
-0.7444970902347747
 30
0.0
 10
1.696171323821047
 20
-0.793712480198102
 30
0.0
 10
1.726380633540816
 20
-0.8467136868813528
 30
0.0
 10
1.74959977810515
 20
-0.9036572740210546
 30
0.0
 10
1.765805551214416
 20
-0.964351040052467
 30
0.0
 10
1.776718642399933
 20
-1.028630020716407
 30
0.0
 10
1.777609871075674
 20
-1.072877597013506
 30
0.0
 10
1.778066781850962
 20
-1.095562228849083
 30
0.0
  0
SPLINE
  5
A6
330
1F
100
AcDbEntity
  8
0
  6
Continuous
 62
     7
370
    15
100
AcDbSpline
210
0.0
220
0.0
230
1.0
 70
     8
 71
     3
 72
    23
 73
    19
 74
     0
 42
0.000000001
 43
0.00000001
 40
0.0
 40
0.0
 40
0.0
 40
0.0
 40
0.0584066611969785
 40
0.1141218821449986
 40
0.1681292896468827
 40
0.2213188012968555
 40
0.2739831988080623
 40
0.3269865391762147
 40
0.3805812129985205
 40
0.4358472144183494
 40
0.4927001954075486
 40
0.5524622586702745
 40
0.615018838395154
 40
0.6815420790901294
 40
0.7530793431800247
 40
0.829995652496493
 40
0.912188291193791
 40
1.0
 40
1.0
 40
1.0
 40
1.0
 10
0.9759816797370584
 20
29.63530933851025
 30
0.0
 10
0.9572557357805205
 20
29.63486072550985
 30
0.0
 10
0.9206667590188694
 20
29.63398417206693
 30
0.0
 10
0.8673177660296212
 20
29.62579375128493
 30
0.0
 10
0.816399261820908
 20
29.61387868810941
 30
0.0
 10
0.768473615383782
 20
29.59544822420188
 30
0.0
 10
0.7227941642110822
 20
29.57283729496217
 30
0.0
 10
0.6798923419877917
 20
29.54496209283984
 30
0.0
 10
0.6400641582467481
 20
29.51159260738781
 30
0.0
 10
0.6029017939133354
 20
29.47354085028047
 30
0.0
 10
0.5690881512845954
 20
29.42991311070379
 30
0.0
 10
0.5396939041425556
 20
29.38041117340083
 30
0.0
 10
0.5157490644641812
 20
29.32471312968321
 30
0.0
 10
0.4956534211851495
 20
29.26359085016875
 30
0.0
 10
0.4797442830880695
 20
29.1964858186876
 30
0.0
 10
0.4687166760556633
 20
29.12335598758232
 30
0.0
 10
0.4619420183303761
 20
29.04446439185422
 30
0.0
 10
0.4613078443082876
 20
28.98998566046382
 30
0.0
 10
0.4609802767761752
 20
28.96184596540756
 30
0.0
  0
SPLINE
  5
A7
330
1F
100
AcDbEntity
  8
0
  6
Continuous
 62
     7
370
    15
100
AcDbSpline
210
0.0
220
0.0
230
1.0
 70
     8
 71
     3
 72
    15
 73
    11
 74
     0
 42
0.000000001
 43
0.00000001
 40
0.0
 40
0.0
 40
0.0
 40
0.0
 40
0.142715839104359
 40
0.2729535472130238
 40
0.3965002722346407
 40
0.5155113997515823
 40
0.6326696022434305
 40
0.7505932798697568
 40
0.8712561863787887
 40
1.0
 40
1.0
 40
1.0
 40
1.0
 10
1.382940830328526
 20
29.30603771224156
 30
0.0
 10
1.375305492341239
 20
29.33203972266001
 30
0.0
 10
1.360702399924311
 20
29.3817702993285
 30
0.0
 10
1.32724783970909
 20
29.44958419719754
 30
0.0
 10
1.285309999647239
 20
29.50693495864425
 30
0.0
 10
1.235300825552999
 20
29.55393015699005
 30
0.0
 10
1.178376593937116
 20
29.59018130524371
 30
0.0
 10
1.116074398547489
 20
29.61678062577441
 30
0.0
 10
1.047760103116391
 20
29.63261243574286
 30
0.0
 10
1.000419111756253
 20
29.63439116038739
 30
0.0
 10
0.9759816797370584
 20
29.63530933851025
 30
0.0
  0
SPLINE
  5
A9
330
1F
100
AcDbEntity
  8
0
  6
Continuous
 62
     7
370
    15
100
AcDbSpline
210
0.0
220
0.0
230
1.0
 70
     8
 71
     3
 72
    23
 73
    19
 74
     0
 42
0.000000001
 43
0.00000001
 40
0.0
 40
0.0
 40
0.0
 40
0.0
 40
0.0707943230534224
 40
0.1389298324832417
 40
0.2037607594708682
 40
0.2672467575116192
 40
0.3282853358830966
 40
0.3884839678730246
 40
0.4477110284206497
 40
0.5064941857138786
 40
0.5653730438397316
 40
0.6238493245894223
 40
0.6824322548213263
 40
0.7424292635452341
 40
0.8034999168418734
 40
0.8668024987063219
 40
0.9320605747387651
 40
1.0
 40
1.0
 40
1.0
 40
1.0
 10
0.9739237320728791
 20
29.93165380215208
 30
0.0
 10
0.9984656966096619
 20
29.93113959876884
 30
0.0
 10
1.046627906160447
 20
29.93013050387516
 30
0.0
 10
1.116958271447067
 20
29.92283374315751
 30
0.0
 10
1.184097536371006
 20
29.91108998537166
 30
0.0
 10
1.247607219765062
 20
29.89419630483487
 30
0.0
 10
1.307949110996963
 20
29.87251855281646
 30
0.0
 10
1.364564021530968
 20
29.84569630608354
 30
0.0
 10
1.417831373935174
 20
29.81423850950021
 30
0.0
 10
1.467415763143754
 20
29.77802483612155
 30
0.0
 10
1.513270616466449
 20
29.73754635869765
 30
0.0
 10
1.554404630504596
 20
29.69240531935113
 30
0.0
 10
1.591986312650175
 20
29.64376627822618
 30
0.0
 10
1.624577988299892
 20
29.59060572107767
 30
0.0
 10
1.653917721032969
 20
29.53372663036783
 30
0.0
 10
1.677577654571071
 20
29.47231699358702
 30
0.0
 10
1.698180887002176
 20
29.40730375555057
 30
0.0
 10
1.707472915280128
 20
29.36204817616007
 30
0.0
 10
1.712212456597222
 20
29.33896487486843
 30
0.0
  0
SPLINE
  5
AA
330
1F
100
AcDbEntity
  8
0
  6
Continuous
 62
     7
370
    15
100
AcDbSpline
210
0.0
220
0.0
230
1.0
 70
     8
 71
     3
 72
    27
 73
    23
 74
     0
 42
0.000000001
 43
0.00000001
 40
0.0
 40
0.0
 40
0.0
 40
0.0
 40
0.050690283430983
 40
0.1000635180832716
 40
0.147867732449911
 40
0.1942129653625855
 40
0.239564025108642
 40
0.2837979329773092
 40
0.3268684827035951
 40
0.3693483226365371
 40
0.4107472387178379
 40
0.4514324179410428
 40
0.490874771310048
 40
0.5299004017152509
 40
0.5687255648387814
 40
0.6073956920087534
 40
0.6461825534164926
 40
0.685355489726307
 40
0.7637495666849626
 40
0.8415441171398106
 40
0.9199579414140393
 40
1.0
 40
1.0
 40
1.0
 40
1.0
 10
0.1317086505074786
 20
28.9530996878348
 30
0.0
 10
0.1319975832446327
 20
28.97780251033038
 30
0.0
 10
0.1325679415897074
 20
29.02656631984547
 30
0.0
 10
0.1373072570079302
 20
29.09849777929578
 30
0.0
 10
0.1449107489707916
 20
29.16804624717819
 30
0.0
 10
0.1558170728131855
 20
29.23516553189009
 30
0.0
 10
0.1693993265012215
 20
29.30003971090045
 30
0.0
 10
0.1871856552242513
 20
29.36222700946065
 30
0.0
 10
0.2071702707601485
 20
29.42225118851106
 30
0.0
 10
0.2301812006305015
 20
29.47971934984564
 30
0.0
 10
0.2563929557223344
 20
29.53451903334548
 30
0.0
 10
0.2860416252223749
 20
29.58586889370042
 30
0.0
 10
0.3193729475953896
 20
29.63347365168239
 30
0.0
 10
0.3552682987354438
 20
29.67803536616425
 30
0.0
 10
0.3950686375106851
 20
29.71864505205982
 30
0.0
 10
0.437889116260082
 20
29.75583962151698
 30
0.0
 10
0.4838384388937377
 20
29.78941506906819
 30
0.0
 10
0.5490504713446921
 20
29.82893703667735
 30
0.0
 10
0.635266322512605
 20
29.86999217400005
 30
0.0
 10
0.7441027056869933
 20
29.90581450628718
 30
0.0
 10
0.857649884473956
 20
29.92747965024346
 30
0.0
 10
0.934901180913336
 20
29.93025291915245
 30
0.0
 10
0.9739237320728791
 20
29.93165380215208
 30
0.0
  0
SPLINE
  5
AB
330
1F
100
AcDbEntity
  8
0
  6
Continuous
 62
     7
370
    15
100
AcDbSpline
210
0.0
220
0.0
230
1.0
 70
     8
 71
     3
 72
    23
 73
    19
 74
     0
 42
0.000000001
 43
0.00000001
 40
0.0
 40
0.0
 40
0.0
 40
0.0
 40
0.0639498672177046
 40
0.1254946017888969
 40
0.1845533755380323
 40
0.2420230069555769
 40
0.2985444520267476
 40
0.3549777922671624
 40
0.4116328053349187
 40
0.4696120076245996
 40
0.5283724731311934
 40
0.5879346249577466
 40
0.6492044675034591
 40
0.7125546523149701
 40
0.7787663150145152
 40
0.8483844368310824
 40
0.9222313633972469
 40
1.0
 40
1.0
 40
1.0
 40
1.0
 10
0.974438218988924
 20
27.98895120716677
 30
0.0
 10
0.9435384121414873
 20
27.98981243880981
 30
0.0
 10
0.882900929619876
 20
27.99150251146818
 30
0.0
 10
0.7942467086792213
 20
28.00266522004884
 30
0.0
 10
0.7103287127174193
 20
28.02233904966495
 30
0.0
 10
0.6311606306166269
 20
28.04967731618179
 30
0.0
 10
0.5564205127474016
 20
28.08470043171077
 30
0.0
 10
0.486879905826177
 20
28.12837580493616
 30
0.0
 10
0.4213753031355952
 20
28.17903209614763
 30
0.0
 10
0.3613325233416073
 20
28.23772114107176
 30
0.0
 10
0.3070804066137483
 20
28.30364315771674
 30
0.0
 10
0.2602167158342354
 20
28.3768779368477
 30
0.0
 10
0.2197554114915502
 20
28.45633022332424
 30
0.0
 10
0.1875349553389625
 20
28.54291135886045
 30
0.0
 10
0.1623484460431058
 20
28.6359264920347
 30
0.0
 10
0.1445536956862609
 20
28.73577021053506
 30
0.0
 10
0.133647664515198
 20
28.84224166146402
 30
0.0
 10
0.132366038749058
 20
28.91551524402433
 30
0.0
 10
0.1317086505074786
 20
28.9530996878348
 30
0.0
  0
SPLINE
  5
AC
330
1F
100
AcDbEntity
  8
0
  6
Continuous
 62
     7
370
    15
100
AcDbSpline
210
0.0
220
0.0
230
1.0
 70
     8
 71
     3
 72
    23
 73
    19
 74
     0
 42
0.000000001
 43
0.00000001
 40
0.0
 40
0.0
 40
0.0
 40
0.0
 40
0.0703931279561342
 40
0.1382680187117678
 40
0.2040390756907478
 40
0.2671513359044228
 40
0.3294997356059902
 40
0.3901957552528308
 40
0.4507974374266051
 40
0.5118559648655749
 40
0.5720041264576079
 40
0.6316816272501442
 40
0.6909261288244676
 40
0.7501085147579731
 40
0.8101631795397897
 40
0.8716020336881491
 40
0.9348501306341936
 40
1.0
 40
1.0
 40
1.0
 40
1.0
 10
1.745139619224092
 20
28.68042162233104
 30
0.0
 10
1.740582778154809
 20
28.65409493208545
 30
0.0
 10
1.731632112024065
 20
28.60238336015808
 30
0.0
 10
1.711309306284646
 20
28.52757436426099
 30
0.0
 10
1.686316374044795
 20
28.45715578241944
 30
0.0
 10
1.656134219055319
 20
28.39108298740847
 30
0.0
 10
1.62142165025299
 20
28.32946623907825
 30
0.0
 10
1.581397849371913
 20
28.27229746494814
 30
0.0
 10
1.536410623026761
 20
28.21961238122735
 30
0.0
 10
1.486861536471533
 20
28.17145777622877
 30
0.0
 10
1.433005446792634
 20
28.12879299808182
 30
0.0
 10
1.376523852701514
 20
28.09085103398685
 30
0.0
 10
1.316485547964847
 20
28.05959204166178
 30
0.0
 10
1.25386864194115
 20
28.0335888715769
 30
0.0
 10
1.188205810210135
 20
28.0135679652354
 30
0.0
 10
1.119546333531587
 20
27.99903488062771
 30
0.0
 10
1.047859947527803
 20
27.99095302060693
 30
0.0
 10
0.999152605518599
 20
27.98962503482113
 30
0.0
 10
0.974438218988924
 20
27.98895120716677
 30
0.0
  0
SPLINE
  5
AE
330
1F
100
AcDbEntity
  8
0
  6
Continuous
 62
     7
370
    15
100
AcDbSpline
210
0.0
220
0.0
230
1.0
 70
     8
 71
     3
 72
    23
 73
    19
 74
     0
 42
0.000000001
 43
0.00000001
 40
0.0
 40
0.0
 40
0.0
 40
0.0
 40
0.0634355916731766
 40
0.1250473001475677
 40
0.1851646982754363
 40
0.2427440634809755
 40
0.2999454100820468
 40
0.3569860715869709
 40
0.413674566492147
 40
0.4709827861906619
 40
0.5290048540190747
 40
0.5884101726847176
 40
0.6492267407989858
 40
0.7126228592892977
 40
0.779119543658896
 40
0.8489340010812497
 40
0.9220145797578322
 40
1.0
 40
1.0
 40
1.0
 40
1.0
 10
0.9631195068359375
 20
28.2852956708086
 30
0.0
 10
0.9777141639322837
 20
28.28553398126664
 30
0.0
 10
1.006483856439926
 20
28.28600375034405
 30
0.0
 10
1.048782224953979
 20
28.29146668571495
 30
0.0
 10
1.08925545769519
 20
28.29947791188043
 30
0.0
 10
1.127907022604676
 20
28.31084898176382
 30
0.0
 10
1.164479287530956
 20
28.32595169040075
 30
0.0
 10
1.199491674004357
 20
28.34389333806254
 30
0.0
 10
1.232763433529527
 20
28.36502296874142
 30
0.0
 10
1.263500211392766
 20
28.38999135713247
 30
0.0
 10
1.292836942983109
 20
28.41758307648616
 30
0.0
 10
1.318236173900476
 20
28.44988589052941
 30
0.0
 10
1.34168587107532
 20
28.48504767748514
 30
0.0
 10
1.362175776438437
 20
28.52389156956031
 30
0.0
 10
1.380338947814159
 20
28.56613702436378
 30
0.0
 10
1.394878810754164
 20
28.6120825725807
 30
0.0
 10
1.407674912435641
 20
28.66129027975604
 30
0.0
 10
1.413078484687987
 20
28.69562436124457
 30
0.0
 10
1.415867992955395
 20
28.7133487849579
 30
0.0
  0
SPLINE
  5
AF
330
1F
100
AcDbEntity
  8
0
  6
Continuous
 62
     7
370
    15
100
AcDbSpline
210
0.0
220
0.0
230
1.0
 70
     8
 71
     3
 72
    23
 73
    19
 74
     0
 42
0.000000001
 43
0.00000001
 40
0.0
 40
0.0
 40
0.0
 40
0.0
 40
0.0899635826115754
 40
0.1731952033098787
 40
0.2510337911945137
 40
0.3239351914471536
 40
0.3910489338120036
 40
0.4544813014175076
 40
0.5140659219026015
 40
0.5706136326226989
 40
0.6250817441268769
 40
0.6782456218282151
 40
0.7302261237220061
 40
0.7822512440805739
 40
0.8345682288635056
 40
0.8878601566774097
 40
0.9428502667304499
 40
1.0
 40
1.0
 40
1.0
 40
1.0
 10
0.4609802767761752
 20
28.96184596540756
 30
0.0
 10
0.4612840456206495
 20
28.9331892364521
 30
0.0
 10
0.4618688523307719
 20
28.87802015743639
 30
0.0
 10
0.468876222610735
 20
28.79832989167648
 30
0.0
 10
0.4792142020663375
 20
28.72447913059386
 30
0.0
 10
0.4947935613445367
 20
28.65681759647297
 30
0.0
 10
0.5134051266772746
 20
28.59465793355383
 30
0.0
 10
0.5377389768242703
 20
28.53907240593227
 30
0.0
 10
0.5659406472833096
 20
28.48918762676033
 30
0.0
 10
0.5986577786990798
 20
28.44563555721712
 30
0.0
 10
0.634903897617977
 20
28.40777489231994
 30
0.0
 10
0.6742761609024093
 20
28.37550678333531
 30
0.0
 10
0.715611188261119
 20
28.34711099521138
 30
0.0
 10
0.7601312522075983
 20
28.32454860321366
 30
0.0
 10
0.8072339565956885
 20
28.30687068048732
 30
0.0
 10
0.8570031678713749
 20
28.29476616167833
 30
0.0
 10
0.9091771036267324
 20
28.2866574279043
 30
0.0
 10
0.9449093251024703
 20
28.28575538047511
 30
0.0
 10
0.9631195068359375
 20
28.2852956708086
 30
0.0
  0
SPLINE
  5
B1
330
1F
100
AcDbEntity
  8
0
  6
Continuous
 62
     7
370
    15
100
AcDbSpline
210
0.0
220
0.0
230
1.0
 70
     8
 71
     3
 72
     9
 73
     5
 74
     0
 42
0.000000001
 43
0.00000001
 40
0.0
 40
0.0
 40
0.0
 40
0.0
 40
0.4146077280383464
 40
1.0
 40
1.0
 40
1.0
 40
1.0
 10
1.843921107104701
 20
9.157322391426169
 30
0.0
 10
1.843764419196147
 20
9.14566042487073
 30
0.0
 10
1.843386500749486
 20
9.117532713381571
 30
0.0
 10
1.842750157044044
 20
9.089409593964831
 30
0.0
 10
1.842377646356566
 20
9.072946537194815
 30
0.0
  0
SPLINE
  5
B2
330
1F
100
AcDbEntity
  8
0
  6
Continuous
 62
     7
370
    15
100
AcDbSpline
210
0.0
220
0.0
230
1.0
 70
     8
 71
     3
 72
    23
 73
    19
 74
     0
 42
0.000000001
 43
0.00000001
 40
0.0
 40
0.0
 40
0.0
 40
0.0
 40
0.0628327012163941
 40
0.1229654286939636
 40
0.1816288039489557
 40
0.2388323520060563
 40
0.2952935041873489
 40
0.3521674350071319
 40
0.4094906731189476
 40
0.4684235402869527
 40
0.5283583088828305
 40
0.5885537443107106
 40
0.6502482991009643
 40
0.7136706736682866
 40
0.7802618417620739
 40
0.8495363583234044
 40
0.9226519106314429
 40
1.0
 40
1.0
 40
1.0
 40
1.0
 10
0.9991335909590761
 20
10.12661574125465
 30
0.0
 10
1.029530515371324
 20
10.12583407962216
 30
0.0
 10
1.089018182922928
 20
10.12430434501148
 30
0.0
 10
1.17616962574519
 20
10.11202654315076
 30
0.0
 10
1.25921441297299
 20
10.09284040689922
 30
0.0
 10
1.337978192534844
 20
10.06497359302953
 30
0.0
 10
1.412064552853212
 20
10.02839375725065
 30
0.0
 10
1.482273629833096
 20
9.984734879929038
 30
0.0
 10
1.548114967709121
 20
9.932733397361106
 30
0.0
 10
1.60916629590766
 20
9.873097868634435
 30
0.0
 10
1.664793143180431
 20
9.806497863121576
 30
0.0
 10
1.712911201104394
 20
9.732675093110595
 30
0.0
 10
1.753655225816566
 20
9.652667620057583
 30
0.0
 10
1.786684355343948
 20
9.565863777078109
 30
0.0
 10
1.812108966214176
 20
9.472763887358791
 30
0.0
 10
1.830528420699878
 20
9.37330699784648
 30
0.0
 10
1.842144600458085
 20
9.267526924065212
 30
0.0
 10
1.843317936257283
 20
9.19473973600398
 30
0.0
 10
1.843921107104701
 20
9.157322391426169
 30
0.0
  0
SPLINE
  5
B3
330
1F
100
AcDbEntity
  8
0
  6
Continuous
 62
     7
370
    15
100
AcDbSpline
210
0.0
220
0.0
230
1.0
 70
     8
 71
     3
 72
    23
 73
    19
 74
     0
 42
0.000000001
 43
0.00000001
 40
0.0
 40
0.0
 40
0.0
 40
0.0
 40
0.0770192486680557
 40
0.1495479024162754
 40
0.2187135099120816
 40
0.284923112135279
 40
0.3481592766058957
 40
0.4097277041995571
 40
0.4698385380871203
 40
0.529420954571385
 40
0.5882764566340948
 40
0.6457897074994394
 40
0.7024689920772347
 40
0.7593896103244643
 40
0.8167479402414038
 40
0.8756208054666026
 40
0.9364820909603189
 40
1.0
 40
1.0
 40
1.0
 40
1.0
 10
0.1317086505074786
 20
9.139315349364598
 30
0.0
 10
0.1323182353581526
 20
9.177416451330064
 30
0.0
 10
0.1335018633127166
 20
9.25139717663215
 30
0.0
 10
0.1450071190961095
 20
9.359112971778174
 30
0.0
 10
0.1640344351184011
 20
9.460247603382111
 30
0.0
 10
0.1898539539751836
 20
9.5551679947241
 30
0.0
 10
0.2240665250444328
 20
9.643415608112042
 30
0.0
 10
0.2658120637740324
 20
9.724958271014115
 30
0.0
 10
0.3148324473103619
 20
9.800237480217287
 30
0.0
 10
0.3716011949680948
 20
9.86815090490482
 30
0.0
 10
0.4344161987485326
 20
9.928542506263382
 30
0.0
 10
0.501281674003402
 20
9.982243955764115
 30
0.0
 10
0.5736009420720654
 20
10.0265619791371
 30
0.0
 10
0.6498957493543922
 20
10.06335785636177
 30
0.0
 10
0.7309014298881416
 20
10.09162814597974
 30
0.0
 10
0.8161189793565147
 20
10.11244782354611
 30
0.0
 10
0.906197264204555
 20
10.1241957969718
 30
0.0
 10
0.9677168153035651
 20
10.12579768819307
 30
0.0
 10
0.9991335909590761
 20
10.12661574125465
 30
0.0
  0
SPLINE
  5
B4
330
1F
100
AcDbEntity
  8
0
  6
Continuous
 62
     7
370
    15
100
AcDbSpline
210
0.0
220
0.0
230
1.0
 70
     8
 71
     3
 72
    23
 73
    19
 74
     0
 42
0.000000001
 43
0.00000001
 40
0.0
 40
0.0
 40
0.0
 40
0.0
 40
0.0673510228838027
 40
0.1313136075111432
 40
0.1930714529961528
 40
0.2525019830750466
 40
0.3107047505741053
 40
0.3679301358078691
 40
0.4254606235585177
 40
0.4834247854969388
 40
0.5420438126713624
 40
0.6011296842102022
 40
0.66101971846951
 40
0.7228533048760754
 40
0.7874137013423689
 40
0.8544970481116899
 40
0.9253447936235374
 40
1.0
 40
1.0
 40
1.0
 40
1.0
 10
1.016626146104601
 20
8.183913146269335
 30
0.0
 10
0.983489226606969
 20
8.18469184880704
 30
0.0
 10
0.9188825101128862
 20
8.186210077261872
 30
0.0
 10
0.8245322692606905
 20
8.19838969561423
 30
0.0
 10
0.7354106981567333
 20
8.217656496175975
 30
0.0
 10
0.651323709085339
 20
8.24495416841006
 30
0.0
 10
0.5728101650988282
 20
8.280528033954694
 30
0.0
 10
0.4996706868381465
 20
8.324280072794911
 30
0.0
 10
0.4314503392349774
 20
8.375199465401492
 30
0.0
 10
0.3691311499724126
 20
8.43418294217606
 30
0.0
 10
0.3127472380705233
 20
8.499920919686042
 30
0.0
 10
0.2645930724367391
 20
8.573015790709714
 30
0.0
 10
0.2228297873019527
 20
8.6517157880569
 30
0.0
 10
0.1896139157204525
 20
8.737299304216895
 30
0.0
 10
0.1633598867159319
 20
8.828909447447376
 30
0.0
 10
0.1451437458147702
 20
8.92693608743273
 30
0.0
 10
0.133489061586425
 20
9.030990305493098
 30
0.0
 10
0.1323123844666528
 20
9.102582536146564
 30
0.0
 10
0.1317086505074786
 20
9.139315349364598
 30
0.0
  0
SPLINE
  5
B5
330
1F
100
AcDbEntity
  8
0
  6
Continuous
 62
     7
370
    15
100
AcDbSpline
210
0.0
220
0.0
230
1.0
 70
     8
 71
     3
 72
    23
 73
    19
 74
     0
 42
0.000000001
 43
0.00000001
 40
0.0
 40
0.0
 40
0.0
 40
0.0
 40
0.0635748979767541
 40
0.1250642597775943
 40
0.1849336484558783
 40
0.244032893673603
 40
0.3022807294274891
 40
0.3603762054010029
 40
0.4187937394674643
 40
0.4776235961368602
 40
0.5373852229070707
 40
0.5974753024433862
 40
0.6592224510758354
 40
0.7221933847447826
 40
0.7877173144012676
 40
0.8557136680026819
 40
0.9260858329442837
 40
1.0
 40
1.0
 40
1.0
 40
1.0
 10
1.833631368783804
 20
8.743674910926119
 30
0.0
 10
1.827017132773721
 20
8.72191584376215
 30
0.0
 10
1.814005636775759
 20
8.679111502506137
 30
0.0
 10
1.78760524232064
 20
8.618402001639994
 30
0.0
 10
1.758594774431751
 20
8.560725095343978
 30
0.0
 10
1.724319497096536
 20
8.507337627734005
 30
0.0
 10
1.686711188956095
 20
8.457103352043896
 30
0.0
 10
1.645024697412786
 20
8.410422956611946
 30
0.0
 10
1.598348808137709
 20
8.368474259369359
 30
0.0
 10
1.548418476418716
 20
8.329505442770783
 30
0.0
 10
1.494402919257447
 20
8.295258419626615
 30
0.0
 10
1.436871535027475
 20
8.265022380205583
 30
0.0
 10
1.375613664280829
 20
8.240068620763887
 30
0.0
 10
1.310804138405997
 20
8.219280742947063
 30
0.0
 10
1.242294815032284
 20
8.20342592517495
 30
0.0
 10
1.170212797284516
 20
8.192472693507268
 30
0.0
 10
1.094653188866454
 20
8.184712746963163
 30
0.0
 10
1.043057359133868
 20
8.184184006416395
 30
0.0
 10
1.016626146104601
 20
8.183913146269335
 30
0.0
  0
SPLINE
  5
B7
330
1F
100
AcDbEntity
  8
0
  6
Continuous
 62
     7
370
    15
100
AcDbSpline
210
0.0
220
0.0
230
1.0
 70
     8
 71
     3
 72
    15
 73
    11
 74
     0
 42
0.000000001
 43
0.00000001
 40
0.0
 40
0.0
 40
0.0
 40
0.0
 40
0.1370390155820429
 40
0.2654791971992586
 40
0.3867575550777082
 40
0.5038673484006009
 40
0.6203204603896466
 40
0.7397674030522728
 40
0.8654537421739027
 40
1.0
 40
1.0
 40
1.0
 40
1.0
 10
1.021771015265049
 20
8.480257609911162
 30
0.0
 10
1.049599056065511
 20
8.481189338116224
 30
0.0
 10
1.103509002075828
 20
8.482994331058103
 30
0.0
 10
1.18129616951135
 20
8.495657654855314
 30
0.0
 10
1.25260033661988
 20
8.517985635827738
 30
0.0
 10
1.317922596372706
 20
8.548979797266378
 30
0.0
 10
1.377154551063862
 20
8.590065073338643
 30
0.0
 10
1.428839403411736
 20
8.64265346771769
 30
0.0
 10
1.474791067578998
 20
8.704980154081877
 30
0.0
 10
1.49869116864618
 20
8.752192303053297
 30
0.0
 10
1.511048072423691
 20
8.77660207355299
 30
0.0
  0
SPLINE
  5
B8
330
1F
100
AcDbEntity
  8
0
  6
Continuous
 62
     7
370
    15
100
AcDbSpline
210
0.0
220
0.0
230
1.0
 70
     8
 71
     3
 72
    23
 73
    19
 74
     0
 42
0.000000001
 43
0.00000001
 40
0.0
 40
0.0
 40
0.0
 40
0.0
 40
0.0765455721216717
 40
0.1497537367217167
 40
0.2188821459239482
 40
0.2850992357786238
 40
0.3487657214459046
 40
0.4102328089334398
 40
0.4708571804914958
 40
0.5303866472297858
 40
0.5895376681109478
 40
0.6468840444272834
 40
0.7042887151122098
 40
0.7613678447253176
 40
0.818480448564515
 40
0.8769435490068913
 40
0.9372887989248875
 40
1.0
 40
1.0
 40
1.0
 40
1.0
 10
0.4609802767761752
 20
9.072946537194815
 30
0.0
 10
0.4628865081123571
 20
9.049757326516257
 30
0.0
 10
0.4666158585860268
 20
9.004389960978488
 30
0.0
 10
0.4774911895748646
 20
8.938706384153571
 30
0.0
 10
0.4921677114496242
 20
8.876977289331098
 30
0.0
 10
0.5119240400274379
 20
8.819746206487999
 30
0.0
 10
0.535262842383759
 20
8.766372164313113
 30
0.0
 10
0.5641056740025492
 20
8.717733085531727
 30
0.0
 10
0.5962390406212272
 20
8.672748687190804
 30
0.0
 10
0.6331594791252151
 20
8.632515716235217
 30
0.0
 10
0.6730037933756233
 20
8.596728819262069
 30
0.0
 10
0.7156419890280007
 20
8.565335648127336
 30
0.0
 10
0.7609984516105422
 20
8.53929749561978
 30
0.0
 10
0.8084170263836
 20
8.517407789396492
 30
0.0
 10
0.8583408296142294
 20
8.500935757798882
 30
0.0
 10
0.9105420268105303
 20
8.489147884916816
 30
0.0
 10
0.9653119563894947
 20
8.481773024696892
 30
0.0
 10
1.002711639995794
 20
8.48076918165297
 30
0.0
 10
1.021771015265049
 20
8.480257609911162
 30
0.0
  0
SPLINE
  5
C1
330
1F
100
AcDbEntity
  8
0
  6
Continuous
 62
     7
370
    15
100
AcDbSpline
210
0.0
220
0.0
230
1.0
 70
     8
 71
     3
 72
    23
 73
    19
 74
     0
 42
0.000000001
 43
0.00000001
 40
0.0
 40
0.0
 40
0.0
 40
0.0
 40
0.0584066611969785
 40
0.114121882144998
 40
0.1681292896468829
 40
0.2213188012968557
 40
0.2739831988080608
 40
0.3269865391762151
 40
0.380581212998521
 40
0.4358472144183498
 40
0.4927001954075489
 40
0.5524622586702749
 40
0.6150188383951544
 40
0.6815420790901296
 40
0.7530793431800249
 40
0.8299956524964931
 40
0.9121882911937875
 40
1.0
 40
1.0
 40
1.0
 40
1.0
 10
0.9759816797370584
 20
19.73279030806154
 30
0.0
 10
0.9572557357805207
 20
19.73234169506113
 30
0.0
 10
0.9206667590188697
 20
19.73146514161821
 30
0.0
 10
0.8673177660296205
 20
19.72327472083622
 30
0.0
 10
0.8163992618209084
 20
19.71135965766069
 30
0.0
 10
0.7684736153837831
 20
19.69292919375317
 30
0.0
 10
0.7227941642110804
 20
19.67031826451346
 30
0.0
 10
0.6798923419877924
 20
19.6424430623911
 30
0.0
 10
0.6400641582467482
 20
19.60907357693911
 30
0.0
 10
0.6029017939133354
 20
19.57102181983175
 30
0.0
 10
0.5690881512845953
 20
19.52739408025508
 30
0.0
 10
0.5396939041425554
 20
19.4778921429521
 30
0.0
 10
0.5157490644641811
 20
19.42219409923448
 30
0.0
 10
0.4956534211851497
 20
19.36107181972005
 30
0.0
 10
0.4797442830880696
 20
19.29396678823888
 30
0.0
 10
0.4687166760556634
 20
19.2208369571336
 30
0.0
 10
0.4619420183303761
 20
19.14194536140551
 30
0.0
 10
0.4613078443082875
 20
19.0874666300151
 30
0.0
 10
0.4609802767761752
 20
19.05932693495884
 30
0.0
  0
SPLINE
  5
C2
330
1F
100
AcDbEntity
  8
0
  6
Continuous
 62
     7
370
    15
100
AcDbSpline
210
0.0
220
0.0
230
1.0
 70
     8
 71
     3
 72
    15
 73
    11
 74
     0
 42
0.000000001
 43
0.00000001
 40
0.0
 40
0.0
 40
0.0
 40
0.0
 40
0.1427158391043588
 40
0.2729535472130236
 40
0.3965002722346404
 40
0.5155113997515861
 40
0.6326696022434309
 40
0.7505932798697571
 40
0.8712561863787889
 40
1.0
 40
1.0
 40
1.0
 40
1.0
 10
1.382940830328526
 20
19.40351868179284
 30
0.0
 10
1.375305492341239
 20
19.42952069221129
 30
0.0
 10
1.360702399924312
 20
19.47925126887978
 30
0.0
 10
1.32724783970909
 20
19.54706516674882
 30
0.0
 10
1.285309999647238
 20
19.60441592819553
 30
0.0
 10
1.235300825553002
 20
19.65141112654134
 30
0.0
 10
1.178376593937115
 20
19.68766227479499
 30
0.0
 10
1.116074398547489
 20
19.71426159532569
 30
0.0
 10
1.047760103116391
 20
19.73009340529413
 30
0.0
 10
1.000419111756252
 20
19.73187212993866
 30
0.0
 10
0.9759816797370584
 20
19.73279030806154
 30
0.0
  0
SPLINE
  5
C4
330
1F
100
AcDbEntity
  8
0
  6
Continuous
 62
     7
370
    15
100
AcDbSpline
210
0.0
220
0.0
230
1.0
 70
     8
 71
     3
 72
    23
 73
    19
 74
     0
 42
0.000000001
 43
0.00000001
 40
0.0
 40
0.0
 40
0.0
 40
0.0
 40
0.0707943230534223
 40
0.1389298324832416
 40
0.2037607594708686
 40
0.2672467575116196
 40
0.3282853358830968
 40
0.3884839678730249
 40
0.4477110284206482
 40
0.5064941857138789
 40
0.565373043839732
 40
0.6238493245894201
 40
0.6824322548213267
 40
0.7424292635452344
 40
0.8034999168418737
 40
0.8668024987063221
 40
0.9320605747387652
 40
1.0
 40
1.0
 40
1.0
 40
1.0
 10
0.9739237320728791
 20
20.02913477170337
 30
0.0
 10
0.9984656966096619
 20
20.02862056832013
 30
0.0
 10
1.046627906160446
 20
20.02761147342644
 30
0.0
 10
1.116958271447068
 20
20.02031471270881
 30
0.0
 10
1.184097536371005
 20
20.00857095492293
 30
0.0
 10
1.247607219765061
 20
19.99167727438616
 30
0.0
 10
1.307949110996963
 20
19.96999952236774
 30
0.0
 10
1.364564021530966
 20
19.94317727563482
 30
0.0
 10
1.417831373935176
 20
19.9117194790515
 30
0.0
 10
1.467415763143753
 20
19.87550580567283
 30
0.0
 10
1.513270616466448
 20
19.83502732824893
 30
0.0
 10
1.554404630504598
 20
19.78988628890241
 30
0.0
 10
1.591986312650176
 20
19.74124724777748
 30
0.0
 10
1.624577988299891
 20
19.68808669062894
 30
0.0
 10
1.653917721032969
 20
19.63120759991912
 30
0.0
 10
1.677577654571071
 20
19.5697979631383
 30
0.0
 10
1.698180887002176
 20
19.50478472510185
 30
0.0
 10
1.707472915280128
 20
19.45952914571135
 30
0.0
 10
1.712212456597222
 20
19.43644584441971
 30
0.0
  0
SPLINE
  5
C5
330
1F
100
AcDbEntity
  8
0
  6
Continuous
 62
     7
370
    15
100
AcDbSpline
210
0.0
220
0.0
230
1.0
 70
     8
 71
     3
 72
    27
 73
    23
 74
     0
 42
0.000000001
 43
0.00000001
 40
0.0
 40
0.0
 40
0.0
 40
0.0
 40
0.050690283430983
 40
0.100063518083274
 40
0.147867732449911
 40
0.1942129653625855
 40
0.239564025108642
 40
0.2837979329773092
 40
0.3268684827035951
 40
0.3693483226365393
 40
0.4107472387178379
 40
0.4514324179410448
 40
0.49087477131005
 40
0.529900401715251
 40
0.5687255648387816
 40
0.6073956920087537
 40
0.6461825534164927
 40
0.6853554897263071
 40
0.7637495666849627
 40
0.8415441171398099
 40
0.9199579414140391
 40
1.0
 40
1.0
 40
1.0
 40
1.0
 10
0.1317086505074786
 20
19.05058065738608
 30
0.0
 10
0.1319975832446327
 20
19.07528347988166
 30
0.0
 10
0.1325679415897076
 20
19.12404728939676
 30
0.0
 10
0.1373072570079298
 20
19.19597874884706
 30
0.0
 10
0.1449107489707919
 20
19.26552721672947
 30
0.0
 10
0.1558170728131854
 20
19.33264650144137
 30
0.0
 10
0.1693993265012216
 20
19.39752068045173
 30
0.0
 10
0.1871856552242511
 20
19.45970797901193
 30
0.0
 10
0.2071702707601495
 20
19.51973215806234
 30
0.0
 10
0.2301812006304995
 20
19.57720031939692
 30
0.0
 10
0.2563929557223366
 20
19.63200000289677
 30
0.0
 10
0.2860416252223738
 20
19.6833498632517
 30
0.0
 10
0.3193729475953887
 20
19.73095462123368
 30
0.0
 10
0.355268298735445
 20
19.77551633571553
 30
0.0
 10
0.3950686375106849
 20
19.8161260216111
 30
0.0
 10
0.4378891162600819
 20
19.85332059106825
 30
0.0
 10
0.4838384388937377
 20
19.88689603861948
 30
0.0
 10
0.5490504713446921
 20
19.92641800622863
 30
0.0
 10
0.6352663225126036
 20
19.96747314355132
 30
0.0
 10
0.744102705686995
 20
20.00329547583846
 30
0.0
 10
0.8576498844739553
 20
20.02496061979474
 30
0.0
 10
0.9349011809133361
 20
20.02773388870375
 30
0.0
 10
0.9739237320728791
 20
20.02913477170337
 30
0.0
  0
SPLINE
  5
C6
330
1F
100
AcDbEntity
  8
0
  6
Continuous
 62
     7
370
    15
100
AcDbSpline
210
0.0
220
0.0
230
1.0
 70
     8
 71
     3
 72
    23
 73
    19
 74
     0
 42
0.000000001
 43
0.00000001
 40
0.0
 40
0.0
 40
0.0
 40
0.0
 40
0.0639498672177046
 40
0.125494601788897
 40
0.1845533755380324
 40
0.242023006955577
 40
0.2985444520267477
 40
0.3549777922671625
 40
0.4116328053349173
 40
0.4696120076245998
 40
0.5283724731311955
 40
0.5879346249577488
 40
0.6492044675034591
 40
0.7125546523149702
 40
0.7787663150145153
 40
0.8483844368310849
 40
0.9222313633972469
 40
1.0
 40
1.0
 40
1.0
 40
1.0
 10
0.974438218988924
 20
18.08643217671805
 30
0.0
 10
0.9435384121414874
 20
18.08729340836109
 30
0.0
 10
0.8829009296198762
 20
18.08898348101946
 30
0.0
 10
0.7942467086792209
 20
18.10014618960011
 30
0.0
 10
0.7103287127174195
 20
18.11982001921623
 30
0.0
 10
0.6311606306166267
 20
18.14715828573307
 30
0.0
 10
0.5564205127474015
 20
18.18218140126206
 30
0.0
 10
0.4868799058261783
 20
18.22585677448744
 30
0.0
 10
0.4213753031355928
 20
18.27651306569891
 30
0.0
 10
0.3613325233416076
 20
18.33520211062304
 30
0.0
 10
0.3070804066137491
 20
18.40112412726803
 30
0.0
 10
0.2602167158342364
 20
18.47435890639899
 30
0.0
 10
0.2197554114915492
 20
18.55381119287552
 30
0.0
 10
0.1875349553389629
 20
18.64039232841175
 30
0.0
 10
0.1623484460431052
 20
18.73340746158598
 30
0.0
 10
0.1445536956862615
 20
18.83325118008634
 30
0.0
 10
0.1336476645151977
 20
18.9397226310153
 30
0.0
 10
0.1323660387490579
 20
19.01299621357561
 30
0.0
 10
0.1317086505074786
 20
19.05058065738608
 30
0.0
  0
SPLINE
  5
C7
330
1F
100
AcDbEntity
  8
0
  6
Continuous
 62
     7
370
    15
100
AcDbSpline
210
0.0
220
0.0
230
1.0
 70
     8
 71
     3
 72
    23
 73
    19
 74
     0
 42
0.000000001
 43
0.00000001
 40
0.0
 40
0.0
 40
0.0
 40
0.0
 40
0.0703931279561314
 40
0.1382680187117653
 40
0.2040390756907456
 40
0.2671513359044209
 40
0.3294997356059859
 40
0.3901957552528292
 40
0.4507974374266037
 40
0.5118559648655716
 40
0.5720041264576067
 40
0.6316816272501432
 40
0.6909261288244654
 40
0.7501085147579724
 40
0.8101631795397891
 40
0.8716020336881489
 40
0.9348501306341933
 40
1.0
 40
1.0
 40
1.0
 40
1.0
 10
1.745139619224092
 20
18.77790259188231
 30
0.0
 10
1.740582778154809
 20
18.75157590163672
 30
0.0
 10
1.731632112024065
 20
18.69986432970935
 30
0.0
 10
1.711309306284647
 20
18.62505533381227
 30
0.0
 10
1.686316374044795
 20
18.55463675197073
 30
0.0
 10
1.65613421905532
 20
18.48856395695975
 30
0.0
 10
1.621421650252987
 20
18.42694720862953
 30
0.0
 10
1.581397849371914
 20
18.36977843449941
 30
0.0
 10
1.536410623026763
 20
18.31709335077864
 30
0.0
 10
1.486861536471531
 20
18.26893874578006
 30
0.0
 10
1.433005446792635
 20
18.22627396763311
 30
0.0
 10
1.376523852701515
 20
18.18833200353813
 30
0.0
 10
1.316485547964845
 20
18.15707301121307
 30
0.0
 10
1.253868641941151
 20
18.13106984112817
 30
0.0
 10
1.188205810210135
 20
18.11104893478669
 30
0.0
 10
1.119546333531587
 20
18.096515850179
 30
0.0
 10
1.047859947527802
 20
18.08843399015821
 30
0.0
 10
0.9991526055185987
 20
18.08710600437241
 30
0.0
 10
0.974438218988924
 20
18.08643217671805
 30
0.0
  0
SPLINE
  5
C9
330
1F
100
AcDbEntity
  8
0
  6
Continuous
 62
     7
370
    15
100
AcDbSpline
210
0.0
220
0.0
230
1.0
 70
     8
 71
     3
 72
    23
 73
    19
 74
     0
 42
0.000000001
 43
0.00000001
 40
0.0
 40
0.0
 40
0.0
 40
0.0
 40
0.0634355916731767
 40
0.1250473001475685
 40
0.1851646982754372
 40
0.2427440634809765
 40
0.2999454100820459
 40
0.3569860715869702
 40
0.4136745664921464
 40
0.4709827861906614
 40
0.5290048540190743
 40
0.5884101726847173
 40
0.6492267407989856
 40
0.7126228592893019
 40
0.7791195436588957
 40
0.8489340010812495
 40
0.9220145797578321
 40
1.0
 40
1.0
 40
1.0
 40
1.0
 10
0.9631195068359375
 20
18.38277664035988
 30
0.0
 10
0.9777141639322837
 20
18.38301495081793
 30
0.0
 10
1.006483856439926
 20
18.38348471989533
 30
0.0
 10
1.048782224953978
 20
18.38894765526623
 30
0.0
 10
1.08925545769519
 20
18.39695888143172
 30
0.0
 10
1.127907022604676
 20
18.40832995131513
 30
0.0
 10
1.164479287530957
 20
18.42343265995203
 30
0.0
 10
1.199491674004356
 20
18.44137430761381
 30
0.0
 10
1.232763433529528
 20
18.46250393829272
 30
0.0
 10
1.263500211392765
 20
18.48747232668375
 30
0.0
 10
1.292836942983109
 20
18.51506404603742
 30
0.0
 10
1.318236173900476
 20
18.5473668600807
 30
0.0
 10
1.341685871075321
 20
18.58252864703642
 30
0.0
 10
1.362175776438435
 20
18.62137253911159
 30
0.0
 10
1.38033894781416
 20
18.66361799391506
 30
0.0
 10
1.394878810754165
 20
18.70956354213199
 30
0.0
 10
1.407674912435641
 20
18.75877124930731
 30
0.0
 10
1.413078484687987
 20
18.79310533079586
 30
0.0
 10
1.415867992955395
 20
18.81082975450919
 30
0.0
  0
SPLINE
  5
CA
330
1F
100
AcDbEntity
  8
0
  6
Continuous
 62
     7
370
    15
100
AcDbSpline
210
0.0
220
0.0
230
1.0
 70
     8
 71
     3
 72
    23
 73
    19
 74
     0
 42
0.000000001
 43
0.00000001
 40
0.0
 40
0.0
 40
0.0
 40
0.0
 40
0.0899635826115754
 40
0.1731952033098751
 40
0.2510337911945138
 40
0.3239351914471536
 40
0.3910489338120071
 40
0.4544813014175079
 40
0.5140659219026017
 40
0.5706136326226992
 40
0.6250817441268772
 40
0.6782456218282155
 40
0.7302261237220063
 40
0.7822512440805726
 40
0.8345682288635055
 40
0.8878601566774097
 40
0.9428502667304499
 40
1.0
 40
1.0
 40
1.0
 40
1.0
 10
0.4609802767761752
 20
19.05932693495884
 30
0.0
 10
0.4612840456206493
 20
19.03067020600339
 30
0.0
 10
0.4618688523307717
 20
18.97550112698767
 30
0.0
 10
0.4688762226107354
 20
18.89581086122775
 30
0.0
 10
0.4792142020663367
 20
18.82196010014514
 30
0.0
 10
0.4947935613445376
 20
18.75429856602425
 30
0.0
 10
0.513405126677273
 20
18.69213890310511
 30
0.0
 10
0.537738976824271
 20
18.63655337548354
 30
0.0
 10
0.5659406472833096
 20
18.58666859631161
 30
0.0
 10
0.5986577786990797
 20
18.54311652676839
 30
0.0
 10
0.634903897617977
 20
18.50525586187123
 30
0.0
 10
0.6742761609024094
 20
18.47298775288659
 30
0.0
 10
0.715611188261118
 20
18.44459196476266
 30
0.0
 10
0.7601312522076
 20
18.42202957276495
 30
0.0
 10
0.8072339565956878
 20
18.4043516500386
 30
0.0
 10
0.8570031678713749
 20
18.3922471312296
 30
0.0
 10
0.9091771036267322
 20
18.38413839745559
 30
0.0
 10
0.9449093251024703
 20
18.38323635002638
 30
0.0
 10
0.9631195068359375
 20
18.38277664035988
 30
0.0
  0
LINE
  5
D7
330
1F
100
AcDbEntity
  8
0
  6
Continuous
 62
     7
370
    15
100
AcDbLine
 10
0.4609802768
 20
9.3692910008
 30
0.0
 11
1.5146494808
 21
9.3692910008
 31
0.0
  0
LINE
  5
D8
330
1F
100
AcDbEntity
  8
0
  6
Continuous
 62
     7
370
    15
100
AcDbLine
 10
0.5597617647
 20
-0.7966453306
 30
0.0
 11
0.5597617647
 21
-1.3893342579
 31
0.0
  0
LINE
  5
D9
330
1F
100
AcDbEntity
  8
0
  6
Continuous
 62
     7
370
    15
100
AcDbLine
 10
0.5597617647
 20
-1.3893342579
 30
0.0
 11
0.8916058255
 21
-1.3893342579
 31
0.0
  0
LINE
  5
DA
330
1F
100
AcDbEntity
  8
0
  6
Continuous
 62
     7
370
    15
100
AcDbLine
 10
0.9337937526
 20
-0.7966453306
 30
0.0
 11
0.5597617647
 21
-0.7966453306
 31
0.0
  0
LINE
  5
DB
330
1F
100
AcDbEntity
  8
0
  6
Continuous
 62
     7
370
    15
100
AcDbLine
 10
0.5597617647
 20
4.8491715213
 30
0.0
 11
0.5597617647
 21
3.2655807937
 31
0.0
  0
LINE
  5
DC
330
1F
100
AcDbEntity
  8
0
  6
Continuous
 62
     7
370
    15
100
AcDbLine
 10
1.3932305686
 20
3.2655807937
 30
0.0
 11
1.0227999891
 21
3.2655807937
 31
0.0
  0
LINE
  5
DD
330
1F
100
AcDbEntity
  8
0
  6
Continuous
 62
     7
370
    15
100
AcDbLine
 10
1.8768482697
 20
4.7766288661
 30
0.0
 11
1.3932305686
 21
3.2655807937
 31
0.0
  0
LINE
  5
DE
330
1F
100
AcDbEntity
  8
0
  6
Continuous
 62
     7
370
    15
100
AcDbLine
 10
1.8768482697
 20
3.2655807937
 30
0.0
 11
1.8768482697
 21
4.7766288661
 31
0.0
  0
LINE
  5
DF
330
1F
100
AcDbEntity
  8
0
  6
Continuous
 62
     7
370
    15
100
AcDbLine
 10
2.206119896
 20
3.2655807937
 30
0.0
 11
1.8768482697
 21
3.2655807937
 31
0.0
  0
LINE
  5
E0
330
1F
100
AcDbEntity
  8
0
  6
Continuous
 62
     7
370
    15
100
AcDbLine
 10
2.206119896
 20
5.1424290634
 30
0.0
 11
2.206119896
 21
3.2655807937
 31
0.0
  0
LINE
  5
E1
330
1F
100
AcDbEntity
  8
0
  6
Continuous
 62
     7
370
    15
100
AcDbLine
 10
1.6942054145
 20
5.1424290634
 30
0.0
 11
2.206119896
 21
5.1424290634
 31
0.0
  0
LINE
  5
E2
330
1F
100
AcDbEntity
  8
0
  6
Continuous
 62
     7
370
    15
100
AcDbLine
 10
1.213160148
 20
3.6401272686
 30
0.0
 11
1.6942054145
 21
5.1424290634
 31
0.0
  0
LINE
  5
E3
330
1F
100
AcDbEntity
  8
0
  6
Continuous
 62
     7
370
    15
100
AcDbLine
 10
0.7691579395
 20
5.1424290634
 30
0.0
 11
1.213160148
 21
3.6401272686
 31
0.0
  0
LINE
  5
E4
330
1F
100
AcDbEntity
  8
0
  6
Continuous
 62
     7
370
    15
100
AcDbLine
 10
0.2304901384
 20
5.1424290634
 30
0.0
 11
0.7691579395
 21
5.1424290634
 31
0.0
  0
LINE
  5
E5
330
1F
100
AcDbEntity
  8
0
  6
Continuous
 62
     7
370
    15
100
AcDbLine
 10
0.2304901384
 20
3.2655807937
 30
0.0
 11
0.2304901384
 21
5.1424290634
 31
0.0
  0
LINE
  5
E6
330
1F
100
AcDbEntity
  8
0
  6
Continuous
 62
     7
370
    15
100
AcDbLine
 10
0.5597617647
 20
3.2655807937
 30
0.0
 11
0.2304901384
 21
3.2655807937
 31
0.0
  0
LINE
  5
E7
330
1F
100
AcDbEntity
  8
0
  6
Continuous
 62
     7
370
    15
100
AcDbLine
 10
2.3378285465
 20
0.1911695482
 30
0.0
 11
2.3378285465
 21
-1.6856787216
 31
0.0
  0
LINE
  5
E8
330
1F
100
AcDbEntity
  8
0
  6
Continuous
 62
     7
370
    15
100
AcDbLine
 10
2.0085569202
 20
0.1911695482
 30
0.0
 11
2.3378285465
 21
0.1911695482
 31
0.0
  0
LINE
  5
E9
330
1F
100
AcDbEntity
  8
0
  6
Continuous
 62
     7
370
    15
100
AcDbLine
 10
2.0085569202
 20
-1.6856787216
 30
0.0
 11
2.0085569202
 21
0.1911695482
 31
0.0
  0
LINE
  5
EA
330
1F
100
AcDbEntity
  8
0
  6
Continuous
 62
     7
370
    15
100
AcDbLine
 10
0.5597617647
 20
-0.500300867
 30
0.0
 11
0.9610615592
 21
-0.500300867
 31
0.0
  0
LINE
  5
EB
330
1F
100
AcDbEntity
  8
0
  6
Continuous
 62
     7
370
    15
100
AcDbLine
 10
0.5597617647
 20
0.1911695482
 30
0.0
 11
0.5597617647
 21
-0.500300867
 31
0.0
  0
LINE
  5
EC
330
1F
100
AcDbEntity
  8
0
  6
Continuous
 62
     7
370
    15
100
AcDbLine
 10
0.2304901384
 20
0.1911695482
 30
0.0
 11
0.5597617647
 21
0.1911695482
 31
0.0
  0
LINE
  5
ED
330
1F
100
AcDbEntity
  8
0
  6
Continuous
 62
     7
370
    15
100
AcDbLine
 10
0.2304901384
 20
-1.6856787216
 30
0.0
 11
0.2304901384
 21
0.1911695482
 31
0.0
  0
LINE
  5
EE
330
1F
100
AcDbEntity
  8
0
  6
Continuous
 62
     7
370
    15
100
AcDbLine
 10
1.0289738321
 20
-1.6856787216
 30
0.0
 11
0.2304901384
 21
-1.6856787216
 31
0.0
  0
LINE
  5
EF
330
1F
100
AcDbEntity
  8
0
  6
Continuous
 62
     7
370
    15
100
AcDbLine
 10
-10.0
 20
-17.5
 30
0.0
 11
-10.0
 21
10.5
 31
0.0
  0
LINE
  5
F0
330
1F
100
AcDbEntity
  8
0
  6
Continuous
 62
     7
370
    15
100
AcDbLine
 10
-14.0
 20
8.5
 30
0.0
 11
-10.0
 21
10.5
 31
0.0
  0
LINE
  5
F1
330
1F
100
AcDbEntity
  8
0
  6
Continuous
 62
     7
370
    15
100
AcDbLine
 10
-14.0
 20
16.5
 30
0.0
 11
-14.0
 21
8.5
 31
0.0
  0
LINE
  5
F2
330
1F
100
AcDbEntity
  8
0
  6
Continuous
 62
     7
370
    15
100
AcDbLine
 10
-14.0
 20
16.5
 30
0.0
 11
-10.0
 21
14.5
 31
0.0
  0
LINE
  5
F3
330
1F
100
AcDbEntity
  8
0
  6
Continuous
 62
     7
370
    15
100
AcDbLine
 10
-10.0
 20
14.5
 30
0.0
 11
-10.0
 21
42.5
 31
0.0
  0
LINE
  5
F4
330
1F
100
AcDbEntity
  8
0
  6
Continuous
 62
     7
370
    15
100
AcDbLine
 10
-2.0
 20
42.5
 30
0.0
 11
-10.0
 21
42.5
 31
0.0
  0
LINE
  5
F5
330
1F
100
AcDbEntity
  8
0
  6
Continuous
 62
     7
370
    15
100
AcDbLine
 10
-4.0
 20
38.5
 30
0.0
 11
-2.0
 21
42.5
 31
0.0
  0
LINE
  5
F6
330
1F
100
AcDbEntity
  8
0
  6
Continuous
 62
     7
370
    15
100
AcDbLine
 10
-4.0
 20
38.5
 30
0.0
 11
4.0
 21
38.5
 31
0.0
  0
LINE
  5
F7
330
1F
100
AcDbEntity
  8
0
  6
Continuous
 62
     7
370
    15
100
AcDbLine
 10
4.0
 20
38.5
 30
0.0
 11
2.0
 21
42.5
 31
0.0
  0
LINE
  5
F8
330
1F
100
AcDbEntity
  8
0
  6
Continuous
 62
     7
370
    15
100
AcDbLine
 10
10.0
 20
42.5
 30
0.0
 11
2.0
 21
42.5
 31
0.0
  0
LINE
  5
F9
330
1F
100
AcDbEntity
  8
0
  6
Continuous
 62
     7
370
    15
100
AcDbLine
 10
10.0
 20
14.5
 30
0.0
 11
10.0
 21
42.5
 31
0.0
  0
LINE
  5
FA
330
1F
100
AcDbEntity
  8
0
  6
Continuous
 62
     7
370
    15
100
AcDbLine
 10
14.0
 20
16.5
 30
0.0
 11
10.0
 21
14.5
 31
0.0
  0
LINE
  5
FB
330
1F
100
AcDbEntity
  8
0
  6
Continuous
 62
     7
370
    15
100
AcDbLine
 10
14.0
 20
16.5
 30
0.0
 11
14.0
 21
8.5
 31
0.0
  0
LINE
  5
FC
330
1F
100
AcDbEntity
  8
0
  6
Continuous
 62
     7
370
    15
100
AcDbLine
 10
14.0
 20
8.5
 30
0.0
 11
10.0
 21
10.5
 31
0.0
  0
LINE
  5
FD
330
1F
100
AcDbEntity
  8
0
  6
Continuous
 62
     7
370
    15
100
AcDbLine
 10
10.0
 20
-17.5
 30
0.0
 11
10.0
 21
10.5
 31
0.0
  0
LINE
  5
FE
330
1F
100
AcDbEntity
  8
0
  6
Continuous
 62
     7
370
    15
100
AcDbLine
 10
10.0
 20
-17.5
 30
0.0
 11
2.0
 21
-17.5
 31
0.0
  0
LINE
  5
FF
330
1F
100
AcDbEntity
  8
0
  6
Continuous
 62
     7
370
    15
100
AcDbLine
 10
4.0
 20
-21.5
 30
0.0
 11
2.0
 21
-17.5
 31
0.0
  0
LINE
  5
100
330
1F
100
AcDbEntity
  8
0
  6
Continuous
 62
     7
370
    15
100
AcDbLine
 10
-4.0
 20
-21.5
 30
0.0
 11
4.0
 21
-21.5
 31
0.0
  0
LINE
  5
101
330
1F
100
AcDbEntity
  8
0
  6
Continuous
 62
     7
370
    15
100
AcDbLine
 10
-4.0
 20
-21.5
 30
0.0
 11
-2.0
 21
-17.5
 31
0.0
  0
LINE
  5
102
330
1F
100
AcDbEntity
  8
0
  6
Continuous
 62
     7
370
    15
100
AcDbLine
 10
-2.0
 20
-17.5
 30
0.0
 11
-10.0
 21
-17.5
 31
0.0
  0
LINE
  5
103
330
1F
100
AcDbEntity
  8
0
  6
Continuous
 62
     7
370
    15
100
AcDbLine
 10
1.7122124566
 20
29.3389648749
 30
0.0
 11
1.3829408303
 21
29.3060377122
 31
0.0
  0
LINE
  5
104
330
1F
100
AcDbEntity
  8
0
  6
Continuous
 62
     7
370
    15
100
AcDbLine
 10
1.415867993
 20
28.713348785
 30
0.0
 11
1.7451396192
 21
28.6804216223
 31
0.0
  0
LINE
  5
105
330
1F
100
AcDbEntity
  8
0
  6
Continuous
 62
     7
370
    15
100
AcDbLine
 10
1.8423776464
 20
9.0729465372
 30
0.0
 11
0.4609802768
 21
9.0729465372
 31
0.0
  0
LINE
  5
106
330
1F
100
AcDbEntity
  8
0
  6
Continuous
 62
     7
370
    15
100
AcDbLine
 10
1.5110480724
 20
8.7766020736
 30
0.0
 11
1.8336313688
 21
8.7436749109
 31
0.0
  0
LINE
  5
107
330
1F
100
AcDbEntity
  8
0
  6
Continuous
 62
     7
370
    15
100
AcDbLine
 10
0.6585432525
 20
13.1680998241
 30
0.0
 11
0.6585432525
 21
14.7486036302
 31
0.0
  0
LINE
  5
108
330
1F
100
AcDbEntity
  8
0
  6
Continuous
 62
     7
370
    15
100
AcDbLine
 10
0.9878148788
 20
13.1680998241
 30
0.0
 11
0.6585432525
 21
13.1680998241
 31
0.0
  0
LINE
  5
109
330
1F
100
AcDbEntity
  8
0
  6
Continuous
 62
     7
370
    15
100
AcDbLine
 10
0.9878148788
 20
14.7486036302
 30
0.0
 11
0.9878148788
 21
13.1680998241
 31
0.0
  0
LINE
  5
10A
330
1F
100
AcDbEntity
  8
0
  6
Continuous
 62
     7
370
    15
100
AcDbLine
 10
1.5805038061
 20
14.7486036302
 30
0.0
 11
0.9878148788
 21
14.7486036302
 31
0.0
  0
LINE
  5
10B
330
1F
100
AcDbEntity
  8
0
  6
Continuous
 62
     7
370
    15
100
AcDbLine
 10
1.5805038061
 20
15.0449480939
 30
0.0
 11
1.5805038061
 21
14.7486036302
 31
0.0
  0
LINE
  5
10C
330
1F
100
AcDbEntity
  8
0
  6
Continuous
 62
     7
370
    15
100
AcDbLine
 10
0.0658543253
 20
15.0449480939
 30
0.0
 11
1.5805038061
 21
15.0449480939
 31
0.0
  0
LINE
  5
10D
330
1F
100
AcDbEntity
  8
0
  6
Continuous
 62
     7
370
    15
100
AcDbLine
 10
0.0658543253
 20
14.7486036302
 30
0.0
 11
0.0658543253
 21
15.0449480939
 31
0.0
  0
LINE
  5
10E
330
1F
100
AcDbEntity
  8
0
  6
Continuous
 62
     7
370
    15
100
AcDbLine
 10
0.6585432525
 20
14.7486036302
 30
0.0
 11
0.0658543253
 21
14.7486036302
 31
0.0
  0
LINE
  5
10F
330
1F
100
AcDbEntity
  8
0
  6
Continuous
 62
     7
370
    15
100
AcDbLine
 10
1.7122124566
 20
19.4364458444
 30
0.0
 11
1.3829408303
 21
19.4035186818
 31
0.0
  0
LINE
  5
110
330
1F
100
AcDbEntity
  8
0
  6
Continuous
 62
     7
370
    15
100
AcDbLine
 10
1.415867993
 20
18.8108297545
 30
0.0
 11
1.7451396192
 21
18.7779025919
 31
0.0
  0
LINE
  5
111
330
1F
100
AcDbEntity
  8
0
  6
Continuous
 62
     7
370
    15
100
AcDbLine
 10
1.415867993
 20
24.4931751774
 30
0.0
 11
0.6328189067
 21
23.0706188546
 31
0.0
  0
LINE
  5
112
330
1F
100
AcDbEntity
  8
0
  6
Continuous
 62
     7
370
    15
100
AcDbLine
 10
1.415867993
 20
23.0706188546
 30
0.0
 11
1.415867993
 21
24.4931751774
 31
0.0
  0
LINE
  5
113
330
1F
100
AcDbEntity
  8
0
  6
Continuous
 62
     7
370
    15
100
AcDbLine
 10
1.7451396192
 20
23.0706188546
 30
0.0
 11
1.415867993
 21
23.0706188546
 31
0.0
  0
LINE
  5
114
330
1F
100
AcDbEntity
  8
0
  6
Continuous
 62
     7
370
    15
100
AcDbLine
 10
1.7451396192
 20
24.9474671243
 30
0.0
 11
1.7451396192
 21
23.0706188546
 31
0.0
  0
LINE
  5
115
330
1F
100
AcDbEntity
  8
0
  6
Continuous
 62
     7
370
    15
100
AcDbLine
 10
1.34795572
 20
24.9474671243
 30
0.0
 11
1.7451396192
 21
24.9474671243
 31
0.0
  0
LINE
  5
116
330
1F
100
AcDbEntity
  8
0
  6
Continuous
 62
     7
370
    15
100
AcDbLine
 10
0.5597617647
 20
23.5161645239
 30
0.0
 11
1.34795572
 21
24.9474671243
 31
0.0
  0
LINE
  5
117
330
1F
100
AcDbEntity
  8
0
  6
Continuous
 62
     7
370
    15
100
AcDbLine
 10
0.5597617647
 20
24.9474671243
 30
0.0
 11
0.5597617647
 21
23.5161645239
 31
0.0
  0
LINE
  5
118
330
1F
100
AcDbEntity
  8
0
  6
Continuous
 62
     7
370
    15
100
AcDbLine
 10
0.2304901384
 20
24.9474671243
 30
0.0
 11
0.5597617647
 21
24.9474671243
 31
0.0
  0
LINE
  5
119
330
1F
100
AcDbEntity
  8
0
  6
Continuous
 62
     7
370
    15
100
AcDbLine
 10
0.2304901384
 20
23.0706188546
 30
0.0
 11
0.2304901384
 21
24.9474671243
 31
0.0
  0
LINE
  5
11A
330
1F
100
AcDbEntity
  8
0
  6
Continuous
 62
     7
370
    15
100
AcDbLine
 10
0.6328189067
 20
23.0706188546
 30
0.0
 11
0.2304901384
 21
23.0706188546
 31
0.0
  0
LINE
  5
11B
330
1F
100
AcDbEntity
  8
0
  6
Continuous
 62
     7
370
    15
100
AcDbLine
 10
1.0227999891
 20
3.2655807937
 30
0.0
 11
0.5597617647
 21
4.8491715213
 31
0.0
  0
LINE
  5
11C
330
1F
100
AcDbEntity
  8
0
  6
Continuous
 62
     7
370
    15
100
AcDbLine
 10
2.3378285465
 20
-1.6856787216
 30
0.0
 11
2.0085569202
 21
-1.6856787216
 31
0.0
  0
MTEXT
  5
11E
330
1F
100
AcDbEntity
  8
0
  6
Continuous
 62
     7
100
AcDbMText
 10
-14.0
 20
-22.5195663917
 30
0.0
 40
4.83362
 41
0.0
 71
     1
 72
     1
  1
SOLIDWORKS \M+18474\M+1847C\M+18491 \M+18485\M+18489\M+18475\M+18471\M+1847E\M+1848D\M+18487 \M+18478\M+18470\M+18472\M+18475\M+18474\M+18475\M+1847E\M+18479\M+1847A.
  7
SLDTEXTSTYLE0
 73
     1
 44
1.0
  0
MTEXT
  5
11F
330
1F
100
AcDbEntity
  8
0
  6
Continuous
 62
     7
100
AcDbMText
 10
-14.0
 20
-29.7699963917
 30
0.0
 40
4.83362
 41
0.0
 71
     1
 72
     1
  1
\M+18453\M+18480\M+1847C\M+1848E\M+1847B\M+18480 \M+18474\M+1847C\M+18491 \M+18480\M+18471\M+18485\M+18489\M+18470\M+18490\M+1848B\M+18479\M+18487 \M+18488\M+18475\M+1847C\M+18475\M+1847A.
  7
SLDTEXTSTYLE0
 73
     1
 44
1.0
  0
ENDSEC
  0
SECTION
  2
OBJECTS
  0
DICTIONARY
  5
C
330
0
100
AcDbDictionary
281
     1
  3
ACAD_GROUP
350
D
  3
ACAD_LAYOUT
350
1A
  3
ACAD_MLINESTYLE
350
17
  3
ACAD_PLOTSETTINGS
350
19
  3
ACAD_PLOTSTYLENAME
350
E
  3
ACAD_SCALELIST
350
47
  0
DICTIONARY
  5
D
102
{ACAD_REACTORS
330
C
102
}
330
C
100
AcDbDictionary
281
     1
  0
DICTIONARY
  5
1A
102
{ACAD_REACTORS
330
C
102
}
330
C
100
AcDbDictionary
281
     1
  3
Layout1
350
1E
  3
Layout2
350
26
  3
Model
350
22
  0
DICTIONARY
  5
17
102
{ACAD_REACTORS
330
C
102
}
330
C
100
AcDbDictionary
281
     1
  3
Standard
350
18
  0
DICTIONARY
  5
19
102
{ACAD_REACTORS
330
C
102
}
330
C
100
AcDbDictionary
281
     1
  0
ACDBDICTIONARYWDFLT
  5
E
102
{ACAD_REACTORS
330
C
102
}
330
C
100
AcDbDictionary
281
     1
  3
Normal
350
F
100
AcDbDictionaryWithDefault
340
F
  0
DICTIONARY
  5
47
102
{ACAD_REACTORS
330
C
102
}
330
C
100
AcDbDictionary
281
     1
  3
A0
350
48
  3
A1
350
49
  3
A2
350
4A
  3
A3
350
4B
  3
A4
350
4C
  3
A5
350
4D
  3
A6
350
4E
  3
A7
350
4F
  3
A8
350
50
  3
A9
350
51
  3
B0
350
52
  3
B1
350
53
  3
B2
350
54
  3
B3
350
55
  3
B4
350
56
  3
B5
350
57
  3
B6
350
58
  3
B7
350
59
  3
B8
350
5A
  3
B9
350
5B
  3
C0
350
5C
  3
C1
350
5D
  3
C2
350
5E
  3
C3
350
5F
  3
C4
350
60
  3
C5
350
61
  3
C6
350
62
  3
C7
350
63
  3
C8
350
64
  3
C9
350
65
  3
D0
350
66
  3
D1
350
67
  3
D2
350
68
  0
LAYOUT
  5
1E
102
{ACAD_REACTORS
330
1A
102
}
330
1A
100
AcDbPlotSettings
  1

  2
none_device
  4

  6

 40
0.0
 41
0.0
 42
0.0
 43
0.0
 44
0.0
 45
0.0
 46
0.0
 47
0.0
 48
0.0
 49
0.0
140
0.0
141
0.0
142
1.0
143
1.0
 70
   688
 72
     1
 73
     0
 74
     5
  7

 75
    16
147
1.0
148
0.0
149
0.0
100
AcDbLayout
  1
Layout1
 70
     1
 71
     1
 10
0.0
 20
0.0
 11
420.0
 21
297.0
 12
0.0
 22
0.0
 32
0.0
 14
1.0000000000E+20
 24
1.0000000000E+20
 34
1.0000000000E+20
 15
-1.0000000000E+20
 25
-1.0000000000E+20
 35
-1.0000000000E+20
146
0.0
 13
0.0
 23
0.0
 33
0.0
 16
1.0
 26
0.0
 36
0.0
 17
0.0
 27
1.0
 37
0.0
 76
     0
330
1B
  0
LAYOUT
  5
26
102
{ACAD_REACTORS
330
1A
102
}
330
1A
100
AcDbPlotSettings
  1

  2
none_device
  4

  6

 40
0.0
 41
0.0
 42
0.0
 43
0.0
 44
0.0
 45
0.0
 46
0.0
 47
0.0
 48
0.0
 49
0.0
140
0.0
141
0.0
142
1.0
143
1.0
 70
   688
 72
     1
 73
     0
 74
     5
  7

 75
    16
147
1.0
148
0.0
149
0.0
100
AcDbLayout
  1
Layout2
 70
     1
 71
     2
 10
0.0
 20
0.0
 11
0.0
 21
0.0
 12
0.0
 22
0.0
 32
0.0
 14
0.0
 24
0.0
 34
0.0
 15
0.0
 25
0.0
 35
0.0
146
0.0
 13
0.0
 23
0.0
 33
0.0
 16
1.0
 26
0.0
 36
0.0
 17
0.0
 27
1.0
 37
0.0
 76
     0
330
23
  0
LAYOUT
  5
22
102
{ACAD_REACTORS
330
1A
102
}
330
1A
100
AcDbPlotSettings
  1

  2
none_device
  4
ANSI_A_(11.00_x_8.50_Inches)
  6

 40
6.35
 41
19.05
 42
6.35000508
 43
19.05000254
 44
279.4
 45
215.9
 46
133.34999746
 47
53.8331159175
 48
0.0
 49
0.0
140
0.0
141
0.0
142
0.131484375
143
1.0
 70
  1696
 72
     0
 73
     0
 74
     0
  7

 75
     0
147
0.0179189148
148
-1300.4909072572
149
0.0
100
AcDbLayout
  1
Model
 70
     1
 71
     0
 10
0.0
 20
0.0
 11
420.0
 21
297.0
 12
0.0
 22
0.0
 32
0.0
 14
-14.0
 24
-21.5
 34
0.0
 15
14.0
 25
42.5
 35
0.0
146
0.0
 13
0.0
 23
0.0
 33
0.0
 16
1.0
 26
0.0
 36
0.0
 17
0.0
 27
1.0
 37
0.0
 76
     0
330
1F
331
29
  0
MLINESTYLE
  5
18
102
{ACAD_REACTORS
330
17
102
}
330
17
100
AcDbMlineStyle
  2
Standard
 70
     0
  3

 62
   256
 51
90.0
 52
90.0
 71
     2
 49
0.5
 62
   256
  6
BYLAYER
 49
-0.5
 62
   256
  6
BYLAYER
  0
ACDBPLACEHOLDER
  5
F
102
{ACAD_REACTORS
330
E
102
}
330
E
  0
SCALE
  5
48
102
{ACAD_REACTORS
330
47
102
}
330
47
100
AcDbScale
 70
     0
300
1:1
140
1.0
141
1.0
290
     1
  0
SCALE
  5
49
102
{ACAD_REACTORS
330
47
102
}
330
47
100
AcDbScale
 70
     0
300
1:2
140
1.0
141
2.0
290
     0
  0
SCALE
  5
4A
102
{ACAD_REACTORS
330
47
102
}
330
47
100
AcDbScale
 70
     0
300
1:4
140
1.0
141
4.0
290
     0
  0
SCALE
  5
4B
102
{ACAD_REACTORS
330
47
102
}
330
47
100
AcDbScale
 70
     0
300
1:5
140
1.0
141
5.0
290
     0
  0
SCALE
  5
4C
102
{ACAD_REACTORS
330
47
102
}
330
47
100
AcDbScale
 70
     0
300
1:8
140
1.0
141
8.0
290
     0
  0
SCALE
  5
4D
102
{ACAD_REACTORS
330
47
102
}
330
47
100
AcDbScale
 70
     0
300
1:10
140
1.0
141
10.0
290
     0
  0
SCALE
  5
4E
102
{ACAD_REACTORS
330
47
102
}
330
47
100
AcDbScale
 70
     0
300
1:16
140
1.0
141
16.0
290
     0
  0
SCALE
  5
4F
102
{ACAD_REACTORS
330
47
102
}
330
47
100
AcDbScale
 70
     0
300
1:20
140
1.0
141
20.0
290
     0
  0
SCALE
  5
50
102
{ACAD_REACTORS
330
47
102
}
330
47
100
AcDbScale
 70
     0
300
1:30
140
1.0
141
30.0
290
     0
  0
SCALE
  5
51
102
{ACAD_REACTORS
330
47
102
}
330
47
100
AcDbScale
 70
     0
300
1:40
140
1.0
141
40.0
290
     0
  0
SCALE
  5
52
102
{ACAD_REACTORS
330
47
102
}
330
47
100
AcDbScale
 70
     0
300
1:50
140
1.0
141
50.0
290
     0
  0
SCALE
  5
53
102
{ACAD_REACTORS
330
47
102
}
330
47
100
AcDbScale
 70
     0
300
1:100
140
1.0
141
100.0
290
     0
  0
SCALE
  5
54
102
{ACAD_REACTORS
330
47
102
}
330
47
100
AcDbScale
 70
     0
300
2:1
140
2.0
141
1.0
290
     0
  0
SCALE
  5
55
102
{ACAD_REACTORS
330
47
102
}
330
47
100
AcDbScale
 70
     0
300
4:1
140
4.0
141
1.0
290
     0
  0
SCALE
  5
56
102
{ACAD_REACTORS
330
47
102
}
330
47
100
AcDbScale
 70
     0
300
8:1
140
8.0
141
1.0
290
     0
  0
SCALE
  5
57
102
{ACAD_REACTORS
330
47
102
}
330
47
100
AcDbScale
 70
     0
300
10:1
140
10.0
141
1.0
290
     0
  0
SCALE
  5
58
102
{ACAD_REACTORS
330
47
102
}
330
47
100
AcDbScale
 70
     0
300
100:1
140
100.0
141
1.0
290
     0
  0
SCALE
  5
59
102
{ACAD_REACTORS
330
47
102
}
330
47
100
AcDbScale
 70
     0
300
1/128" = 1'-0"
140
0.0078125
141
12.0
290
     0
  0
SCALE
  5
5A
102
{ACAD_REACTORS
330
47
102
}
330
47
100
AcDbScale
 70
     0
300
1/64" = 1'-0"
140
0.015625
141
12.0
290
     0
  0
SCALE
  5
5B
102
{ACAD_REACTORS
330
47
102
}
330
47
100
AcDbScale
 70
     0
300
1/32" = 1'-0"
140
0.03125
141
12.0
290
     0
  0
SCALE
  5
5C
102
{ACAD_REACTORS
330
47
102
}
330
47
100
AcDbScale
 70
     0
300
1/16" = 1'-0"
140
0.0625
141
12.0
290
     0
  0
SCALE
  5
5D
102
{ACAD_REACTORS
330
47
102
}
330
47
100
AcDbScale
 70
     0
300
3/32" = 1'-0"
140
0.09375
141
12.0
290
     0
  0
SCALE
  5
5E
102
{ACAD_REACTORS
330
47
102
}
330
47
100
AcDbScale
 70
     0
300
1/8" = 1'-0"
140
0.125
141
12.0
290
     0
  0
SCALE
  5
5F
102
{ACAD_REACTORS
330
47
102
}
330
47
100
AcDbScale
 70
     0
300
3/16" = 1'-0"
140
0.1875
141
12.0
290
     0
  0
SCALE
  5
60
102
{ACAD_REACTORS
330
47
102
}
330
47
100
AcDbScale
 70
     0
300
1/4" = 1'-0"
140
0.25
141
12.0
290
     0
  0
SCALE
  5
61
102
{ACAD_REACTORS
330
47
102
}
330
47
100
AcDbScale
 70
     0
300
3/8" = 1'-0"
140
0.375
141
12.0
290
     0
  0
SCALE
  5
62
102
{ACAD_REACTORS
330
47
102
}
330
47
100
AcDbScale
 70
     0
300
1/2" = 1'-0"
140
0.5
141
12.0
290
     0
  0
SCALE
  5
63
102
{ACAD_REACTORS
330
47
102
}
330
47
100
AcDbScale
 70
     0
300
3/4" = 1'-0"
140
0.75
141
12.0
290
     0
  0
SCALE
  5
64
102
{ACAD_REACTORS
330
47
102
}
330
47
100
AcDbScale
 70
     0
300
1" = 1'-0"
140
1.0
141
12.0
290
     0
  0
SCALE
  5
65
102
{ACAD_REACTORS
330
47
102
}
330
47
100
AcDbScale
 70
     0
300
1-1/2" = 1'-0"
140
1.5
141
12.0
290
     0
  0
SCALE
  5
66
102
{ACAD_REACTORS
330
47
102
}
330
47
100
AcDbScale
 70
     0
300
3" = 1'-0"
140
3.0
141
12.0
290
     0
  0
SCALE
  5
67
102
{ACAD_REACTORS
330
47
102
}
330
47
100
AcDbScale
 70
     0
300
6" = 1'-0"
140
6.0
141
12.0
290
     0
  0
SCALE
  5
68
102
{ACAD_REACTORS
330
47
102
}
330
47
100
AcDbScale
 70
     0
300
1'-0" = 1'-0"
140
12.0
141
12.0
290
     0
  0
ENDSEC
  0
EOF
