  0
SECTION
  2
HEADER
  9
$ACADVER
  1
AC1015
  9
$ACADMAINTVER
 70
     6
  9
$DWGCODEPAGE
  3
ANSI_1251
  9
$INSBASE
 10
0.0
 20
0.0
 30
0.0
  9
$EXTMIN
 10
-10.0
 20
-21.5
 30
0.0
  9
$EXTMAX
 10
10.0
 20
16.2696007663
 30
0.0
  9
$LIMMIN
 10
0.0
 20
0.0
  9
$LIMMAX
 10
420.0
 20
297.0
  9
$ORTHOMODE
 70
     0
  9
$REGENMODE
 70
     1
  9
$FILLMODE
 70
     1
  9
$QTEXTMODE
 70
     0
  9
$MIRRTEXT
 70
     1
  9
$LTSCALE
 40
1.0
  9
$ATTMODE
 70
     1
  9
$TEXTSIZE
 40
4.0
  9
$TRACEWID
 40
1.0
  9
$TEXTSTYLE
  7
Standard
  9
$CLAYER
  8
0
  9
$CELTYPE
  6
ByLayer
  9
$CECOLOR
 62
   256
  9
$CELTSCALE
 40
1.0
  9
$DISPSILH
 70
     0
  9
$DIMSCALE
 40
1.0
  9
$DIMASZ
 40
6.0
  9
$DIMEXO
 40
1.0
  9
$DIMDLI
 40
3.75
  9
$DIMRND
 40
0.0
  9
$DIMDLE
 40
0.0
  9
$DIMEXE
 40
1.0
  9
$DIMTP
 40
0.0
  9
$DIMTM
 40
0.0
  9
$DIMTXT
 40
4.0
  9
$DIMCEN
 40
2.5
  9
$DIMTSZ
 40
0.0
  9
$DIMTOL
 70
     0
  9
$DIMLIM
 70
     0
  9
$DIMTIH
 70
     1
  9
$DIMTOH
 70
     1
  9
$DIMSE1
 70
     0
  9
$DIMSE2
 70
     0
  9
$DIMTAD
 70
     1
  9
$DIMZIN
 70
     0
  9
$DIMBLK
  1

  9
$DIMASO
 70
     1
  9
$DIMSHO
 70
     1
  9
$DIMPOST
  1

  9
$DIMAPOST
  1

  9
$DIMALT
 70
     0
  9
$DIMALTD
 70
     3
  9
$DIMALTF
 40
0.0393700787
  9
$DIMLFAC
 40
1.0
  9
$DIMTOFL
 70
     1
  9
$DIMTVP
 40
0.0
  9
$DIMTIX
 70
     0
  9
$DIMSOXD
 70
     0
  9
$DIMSAH
 70
     0
  9
$DIMBLK1
  1

  9
$DIMBLK2
  1

  9
$DIMSTYLE
  2
ISO-25
  9
$DIMCLRD
 70
     0
  9
$DIMCLRE
 70
     0
  9
$DIMCLRT
 70
     0
  9
$DIMTFAC
 40
1.0
  9
$DIMGAP
 40
3.0
  9
$DIMJUST
 70
     0
  9
$DIMSD1
 70
     0
  9
$DIMSD2
 70
     0
  9
$DIMTOLJ
 70
     0
  9
$DIMTZIN
 70
     0
  9
$DIMALTZ
 70
     0
  9
$DIMALTTZ
 70
     0
  9
$DIMUPT
 70
     0
  9
$DIMDEC
 70
     2
  9
$DIMTDEC
 70
     4
  9
$DIMALTU
 70
     2
  9
$DIMALTTD
 70
     3
  9
$DIMTXSTY
  7
Standard
  9
$DIMAUNIT
 70
     0
  9
$DIMADEC
 70
     2
  9
$DIMALTRND
 40
0.0
  9
$DIMAZIN
 70
     0
  9
$DIMDSEP
 70
    44
  9
$DIMATFIT
 70
     3
  9
$DIMFRAC
 70
     0
  9
$DIMLDRBLK
  1

  9
$DIMLUNIT
 70
     2
  9
$DIMLWD
 70
    -2
  9
$DIMLWE
 70
    -2
  9
$DIMTMOVE
 70
     0
  9
$LUNITS
 70
     2
  9
$LUPREC
 70
     2
  9
$SKETCHINC
 40
1.0
  9
$FILLETRAD
 40
10.0
  9
$AUNITS
 70
     0
  9
$AUPREC
 70
     2
  9
$MENU
  1
.
  9
$ELEVATION
 40
0.0
  9
$PELEVATION
 40
0.0
  9
$THICKNESS
 40
0.0
  9
$LIMCHECK
 70
     0
  9
$CHAMFERA
 40
0.0
  9
$CHAMFERB
 40
0.0
  9
$CHAMFERC
 40
0.0
  9
$CHAMFERD
 40
0.0
  9
$SKPOLY
 70
     0
  9
$TDCREATE
 40
2458309.438006863
  9
$TDUCREATE
 40
2458309.313006863
  9
$TDUPDATE
 40
2458309.438030764
  9
$TDUUPDATE
 40
2458309.313030764
  9
$TDINDWG
 40
0.0000000116
  9
$TDUSRTIMER
 40
0.0000000116
  9
$USRTIMER
 70
     1
  9
$ANGBASE
 50
0.0
  9
$ANGDIR
 70
     0
  9
$PDMODE
 70
     0
  9
$PDSIZE
 40
-1.0
  9
$PLINEWID
 40
0.0
  9
$SPLFRAME
 70
     0
  9
$SPLINETYPE
 70
     6
  9
$SPLINESEGS
 70
     8
  9
$HANDSEED
  5
117
  9
$SURFTAB1
 70
     6
  9
$SURFTAB2
 70
     6
  9
$SURFTYPE
 70
     6
  9
$SURFU
 70
     6
  9
$SURFV
 70
     6
  9
$UCSBASE
  2

  9
$UCSNAME
  2

  9
$UCSORG
 10
0.0
 20
0.0
 30
0.0
  9
$UCSXDIR
 10
1.0
 20
0.0
 30
0.0
  9
$UCSYDIR
 10
0.0
 20
1.0
 30
0.0
  9
$UCSORTHOREF
  2

  9
$UCSORTHOVIEW
 70
     0
  9
$UCSORGTOP
 10
0.0
 20
0.0
 30
0.0
  9
$UCSORGBOTTOM
 10
0.0
 20
0.0
 30
0.0
  9
$UCSORGLEFT
 10
0.0
 20
0.0
 30
0.0
  9
$UCSORGRIGHT
 10
0.0
 20
0.0
 30
0.0
  9
$UCSORGFRONT
 10
0.0
 20
0.0
 30
0.0
  9
$UCSORGBACK
 10
0.0
 20
0.0
 30
0.0
  9
$PUCSBASE
  2

  9
$PUCSNAME
  2

  9
$PUCSORG
 10
0.0
 20
0.0
 30
0.0
  9
$PUCSXDIR
 10
1.0
 20
0.0
 30
0.0
  9
$PUCSYDIR
 10
0.0
 20
1.0
 30
0.0
  9
$PUCSORTHOREF
  2

  9
$PUCSORTHOVIEW
 70
     0
  9
$PUCSORGTOP
 10
0.0
 20
0.0
 30
0.0
  9
$PUCSORGBOTTOM
 10
0.0
 20
0.0
 30
0.0
  9
$PUCSORGLEFT
 10
0.0
 20
0.0
 30
0.0
  9
$PUCSORGRIGHT
 10
0.0
 20
0.0
 30
0.0
  9
$PUCSORGFRONT
 10
0.0
 20
0.0
 30
0.0
  9
$PUCSORGBACK
 10
0.0
 20
0.0
 30
0.0
  9
$USERI1
 70
     0
  9
$USERI2
 70
     0
  9
$USERI3
 70
     0
  9
$USERI4
 70
     0
  9
$USERI5
 70
     0
  9
$USERR1
 40
0.0
  9
$USERR2
 40
0.0
  9
$USERR3
 40
0.0
  9
$USERR4
 40
0.0
  9
$USERR5
 40
0.0
  9
$WORLDVIEW
 70
     1
  9
$SHADEDGE
 70
     3
  9
$SHADEDIF
 70
    70
  9
$TILEMODE
 70
     1
  9
$MAXACTVP
 70
    64
  9
$PINSBASE
 10
0.0
 20
0.0
 30
0.0
  9
$PLIMCHECK
 70
     0
  9
$PEXTMIN
 10
1.0000000000E+20
 20
1.0000000000E+20
 30
1.0000000000E+20
  9
$PEXTMAX
 10
-1.0000000000E+20
 20
-1.0000000000E+20
 30
-1.0000000000E+20
  9
$PLIMMIN
 10
0.0
 20
0.0
  9
$PLIMMAX
 10
420.0
 20
297.0
  9
$UNITMODE
 70
     0
  9
$VISRETAIN
 70
     1
  9
$PLINEGEN
 70
     0
  9
$PSLTSCALE
 70
     1
  9
$TREEDEPTH
 70
  3020
  9
$CMLSTYLE
  2
Standard
  9
$CMLJUST
 70
     0
  9
$CMLSCALE
 40
20.0
  9
$PROXYGRAPHICS
 70
     1
  9
$MEASUREMENT
 70
     1
  9
$CELWEIGHT
370
    -1
  9
$ENDCAPS
280
     0
  9
$JOINSTYLE
280
     0
  9
$LWDISPLAY
290
     1
  9
$INSUNITS
 70
     4
  9
$HYPERLINKBASE
  1

  9
$STYLESHEET
  1

  9
$XEDIT
290
     1
  9
$CEPSNTYPE
380
     0
  9
$PSTYLEMODE
290
     1
  9
$FINGERPRINTGUID
  2
{0BC778C8-AE60-4DF8-B77F-F25940963E44}
  9
$VERSIONGUID
  2
{FAEB1C32-E019-11D5-929B-00C0DF256EC4}
  9
$EXTNAMES
290
     1
  9
$PSVPSCALE
 40
0.0
  9
$OLESTARTUP
290
     0
  0
ENDSEC
  0
SECTION
  2
CLASSES
  0
CLASS
  1
ACDBDICTIONARYWDFLT
  2
AcDbDictionaryWithDefault
  3
ObjectDBX Classes
 90
        0
280
     0
281
     0
  0
CLASS
  1
VISUALSTYLE
  2
AcDbVisualStyle
  3
ObjectDBX Classes
 90
     4095
280
     0
281
     0
  0
CLASS
  1
MATERIAL
  2
AcDbMaterial
  3
ObjectDBX Classes
 90
     1153
280
     0
281
     0
  0
CLASS
  1
SCALE
  2
AcDbScale
  3
ObjectDBX Classes
 90
     1153
280
     0
281
     0
  0
CLASS
  1
TABLESTYLE
  2
AcDbTableStyle
  3
ObjectDBX Classes
 90
     4095
280
     0
281
     0
  0
CLASS
  1
MLEADERSTYLE
  2
AcDbMLeaderStyle
  3
ACDB_MLEADERSTYLE_CLASS
 90
     4095
280
     0
281
     0
  0
CLASS
  1
SUN
  2
AcDbSun
  3
SCENEOE
 90
     1153
280
     0
281
     0
  0
CLASS
  1
ACDBPLACEHOLDER
  2
AcDbPlaceHolder
  3
ObjectDBX Classes
 90
        0
280
     0
281
     0
  0
CLASS
  1
LAYOUT
  2
AcDbLayout
  3
ObjectDBX Classes
 90
        0
280
     0
281
     0
  0
ENDSEC
  0
SECTION
  2
TABLES
  0
TABLE
  2
VPORT
  5
8
330
0
100
AcDbSymbolTable
 70
     1
  0
VPORT
  5
29
330
8
100
AcDbSymbolTableRecord
100
AcDbViewportTableRecord
  2
*Active
 70
     0
 10
0.0
 20
0.0
 11
1.0
 21
1.0
 12
0.0
 22
-2.6151996169
 13
0.0
 23
0.0
 14
10.0
 24
10.0
 15
10.0
 25
10.0
 16
0.0
 26
0.0
 36
1.0
 17
0.0
 27
0.0
 37
0.0
 40
38.5249927816
 41
0.5295263809
 42
50.0
 43
0.0
 44
0.0
 50
0.0
 51
0.0
 71
     0
 72
   100
 73
     1
 74
     3
 75
     0
 76
     0
 77
     0
 78
     0
281
     0
 65
     1
110
0.0
120
0.0
130
0.0
111
1.0
121
0.0
131
0.0
112
0.0
122
1.0
132
0.0
 79
     0
146
0.0
  0
ENDTAB
  0
TABLE
  2
LTYPE
  5
5
330
0
100
AcDbSymbolTable
 70
     6
  0
LTYPE
  5
14
330
5
100
AcDbSymbolTableRecord
100
AcDbLinetypeTableRecord
  2
ByBlock
 70
     0
  3

 72
    65
 73
     0
 40
0.0
  0
LTYPE
  5
15
330
5
100
AcDbSymbolTableRecord
100
AcDbLinetypeTableRecord
  2
ByLayer
 70
     0
  3

 72
    65
 73
     0
 40
0.0
  0
LTYPE
  5
16
330
5
100
AcDbSymbolTableRecord
100
AcDbLinetypeTableRecord
  2
Continuous
 70
     0
  3
Solid line
 72
    65
 73
     0
 40
0.0
  0
LTYPE
  5
6E
330
5
100
AcDbSymbolTableRecord
100
AcDbLinetypeTableRecord
  2
HIDDEN
 70
     0
  3
Hidden __ __ __ __ __ __ __ __ __ __ __ __ __ __
 72
    65
 73
     2
 40
1.905
 49
1.27
 74
     0
 49
-0.635
 74
     0
  0
LTYPE
  5
6F
330
5
100
AcDbSymbolTableRecord
100
AcDbLinetypeTableRecord
  2
PHANTOM
 70
     0
  3
Phantom ______  __  __  ______  __  __  ______
 72
    65
 73
     6
 40
12.7
 49
6.35
 74
     0
 49
-1.27
 74
     0
 49
1.27
 74
     0
 49
-1.27
 74
     0
 49
1.27
 74
     0
 49
-1.27
 74
     0
  0
LTYPE
  5
70
330
5
100
AcDbSymbolTableRecord
100
AcDbLinetypeTableRecord
  2
CENTER
 70
     0
  3
Center ____ _ ____ _ ____ _ ____ _ ____ _ ____
 72
    65
 73
     4
 40
10.16
 49
6.35
 74
     0
 49
-1.27
 74
     0
 49
1.27
 74
     0
 49
-1.27
 74
     0
  0
LTYPE
  5
71
330
5
100
AcDbSymbolTableRecord
100
AcDbLinetypeTableRecord
  2
CENTERX2
 70
     0
  3
Center (2x) ________  __  ________  __  _____
 72
    65
 73
     4
 40
20.32
 49
12.7
 74
     0
 49
-2.54
 74
     0
 49
2.54
 74
     0
 49
-2.54
 74
     0
  0
LTYPE
  5
72
330
5
100
AcDbSymbolTableRecord
100
AcDbLinetypeTableRecord
  2
DOT2
 70
     0
  3
Dot (.5x) ........................................
 72
    65
 73
     2
 40
0.635
 49
0.0
 74
     0
 49
-0.635
 74
     0
  0
ENDTAB
  0
TABLE
  2
LAYER
  5
2
330
0
100
AcDbSymbolTable
 70
     1
  0
LAYER
  5
10
330
2
100
AcDbSymbolTableRecord
100
AcDbLayerTableRecord
  2
0
 70
     0
 62
     7
  6
Continuous
370
    -3
390
F
  0
ENDTAB
  0
TABLE
  2
STYLE
  5
3
330
0
100
AcDbSymbolTable
 70
     2
  0
STYLE
  5
11
330
3
100
AcDbSymbolTableRecord
100
AcDbTextStyleTableRecord
  2
Standard
 70
     0
 40
0.0
 41
1.0
 50
0.0
 71
     0
 42
4.0
  3
txt
  4

  0
STYLE
  5
114
330
3
100
AcDbSymbolTableRecord
100
AcDbTextStyleTableRecord
  2
SLDTEXTSTYLE0
 70
     0
 40
0.0
 41
0.7
 50
0.0
 71
     0
 42
4.0
  3
TXT
  4
bigfont
  0
ENDTAB
  0
TABLE
  2
VIEW
  5
6
330
0
100
AcDbSymbolTable
 70
     0
  0
ENDTAB
  0
TABLE
  2
UCS
  5
7
330
0
100
AcDbSymbolTable
 70
     0
  0
ENDTAB
  0
TABLE
  2
APPID
  5
9
330
0
100
AcDbSymbolTable
 70
     1
  0
APPID
  5
12
330
9
100
AcDbSymbolTableRecord
100
AcDbRegAppTableRecord
  2
ACAD
 70
     0
  0
ENDTAB
  0
TABLE
  2
DIMSTYLE
  5
A
330
0
100
AcDbSymbolTable
 70
     1
100
AcDbDimStyleTable
  0
DIMSTYLE
105
27
330
A
100
AcDbSymbolTableRecord
100
AcDbDimStyleTableRecord
  2
ISO-25
 70
     0
 41
2.5
 42
0.625
 43
3.75
 44
1.25
 73
     0
 74
     0
 77
     1
 78
     8
140
2.5
141
2.5
143
0.0393700787
147
0.625
171
     3
172
     1
178
     0
271
     2
272
     2
274
     3
278
    44
283
     0
284
     8
340
11
  0
ENDTAB
  0
TABLE
  2
BLOCK_RECORD
  5
1
330
0
100
AcDbSymbolTable
 70
     1
  0
BLOCK_RECORD
  5
1F
330
1
100
AcDbSymbolTableRecord
100
AcDbBlockTableRecord
  2
*Model_Space
340
22
  0
BLOCK_RECORD
  5
1B
330
1
100
AcDbSymbolTableRecord
100
AcDbBlockTableRecord
  2
*Paper_Space
340
1E
  0
BLOCK_RECORD
  5
23
330
1
100
AcDbSymbolTableRecord
100
AcDbBlockTableRecord
  2
*Paper_Space0
340
26
  0
ENDTAB
  0
ENDSEC
  0
SECTION
  2
BLOCKS
  0
BLOCK
  5
20
330
1F
100
AcDbEntity
  8
0
100
AcDbBlockBegin
  2
*Model_Space
 70
     0
 10
0.0
 20
0.0
 30
0.0
  3
*Model_Space
  1

  0
ENDBLK
  5
21
330
1F
100
AcDbEntity
  8
0
100
AcDbBlockEnd
  0
BLOCK
  5
1C
330
1B
100
AcDbEntity
 67
     1
  8
0
100
AcDbBlockBegin
  2
*Paper_Space
 70
     0
 10
0.0
 20
0.0
 30
0.0
  3
*Paper_Space
  1

  0
ENDBLK
  5
1D
330
1B
100
AcDbEntity
 67
     1
  8
0
100
AcDbBlockEnd
  0
BLOCK
  5
24
330
23
100
AcDbEntity
  8
0
100
AcDbBlockBegin
  2
*Paper_Space0
 70
     0
 10
0.0
 20
0.0
 30
0.0
  3
*Paper_Space0
  1

  0
ENDBLK
  5
25
330
23
100
AcDbEntity
  8
0
100
AcDbBlockEnd
  0
ENDSEC
  0
SECTION
  2
ENTITIES
  0
SPLINE
  5
75
330
1F
100
AcDbEntity
  8
0
  6
Continuous
 62
     7
370
    15
100
AcDbSpline
210
0.0
220
0.0
230
1.0
 70
     8
 71
     3
 72
    23
 73
    19
 74
     0
 42
0.000000001
 43
0.00000001
 40
0.0
 40
0.0
 40
0.0
 40
0.0
 40
0.0877310226443742
 40
0.1690056846605415
 40
0.2448021443962128
 40
0.3142317617715646
 40
0.3789415805204451
 40
0.4391718549354331
 40
0.4957867026411694
 40
0.5494347689706731
 40
0.6020003354234681
 40
0.6542545252912724
 40
0.7069046930323722
 40
0.7612021463875932
 40
0.8168623067330522
 40
0.8746699957507753
 40
0.9360077445631971
 40
1.0
 40
1.0
 40
1.0
 40
1.0
 10
-1.276143506312958
 20
-12.97345818826592
 30
0.0
 10
-1.246496557174658
 20
-12.97296248001217
 30
0.0
 10
-1.189384457187801
 20
-12.97200754400106
 30
0.0
 10
-1.106860077478635
 20
-12.96534348179713
 30
0.0
 10
-1.031123060267411
 20
-12.95380829728943
 30
0.0
 10
-0.9619633178068082
 20
-12.93772009208248
 30
0.0
 10
-0.899292787266192
 20
-12.91772291479531
 30
0.0
 10
-0.84322359917284
 20
-12.89243198966414
 30
0.0
 10
-0.7940448847409718
 20
-12.86209408786802
 30
0.0
 10
-0.7514307735172462
 20
-12.82701835532902
 30
0.0
 10
-0.7148513681415947
 20
-12.7877249774258
 30
0.0
 10
-0.6831561829689689
 20
-12.74485807090274
 30
0.0
 10
-0.6562262404067152
 20
-12.69811130309305
 30
0.0
 10
-0.6351163478007814
 20
-12.64728908972887
 30
0.0
 10
-0.6172333583393042
 20
-12.59338002175347
 30
0.0
 10
-0.6060711444543432
 20
-12.53526709977647
 30
0.0
 10
-0.5983100922133757
 20
-12.47379304651583
 30
0.0
 10
-0.5974565746995163
 20
-12.43142104579279
 30
0.0
 10
-0.5970207771337708
 20
-12.40978632304719
 30
0.0
  0
SPLINE
  5
76
330
1F
100
AcDbEntity
  8
0
  6
Continuous
 62
     7
370
    15
100
AcDbSpline
210
0.0
220
0.0
230
1.0
 70
     8
 71
     3
 72
    15
 73
    11
 74
     0
 42
0.000000001
 43
0.00000001
 40
0.0
 40
0.0
 40
0.0
 40
0.0
 40
0.1428946013811196
 40
0.2768798469236276
 40
0.4054067255101094
 40
0.5318333729300087
 40
0.6542249868698846
 40
0.7698109407908966
 40
0.8841096717431497
 40
1.0
 40
1.0
 40
1.0
 40
1.0
 10
-0.5970207771337708
 20
-12.40978632304719
 30
0.0
 10
-0.5979414589476175
 20
-12.37841252448452
 30
0.0
 10
-0.5997254188538653
 20
-12.31762105679095
 30
0.0
 10
-0.6176992590769109
 20
-12.23014400680885
 30
0.0
 10
-0.6458784433500411
 20
-12.14931366161621
 30
0.0
 10
-0.6862227426104278
 20
-12.07666039429654
 30
0.0
 10
-0.735051079800838
 20
-12.0129241280614
 30
0.0
 10
-0.7924477553189818
 20
-11.96077737099737
 30
0.0
 10
-0.8565726159275997
 20
-11.91908796053058
 30
0.0
 10
-0.9044512866245635
 20
-11.90258098703876
 30
0.0
 10
-0.9285561458330649
 20
-11.89427043317026
 30
0.0
  0
SPLINE
  5
77
330
1F
100
AcDbEntity
  8
0
  6
Continuous
 62
     7
370
    15
100
AcDbSpline
210
0.0
220
0.0
230
1.0
 70
     8
 71
     3
 72
    15
 73
    11
 74
     0
 42
0.000000001
 43
0.00000001
 40
0.0
 40
0.0
 40
0.0
 40
0.0
 40
0.0763829976036996
 40
0.1659855054655312
 40
0.2707148802617393
 40
0.3888240826834105
 40
0.5206018700426664
 40
0.6660294782576529
 40
0.8252434598020223
 40
1.0
 40
1.0
 40
1.0
 40
1.0
 10
-0.9285561458330649
 20
-11.89427043317026
 30
0.0
 10
-0.9373841177536614
 20
-11.89211179897234
 30
0.0
 10
-0.9565679076996688
 20
-11.88742093844449
 30
0.0
 10
-0.9883457055445929
 20
-11.88209674103871
 30
0.0
 10
-1.025174498973061
 20
-11.87705519901951
 30
0.0
 10
-1.067233809948248
 20
-11.8737103705442
 30
0.0
 10
-1.114140068074651
 20
-11.87038853027048
 30
0.0
 10
-1.166036671642652
 20
-11.86885724464559
 30
0.0
 10
-1.223041839764365
 20
-11.86753465046332
 30
0.0
 10
-1.262765791315109
 20
-11.86725293636054
 30
0.0
 10
-1.283552117904004
 20
-11.8671055240031
 30
0.0
  0
CIRCLE
  5
83
330
1F
100
AcDbEntity
  8
0
  6
Continuous
 62
     7
370
    15
100
AcDbCircle
 10
-2.738159379
 20
5.225279779
 30
0.0
 40
0.9553463357274037
  0
CIRCLE
  5
84
330
1F
100
AcDbEntity
  8
0
  6
Continuous
 62
     7
370
    15
100
AcDbCircle
 10
-4.9538178126
 20
3.751806979
 30
0.0
 40
0.9951876319630832
  0
CIRCLE
  5
85
330
1F
100
AcDbEntity
  8
0
  6
Continuous
 62
     7
370
    15
100
AcDbCircle
 10
-6.4249751459
 20
1.5554031942
 30
0.0
 40
0.9597274303132987
  0
CIRCLE
  5
86
330
1F
100
AcDbEntity
  8
0
  6
Continuous
 62
     7
370
    15
100
AcDbCircle
 10
-6.9424492168
 20
-1.0518980051
 30
0.0
 40
0.8449639400871727
  0
CIRCLE
  5
87
330
1F
100
AcDbEntity
  8
0
  6
Continuous
 62
     7
370
    15
100
AcDbCircle
 10
1.4736842463
 20
0.5609368873
 30
0.0
 40
0.6535782619551742
  0
CIRCLE
  5
88
330
1F
100
AcDbEntity
  8
0
  6
Continuous
 62
     7
370
    15
100
AcDbCircle
 10
3.8661015775
 20
1.2469737373
 30
0.0
 40
0.5717463059969149
  0
CIRCLE
  5
89
330
1F
100
AcDbEntity
  8
0
  6
Continuous
 62
     7
370
    15
100
AcDbCircle
 10
2.1522451955
 20
2.9184311206
 30
0.0
 40
0.6215935561019603
  0
CIRCLE
  5
8A
330
1F
100
AcDbEntity
  8
0
  6
Continuous
 62
     7
370
    15
100
AcDbCircle
 10
2.4534883658
 20
5.2508413607
 30
0.0
 40
0.6385904970970078
  0
CIRCLE
  5
8B
330
1F
100
AcDbEntity
  8
0
  6
Continuous
 62
     7
370
    15
100
AcDbCircle
 10
4.7097095618
 20
3.7881358917
 30
0.0
 40
0.551213393444089
  0
CIRCLE
  5
8C
330
1F
100
AcDbEntity
  8
0
  6
Continuous
 62
     7
370
    15
100
AcDbCircle
 10
6.1609679823
 20
1.5565073276
 30
0.0
 40
0.4863560514981151
  0
CIRCLE
  5
8D
330
1F
100
AcDbEntity
  8
0
  6
Continuous
 62
     7
370
    15
100
AcDbCircle
 10
3.8952223741
 20
-3.3667979113
 30
0.0
 40
0.5461889325150975
  0
CIRCLE
  5
8E
330
1F
100
AcDbEntity
  8
0
  6
Continuous
 62
     7
370
    15
100
AcDbCircle
 10
2.1930151384
 20
-5.0799239305
 30
0.0
 40
0.5394183416570826
  0
CIRCLE
  5
8F
330
1F
100
AcDbEntity
  8
0
  6
Continuous
 62
     7
370
    15
100
AcDbCircle
 10
6.6505512494
 20
-1.0438531329
 30
0.0
 40
0.4648873054771538
  0
CIRCLE
  5
90
330
1F
100
AcDbEntity
  8
0
  6
Continuous
 62
     7
370
    15
100
AcDbCircle
 10
4.4634694894
 20
-1.0539295208
 30
0.0
 40
0.5390055403696321
  0
CIRCLE
  5
91
330
1F
100
AcDbEntity
  8
0
  6
Continuous
 62
     7
370
    15
100
AcDbCircle
 10
1.4684333918
 20
-2.6608028886
 30
0.0
 40
0.6513406008254021
  0
CIRCLE
  5
92
330
1F
100
AcDbEntity
  8
0
  6
Continuous
 62
     7
370
    15
100
AcDbCircle
 10
-0.1471129453
 20
-3.2973537822
 30
0.0
 40
0.6463067223370409
  0
CIRCLE
  5
93
330
1F
100
AcDbEntity
  8
0
  6
Continuous
 62
     7
370
    15
100
AcDbCircle
 10
-1.7343445019
 20
-2.6541020951
 30
0.0
 40
0.6439304111534945
  0
CIRCLE
  5
94
330
1F
100
AcDbEntity
  8
0
  6
Continuous
 62
     7
370
    15
100
AcDbCircle
 10
-0.1530404701
 20
-1.038559122
 30
0.0
 40
0.6991371484329587
  0
CIRCLE
  5
95
330
1F
100
AcDbEntity
  8
0
  6
Continuous
 62
     7
370
    15
100
AcDbCircle
 10
2.101773243
 20
-1.0541685734
 30
0.0
 40
0.6354284441176379
  0
CIRCLE
  5
96
330
1F
100
AcDbEntity
  8
0
  6
Continuous
 62
     7
370
    15
100
AcDbCircle
 10
-2.3912139701
 20
-1.0558694198
 30
0.0
 40
0.6451427715109694
  0
CIRCLE
  5
97
330
1F
100
AcDbEntity
  8
0
  6
Continuous
 62
     7
370
    15
100
AcDbCircle
 10
-1.7133975087
 20
0.5586792882
 30
0.0
 40
0.6470014172310311
  0
CIRCLE
  5
98
330
1F
100
AcDbEntity
  8
0
  6
Continuous
 62
     7
370
    15
100
AcDbCircle
 10
-0.1351212267
 20
5.7406679535
 30
0.0
 40
0.8651722807475117
  0
CIRCLE
  5
99
330
1F
100
AcDbEntity
  8
0
  6
Continuous
 62
     7
370
    15
100
AcDbCircle
 10
6.1586282785
 20
-3.6569636846
 30
0.0
 40
0.4156678277853225
  0
CIRCLE
  5
9A
330
1F
100
AcDbEntity
  8
0
  6
Continuous
 62
     7
370
    15
100
AcDbCircle
 10
4.6991961164
 20
-5.8681180252
 30
0.0
 40
0.4125469181745887
  0
CIRCLE
  5
9B
330
1F
100
AcDbEntity
  8
0
  6
Continuous
 62
     7
370
    15
100
AcDbCircle
 10
2.4660298087
 20
-7.3376972418
 30
0.0
 40
0.4320315433569517
  0
CIRCLE
  5
9C
330
1F
100
AcDbEntity
  8
0
  6
Continuous
 62
     7
370
    15
100
AcDbCircle
 10
-0.1483682342
 20
-7.8438827506
 30
0.0
 40
0.4635619017765604
  0
CIRCLE
  5
9D
330
1F
100
AcDbEntity
  8
0
  6
Continuous
 62
     7
370
    15
100
AcDbCircle
 10
-2.7321949445
 20
-7.3161675656
 30
0.0
 40
0.4987716624108707
  0
CIRCLE
  5
9E
330
1F
100
AcDbEntity
  8
0
  6
Continuous
 62
     7
370
    15
100
AcDbCircle
 10
-4.940502918
 20
-5.8471135279
 30
0.0
 40
0.5388882717327164
  0
CIRCLE
  5
9F
330
1F
100
AcDbEntity
  8
0
  6
Continuous
 62
     7
370
    15
100
AcDbCircle
 10
-6.4174889907
 20
-3.641610853
 30
0.0
 40
0.6236640851649784
  0
CIRCLE
  5
A0
330
1F
100
AcDbEntity
  8
0
  6
Continuous
 62
     7
370
    15
100
AcDbCircle
 10
-0.1552700064
 20
3.3269128466
 30
0.0
 40
0.7786301499800237
  0
CIRCLE
  5
A1
330
1F
100
AcDbEntity
  8
0
  6
Continuous
 62
     7
370
    15
100
AcDbCircle
 10
-0.1385135122
 20
1.2101773794
 30
0.0
 40
0.639123932911783
  0
CIRCLE
  5
A2
330
1F
100
AcDbEntity
  8
0
  6
Continuous
 62
     7
370
    15
100
AcDbCircle
 10
-3.9115900828
 20
1.0905421012
 30
0.0
 40
0.8494073312900793
  0
CIRCLE
  5
A3
330
1F
100
AcDbEntity
  8
0
  6
Continuous
 62
     7
370
    15
100
AcDbCircle
 10
-2.3148450825
 20
2.6991808451
 30
0.0
 40
0.8533302627179844
  0
CIRCLE
  5
A4
330
1F
100
AcDbEntity
  8
0
  6
Continuous
 62
     7
370
    15
100
AcDbCircle
 10
-4.5451187093
 20
-1.0566880524
 30
0.0
 40
0.7806147781794692
  0
CIRCLE
  5
A5
330
1F
100
AcDbEntity
  8
0
  6
Continuous
 62
     7
370
    15
100
AcDbCircle
 10
-4.0358805579
 20
-3.3946271362
 30
0.0
 40
0.6283251399166834
  0
CIRCLE
  5
A6
330
1F
100
AcDbEntity
  8
0
  6
Continuous
 62
     7
370
    15
100
AcDbCircle
 10
-2.4217935054
 20
-5.0025190928
 30
0.0
 40
0.5656723293121768
  0
CIRCLE
  5
A7
330
1F
100
AcDbEntity
  8
0
  6
Continuous
 62
     7
370
    15
100
AcDbCircle
 10
-0.1454917691
 20
-5.6712258556
 30
0.0
 40
0.5178477358292062
  0
SPLINE
  5
A8
330
1F
100
AcDbEntity
  8
0
  6
Continuous
 62
     7
370
    15
100
AcDbSpline
210
0.0
220
0.0
230
1.0
 70
     8
 71
     3
 72
    27
 73
    23
 74
     0
 42
0.000000001
 43
0.00000001
 40
0.0
 40
0.0
 40
0.0
 40
0.0
 40
0.046762835121562
 40
0.0919686966072121
 40
0.1358043853805046
 40
0.1782315801839237
 40
0.2194414332265375
 40
0.2601769432685921
 40
0.3002796061140318
 40
0.3405476414666165
 40
0.3803111902076693
 40
0.419641953569812
 40
0.4590173240985174
 40
0.4981819588897613
 40
0.5376702145628713
 40
0.5779133315743611
 40
0.6186488416164153
 40
0.6607616027603175
 40
0.7452991770631799
 40
0.829744741690631
 40
0.9146020866092537
 40
1.0
 40
1.0
 40
1.0
 40
1.0
 10
-7.377135151539069
 20
-11.82759292885085
 30
0.0
 10
-7.40432351808245
 20
-11.82798740504493
 30
0.0
 10
-7.457795011574532
 20
-11.8287632233057
 30
0.0
 10
-7.536351068048833
 20
-11.83725446810337
 30
0.0
 10
-7.611792205260797
 20
-11.84976124310867
 30
0.0
 10
-7.683556162995023
 20
-11.86851622737305
 30
0.0
 10
-7.752035638753072
 20
-11.89189881562366
 30
0.0
 10
-7.816824263302097
 20
-11.92101427524971
 30
0.0
 10
-7.878473157564157
 20
-11.9551410091688
 30
0.0
 10
-7.936294288471488
 20
-11.9944839525699
 30
0.0
 10
-7.989801721701373
 20
-12.03871299257413
 30
0.0
 10
-8.040447494120507
 20
-12.08547000808396
 30
0.0
 10
-8.085800046759168
 20
-12.13693563952183
 30
0.0
 10
-8.127588808264763
 20
-12.19141286117586
 30
0.0
 10
-8.164596891345063
 20
-12.24986432500389
 30
0.0
 10
-8.197910365588484
 20
-12.31149385130836
 30
0.0
 10
-8.227316882997439
 20
-12.37680654242741
 30
0.0
 10
-8.259371983803254
 20
-12.46872920825474
 30
0.0
 10
-8.292056455431158
 20
-12.58712347593487
 30
0.0
 10
-8.320410274874632
 20
-12.73199968585058
 30
0.0
 10
-8.338470989377205
 20
-12.87915841055299
 30
0.0
 10
-8.34048115365263
 20
-12.97814005079302
 30
0.0
 10
-8.341489426973515
 20
-13.02778800660025
 30
0.0
  0
SPLINE
  5
A9
330
1F
100
AcDbEntity
  8
0
  6
Continuous
 62
     7
370
    15
100
AcDbSpline
210
0.0
220
0.0
230
1.0
 70
     8
 71
     3
 72
    23
 73
    19
 74
     0
 42
0.000000001
 43
0.00000001
 40
0.0
 40
0.0
 40
0.0
 40
0.0
 40
0.0772311103286296
 40
0.1511651795217246
 40
0.2207847057253997
 40
0.2871495176777699
 40
0.3506324812950842
 40
0.4113067715078921
 40
0.46996441513765
 40
0.5267072266832783
 40
0.5824983333641272
 40
0.6385087274080257
 40
0.6949179812139089
 40
0.7524203526591534
 40
0.8112509754155074
 40
0.8718561089908078
 40
0.9346441878526853
 40
0.9999999999999999
 40
0.9999999999999999
 40
0.9999999999999999
 40
0.9999999999999999
 10
-6.602935240274797
 20
-12.46102921988526
 30
0.0
 10
-6.61147086288866
 20
-12.43437173952717
 30
0.0
 10
-6.62817771740964
 20
-12.38219480219218
 30
0.0
 10
-6.657842371870912
 20
-12.3078333936722
 30
0.0
 10
-6.689879209618686
 20
-12.23880171136144
 30
0.0
 10
-6.725051374457453
 20
-12.17556900159733
 30
0.0
 10
-6.763435091828148
 20
-12.11812011827389
 30
0.0
 10
-6.80414648668804
 20
-12.06575685561339
 30
0.0
 10
-6.848160963261519
 20
-12.01945658192919
 30
0.0
 10
-6.894583230313399
 20
-11.97815172804127
 30
0.0
 10
-6.944612047068758
 20
-11.94296394525132
 30
0.0
 10
-6.99707452080615
 20
-11.91178177893725
 30
0.0
 10
-7.053076822156862
 20
-11.8859832913319
 30
0.0
 10
-7.111813316766556
 20
-11.86416310030425
 30
0.0
 10
-7.173833008415864
 20
-11.84755558375028
 30
0.0
 10
-7.238883344654031
 20
-11.83587154072584
 30
0.0
 10
-7.307021480242821
 20
-11.82910938905508
 30
0.0
 10
-7.353453792573419
 20
-11.82810512337425
 30
0.0
 10
-7.377135151539069
 20
-11.82759292885085
 30
0.0
  0
SPLINE
  5
AB
330
1F
100
AcDbEntity
  8
0
  6
Continuous
 62
     7
370
    15
100
AcDbSpline
210
0.0
220
0.0
230
1.0
 70
     8
 71
     3
 72
    23
 73
    19
 74
     0
 42
0.000000001
 43
0.00000001
 40
0.0
 40
0.0
 40
0.0
 40
0.0
 40
0.0686494919759952
 40
0.1349373737851551
 40
0.1988418982006104
 40
0.2614093284183087
 40
0.322516763706904
 40
0.3823768656987771
 40
0.4424709047536866
 40
0.5022278334792903
 40
0.5621014330908559
 40
0.6217316080948792
 40
0.6818513124344148
 40
0.7420491672939581
 40
0.803908130474381
 40
0.8671621602461702
 40
0.9323605979385292
 40
0.9999999999999999
 40
0.9999999999999999
 40
0.9999999999999999
 40
0.9999999999999999
 10
-7.35614408536444
 20
-11.47197957248066
 30
0.0
 10
-7.319280244950296
 20
-11.47267443763365
 30
0.0
 10
-7.246820716555544
 20
-11.47404026389369
 30
0.0
 10
-7.140499268422992
 20
-11.48527445430391
 30
0.0
 10
-7.038671081036352
 20
-11.50409049262249
 30
0.0
 10
-6.940894914535993
 20
-11.52877535549224
 30
0.0
 10
-6.84818732944825
 20
-11.56257407125222
 30
0.0
 10
-6.75954182489455
 20
-11.60275685973969
 30
0.0
 10
-6.675840248102603
 20
-11.65103161263754
 30
0.0
 10
-6.596431329388587
 20
-11.7060716524304
 30
0.0
 10
-6.522607724025418
 20
-11.76797848581789
 30
0.0
 10
-6.453336349101905
 20
-11.83527317548712
 30
0.0
 10
-6.391441727388957
 20
-11.90963759777981
 30
0.0
 10
-6.334472455598353
 20
-11.98927200116809
 30
0.0
 10
-6.284220976994156
 20
-12.07528064306778
 30
0.0
 10
-6.238838590506393
 20
-12.1669136204736
 30
0.0
 10
-6.199811058966501
 20
-12.26485211980352
 30
0.0
 10
-6.178929385921837
 20
-12.33306899355918
 30
0.0
 10
-6.168296693600117
 20
-12.36780419069793
 30
0.0
  0
SPLINE
  5
AC
330
1F
100
AcDbEntity
  8
0
  6
Continuous
 62
     7
370
    15
100
AcDbSpline
210
0.0
220
0.0
230
1.0
 70
     8
 71
     3
 72
    31
 73
    27
 74
     0
 42
0.000000001
 43
0.00000001
 40
0.0
 40
0.0
 40
0.0
 40
0.0
 40
0.0494014326173354
 40
0.0976047534771126
 40
0.1442547055445428
 40
0.1894721438466751
 40
0.2339150059350919
 40
0.2772371111508618
 40
0.3198588355644321
 40
0.3619566544332704
 40
0.4034857542265481
 40
0.4439336363338552
 40
0.4836491750513751
 40
0.5228932833172718
 40
0.561858384094737
 40
0.6007948668981952
 40
0.640104336189136
 40
0.6796434268265381
 40
0.7193997691904882
 40
0.7588541926680975
 40
0.7983154646830738
 40
0.8378024081343655
 40
0.8774685864444088
 40
0.9176827969423326
 40
0.9583928898538524
 40
1.0
 40
1.0
 40
1.0
 40
1.0
 10
-8.776127973648194
 20
-13.02964015949801
 30
0.0
 10
-8.77543068608686
 20
-12.99052835583714
 30
0.0
 10
-8.774053021980363
 20
-12.91325331031496
 30
0.0
 10
-8.76627613044324
 20
-12.79923173756676
 30
0.0
 10
-8.751992799585635
 20
-12.68918697108446
 30
0.0
 10
-8.732157407567305
 20
-12.58304662577898
 30
0.0
 10
-8.707057701391635
 20
-12.48072474322047
 30
0.0
 10
-8.67607492767665
 20
-12.38217147262782
 30
0.0
 10
-8.639601017203738
 20
-12.28751291185607
 30
0.0
 10
-8.59774716656426
 20
-12.19664468087391
 30
0.0
 10
-8.550235306208995
 20
-12.11058110876125
 30
0.0
 10
-8.498483470774309
 20
-12.02919984917885
 30
0.0
 10
-8.441257180252032
 20
-11.9538371462081
 30
0.0
 10
-8.38025310903348
 20
-11.88305317465421
 30
0.0
 10
-8.313947639557309
 20
-11.8180265670896
 30
0.0
 10
-8.242543239583345
 20
-11.75861002302098
 30
0.0
 10
-8.166655955877868
 20
-11.70426158826529
 30
0.0
 10
-8.086296865121485
 20
-11.65548581178427
 30
0.0
 10
-8.002516354206703
 20
-11.61268761992368
 30
0.0
 10
-7.916558833355911
 20
-11.57456689750393
 30
0.0
 10
-7.828082412964783
 20
-11.54332178362563
 30
0.0
 10
-7.73778855908522
 20
-11.51734272746683
 30
0.0
 10
-7.645482877243349
 20
-11.49666098542487
 30
0.0
 10
-7.550949685197264
 20
-11.48283104001925
 30
0.0
 10
-7.454276333148919
 20
-11.47381837606919
 30
0.0
 10
-7.389091609033525
 20
-11.47259694369271
 30
0.0
 10
-7.35614408536444
 20
-11.47197957248066
 30
0.0
  0
SPLINE
  5
AD
330
1F
100
AcDbEntity
  8
0
  6
Continuous
 62
     7
370
    15
100
AcDbSpline
210
0.0
220
0.0
230
1.0
 70
     8
 71
     3
 72
    31
 73
    27
 74
     0
 42
0.000000001
 43
0.00000001
 40
0.0
 40
0.0
 40
0.0
 40
0.0
 40
0.0491959188678577
 40
0.0962478839423335
 40
0.1413486305545651
 40
0.1846561193487504
 40
0.226058682310063
 40
0.2661730836384063
 40
0.3052898413966904
 40
0.3432450951047077
 40
0.3808772760868662
 40
0.4184957931350259
 40
0.4563187508918002
 40
0.4942367370918763
 40
0.5330235289576675
 40
0.572473194333944
 40
0.6130788090898918
 40
0.6549344546107936
 40
0.6973967795046185
 40
0.7398840686663999
 40
0.7821947798191179
 40
0.8250615348667033
 40
0.8679874655774051
 40
0.9114105439600775
 40
0.9553719455228147
 40
1.0
 40
1.0
 40
1.0
 40
1.0
 10
-7.347500705174888
 20
-14.63298718466015
 30
0.0
 10
-7.387441789931026
 20
-14.63240691241502
 30
0.0
 10
-7.465583330502016
 20
-14.6312716561379
 30
0.0
 10
-7.580056182369955
 20
-14.62203778320417
 30
0.0
 10
-7.688931105179809
 20
-14.60602306759998
 30
0.0
 10
-7.792004777491906
 20
-14.58377291224645
 30
0.0
 10
-7.889624133021498
 20
-14.55626197836269
 30
0.0
 10
-7.981384370909372
 20
-14.5216507857554
 30
0.0
 10
-8.067124769939243
 20
-14.48018906697088
 30
0.0
 10
-8.147560518969282
 20
-14.4330363772901
 30
0.0
 10
-8.222349979943871
 20
-14.37946879847976
 30
0.0
 10
-8.293193891326187
 20
-14.32093197390161
 30
0.0
 10
-8.358372398500023
 20
-14.25581444944483
 30
0.0
 10
-8.41951521066768
 20
-14.1856537102501
 30
0.0
 10
-8.475290615140343
 20
-14.10952423869363
 30
0.0
 10
-8.527750601241971
 20
-14.02846028562243
 30
0.0
 10
-8.574334627275393
 20
-13.94103350759552
 30
0.0
 10
-8.616769061253304
 20
-13.84886479930704
 30
0.0
 10
-8.654014670951712
 20
-13.7528465194422
 30
0.0
 10
-8.686964007730376
 20
-13.65487529425372
 30
0.0
 10
-8.713901891843614
 20
-13.55475590550514
 30
0.0
 10
-8.7370936717486
 20
-13.45333084044456
 30
0.0
 10
-8.753941376103485
 20
-13.34974667687445
 30
0.0
 10
-8.767317931742584
 20
-13.24478061301716
 30
0.0
 10
-8.774672630968114
 20
-13.13778911609426
 30
0.0
 10
-8.77564043179159
 20
-13.06587021294889
 30
0.0
 10
-8.776127973648194
 20
-13.02964015949801
 30
0.0
  0
SPLINE
  5
AE
330
1F
100
AcDbEntity
  8
0
  6
Continuous
 62
     7
370
    15
100
AcDbSpline
210
0.0
220
0.0
230
1.0
 70
     8
 71
     3
 72
    23
 73
    19
 74
     0
 42
0.000000001
 43
0.00000001
 40
0.0
 40
0.0
 40
0.0
 40
0.0
 40
0.0715783870982359
 40
0.1400162090753557
 40
0.2061974399469814
 40
0.270156103805654
 40
0.3320010402688304
 40
0.3927550109285567
 40
0.4525790344906385
 40
0.5122527988479038
 40
0.5715322524285597
 40
0.6301517528722194
 40
0.6887691695485564
 40
0.7481639008503601
 40
0.8087033721996512
 40
0.8702562984804197
 40
0.9339000275070022
 40
0.9999999999999999
 40
0.9999999999999999
 40
0.9999999999999999
 40
0.9999999999999999
 10
-6.089271503295629
 20
-13.60689447930032
 30
0.0
 10
-6.100160412160298
 20
-13.64763194287583
 30
0.0
 10
-6.12146046937038
 20
-13.72731947773688
 30
0.0
 10
-6.163573269836602
 20
-13.8413611610161
 30
0.0
 10
-6.210839723721368
 20
-13.94838441629877
 30
0.0
 10
-6.26440672922777
 20
-14.04810732533326
 30
0.0
 10
-6.324860572300566
 20
-14.13995654332211
 30
0.0
 10
-6.390599470329421
 20
-14.22511250990054
 30
0.0
 10
-6.464227248515262
 20
-14.30178942387734
 30
0.0
 10
-6.54304241571795
 20
-14.37175694840036
 30
0.0
 10
-6.627658634044441
 20
-14.43346811833239
 30
0.0
 10
-6.71705572181203
 20
-14.48675684567253
 30
0.0
 10
-6.810801552720518
 20
-14.53209473550647
 30
0.0
 10
-6.909275018194012
 20
-14.56937783224261
 30
0.0
 10
-7.012539959439307
 20
-14.59743655909926
 30
0.0
 10
-7.12006466359373
 20
-14.61788740306774
 30
0.0
 10
-7.232162665588784
 20
-14.63048393184852
 30
0.0
 10
-7.308572507557699
 20
-14.63214230190952
 30
0.0
 10
-7.347500705174888
 20
-14.63298718466015
 30
0.0
  0
SPLINE
  5
B0
330
1F
100
AcDbEntity
  8
0
  6
Continuous
 62
     7
370
    15
100
AcDbSpline
210
0.0
220
0.0
230
1.0
 70
     8
 71
     3
 72
    23
 73
    19
 74
     0
 42
0.000000001
 43
0.00000001
 40
0.0
 40
0.0
 40
0.0
 40
0.0
 40
0.0633358805656866
 40
0.1251107589802128
 40
0.1846884118917146
 40
0.2432104439678644
 40
0.3008880404131175
 40
0.3583701155313
 40
0.4157614077031948
 40
0.4743866229897776
 40
0.5339662649724074
 40
0.594007564198808
 40
0.6550724073076805
 40
0.7186100426051385
 40
0.7843747830517764
 40
0.8529914722129204
 40
0.9249004292977568
 40
1.0
 40
1.0
 40
1.0
 40
1.0
 10
-7.388248068925638
 20
-14.27737382828995
 30
0.0
 10
-7.361463910624727
 20
-14.27681210815223
 30
0.0
 10
-7.308555727399932
 20
-14.27570251226224
 30
0.0
 10
-7.230985612725238
 20
-14.26599015702498
 30
0.0
 10
-7.156209091544374
 20
-14.25167773119785
 30
0.0
 10
-7.085132070959418
 20
-14.22959221290206
 30
0.0
 10
-7.0167984846928
 20
-14.20255108334726
 30
0.0
 10
-6.951768209429272
 20
-14.16920464138393
 30
0.0
 10
-6.890245755311483
 20
-14.12909860445125
 30
0.0
 10
-6.831507483052795
 20
-14.08356196669431
 30
0.0
 10
-6.776636578293139
 20
-14.03174905450362
 30
0.0
 10
-6.726350343926857
 20
-13.97407729785259
 30
0.0
 10
-6.68123791015595
 20
-13.91028377964785
 30
0.0
 10
-6.63940733175003
 20
-13.84139229273056
 30
0.0
 10
-6.604261957831302
 20
-13.76534479392917
 30
0.0
 10
-6.571709043090658
 20
-13.68440792442731
 30
0.0
 10
-6.544583602963198
 20
-13.59725141485817
 30
0.0
 10
-6.530900227119254
 20
-13.53661809478477
 30
0.0
 10
-6.52391004997031
 20
-13.5056434542227
 30
0.0
  0
SPLINE
  5
B1
330
1F
100
AcDbEntity
  8
0
  6
Continuous
 62
     7
370
    15
100
AcDbSpline
210
0.0
220
0.0
230
1.0
 70
     8
 71
     3
 72
    27
 73
    23
 74
     0
 42
0.000000001
 43
0.00000001
 40
0.0
 40
0.0
 40
0.0
 40
0.0
 40
0.1053432609984029
 40
0.2043754661654303
 40
0.2980686612490653
 40
0.387069938902978
 40
0.4297257277325177
 40
0.4709012389537426
 40
0.5111216710274209
 40
0.5501787824700686
 40
0.5883543698960271
 40
0.6266830105708985
 40
0.6644516852874781
 40
0.702514853950158
 40
0.7404811716294036
 40
0.7776181215946419
 40
0.8147160450669572
 40
0.8515265100150824
 40
0.8880984508373171
 40
0.9251116757437164
 40
0.9621036957071512
 40
1.0
 40
1.0
 40
1.0
 40
1.0
 10
6.47573375511783
 20
-13.02778800660025
 30
0.0
 10
6.476870944322542
 20
-13.09021200244296
 30
0.0
 10
6.479077194362917
 20
-13.211320207461
 30
0.0
 10
6.500847459514166
 20
-13.38682600115944
 30
0.0
 10
6.534039214084637
 20
-13.55052566569902
 30
0.0
 10
6.574096879872458
 20
-13.678244021062
 30
0.0
 10
6.614278743416452
 20
-13.77245148468677
 30
0.0
 10
6.646775815703275
 20
-13.83842633009912
 30
0.0
 10
6.683869927278795
 20
-13.89947625141843
 30
0.0
 10
6.724638412389402
 20
-13.9559479585788
 30
0.0
 10
6.769606411913569
 20
-14.00767672527521
 30
0.0
 10
6.818147430579232
 20
-14.0549373383518
 30
0.0
 10
6.870272311126158
 20
-14.0981845561721
 30
0.0
 10
6.926598684991475
 20
-14.13539389787784
 30
0.0
 10
6.984958479233941
 20
-14.16843254871777
 30
0.0
 10
7.044615240272859
 20
-14.19781114797289
 30
0.0
 10
7.105606528659367
 20
-14.22265826695208
 30
0.0
 10
7.168178418482562
 20
-14.24196001360079
 30
0.0
 10
7.23145223302657
 20
-14.25863940615574
 30
0.0
 10
7.296124868150295
 20
-14.26953516820134
 30
0.0
 10
7.36217788173215
 20
-14.27568439301784
 30
0.0
 10
7.40653084712618
 20
-14.27680616801587
 30
0.0
 10
7.428975113165706
 20
-14.27737382828995
 30
0.0
  0
SPLINE
  5
B2
330
1F
100
AcDbEntity
  8
0
  6
Continuous
 62
     7
370
    15
100
AcDbSpline
210
0.0
220
0.0
230
1.0
 70
     8
 71
     3
 72
    27
 73
    23
 74
     0
 42
0.000000001
 43
0.00000001
 40
0.0
 40
0.0
 40
0.0
 40
0.0
 40
0.0467628351215634
 40
0.091968696607214
 40
0.1358043853805055
 40
0.1782315801839245
 40
0.2194414332265379
 40
0.260176943268592
 40
0.3002796061140334
 40
0.3405476414666172
 40
0.3803111902076692
 40
0.4196419535698127
 40
0.4590173240985173
 40
0.4981819588897617
 40
0.5376702145628712
 40
0.5779133315743614
 40
0.6186488416164156
 40
0.6607616027603177
 40
0.74529917706318
 40
0.8297447416906311
 40
0.9146020866092537
 40
0.9999999999999999
 40
0.9999999999999999
 40
0.9999999999999999
 40
0.9999999999999999
 10
7.440088030552277
 20
-11.82759292885085
 30
0.0
 10
7.412899664008894
 20
-11.82798740504494
 30
0.0
 10
7.359428170516812
 20
-11.8287632233057
 30
0.0
 10
7.280872114042514
 20
-11.83725446810337
 30
0.0
 10
7.205430976830548
 20
-11.84976124310867
 30
0.0
 10
7.133667019096326
 20
-11.86851622737305
 30
0.0
 10
7.065187543338269
 20
-11.89189881562366
 30
0.0
 10
7.000398918789251
 20
-11.92101427524972
 30
0.0
 10
6.938750024527186
 20
-11.9551410091688
 30
0.0
 10
6.880928893619857
 20
-11.9944839525699
 30
0.0
 10
6.827421460389973
 20
-12.03871299257414
 30
0.0
 10
6.77677568797084
 20
-12.08547000808396
 30
0.0
 10
6.731423135332177
 20
-12.13693563952183
 30
0.0
 10
6.689634373826587
 20
-12.19141286117586
 30
0.0
 10
6.652626290746285
 20
-12.24986432500389
 30
0.0
 10
6.619312816502859
 20
-12.31149385130836
 30
0.0
 10
6.589906299093903
 20
-12.37680654242741
 30
0.0
 10
6.557851198288093
 20
-12.46872920825474
 30
0.0
 10
6.525166726660187
 20
-12.58712347593487
 30
0.0
 10
6.496812907216713
 20
-12.73199968585058
 30
0.0
 10
6.478752192714137
 20
-12.87915841055299
 30
0.0
 10
6.476742028438713
 20
-12.97814005079302
 30
0.0
 10
6.47573375511783
 20
-13.02778800660025
 30
0.0
  0
SPLINE
  5
B3
330
1F
100
AcDbEntity
  8
0
  6
Continuous
 62
     7
370
    15
100
AcDbSpline
210
0.0
220
0.0
230
1.0
 70
     8
 71
     3
 72
    23
 73
    19
 74
     0
 42
0.000000001
 43
0.00000001
 40
0.0
 40
0.0
 40
0.0
 40
0.0
 40
0.07723111032863
 40
0.1511651795217251
 40
0.2207847057253996
 40
0.2871495176777698
 40
0.3506324812950861
 40
0.4113067715078926
 40
0.4699644151376499
 40
0.5267072266832801
 40
0.5824983333641296
 40
0.6385087274080269
 40
0.6949179812139116
 40
0.7524203526591554
 40
0.8112509754155078
 40
0.8718561089908085
 40
0.9346441878526884
 40
1.0
 40
1.0
 40
1.0
 40
1.0
 10
8.214287941816549
 20
-12.46102921988526
 30
0.0
 10
8.205752319202688
 20
-12.43437173952716
 30
0.0
 10
8.189045464681705
 20
-12.38219480219217
 30
0.0
 10
8.159380810220432
 20
-12.3078333936722
 30
0.0
 10
8.127343972472659
 20
-12.23880171136144
 30
0.0
 10
8.092171807633896
 20
-12.17556900159733
 30
0.0
 10
8.053788090263193
 20
-12.11812011827389
 30
0.0
 10
8.013076695403305
 20
-12.0657568556134
 30
0.0
 10
7.96906221882983
 20
-12.01945658192919
 30
0.0
 10
7.922639951777945
 20
-11.97815172804127
 30
0.0
 10
7.872611135022587
 20
-11.94296394525132
 30
0.0
 10
7.820148661285194
 20
-11.91178177893724
 30
0.0
 10
7.764146359934483
 20
-11.8859832913319
 30
0.0
 10
7.705409865324789
 20
-11.86416310030425
 30
0.0
 10
7.643390173675484
 20
-11.84755558375028
 30
0.0
 10
7.578339837437316
 20
-11.83587154072584
 30
0.0
 10
7.510201701848524
 20
-11.82910938905507
 30
0.0
 10
7.463769389517928
 20
-11.82810512337425
 30
0.0
 10
7.440088030552277
 20
-11.82759292885085
 30
0.0
  0
SPLINE
  5
B5
330
1F
100
AcDbEntity
  8
0
  6
Continuous
 62
     7
370
    15
100
AcDbSpline
210
0.0
220
0.0
230
1.0
 70
     8
 71
     3
 72
    23
 73
    19
 74
     0
 42
0.000000001
 43
0.00000001
 40
0.0
 40
0.0
 40
0.0
 40
0.0
 40
0.0686494919759967
 40
0.1349373737851549
 40
0.1988418982006102
 40
0.2614093284183094
 40
0.3225167637069051
 40
0.3823768656987777
 40
0.4424709047536881
 40
0.5022278334792917
 40
0.5621014330908568
 40
0.6217316080948792
 40
0.681851312434415
 40
0.7420491672939589
 40
0.8039081304743817
 40
0.8671621602461704
 40
0.9323605979385293
 40
1.0
 40
1.0
 40
1.0
 40
1.0
 10
7.461079096726904
 20
-11.47197957248066
 30
0.0
 10
7.49794293714105
 20
-11.47267443763365
 30
0.0
 10
7.570402465535799
 20
-11.47404026389369
 30
0.0
 10
7.676723913668352
 20
-11.48527445430391
 30
0.0
 10
7.77855210105499
 20
-11.50409049262249
 30
0.0
 10
7.876328267555355
 20
-11.52877535549224
 30
0.0
 10
7.969035852643095
 20
-11.56257407125221
 30
0.0
 10
8.057681357196794
 20
-11.60275685973969
 30
0.0
 10
8.141382933988742
 20
-11.65103161263754
 30
0.0
 10
8.22079185270276
 20
-11.7060716524304
 30
0.0
 10
8.294615458065927
 20
-11.76797848581789
 30
0.0
 10
8.363886832989438
 20
-11.83527317548712
 30
0.0
 10
8.425781454702387
 20
-11.90963759777981
 30
0.0
 10
8.482750726492998
 20
-11.98927200116809
 30
0.0
 10
8.53300220509719
 20
-12.07528064306778
 30
0.0
 10
8.578384591584951
 20
-12.1669136204736
 30
0.0
 10
8.617412123124844
 20
-12.26485211980352
 30
0.0
 10
8.638293796169508
 20
-12.33306899355918
 30
0.0
 10
8.648926488491227
 20
-12.36780419069793
 30
0.0
  0
SPLINE
  5
B6
330
1F
100
AcDbEntity
  8
0
  6
Continuous
 62
     7
370
    15
100
AcDbSpline
210
0.0
220
0.0
230
1.0
 70
     8
 71
     3
 72
    31
 73
    27
 74
     0
 42
0.000000001
 43
0.00000001
 40
0.0
 40
0.0
 40
0.0
 40
0.0
 40
0.0494014326173354
 40
0.0976047534771127
 40
0.1442547055445429
 40
0.1894721438466752
 40
0.2339150059350921
 40
0.277237111150862
 40
0.3198588355644323
 40
0.3619566544332706
 40
0.4034857542265483
 40
0.4439336363338555
 40
0.4836491750513754
 40
0.5228932833172721
 40
0.5618583840947374
 40
0.6007948668981956
 40
0.6401043361891364
 40
0.6796434268265379
 40
0.7193997691904886
 40
0.7588541926680981
 40
0.7983154646830743
 40
0.8378024081343668
 40
0.8774685864444087
 40
0.9176827969423325
 40
0.9583928898538535
 40
1.0
 40
1.0
 40
1.0
 40
1.0
 10
6.041095208443151
 20
-13.02964015949801
 30
0.0
 10
6.041792496004484
 20
-12.99052835583714
 30
0.0
 10
6.043170160110978
 20
-12.91325331031496
 30
0.0
 10
6.05094705164811
 20
-12.79923173756676
 30
0.0
 10
6.06523038250571
 20
-12.68918697108446
 30
0.0
 10
6.085065774524039
 20
-12.58304662577898
 30
0.0
 10
6.110165480699714
 20
-12.48072474322046
 30
0.0
 10
6.141148254414697
 20
-12.38217147262782
 30
0.0
 10
6.177622164887604
 20
-12.28751291185607
 30
0.0
 10
6.219476015527088
 20
-12.19664468087392
 30
0.0
 10
6.266987875882348
 20
-12.11058110876124
 30
0.0
 10
6.318739711317034
 20
-12.02919984917885
 30
0.0
 10
6.375966001839315
 20
-11.95383714620809
 30
0.0
 10
6.436970073057863
 20
-11.88305317465422
 30
0.0
 10
6.503275542534035
 20
-11.8180265670896
 30
0.0
 10
6.574679942508001
 20
-11.75861002302097
 30
0.0
 10
6.650567226213477
 20
-11.7042615882653
 30
0.0
 10
6.730926316969859
 20
-11.65548581178426
 30
0.0
 10
6.814706827884641
 20
-11.61268761992368
 30
0.0
 10
6.900664348735432
 20
-11.57456689750393
 30
0.0
 10
6.989140769126566
 20
-11.54332178362563
 30
0.0
 10
7.079434623006124
 20
-11.51734272746683
 30
0.0
 10
7.171740304847995
 20
-11.49666098542487
 30
0.0
 10
7.266273496894081
 20
-11.48283104001924
 30
0.0
 10
7.362946848942421
 20
-11.47381837606919
 30
0.0
 10
7.428131573057818
 20
-11.47259694369271
 30
0.0
 10
7.461079096726905
 20
-11.47197957248066
 30
0.0
  0
SPLINE
  5
B7
330
1F
100
AcDbEntity
  8
0
  6
Continuous
 62
     7
370
    15
100
AcDbSpline
210
0.0
220
0.0
230
1.0
 70
     8
 71
     3
 72
    31
 73
    27
 74
     0
 42
0.000000001
 43
0.00000001
 40
0.0
 40
0.0
 40
0.0
 40
0.0
 40
0.0491959188678583
 40
0.0962478839423345
 40
0.1413486305545661
 40
0.1846561193487509
 40
0.2260586823100629
 40
0.2661730836384068
 40
0.3052898413966909
 40
0.3432450951047081
 40
0.3808772760868666
 40
0.4184957931350263
 40
0.4563187508918006
 40
0.4942367370918765
 40
0.5330235289576678
 40
0.5724731943339442
 40
0.613078809089892
 40
0.6549344546107938
 40
0.6973967795046186
 40
0.7398840686664
 40
0.782194779819118
 40
0.8250615348667033
 40
0.8679874655774051
 40
0.9114105439600775
 40
0.9553719455228146
 40
1.0
 40
1.0
 40
1.0
 40
1.0
 10
7.469722476916459
 20
-14.63298718466015
 30
0.0
 10
7.42978139216032
 20
-14.63240691241502
 30
0.0
 10
7.351639851589331
 20
-14.6312716561379
 30
0.0
 10
7.237166999721391
 20
-14.62203778320417
 30
0.0
 10
7.128292076911536
 20
-14.60602306759999
 30
0.0
 10
7.025218404599438
 20
-14.58377291224645
 30
0.0
 10
6.927599049069848
 20
-14.55626197836269
 30
0.0
 10
6.83583881118197
 20
-14.5216507857554
 30
0.0
 10
6.750098412152107
 20
-14.48018906697087
 30
0.0
 10
6.669662663122059
 20
-14.4330363772901
 30
0.0
 10
6.594873202147475
 20
-14.37946879847976
 30
0.0
 10
6.524029290765156
 20
-14.32093197390161
 30
0.0
 10
6.45885078359132
 20
-14.25581444944482
 30
0.0
 10
6.397707971423665
 20
-14.1856537102501
 30
0.0
 10
6.341932566951003
 20
-14.10952423869363
 30
0.0
 10
6.289472580849372
 20
-14.02846028562243
 30
0.0
 10
6.242888554815955
 20
-13.94103350759553
 30
0.0
 10
6.200454120838043
 20
-13.84886479930704
 30
0.0
 10
6.16320851113963
 20
-13.7528465194422
 30
0.0
 10
6.130259174360971
 20
-13.65487529425372
 30
0.0
 10
6.10332129024773
 20
-13.55475590550514
 30
0.0
 10
6.080129510342747
 20
-13.45333084044456
 30
0.0
 10
6.063281805987859
 20
-13.34974667687445
 30
0.0
 10
6.049905250348762
 20
-13.24478061301716
 30
0.0
 10
6.042550551123227
 20
-13.13778911609427
 30
0.0
 10
6.041582750299754
 20
-13.06587021294889
 30
0.0
 10
6.041095208443151
 20
-13.02964015949801
 30
0.0
  0
SPLINE
  5
B8
330
1F
100
AcDbEntity
  8
0
  6
Continuous
 62
     7
370
    15
100
AcDbSpline
210
0.0
220
0.0
230
1.0
 70
     8
 71
     3
 72
    23
 73
    19
 74
     0
 42
0.000000001
 43
0.00000001
 40
0.0
 40
0.0
 40
0.0
 40
0.0
 40
0.071578387098236
 40
0.1400162090753562
 40
0.2061974399469814
 40
0.2701561038056547
 40
0.3320010402688306
 40
0.3927550109285571
 40
0.4525790344906386
 40
0.5122527988479043
 40
0.5715322524285602
 40
0.63015175287222
 40
0.688769169548557
 40
0.7481639008503617
 40
0.8087033721996518
 40
0.870256298480421
 40
0.9339000275070026
 40
0.9999999999999999
 40
0.9999999999999999
 40
0.9999999999999999
 40
0.9999999999999999
 10
8.727951678795716
 20
-13.60689447930032
 30
0.0
 10
8.717062769931047
 20
-13.64763194287583
 30
0.0
 10
8.695762712720967
 20
-13.72731947773688
 30
0.0
 10
8.653649912254739
 20
-13.8413611610161
 30
0.0
 10
8.606383458369978
 20
-13.94838441629877
 30
0.0
 10
8.552816452863569
 20
-14.04810732533326
 30
0.0
 10
8.49236260979078
 20
-14.13995654332212
 30
0.0
 10
8.426623711761923
 20
-14.22511250990054
 30
0.0
 10
8.352995933576084
 20
-14.30178942387734
 30
0.0
 10
8.274180766373398
 20
-14.37175694840035
 30
0.0
 10
8.189564548046901
 20
-14.4334681183324
 30
0.0
 10
8.100167460279316
 20
-14.48675684567253
 30
0.0
 10
8.006421629370823
 20
-14.53209473550647
 30
0.0
 10
7.907948163897333
 20
-14.56937783224261
 30
0.0
 10
7.804683222652037
 20
-14.59743655909927
 30
0.0
 10
7.697158518497615
 20
-14.61788740306774
 30
0.0
 10
7.585060516502561
 20
-14.63048393184852
 30
0.0
 10
7.508650674533648
 20
-14.63214230190953
 30
0.0
 10
7.469722476916459
 20
-14.63298718466015
 30
0.0
  0
SPLINE
  5
BA
330
1F
100
AcDbEntity
  8
0
  6
Continuous
 62
     7
370
    15
100
AcDbSpline
210
0.0
220
0.0
230
1.0
 70
     8
 71
     3
 72
    23
 73
    19
 74
     0
 42
0.000000001
 43
0.00000001
 40
0.0
 40
0.0
 40
0.0
 40
0.0
 40
0.0633358805656866
 40
0.1251107589802128
 40
0.1846884118917146
 40
0.2432104439678644
 40
0.3008880404131162
 40
0.3583701155312987
 40
0.4157614077031946
 40
0.4743866229897774
 40
0.5339662649724082
 40
0.5940075641988068
 40
0.6550724073076805
 40
0.7186100426051375
 40
0.7843747830517755
 40
0.8529914722129198
 40
0.9249004292977568
 40
1.0
 40
1.0
 40
1.0
 40
1.0
 10
7.428975113165706
 20
-14.27737382828995
 30
0.0
 10
7.455759271466617
 20
-14.27681210815223
 30
0.0
 10
7.50866745469141
 20
-14.27570251226224
 30
0.0
 10
7.586237569366104
 20
-14.26599015702499
 30
0.0
 10
7.661014090546975
 20
-14.25167773119785
 30
0.0
 10
7.732091111131922
 20
-14.22959221290206
 30
0.0
 10
7.800424697398546
 20
-14.20255108334726
 30
0.0
 10
7.86545497266207
 20
-14.16920464138393
 30
0.0
 10
7.926977426779863
 20
-14.12909860445125
 30
0.0
 10
7.985715699038549
 20
-14.08356196669431
 30
0.0
 10
8.040586603798209
 20
-14.03174905450361
 30
0.0
 10
8.090872838164488
 20
-13.97407729785259
 30
0.0
 10
8.135985271935397
 20
-13.91028377964786
 30
0.0
 10
8.177815850341311
 20
-13.84139229273057
 30
0.0
 10
8.212961224260043
 20
-13.76534479392918
 30
0.0
 10
8.245514139000688
 20
-13.68440792442731
 30
0.0
 10
8.272639579128152
 20
-13.59725141485817
 30
0.0
 10
8.28632295497209
 20
-13.53661809478477
 30
0.0
 10
8.293313132121037
 20
-13.5056434542227
 30
0.0
  0
SPLINE
  5
BB
330
1F
100
AcDbEntity
  8
0
  6
Continuous
 62
     7
370
    15
100
AcDbSpline
210
0.0
220
0.0
230
1.0
 70
     8
 71
     3
 72
    19
 73
    15
 74
     0
 42
0.000000001
 43
0.00000001
 40
0.0
 40
0.0
 40
0.0
 40
0.0
 40
0.0908958630106291
 40
0.1779871874124229
 40
0.2650579398700513
 40
0.354451419844219
 40
0.4047454938443064
 40
0.4626553372153485
 40
0.5288777766538375
 40
0.6046860574878168
 40
0.6891076793268259
 40
0.7830544669205787
 40
0.8866536609842218
 40
1.0
 40
1.0
 40
1.0
 40
1.0
 10
3.949397202571257
 20
-14.27737382828995
 30
0.0
 10
3.971544077987943
 20
-14.27642961483725
 30
0.0
 10
4.014910848870887
 20
-14.2745807089443
 30
0.0
 10
4.077319786179137
 20
-14.25627413484052
 30
0.0
 10
4.134858844147837
 20
-14.22752866339002
 30
0.0
 10
4.179223401911043
 20
-14.19408214260471
 30
0.0
 10
4.212235108097886
 20
-14.15907634297612
 30
0.0
 10
4.2383015185296
 20
-14.12552874618976
 30
0.0
 10
4.263900325157784
 20
-14.08414726412609
 30
0.0
 10
4.29097203793815
 20
-14.0362039254702
 30
0.0
 10
4.31876162988195
 20
-13.98098224197343
 30
0.0
 10
4.347035209077477
 20
-13.91852217865659
 30
0.0
 10
4.376056075084207
 20
-13.84871804613675
 30
0.0
 10
4.394679403297042
 20
-13.79937055321283
 30
0.0
 10
4.404409431121312
 20
-13.77358824009885
 30
0.0
  0
SPLINE
  5
BC
330
1F
100
AcDbEntity
  8
0
  6
Continuous
 62
     7
370
    15
100
AcDbSpline
210
0.0
220
0.0
230
1.0
 70
     8
 71
     3
 72
    11
 73
     7
 74
     0
 42
0.000000001
 43
0.00000001
 40
0.0
 40
0.0
 40
0.0
 40
0.0
 40
0.2535439907335954
 40
0.5016679891127779
 40
0.7498479626770179
 40
1.0
 40
1.0
 40
1.0
 40
1.0
 10
3.630826904156292
 20
-14.19834863798547
 30
0.0
 10
3.65607685469342
 20
-14.21053321322619
 30
0.0
 10
3.706036989321371
 20
-14.23464189488543
 30
0.0
 10
3.785428200987788
 20
-14.25908978331361
 30
0.0
 10
3.866675250224566
 20
-14.27457881718262
 30
0.0
 10
3.921750568070039
 20
-14.27643970320804
 30
0.0
 10
3.949397202571257
 20
-14.27737382828995
 30
0.0
  0
SPLINE
  5
BE
330
1F
100
AcDbEntity
  8
0
  6
Continuous
 62
     7
370
    15
100
AcDbSpline
210
0.0
220
0.0
230
1.0
 70
     8
 71
     3
 72
    11
 73
     7
 74
     0
 42
0.000000001
 43
0.00000001
 40
0.0
 40
0.0
 40
0.0
 40
0.0
 40
0.2092202494737276
 40
0.4448335939787432
 40
0.707370113491822
 40
1.0
 40
1.0
 40
1.0
 40
1.0
 10
3.990144566322008
 20
-14.63298718466015
 30
0.0
 10
3.964361253858502
 20
-14.63191821758072
 30
0.0
 10
3.909542068924597
 20
-14.62964543342632
 30
0.0
 10
3.82364076833322
 20
-14.61357958795391
 30
0.0
 10
3.729347928203213
 20
-14.58880584964647
 30
0.0
 10
3.664832945866505
 20
-14.56598888514193
 30
0.0
 10
3.630826904156292
 20
-14.55396199435566
 30
0.0
  0
SPLINE
  5
BF
330
1F
100
AcDbEntity
  8
0
  6
Continuous
 62
     7
370
    15
100
AcDbSpline
210
0.0
220
0.0
230
1.0
 70
     8
 71
     3
 72
    23
 73
    19
 74
     0
 42
0.000000001
 43
0.00000001
 40
0.0
 40
0.0
 40
0.0
 40
0.0
 40
0.1092063704503926
 40
0.2096995858617682
 40
0.3004876676999804
 40
0.3829064533200192
 40
0.4567496643710519
 40
0.5211286231326714
 40
0.5774756332670636
 40
0.6252261356272086
 40
0.6683876230023936
 40
0.7119540393845933
 40
0.7553821552671458
 40
0.8003117855995249
 40
0.8468483272650074
 40
0.8952783817157997
 40
0.9463490157285591
 40
0.9999999999999999
 40
0.9999999999999999
 40
0.9999999999999999
 40
0.9999999999999999
 10
4.689640977376571
 20
-13.90632586443842
 30
0.0
 10
4.673279071850288
 20
-13.94218120194283
 30
0.0
 10
4.64186071412427
 20
-14.01103111788271
 30
0.0
 10
4.595228344828709
 20
-14.10894341247855
 30
0.0
 10
4.550714781636274
 20
-14.19713725197926
 30
0.0
 10
4.508062905698178
 20
-14.27544237521339
 30
0.0
 10
4.468424711403233
 20
-14.34451764549627
 30
0.0
 10
4.430626499047994
 20
-14.40374231392836
 30
0.0
 10
4.395057084273085
 20
-14.4530745200053
 30
0.0
 10
4.361248811810516
 20
-14.49420868487012
 30
0.0
 10
4.325791030837668
 20
-14.52749702195675
 30
0.0
 10
4.288361075440329
 20
-14.55608156994734
 30
0.0
 10
4.246809757955614
 20
-14.5795206868309
 30
0.0
 10
4.202387579502497
 20
-14.59971752779841
 30
0.0
 10
4.153833510342239
 20
-14.613923507422
 30
0.0
 10
4.102367395059505
 20
-14.62554894078823
 30
0.0
 10
4.047275947621566
 20
-14.63127658783942
 30
0.0
 10
4.009498638870202
 20
-14.63240769552097
 30
0.0
 10
3.990144566322008
 20
-14.63298718466015
 30
0.0
  0
SPLINE
  5
D2
330
1F
100
AcDbEntity
  8
0
  6
Continuous
 62
     7
370
    15
100
AcDbSpline
210
0.0
220
0.0
230
1.0
 70
     8
 71
     3
 72
    23
 73
    19
 74
     0
 42
0.000000001
 43
0.00000001
 40
0.0
 40
0.0
 40
0.0
 40
0.0
 40
0.0580480686591465
 40
0.114212755019154
 40
0.1688916471752757
 40
0.22262627012424
 40
0.2756512298918106
 40
0.3287250271459034
 40
0.3816587912372612
 40
0.4359534350342102
 40
0.4912638558489659
 40
0.5489925911805692
 40
0.6104165486580294
 40
0.6762479649809732
 40
0.747409474018393
 40
0.8248664857445535
 40
0.9090259917114395
 40
0.9999999999999999
 40
0.9999999999999999
 40
0.9999999999999999
 40
0.9999999999999999
 10
-0.1623822304590919
 20
-12.39743863706211
 30
0.0
 10
-0.1630627871102047
 20
-12.42937195331128
 30
0.0
 10
-0.1644018196028552
 20
-12.49220250237109
 30
0.0
 10
-0.1758998792567298
 20
-12.58450964659814
 30
0.0
 10
-0.1940348051290418
 20
-12.67331287244895
 30
0.0
 10
-0.2210855063350542
 20
-12.75800448566439
 30
0.0
 10
-0.254155715226075
 20
-12.83957461440654
 30
0.0
 10
-0.2958318199808441
 20
-12.916647559017
 30
0.0
 10
-0.3444977518902395
 20
-12.99026990505076
 30
0.0
 10
-0.4003326784988021
 20
-13.06024131968
 30
0.0
 10
-0.4660658942119308
 20
-13.1251419234828
 30
0.0
 10
-0.5451510335323579
 20
-13.18019732636443
 30
0.0
 10
-0.6360633273990046
 20
-13.22642838844696
 30
0.0
 10
-0.7388239793599252
 20
-13.26378258660826
 30
0.0
 10
-0.8531835356926071
 20
-13.29317432121986
 30
0.0
 10
-0.9795166992745347
 20
-13.31470922713524
 30
0.0
 10
-1.118069570567722
 20
-13.32659828735757
 30
0.0
 10
-1.214382800185271
 20
-13.32822601375443
 30
0.0
 10
-1.264413204627135
 20
-13.32907154463611
 30
0.0
  0
SPLINE
  5
D3
330
1F
100
AcDbEntity
  8
0
  6
Continuous
 62
     7
370
    15
100
AcDbSpline
210
0.0
220
0.0
230
1.0
 70
     8
 71
     3
 72
    19
 73
    15
 74
     0
 42
0.000000001
 43
0.00000001
 40
0.0
 40
0.0
 40
0.0
 40
0.0
 40
0.0892424937815295
 40
0.1729768290722694
 40
0.2526551372368091
 40
0.3289533944009837
 40
0.4046880824662922
 40
0.4814988935669577
 40
0.561870090596224
 40
0.6456290048367239
 40
0.7322912491886804
 40
0.8191788448148059
 40
0.9080746859653679
 40
1.0
 40
1.0
 40
1.0
 40
1.0
 10
-0.8649655630099239
 20
-11.54050922969783
 30
0.0
 10
-0.8293812284567432
 20
-11.54735751442921
 30
0.0
 10
-0.7604088690477334
 20
-11.560631399181
 30
0.0
 10
-0.6627546986322708
 20
-11.59263185594791
 30
0.0
 10
-0.5737860923427411
 20
-11.63245398157821
 30
0.0
 10
-0.493642091089047
 20
-11.68206824100548
 30
0.0
 10
-0.4209912553659169
 20
-11.74035286011097
 30
0.0
 10
-0.3568689424811656
 20
-11.81019151577227
 30
0.0
 10
-0.3000293517691355
 20
-11.89002483383964
 30
0.0
 10
-0.2516983370776579
 20
-11.97979034942544
 30
0.0
 10
-0.2114701726848658
 20
-12.07637800569809
 30
0.0
 10
-0.1832942094525594
 20
-12.17927728069386
 30
0.0
 10
-0.1652474542544134
 20
-12.28670043958526
 30
0.0
 10
-0.1633479133437057
 20
-12.36011590431398
 30
0.0
 10
-0.1623822304590919
 20
-12.39743863706211
 30
0.0
  0
SPLINE
  5
D4
330
1F
100
AcDbEntity
  8
0
  6
Continuous
 62
     7
370
    15
100
AcDbSpline
210
0.0
220
0.0
230
1.0
 70
     8
 71
     3
 72
    11
 73
     7
 74
     0
 42
0.000000001
 43
0.00000001
 40
0.0
 40
0.0
 40
0.0
 40
0.0
 40
0.30716263010994
 40
0.5768528599096826
 40
0.8066330493509304
 40
1.0
 40
1.0
 40
1.0
 40
1.0
 10
-1.321829944457739
 20
-11.5114921676329
 30
0.0
 10
-1.274897734823431
 20
-11.51175954427076
 30
0.0
 10
-1.186758825022648
 20
-11.51226167885063
 30
0.0
 10
-1.063673969886935
 20
-11.51814232042514
 30
0.0
 10
-0.9579790058289853
 20
-11.52541764745146
 30
0.0
 10
-0.894138822919885
 20
-11.53577582087022
 30
0.0
 10
-0.8649655630099239
 20
-11.54050922969783
 30
0.0
  0
SPLINE
  5
E2
330
1F
100
AcDbEntity
  8
0
  6
Continuous
 62
     7
370
    15
100
AcDbSpline
210
0.0
220
0.0
230
1.0
 70
     8
 71
     3
 72
    27
 73
    23
 74
     0
 42
0.000000001
 43
0.00000001
 40
0.0
 40
0.0
 40
0.0
 40
0.0
 40
0.1053432609984028
 40
0.2043754661654302
 40
0.2980686612490652
 40
0.3870699389029779
 40
0.4297257277325175
 40
0.4709012389537424
 40
0.5111216710274208
 40
0.5501787824700678
 40
0.5883543698960269
 40
0.6266830105708976
 40
0.6644516852874772
 40
0.7025148539501571
 40
0.7404811716294027
 40
0.7776181215946415
 40
0.8147160450669577
 40
0.8515265100150824
 40
0.8880984508373166
 40
0.9251116757437154
 40
0.9621036957071506
 40
0.9999999999999999
 40
0.9999999999999999
 40
0.9999999999999999
 40
0.9999999999999999
 10
-8.341489426973514
 20
-13.02778800660025
 30
0.0
 10
-8.340352237768805
 20
-13.09021200244296
 30
0.0
 10
-8.33814598772843
 20
-13.211320207461
 30
0.0
 10
-8.316375722577183
 20
-13.38682600115943
 30
0.0
 10
-8.283183968006705
 20
-13.55052566569902
 30
0.0
 10
-8.243126302218883
 20
-13.678244021062
 30
0.0
 10
-8.202944438674892
 20
-13.77245148468677
 30
0.0
 10
-8.170447366388071
 20
-13.83842633009912
 30
0.0
 10
-8.133353254812546
 20
-13.89947625141844
 30
0.0
 10
-8.092584769701947
 20
-13.9559479585788
 30
0.0
 10
-8.047616770177774
 20
-14.00767672527522
 30
0.0
 10
-7.999075751512118
 20
-14.0549373383518
 30
0.0
 10
-7.946950870965186
 20
-14.09818455617211
 30
0.0
 10
-7.890624497099872
 20
-14.13539389787784
 30
0.0
 10
-7.832264702857406
 20
-14.16843254871777
 30
0.0
 10
-7.772607941818487
 20
-14.19781114797289
 30
0.0
 10
-7.711616653431975
 20
-14.22265826695207
 30
0.0
 10
-7.649044763608784
 20
-14.24196001360079
 30
0.0
 10
-7.585770949064776
 20
-14.25863940615575
 30
0.0
 10
-7.521098313941051
 20
-14.26953516820133
 30
0.0
 10
-7.455045300359195
 20
-14.27568439301785
 30
0.0
 10
-7.410692334965166
 20
-14.27680616801587
 30
0.0
 10
-7.388248068925638
 20
-14.27737382828995
 30
0.0
  0
LINE
  5
E3
330
1F
100
AcDbEntity
  8
0
  6
Continuous
 62
     7
370
    15
100
AcDbLine
 10
-2.0194742026
 20
-11.867105524
 30
0.0
 11
-2.0194742026
 21
-12.9734581883
 31
0.0
  0
LINE
  5
E4
330
1F
100
AcDbEntity
  8
0
  6
Continuous
 62
     7
370
    15
100
AcDbLine
 10
-2.0194742026
 20
-12.9734581883
 30
0.0
 11
-1.2761435063
 21
-12.9734581883
 31
0.0
  0
LINE
  5
E5
330
1F
100
AcDbEntity
  8
0
  6
Continuous
 62
     7
370
    15
100
AcDbLine
 10
-1.2835521179
 20
-11.867105524
 30
0.0
 11
-2.0194742026
 21
-11.867105524
 31
0.0
  0
LINE
  5
E6
330
1F
100
AcDbEntity
  8
0
  6
Continuous
 62
     7
370
    15
100
AcDbLine
 10
10.0
 20
-17.5
 30
0.0
 11
10.0
 21
-7.5
 31
0.0
  0
LINE
  5
E7
330
1F
100
AcDbEntity
  8
0
  6
Continuous
 62
     7
370
    15
100
AcDbLine
 10
10.0
 20
-17.5
 30
0.0
 11
2.0
 21
-17.5
 31
0.0
  0
LINE
  5
E8
330
1F
100
AcDbEntity
  8
0
  6
Continuous
 62
     7
370
    15
100
AcDbLine
 10
4.0
 20
-21.5
 30
0.0
 11
2.0
 21
-17.5
 31
0.0
  0
LINE
  5
E9
330
1F
100
AcDbEntity
  8
0
  6
Continuous
 62
     7
370
    15
100
AcDbLine
 10
-4.0
 20
-21.5
 30
0.0
 11
4.0
 21
-21.5
 31
0.0
  0
LINE
  5
EA
330
1F
100
AcDbEntity
  8
0
  6
Continuous
 62
     7
370
    15
100
AcDbLine
 10
-4.0
 20
-21.5
 30
0.0
 11
-2.0
 21
-17.5
 31
0.0
  0
LINE
  5
EB
330
1F
100
AcDbEntity
  8
0
  6
Continuous
 62
     7
370
    15
100
AcDbLine
 10
-2.0
 20
-17.5
 30
0.0
 11
-10.0
 21
-17.5
 31
0.0
  0
LINE
  5
EC
330
1F
100
AcDbEntity
  8
0
  6
Continuous
 62
     7
370
    15
100
AcDbLine
 10
-10.0
 20
-17.5
 30
0.0
 11
-10.0
 21
-7.5
 31
0.0
  0
LINE
  5
ED
330
1F
100
AcDbEntity
  8
0
  6
Continuous
 62
     7
370
    15
100
AcDbLine
 10
-6.1682966936
 20
-12.3678041907
 30
0.0
 11
-6.6029352403
 21
-12.4610292199
 31
0.0
  0
LINE
  5
EE
330
1F
100
AcDbEntity
  8
0
  6
Continuous
 62
     7
370
    15
100
AcDbLine
 10
-6.52391005
 20
-13.5056434542
 30
0.0
 11
-6.0892715033
 21
-13.6068944793
 31
0.0
  0
LINE
  5
EF
330
1F
100
AcDbEntity
  8
0
  6
Continuous
 62
     7
370
    15
100
AcDbLine
 10
8.6489264885
 20
-12.3678041907
 30
0.0
 11
8.2142879418
 21
-12.4610292199
 31
0.0
  0
LINE
  5
F0
330
1F
100
AcDbEntity
  8
0
  6
Continuous
 62
     7
370
    15
100
AcDbLine
 10
8.2933131321
 20
-13.5056434542
 30
0.0
 11
8.7279516788
 21
-13.6068944793
 31
0.0
  0
LINE
  5
F1
330
1F
100
AcDbEntity
  8
0
  6
Continuous
 62
     7
370
    15
100
AcDbLine
 10
3.6308269042
 20
-14.5539619944
 30
0.0
 11
3.6308269042
 21
-14.198348638
 31
0.0
  0
LINE
  5
F2
330
1F
100
AcDbEntity
  8
0
  6
Continuous
 62
     7
370
    15
100
AcDbLine
 10
5.8632885303
 20
-11.5114921676
 30
0.0
 11
4.6896409774
 21
-13.9063258644
 31
0.0
  0
LINE
  5
F3
330
1F
100
AcDbEntity
  8
0
  6
Continuous
 62
     7
370
    15
100
AcDbLine
 10
5.4718668845
 20
-11.5114921676
 30
0.0
 11
5.8632885303
 21
-11.5114921676
 31
0.0
  0
LINE
  5
F4
330
1F
100
AcDbEntity
  8
0
  6
Continuous
 62
     7
370
    15
100
AcDbLine
 10
4.5945637953
 20
-13.371053677
 30
0.0
 11
5.4718668845
 21
-11.5114921676
 31
0.0
  0
LINE
  5
F5
330
1F
100
AcDbEntity
  8
0
  6
Continuous
 62
     7
370
    15
100
AcDbLine
 10
3.6499658174
 20
-11.5114921676
 30
0.0
 11
4.5945637953
 21
-13.371053677
 31
0.0
  0
LINE
  5
F6
330
1F
100
AcDbEntity
  8
0
  6
Continuous
 62
     7
370
    15
100
AcDbLine
 10
3.2554572502
 20
-11.5114921676
 30
0.0
 11
3.6499658174
 21
-11.5114921676
 31
0.0
  0
LINE
  5
F7
330
1F
100
AcDbEntity
  8
0
  6
Continuous
 62
     7
370
    15
100
AcDbLine
 10
4.4044094311
 20
-13.7735882401
 30
0.0
 11
3.2554572502
 21
-11.5114921676
 31
0.0
  0
LINE
  5
F8
330
1F
100
AcDbEntity
  8
0
  6
Continuous
 62
     7
370
    15
100
AcDbLine
 10
0.880379851
 20
-14.5934745895
 30
0.0
 11
0.3512815065
 21
-14.5934745895
 31
0.0
  0
LINE
  5
F9
330
1F
100
AcDbEntity
  8
0
  6
Continuous
 62
     7
370
    15
100
AcDbLine
 10
2.3664238593
 20
-12.1591282976
 30
0.0
 11
0.880379851
 21
-14.5934745895
 31
0.0
  0
LINE
  5
FA
330
1F
100
AcDbEntity
  8
0
  6
Continuous
 62
     7
370
    15
100
AcDbLine
 10
2.3664238593
 20
-14.5934745895
 30
0.0
 11
2.3664238593
 21
-12.1591282976
 31
0.0
  0
LINE
  5
FB
330
1F
100
AcDbEntity
  8
0
  6
Continuous
 62
     7
370
    15
100
AcDbLine
 10
2.801062406
 20
-14.5934745895
 30
0.0
 11
2.3664238593
 21
-14.5934745895
 31
0.0
  0
LINE
  5
FC
330
1F
100
AcDbEntity
  8
0
  6
Continuous
 62
     7
370
    15
100
AcDbLine
 10
2.801062406
 20
-11.5114921676
 30
0.0
 11
2.801062406
 21
-14.5934745895
 31
0.0
  0
LINE
  5
FD
330
1F
100
AcDbEntity
  8
0
  6
Continuous
 62
     7
370
    15
100
AcDbLine
 10
2.2756683673
 20
-11.5114921676
 30
0.0
 11
2.801062406
 21
-11.5114921676
 31
0.0
  0
LINE
  5
FE
330
1F
100
AcDbEntity
  8
0
  6
Continuous
 62
     7
370
    15
100
AcDbLine
 10
0.7859200532
 20
-13.9520123026
 30
0.0
 11
2.2756683673
 21
-11.5114921676
 31
0.0
  0
LINE
  5
FF
330
1F
100
AcDbEntity
  8
0
  6
Continuous
 62
     7
370
    15
100
AcDbLine
 10
0.7859200532
 20
-11.5114921676
 30
0.0
 11
0.7859200532
 21
-13.9520123026
 31
0.0
  0
LINE
  5
100
330
1F
100
AcDbEntity
  8
0
  6
Continuous
 62
     7
370
    15
100
AcDbLine
 10
0.3512815065
 20
-11.5114921676
 30
0.0
 11
0.7859200532
 21
-11.5114921676
 31
0.0
  0
LINE
  5
101
330
1F
100
AcDbEntity
  8
0
  6
Continuous
 62
     7
370
    15
100
AcDbLine
 10
0.3512815065
 20
-14.5934745895
 30
0.0
 11
0.3512815065
 21
-11.5114921676
 31
0.0
  0
LINE
  5
102
330
1F
100
AcDbEntity
  8
0
  6
Continuous
 62
     7
370
    15
100
AcDbLine
 10
-2.0194742026
 20
-13.3290715446
 30
0.0
 11
-2.0194742026
 21
-14.5934745895
 31
0.0
  0
LINE
  5
103
330
1F
100
AcDbEntity
  8
0
  6
Continuous
 62
     7
370
    15
100
AcDbLine
 10
-1.2644132046
 20
-13.3290715446
 30
0.0
 11
-2.0194742026
 21
-13.3290715446
 31
0.0
  0
LINE
  5
104
330
1F
100
AcDbEntity
  8
0
  6
Continuous
 62
     7
370
    15
100
AcDbLine
 10
-2.4541127493
 20
-11.5114921676
 30
0.0
 11
-1.3218299445
 21
-11.5114921676
 31
0.0
  0
LINE
  5
105
330
1F
100
AcDbEntity
  8
0
  6
Continuous
 62
     7
370
    15
100
AcDbLine
 10
-2.4541127493
 20
-14.5934745895
 30
0.0
 11
-2.4541127493
 21
-11.5114921676
 31
0.0
  0
LINE
  5
106
330
1F
100
AcDbEntity
  8
0
  6
Continuous
 62
     7
370
    15
100
AcDbLine
 10
-2.0194742026
 20
-14.5934745895
 30
0.0
 11
-2.4541127493
 21
-14.5934745895
 31
0.0
  0
LINE
  5
107
330
1F
100
AcDbEntity
  8
0
  6
Continuous
 62
     7
370
    15
100
AcDbLine
 10
-5.0465094219
 20
-14.5934745895
 30
0.0
 11
-5.5756077663
 21
-14.5934745895
 31
0.0
  0
LINE
  5
108
330
1F
100
AcDbEntity
  8
0
  6
Continuous
 62
     7
370
    15
100
AcDbLine
 10
-3.5604654136
 20
-12.1591282976
 30
0.0
 11
-5.0465094219
 21
-14.5934745895
 31
0.0
  0
LINE
  5
109
330
1F
100
AcDbEntity
  8
0
  6
Continuous
 62
     7
370
    15
100
AcDbLine
 10
-3.5604654136
 20
-14.5934745895
 30
0.0
 11
-3.5604654136
 21
-12.1591282976
 31
0.0
  0
LINE
  5
10A
330
1F
100
AcDbEntity
  8
0
  6
Continuous
 62
     7
370
    15
100
AcDbLine
 10
-3.1258268669
 20
-14.5934745895
 30
0.0
 11
-3.5604654136
 21
-14.5934745895
 31
0.0
  0
LINE
  5
10B
330
1F
100
AcDbEntity
  8
0
  6
Continuous
 62
     7
370
    15
100
AcDbLine
 10
-3.1258268669
 20
-11.5114921676
 30
0.0
 11
-3.1258268669
 21
-14.5934745895
 31
0.0
  0
LINE
  5
10C
330
1F
100
AcDbEntity
  8
0
  6
Continuous
 62
     7
370
    15
100
AcDbLine
 10
-3.6512209055
 20
-11.5114921676
 30
0.0
 11
-3.1258268669
 21
-11.5114921676
 31
0.0
  0
LINE
  5
10D
330
1F
100
AcDbEntity
  8
0
  6
Continuous
 62
     7
370
    15
100
AcDbLine
 10
-5.1409692196
 20
-13.9520123026
 30
0.0
 11
-3.6512209055
 21
-11.5114921676
 31
0.0
  0
LINE
  5
10E
330
1F
100
AcDbEntity
  8
0
  6
Continuous
 62
     7
370
    15
100
AcDbLine
 10
-5.1409692196
 20
-11.5114921676
 30
0.0
 11
-5.1409692196
 21
-13.9520123026
 31
0.0
  0
LINE
  5
10F
330
1F
100
AcDbEntity
  8
0
  6
Continuous
 62
     7
370
    15
100
AcDbLine
 10
-5.5756077663
 20
-11.5114921676
 30
0.0
 11
-5.1409692196
 21
-11.5114921676
 31
0.0
  0
LINE
  5
110
330
1F
100
AcDbEntity
  8
0
  6
Continuous
 62
     7
370
    15
100
AcDbLine
 10
-5.5756077663
 20
-14.5934745895
 30
0.0
 11
-5.5756077663
 21
-11.5114921676
 31
0.0
  0
ARC
  5
111
330
1F
100
AcDbEntity
  8
0
  6
Continuous
 62
     7
370
    15
100
AcDbCircle
 10
-33.1258675277
 20
-10.2503470111
 30
0.0
 40
43.21348005766111
100
AcDbArc
 50
3.6490895616
 51
36.5090467227
  0
ARC
  5
112
330
1F
100
AcDbEntity
  8
0
  6
Continuous
 62
     7
370
    15
100
AcDbCircle
 10
33.1258675277
 20
-10.2503470111
 30
0.0
 40
43.21348005766098
100
AcDbArc
 50
143.4909532773
 51
176.3509104384
  0
ARC
  5
113
330
1F
100
AcDbEntity
  8
0
  6
Continuous
 62
     7
370
    15
100
AcDbCircle
 10
0.0
 20
14.2696007663
 30
0.0
 40
2.000000000000017
100
AcDbArc
 50
36.5090467227
 51
143.4909532773
  0
MTEXT
  5
115
330
1F
100
AcDbEntity
  8
0
  6
Continuous
 62
     7
100
AcDbMText
 10
-10.0
 20
-22.5195663917
 30
0.0
 40
4.83362
 41
0.0
 71
     1
 72
     1
  1
SOLIDWORKS \M+18474\M+1847C\M+18491 \M+18485\M+18489\M+18475\M+18471\M+1847E\M+1848D\M+18487 \M+18478\M+18470\M+18472\M+18475\M+18474\M+18475\M+1847E\M+18479\M+1847A.
  7
SLDTEXTSTYLE0
 73
     1
 44
1.0
  0
MTEXT
  5
116
330
1F
100
AcDbEntity
  8
0
  6
Continuous
 62
     7
100
AcDbMText
 10
-10.0
 20
-29.7699963917
 30
0.0
 40
4.83362
 41
0.0
 71
     1
 72
     1
  1
\M+18453\M+18480\M+1847C\M+1848E\M+1847B\M+18480 \M+18474\M+1847C\M+18491 \M+18480\M+18471\M+18485\M+18489\M+18470\M+18490\M+1848B\M+18479\M+18487 \M+18488\M+18475\M+1847C\M+18475\M+1847A.
  7
SLDTEXTSTYLE0
 73
     1
 44
1.0
  0
ENDSEC
  0
SECTION
  2
OBJECTS
  0
DICTIONARY
  5
C
330
0
100
AcDbDictionary
281
     1
  3
ACAD_GROUP
350
D
  3
ACAD_LAYOUT
350
1A
  3
ACAD_MLINESTYLE
350
17
  3
ACAD_PLOTSETTINGS
350
19
  3
ACAD_PLOTSTYLENAME
350
E
  3
ACAD_SCALELIST
350
47
  0
DICTIONARY
  5
D
102
{ACAD_REACTORS
330
C
102
}
330
C
100
AcDbDictionary
281
     1
  0
DICTIONARY
  5
1A
102
{ACAD_REACTORS
330
C
102
}
330
C
100
AcDbDictionary
281
     1
  3
Layout1
350
1E
  3
Layout2
350
26
  3
Model
350
22
  0
DICTIONARY
  5
17
102
{ACAD_REACTORS
330
C
102
}
330
C
100
AcDbDictionary
281
     1
  3
Standard
350
18
  0
DICTIONARY
  5
19
102
{ACAD_REACTORS
330
C
102
}
330
C
100
AcDbDictionary
281
     1
  0
ACDBDICTIONARYWDFLT
  5
E
102
{ACAD_REACTORS
330
C
102
}
330
C
100
AcDbDictionary
281
     1
  3
Normal
350
F
100
AcDbDictionaryWithDefault
340
F
  0
DICTIONARY
  5
47
102
{ACAD_REACTORS
330
C
102
}
330
C
100
AcDbDictionary
281
     1
  3
A0
350
48
  3
A1
350
49
  3
A2
350
4A
  3
A3
350
4B
  3
A4
350
4C
  3
A5
350
4D
  3
A6
350
4E
  3
A7
350
4F
  3
A8
350
50
  3
A9
350
51
  3
B0
350
52
  3
B1
350
53
  3
B2
350
54
  3
B3
350
55
  3
B4
350
56
  3
B5
350
57
  3
B6
350
58
  3
B7
350
59
  3
B8
350
5A
  3
B9
350
5B
  3
C0
350
5C
  3
C1
350
5D
  3
C2
350
5E
  3
C3
350
5F
  3
C4
350
60
  3
C5
350
61
  3
C6
350
62
  3
C7
350
63
  3
C8
350
64
  3
C9
350
65
  3
D0
350
66
  3
D1
350
67
  3
D2
350
68
  0
LAYOUT
  5
1E
102
{ACAD_REACTORS
330
1A
102
}
330
1A
100
AcDbPlotSettings
  1

  2
none_device
  4

  6

 40
0.0
 41
0.0
 42
0.0
 43
0.0
 44
0.0
 45
0.0
 46
0.0
 47
0.0
 48
0.0
 49
0.0
140
0.0
141
0.0
142
1.0
143
1.0
 70
   688
 72
     1
 73
     0
 74
     5
  7

 75
    16
147
1.0
148
0.0
149
0.0
100
AcDbLayout
  1
Layout1
 70
     1
 71
     1
 10
0.0
 20
0.0
 11
420.0
 21
297.0
 12
0.0
 22
0.0
 32
0.0
 14
1.0000000000E+20
 24
1.0000000000E+20
 34
1.0000000000E+20
 15
-1.0000000000E+20
 25
-1.0000000000E+20
 35
-1.0000000000E+20
146
0.0
 13
0.0
 23
0.0
 33
0.0
 16
1.0
 26
0.0
 36
0.0
 17
0.0
 27
1.0
 37
0.0
 76
     0
330
1B
  0
LAYOUT
  5
26
102
{ACAD_REACTORS
330
1A
102
}
330
1A
100
AcDbPlotSettings
  1

  2
none_device
  4

  6

 40
0.0
 41
0.0
 42
0.0
 43
0.0
 44
0.0
 45
0.0
 46
0.0
 47
0.0
 48
0.0
 49
0.0
140
0.0
141
0.0
142
1.0
143
1.0
 70
   688
 72
     1
 73
     0
 74
     5
  7

 75
    16
147
1.0
148
0.0
149
0.0
100
AcDbLayout
  1
Layout2
 70
     1
 71
     2
 10
0.0
 20
0.0
 11
0.0
 21
0.0
 12
0.0
 22
0.0
 32
0.0
 14
0.0
 24
0.0
 34
0.0
 15
0.0
 25
0.0
 35
0.0
146
0.0
 13
0.0
 23
0.0
 33
0.0
 16
1.0
 26
0.0
 36
0.0
 17
0.0
 27
1.0
 37
0.0
 76
     0
330
23
  0
LAYOUT
  5
22
102
{ACAD_REACTORS
330
1A
102
}
330
1A
100
AcDbPlotSettings
  1

  2
none_device
  4
ANSI_A_(11.00_x_8.50_Inches)
  6

 40
6.35
 41
19.05
 42
6.35000508
 43
19.05000254
 44
279.4
 45
215.9
 46
133.34999746
 47
103.6996092624
 48
0.0
 49
0.0
140
0.0
141
0.0
142
0.2227982247
143
1.0
 70
  1696
 72
     0
 73
     0
 74
     0
  7

 75
     0
147
0.0179189148
148
-1300.4909072572
149
0.0
100
AcDbLayout
  1
Model
 70
     1
 71
     0
 10
0.0
 20
0.0
 11
420.0
 21
297.0
 12
0.0
 22
0.0
 32
0.0
 14
-10.0
 24
-21.5
 34
0.0
 15
10.0
 25
16.2696007663
 35
0.0
146
0.0
 13
0.0
 23
0.0
 33
0.0
 16
1.0
 26
0.0
 36
0.0
 17
0.0
 27
1.0
 37
0.0
 76
     0
330
1F
331
29
  0
MLINESTYLE
  5
18
102
{ACAD_REACTORS
330
17
102
}
330
17
100
AcDbMlineStyle
  2
Standard
 70
     0
  3

 62
   256
 51
90.0
 52
90.0
 71
     2
 49
0.5
 62
   256
  6
BYLAYER
 49
-0.5
 62
   256
  6
BYLAYER
  0
ACDBPLACEHOLDER
  5
F
102
{ACAD_REACTORS
330
E
102
}
330
E
  0
SCALE
  5
48
102
{ACAD_REACTORS
330
47
102
}
330
47
100
AcDbScale
 70
     0
300
1:1
140
1.0
141
1.0
290
     1
  0
SCALE
  5
49
102
{ACAD_REACTORS
330
47
102
}
330
47
100
AcDbScale
 70
     0
300
1:2
140
1.0
141
2.0
290
     0
  0
SCALE
  5
4A
102
{ACAD_REACTORS
330
47
102
}
330
47
100
AcDbScale
 70
     0
300
1:4
140
1.0
141
4.0
290
     0
  0
SCALE
  5
4B
102
{ACAD_REACTORS
330
47
102
}
330
47
100
AcDbScale
 70
     0
300
1:5
140
1.0
141
5.0
290
     0
  0
SCALE
  5
4C
102
{ACAD_REACTORS
330
47
102
}
330
47
100
AcDbScale
 70
     0
300
1:8
140
1.0
141
8.0
290
     0
  0
SCALE
  5
4D
102
{ACAD_REACTORS
330
47
102
}
330
47
100
AcDbScale
 70
     0
300
1:10
140
1.0
141
10.0
290
     0
  0
SCALE
  5
4E
102
{ACAD_REACTORS
330
47
102
}
330
47
100
AcDbScale
 70
     0
300
1:16
140
1.0
141
16.0
290
     0
  0
SCALE
  5
4F
102
{ACAD_REACTORS
330
47
102
}
330
47
100
AcDbScale
 70
     0
300
1:20
140
1.0
141
20.0
290
     0
  0
SCALE
  5
50
102
{ACAD_REACTORS
330
47
102
}
330
47
100
AcDbScale
 70
     0
300
1:30
140
1.0
141
30.0
290
     0
  0
SCALE
  5
51
102
{ACAD_REACTORS
330
47
102
}
330
47
100
AcDbScale
 70
     0
300
1:40
140
1.0
141
40.0
290
     0
  0
SCALE
  5
52
102
{ACAD_REACTORS
330
47
102
}
330
47
100
AcDbScale
 70
     0
300
1:50
140
1.0
141
50.0
290
     0
  0
SCALE
  5
53
102
{ACAD_REACTORS
330
47
102
}
330
47
100
AcDbScale
 70
     0
300
1:100
140
1.0
141
100.0
290
     0
  0
SCALE
  5
54
102
{ACAD_REACTORS
330
47
102
}
330
47
100
AcDbScale
 70
     0
300
2:1
140
2.0
141
1.0
290
     0
  0
SCALE
  5
55
102
{ACAD_REACTORS
330
47
102
}
330
47
100
AcDbScale
 70
     0
300
4:1
140
4.0
141
1.0
290
     0
  0
SCALE
  5
56
102
{ACAD_REACTORS
330
47
102
}
330
47
100
AcDbScale
 70
     0
300
8:1
140
8.0
141
1.0
290
     0
  0
SCALE
  5
57
102
{ACAD_REACTORS
330
47
102
}
330
47
100
AcDbScale
 70
     0
300
10:1
140
10.0
141
1.0
290
     0
  0
SCALE
  5
58
102
{ACAD_REACTORS
330
47
102
}
330
47
100
AcDbScale
 70
     0
300
100:1
140
100.0
141
1.0
290
     0
  0
SCALE
  5
59
102
{ACAD_REACTORS
330
47
102
}
330
47
100
AcDbScale
 70
     0
300
1/128" = 1'-0"
140
0.0078125
141
12.0
290
     0
  0
SCALE
  5
5A
102
{ACAD_REACTORS
330
47
102
}
330
47
100
AcDbScale
 70
     0
300
1/64" = 1'-0"
140
0.015625
141
12.0
290
     0
  0
SCALE
  5
5B
102
{ACAD_REACTORS
330
47
102
}
330
47
100
AcDbScale
 70
     0
300
1/32" = 1'-0"
140
0.03125
141
12.0
290
     0
  0
SCALE
  5
5C
102
{ACAD_REACTORS
330
47
102
}
330
47
100
AcDbScale
 70
     0
300
1/16" = 1'-0"
140
0.0625
141
12.0
290
     0
  0
SCALE
  5
5D
102
{ACAD_REACTORS
330
47
102
}
330
47
100
AcDbScale
 70
     0
300
3/32" = 1'-0"
140
0.09375
141
12.0
290
     0
  0
SCALE
  5
5E
102
{ACAD_REACTORS
330
47
102
}
330
47
100
AcDbScale
 70
     0
300
1/8" = 1'-0"
140
0.125
141
12.0
290
     0
  0
SCALE
  5
5F
102
{ACAD_REACTORS
330
47
102
}
330
47
100
AcDbScale
 70
     0
300
3/16" = 1'-0"
140
0.1875
141
12.0
290
     0
  0
SCALE
  5
60
102
{ACAD_REACTORS
330
47
102
}
330
47
100
AcDbScale
 70
     0
300
1/4" = 1'-0"
140
0.25
141
12.0
290
     0
  0
SCALE
  5
61
102
{ACAD_REACTORS
330
47
102
}
330
47
100
AcDbScale
 70
     0
300
3/8" = 1'-0"
140
0.375
141
12.0
290
     0
  0
SCALE
  5
62
102
{ACAD_REACTORS
330
47
102
}
330
47
100
AcDbScale
 70
     0
300
1/2" = 1'-0"
140
0.5
141
12.0
290
     0
  0
SCALE
  5
63
102
{ACAD_REACTORS
330
47
102
}
330
47
100
AcDbScale
 70
     0
300
3/4" = 1'-0"
140
0.75
141
12.0
290
     0
  0
SCALE
  5
64
102
{ACAD_REACTORS
330
47
102
}
330
47
100
AcDbScale
 70
     0
300
1" = 1'-0"
140
1.0
141
12.0
290
     0
  0
SCALE
  5
65
102
{ACAD_REACTORS
330
47
102
}
330
47
100
AcDbScale
 70
     0
300
1-1/2" = 1'-0"
140
1.5
141
12.0
290
     0
  0
SCALE
  5
66
102
{ACAD_REACTORS
330
47
102
}
330
47
100
AcDbScale
 70
     0
300
3" = 1'-0"
140
3.0
141
12.0
290
     0
  0
SCALE
  5
67
102
{ACAD_REACTORS
330
47
102
}
330
47
100
AcDbScale
 70
     0
300
6" = 1'-0"
140
6.0
141
12.0
290
     0
  0
SCALE
  5
68
102
{ACAD_REACTORS
330
47
102
}
330
47
100
AcDbScale
 70
     0
300
1'-0" = 1'-0"
140
12.0
141
12.0
290
     0
  0
ENDSEC
  0
EOF
