<?xml version="1.0" encoding="UTF-8" standalone="no"?>
<!-- Created with Inkscape (http://www.inkscape.org/) -->

<svg
   xmlns:dc="http://purl.org/dc/elements/1.1/"
   xmlns:cc="http://creativecommons.org/ns#"
   xmlns:rdf="http://www.w3.org/1999/02/22-rdf-syntax-ns#"
   xmlns:svg="http://www.w3.org/2000/svg"
   xmlns="http://www.w3.org/2000/svg"
   xmlns:sodipodi="http://sodipodi.sourceforge.net/DTD/sodipodi-0.dtd"
   xmlns:inkscape="http://www.inkscape.org/namespaces/inkscape"
   width="210mm"
   height="297mm"
   viewBox="0 0 210 297"
   version="1.1"
   id="svg6273"
   inkscape:version="0.92.1 r15371"
   sodipodi:docname="MKS.svg">
  <defs
     id="defs6267" />
  <sodipodi:namedview
     id="base"
     pagecolor="#ffffff"
     bordercolor="#666666"
     borderopacity="1.0"
     inkscape:pageopacity="0.0"
     inkscape:pageshadow="2"
     inkscape:zoom="1.979899"
     inkscape:cx="575.74227"
     inkscape:cy="465.16396"
     inkscape:document-units="mm"
     inkscape:current-layer="layer1"
     showgrid="false"
     inkscape:window-width="1366"
     inkscape:window-height="705"
     inkscape:window-x="-8"
     inkscape:window-y="-8"
     inkscape:window-maximized="1" />
  <metadata
     id="metadata6270">
    <rdf:RDF>
      <cc:Work
         rdf:about="">
        <dc:format>image/svg+xml</dc:format>
        <dc:type
           rdf:resource="http://purl.org/dc/dcmitype/StillImage" />
        <dc:title></dc:title>
      </cc:Work>
    </rdf:RDF>
  </metadata>
  <g
     inkscape:label="Layer 1"
     inkscape:groupmode="layer"
     id="layer1">
    <path
       style="fill:#000000;stroke-width:0.04453422"
       d="m 109.78997,162.37095 c 0.0755,-0.30815 0.2842,-1.0118 0.41731,-1.40661 0.0505,-0.14981 0.0635,-0.25887 0.033,-0.27644 -0.0277,-0.016 -0.0573,-0.0688 -0.0657,-0.11748 -0.0129,-0.0747 -5e-4,-0.0844 0.0794,-0.0627 0.0836,0.0228 0.10306,0.005 0.16709,-0.15272 0.0825,-0.20295 -0.004,-0.20784 0.70435,0.0397 0.21174,0.074 0.39372,0.13322 0.40445,0.13155 0.0104,-0.002 0.0378,-0.0618 0.0606,-0.13341 0.0373,-0.11815 0.0297,-0.1329 -0.0811,-0.15774 -0.2523,-0.0566 -0.9143,-0.30161 -0.9253,-0.34238 -0.006,-0.0233 0.0362,-0.12813 0.0944,-0.23292 0.058,-0.10489 0.0884,-0.18999 0.0671,-0.18932 -0.0213,6.8e-4 -0.0262,-0.18329 -0.011,-0.40876 0.0152,-0.22545 0.047,-0.40601 0.0707,-0.40121 0.10134,0.0206 0.0844,-0.16288 -0.0218,-0.23907 -0.0931,-0.0668 -0.10201,-0.0988 -0.0561,-0.2021 0.0297,-0.0677 0.0665,-0.1645 0.081,-0.21556 0.0145,-0.0511 0.0554,-0.16622 0.0911,-0.25586 0.0356,-0.0897 0.0696,-0.18742 0.0756,-0.2172 0.02,-0.0985 0.1384,-0.0758 0.78578,0.15129 0.35269,0.1237 0.66126,0.21492 0.68569,0.20273 0.0244,-0.0121 0.15513,0.0219 0.29047,0.0756 0.27398,0.10877 0.75263,0.27504 0.77783,0.2702 0.009,-0.002 0.14454,-0.66646 0.30131,-1.47723 0.15676,-0.81077 0.29577,-1.51722 0.30889,-1.5699 0.0277,-0.11109 0.079,-0.11001 0.36622,0.008 0.1083,0.0444 0.21929,0.0802 0.24664,0.0795 0.0274,-6.4e-4 0.10562,0.0241 0.17392,0.0549 0.0682,0.0311 0.24773,0.10256 0.39875,0.15931 0.15098,0.0568 0.29264,0.112 0.31471,0.12273 0.0222,0.0105 0.0892,0.0273 0.14914,0.0369 0.0669,0.0107 0.12862,0.049 0.1602,0.099 0.0398,0.0638 0.0782,0.0746 0.17408,0.0488 0.13435,-0.0362 0.29013,0.0302 0.31863,0.13584 0.0131,0.0486 0.0515,0.0579 0.14066,0.0338 0.0674,-0.0182 0.12549,-0.0224 0.12898,-0.009 0.004,0.0137 0.28641,0.1173 0.62866,0.23191 0.34227,0.11459 0.71844,0.24801 0.83592,0.29651 0.21041,0.0869 0.21298,0.0901 0.17197,0.21138 -0.0229,0.0678 -0.28422,0.73507 -0.58068,1.48288 -0.29646,0.74781 -0.53204,1.37522 -0.5235,1.39426 0.0254,0.0569 -0.20677,0.71882 -0.25643,0.73099 -0.0252,0.006 -0.0851,-8.4e-4 -0.13315,-0.0155 -0.0481,-0.0147 -0.0189,0.004 0.065,0.0408 0.1311,0.0586 0.14319,0.0754 0.0881,0.12137 -0.0352,0.0293 -0.0819,0.0549 -0.10352,0.0566 -0.0217,0.002 -0.0694,0.0899 -0.10581,0.19602 -0.12873,0.37408 -0.11934,0.36938 -0.49192,0.24829 -0.54653,-0.1776 -0.71227,-0.24929 -0.6518,-0.28199 0.0292,-0.0158 0.0348,-0.0392 0.0124,-0.0521 -0.0425,-0.0244 -0.12065,0.14581 -0.17759,0.38702 -0.0242,0.10218 -0.0197,0.11548 0.0184,0.055 0.0436,-0.0698 0.0973,-0.0634 0.42522,0.0499 0.62717,0.21675 0.63898,0.22168 0.54871,0.22951 -0.0446,0.004 -0.0616,0.0187 -0.0377,0.0327 0.0399,0.0237 -0.0276,0.34893 -0.0978,0.47092 -0.0209,0.0364 -0.18799,-0.002 -0.54439,-0.12453 l -0.5142,-0.17702 -0.0342,0.1158 c -0.0188,0.0637 -0.0333,0.12215 -0.0323,0.12992 10e-4,0.008 0.23307,0.0911 0.51559,0.1852 0.2825,0.0941 0.51469,0.17552 0.51598,0.18099 0.006,0.0275 -0.80636,2.41403 -0.8238,2.41873 -0.0463,0.0125 -0.87816,-0.28039 -0.91097,-0.32076 -0.0196,-0.0242 -0.0147,-0.10846 0.0109,-0.18752 0.0257,-0.079 0.0541,-0.20871 0.063,-0.28831 0.0158,-0.13876 0.16954,-0.65929 0.36981,-1.25148 l 0.0945,-0.27955 -0.13949,-0.0651 -0.13949,-0.0651 0.29723,-0.94871 c 0.16347,-0.52179 0.30984,-0.99033 0.32527,-1.04121 0.0308,-0.10151 0.17209,-0.11087 0.17525,-0.0116 10e-4,0.0378 -0.01,0.0369 -0.0311,-0.003 -0.0243,-0.0449 -0.0364,-0.0392 -0.0459,0.0213 -0.007,0.0453 -0.0171,0.0895 -0.0222,0.0984 -0.005,0.009 0.0162,0.0308 0.0474,0.0487 0.0348,0.02 0.061,0.005 0.0679,-0.0387 0.006,-0.0392 0.052,-0.0865 0.10093,-0.10569 0.0784,-0.03 0.0794,-0.0361 0.008,-0.048 -0.0594,-0.01 -0.071,-0.0328 -0.0416,-0.0839 0.0395,-0.0687 0.26325,-0.0155 0.86316,0.20537 0.15195,0.0559 0.15292,0.0554 0.21255,-0.1126 0.0813,-0.22922 0.0496,-0.30215 -0.0358,-0.0822 l -0.0681,0.17554 -0.22597,-0.0761 c -0.75989,-0.25597 -0.7637,-0.25771 -0.72241,-0.32952 0.0715,-0.12431 0.22637,-0.69523 0.17259,-0.63622 -0.0302,0.0325 -0.0644,0.0402 -0.0771,0.0168 -0.0126,-0.0234 -0.0337,-0.024 -0.0465,-0.002 -0.0129,0.0225 -0.0562,0.0221 -0.0963,-9.1e-4 -0.058,-0.0333 -0.0856,-0.0154 -0.13647,0.0885 -0.0786,0.16025 -0.18853,0.23836 -0.26986,0.19158 -0.0491,-0.0282 -0.0456,-0.0411 0.0171,-0.0644 0.0639,-0.0238 0.0638,-0.0361 -7.1e-4,-0.067 -0.0676,-0.0319 -0.0806,-0.0213 -0.0896,0.074 -0.0128,0.13506 0.006,0.14821 0.17648,0.12549 0.21705,-0.0289 0.3462,0.012 0.14708,0.0466 -0.0942,0.0164 -0.15192,0.0417 -0.12827,0.0564 0.0237,0.0146 0.0321,0.0666 0.0188,0.11542 -0.0149,0.0545 0.008,0.10749 0.0598,0.13718 0.0501,0.0288 0.0663,0.0641 0.0401,0.0873 -0.0242,0.0214 -0.0773,0.02 -0.11811,-0.003 -0.0553,-0.0314 -0.084,-0.0174 -0.1132,0.0552 -0.0335,0.0833 -0.0491,0.0863 -0.10858,0.0213 -0.0483,-0.0527 -0.0689,-0.0576 -0.0677,-0.0161 0.001,0.0415 -0.0392,0.0323 -0.13204,-0.0297 -0.0921,-0.0611 -0.11893,-0.10174 -0.0861,-0.12842 0.0264,-0.0214 0.0305,-0.0489 0.009,-0.0611 -0.0907,-0.0522 -0.15698,0.11068 -0.37565,0.92329 -0.30704,1.14084 -0.30471,1.12818 -0.21799,1.18715 0.0403,0.0278 0.0819,0.0356 0.092,0.018 0.0307,-0.0533 0.22741,0.0227 0.30128,0.1164 0.0381,0.0483 0.0469,0.0765 0.0196,0.0626 -0.0275,-0.0135 -0.0636,-0.001 -0.0806,0.0284 -0.0416,0.0723 -0.24,0.0115 -0.29432,-0.0901 -0.0332,-0.0622 -0.20633,-0.1377 -0.7269,-0.31722 -0.3758,-0.12961 -0.68626,-0.24663 -0.68988,-0.26009 -0.006,-0.0236 0.38368,-2.1162 0.39958,-2.14384 0.004,-0.008 0.047,0.009 0.095,0.0358 0.0479,0.0272 0.12395,0.0458 0.16886,0.0414 0.0612,-0.006 0.0442,-0.0211 -0.0681,-0.0603 -0.0823,-0.0288 -0.24486,-0.0879 -0.36114,-0.13134 -0.11629,-0.0435 -0.26119,-0.093 -0.322,-0.11008 -0.24782,-0.0697 -0.39454,-0.14846 -0.42737,-0.22917 -0.0305,-0.0751 -0.0328,-0.0735 -0.0202,0.0135 0.0125,0.0871 0.004,0.0924 -0.0738,0.0474 -0.0798,-0.0459 -0.0861,-0.0414 -0.0695,0.0499 0.0101,0.0553 -0.0406,0.51733 -0.11278,1.02684 -0.0721,0.50951 -0.12668,0.95753 -0.12126,0.99561 0.0185,0.13024 -0.0925,0.15477 -0.30567,0.0684 -0.11618,-0.0471 -0.22445,-0.0781 -0.24064,-0.0688 -0.0158,0.009 -0.14412,0.36715 -0.28423,0.7954 -0.14014,0.42822 -0.29291,0.87261 -0.33951,0.98752 l -0.0847,0.20892 -0.4001,-0.1362 c -0.22002,-0.075 -0.43974,-0.14861 -0.48824,-0.16372 -0.0756,-0.0236 -0.0782,-0.0681 -0.0187,-0.3113 z m 1.79433,-2.75516 c 0.12265,0.0422 0.17842,0.0792 0.17364,0.11533 -0.004,0.0292 0.0241,0.002 0.0621,-0.0612 0.1265,-0.20993 0.10929,-0.22635 -0.43786,-0.4169 -0.51511,-0.17939 -0.5548,-0.17797 -0.58599,0.021 -0.011,0.0698 -0.0442,0.0554 0.78817,0.34173 z m -0.0713,-0.40861 c 0.0347,0.0355 0.0964,0.0532 0.0889,0.0258 -0.0137,-0.0507 -0.31418,-0.14769 -0.33656,-0.10877 -0.0106,0.0184 0.039,0.0426 0.11015,0.0541 0.0712,0.0114 0.13299,0.0245 0.13746,0.029 z m 0.43852,0.15311 c 0.0122,-0.0212 0.005,-0.0485 -0.0164,-0.0608 -0.0212,-0.0122 -0.0486,-0.005 -0.0608,0.0164 -0.0122,0.0212 -0.005,0.0485 0.0164,0.0608 0.0212,0.0122 0.0486,0.005 0.0608,-0.0164 z m -0.95431,-1.44788 c 0.0599,-0.17749 0.0928,-0.33196 0.073,-0.3433 -0.0198,-0.0114 -0.0439,0.0153 -0.0535,0.0591 -0.0158,0.0717 -0.16648,0.52033 -0.18633,0.55486 -0.004,0.008 0.007,0.0226 0.0249,0.033 0.0181,0.0104 0.0819,-0.12631 0.1419,-0.3037 z m 1.05045,0.47782 c 0.0203,-0.0823 0.0543,-0.15896 0.0755,-0.17033 0.0211,-0.0114 0.0384,-0.0848 0.039,-0.1629 3.4e-4,-0.0941 -0.008,-0.11257 -0.026,-0.0547 -0.0146,0.0481 -0.0595,0.17254 -0.0998,0.27651 -0.0748,0.19279 -0.0905,0.27851 -0.0489,0.26731 0.0123,-0.003 0.04,-0.0735 0.0603,-0.15584 z m 1.70571,1.05283 c 0.005,-0.009 -0.0173,-0.0325 -0.0504,-0.0516 -0.0331,-0.019 -0.0594,-0.0106 -0.0586,0.0186 0.002,0.0483 0.0855,0.0738 0.10888,0.0331 z m 0.1835,0.0829 c 0.0253,-0.0137 0.0282,-0.0351 0.007,-0.0471 -0.0212,-0.0122 -0.0593,-0.011 -0.0847,0.003 -0.0253,0.0137 -0.0282,0.0351 -0.007,0.047 0.0212,0.0122 0.0593,0.011 0.0847,-0.003 z m 0.59838,0.34413 c 0.0122,-0.0212 0.005,-0.0486 -0.0164,-0.0608 -0.0212,-0.0122 -0.0486,-0.005 -0.0608,0.0164 -0.0122,0.0212 -0.005,0.0485 0.0164,0.0608 0.0212,0.0122 0.0485,0.005 0.0608,-0.0164 z m 1.54442,0.90447 c -0.0215,-0.0272 -0.0556,-0.045 -0.076,-0.0391 -0.0202,0.005 -0.003,0.0277 0.039,0.0494 0.046,0.0241 0.0604,0.0201 0.0367,-0.01 z m -1.72763,-1.08863 c 0.10673,0.0418 0.20398,0.0587 0.21609,0.0377 0.0121,-0.0211 -0.0141,-0.044 -0.0583,-0.0509 -0.0441,-0.007 -0.16082,-0.0453 -0.25924,-0.0852 -0.0984,-0.04 -0.18861,-0.0557 -0.20047,-0.0351 -0.0119,0.0206 0.008,0.0421 0.0431,0.0476 0.0356,0.006 0.15201,0.0443 0.25876,0.0861 z m -2.87586,-1.73237 c 0.0129,-0.0224 1e-5,-0.0401 -0.0288,-0.0392 -0.0288,8.7e-4 -0.0567,0.009 -0.0621,0.0187 -0.005,0.009 0.008,0.027 0.0288,0.0392 0.0212,0.0122 0.0491,0.004 0.0621,-0.0187 z m 3.30322,1.67065 0.20673,0.0425 -0.18853,-0.0861 -0.18853,-0.086 0.063,-0.16577 c 0.042,-0.11054 0.043,-0.17728 0.003,-0.20031 -0.0387,-0.0222 -0.0672,-0.007 -0.08,0.0438 -0.0111,0.0431 -0.0325,0.12899 -0.048,0.19074 -0.0153,0.0618 -0.0159,0.1363 -0.001,0.16551 0.0147,0.0292 0.0268,0.0531 0.0268,0.0531 0,0 0.093,0.0191 0.20673,0.0425 z m 0.0556,-0.18542 c 0.0584,-0.0308 0.0795,-0.0259 0.0741,0.0169 -0.004,0.0329 0.0106,0.0703 0.0327,0.083 0.0258,0.0148 0.0353,-0.005 0.0271,-0.055 -0.007,-0.043 0.0136,-0.1004 0.0467,-0.12728 0.0964,-0.0784 0.036,-0.0767 -0.15824,0.005 -0.0994,0.0417 -0.16335,0.0859 -0.14211,0.0981 0.0212,0.0122 0.0754,0.003 0.12023,-0.0207 z m -1.72042,-1.20773 c 0.0122,-0.0212 0.004,-0.0491 -0.0187,-0.0621 -0.0225,-0.0129 -0.0401,-1e-5 -0.0392,0.0288 8.8e-4,0.0288 0.009,0.0567 0.0187,0.0621 0.009,0.005 0.027,-0.008 0.0392,-0.0288 z m 2.94111,1.58567 c 0.0251,-0.0437 0.0232,-0.0788 -0.004,-0.0779 -0.0275,9e-4 -0.0549,0.0327 -0.0609,0.0708 -0.0153,0.0974 0.0116,0.10035 0.0652,0.007 z m -1.30465,-0.76865 c 0.0173,-0.0301 0.0584,-0.0513 0.0914,-0.0472 0.043,0.005 0.0477,-0.0157 0.0169,-0.0741 -0.0237,-0.0449 -0.0287,-0.10627 -0.0114,-0.13638 0.0176,-0.0307 0.003,-0.0592 -0.0335,-0.0649 -0.0514,-0.008 -0.0752,0.0262 -0.11386,0.16409 -0.0471,0.16797 -0.0143,0.27113 0.0504,0.15861 z m 0.33816,0.0333 c -0.0193,-0.11168 -0.10734,-0.25596 -0.13106,-0.21472 -0.0154,0.0267 0.0932,0.26758 0.13256,0.29409 0.007,0.005 0.007,-0.0305 -0.002,-0.0793 z m 0.323,0.0499 c 0.0401,-0.0108 0.0876,-0.0452 0.10559,-0.0765 0.0179,-0.0312 0.0799,-0.0721 0.13746,-0.0908 0.0983,-0.0319 0.13051,-0.11642 0.51573,-1.35141 0.22601,-0.7246 0.42439,-1.36172 0.44085,-1.41583 0.04,-0.13181 -0.0912,-0.20239 -0.21352,-0.11472 -0.11174,0.0799 -0.36931,-0.004 -0.39056,-0.12703 -0.0168,-0.0977 -0.14946,-0.17224 -0.18775,-0.10566 -0.0334,0.0581 -0.74117,2.66302 -0.75929,2.79462 -0.006,0.0459 0.001,0.0907 0.0174,0.0999 0.0159,0.009 0.0507,0.087 0.0775,0.17299 0.053,0.17032 0.14251,0.24513 0.2566,0.21436 z m -0.13084,-0.42461 c -8.7e-4,-0.0288 0.017,-0.0416 0.0392,-0.0288 0.0225,0.0129 0.0309,0.0409 0.0187,0.0621 -0.0122,0.0212 -0.03,0.0341 -0.0392,0.0288 -0.009,-0.005 -0.0178,-0.0333 -0.0187,-0.0621 z m 0.91873,0.64503 c -0.005,-0.0202 -0.0277,-0.003 -0.0494,0.039 -0.0241,0.046 -0.0201,0.0604 0.01,0.0367 0.0272,-0.0214 0.0449,-0.0555 0.0391,-0.0759 z m 0.65952,0.33973 c 0.0204,-0.0589 0.0199,-0.11701 -0.001,-0.12913 -0.0211,-0.0121 -0.0434,0.0116 -0.05,0.0526 -0.006,0.041 -0.0209,0.0904 -0.0321,0.10997 -0.0112,0.0195 -0.005,0.0441 0.0129,0.0546 0.0183,0.0105 0.05,-0.0291 0.0703,-0.088 z m -0.25679,-0.36258 c -0.0215,-0.0272 -0.0556,-0.045 -0.076,-0.0391 -0.0202,0.005 -0.003,0.0277 0.0391,0.0495 0.046,0.0241 0.0604,0.0201 0.0367,-0.01 z m 0.43047,0.14478 c -0.0215,-0.0272 -0.0556,-0.045 -0.076,-0.0391 -0.0202,0.005 -0.003,0.0277 0.039,0.0494 0.046,0.0241 0.0604,0.0201 0.0367,-0.01 z m 8.92744,10.68781 c 0.006,-0.041 0.0309,-0.10785 0.0543,-0.14857 0.027,-0.0469 0.0158,-0.0894 -0.0305,-0.11606 -0.0402,-0.0231 -0.0675,-0.078 -0.0605,-0.12203 0.013,-0.0825 0.2238,-0.55903 0.34348,-0.77636 0.0377,-0.0675 0.0521,-0.12257 0.033,-0.12197 -0.06,0.002 -0.0156,-0.11013 0.0888,-0.22386 0.058,-0.0631 0.0851,-0.11804 0.0644,-0.12995 -0.0199,-0.0115 -0.0201,-0.0404 -3.2e-4,-0.0644 0.0528,-0.064 0.14699,-0.36589 0.16949,-0.54305 0.0108,-0.0847 0.0649,-0.23277 0.12023,-0.329 0.0553,-0.0962 0.0844,-0.18429 0.0646,-0.19565 -0.0619,-0.0356 1e-4,-0.21453 0.0752,-0.21689 0.0553,-0.002 0.0643,-0.0235 0.0454,-0.11064 -0.0142,-0.0652 0.004,-0.13672 0.0463,-0.17934 0.0648,-0.0658 0.0593,-0.0739 -0.0786,-0.11244 -0.37579,-0.10537 -0.38305,-0.10966 -0.36068,-0.21204 0.0119,-0.0545 9e-5,-0.086 -0.0267,-0.0714 -0.0264,0.0142 -0.10212,0.003 -0.16829,-0.0257 -0.066,-0.0287 -0.13988,-0.0341 -0.16391,-0.0125 -0.0267,0.024 -0.0168,0.0433 0.0262,0.0501 0.0384,0.006 0.0707,0.0372 0.0717,0.0691 0.003,0.0794 -0.1398,0.12635 -0.22861,0.0753 -0.0399,-0.0229 -0.0875,-0.0156 -0.10578,0.0162 -0.0183,0.0318 -0.0662,0.039 -0.10638,0.0159 -0.1082,-0.0622 -0.19016,0.0314 -0.1736,0.19836 0.0174,0.17562 -0.0187,0.26818 -0.17214,0.44133 -0.0798,0.09 -0.14856,0.12474 -0.22322,0.1128 -0.0594,-0.009 -0.14074,0.002 -0.1808,0.0263 -0.0658,0.0393 -0.0826,0.0252 -0.17294,-0.14606 -0.055,-0.10432 -0.091,-0.23129 -0.0799,-0.28225 0.0196,-0.09 0.0155,-0.0928 -0.14136,-0.0963 -0.1874,-0.004 -0.77406,-0.32842 -0.82061,-0.45348 -0.0152,-0.0408 0.009,-0.18827 0.0544,-0.32775 0.11391,-0.35211 0.11412,-0.35146 -0.13608,-0.43631 -0.11804,-0.0401 -0.45563,-0.15625 -0.75017,-0.25823 -0.29452,-0.10201 -0.67143,-0.23051 -0.83754,-0.2856 -0.61202,-0.20299 -0.61606,-0.20504 -0.59476,-0.30271 0.0172,-0.0788 -0.007,-0.10097 -0.20774,-0.19042 -0.24017,-0.10698 -0.30597,-0.21657 -0.1621,-0.27012 0.0517,-0.0192 0.054,-0.0349 0.009,-0.0607 -0.0843,-0.0485 -0.0789,-0.15058 0.008,-0.15336 0.079,-0.003 0.1531,0.25889 0.0997,0.35174 -0.0328,0.0571 0.0207,0.10559 0.0809,0.0732 0.0765,-0.0413 0.0896,-0.21428 0.0193,-0.25467 -0.0564,-0.0325 -0.0536,-0.0843 0.0136,-0.24765 0.06,-0.14603 0.0684,-0.22464 0.0287,-0.26802 -0.031,-0.0338 -0.0515,-0.0917 -0.0457,-0.12872 0.008,-0.0524 0.0331,-0.0476 0.11154,0.0211 0.0914,0.08 0.10653,0.0788 0.15927,-0.0129 0.0321,-0.0557 0.0701,-0.11188 0.0846,-0.12477 0.0144,-0.013 -0.008,-0.0505 -0.0508,-0.0837 -0.1109,-0.0866 -0.11924,-0.21269 -0.0262,-0.39555 0.0668,-0.13025 0.0974,-0.15534 0.17078,-0.13528 0.0772,0.021 0.0983,0.001 0.15291,-0.14232 0.1021,-0.2684 0.0712,-0.31511 -0.29155,-0.44083 -0.17052,-0.0591 -0.33818,-0.0926 -0.37258,-0.0746 -0.0427,0.0224 -0.042,-0.004 0.002,-0.0841 0.0723,-0.12971 0.22175,-0.61119 0.2072,-0.66512 -0.0152,-0.0565 -0.22502,0.3339 -0.26399,0.49153 -0.0223,0.0899 -0.0499,0.13792 -0.072,0.12521 -0.0198,-0.0114 -0.0259,-0.038 -0.0137,-0.0592 0.0324,-0.0564 -0.0364,-0.0839 -0.0737,-0.0296 -0.16275,0.23744 -0.24933,0.40624 -0.25039,0.48873 -7.5e-4,0.0543 -0.028,0.20075 -0.0606,0.32562 -0.0465,0.17789 -0.0697,0.22107 -0.10766,0.19924 -0.0264,-0.0152 -0.0239,-0.0503 0.006,-0.078 0.0396,-0.0369 0.0265,-0.04 -0.0481,-0.0115 -0.0804,0.0306 -0.10803,0.0225 -0.13057,-0.0378 -0.0224,-0.0602 -0.0412,-0.0664 -0.0873,-0.0289 -0.11525,0.0937 -0.0974,-0.0351 0.0761,-0.54912 0.16184,-0.47959 0.16871,-0.523 0.0857,-0.54504 -0.0496,-0.0132 -0.11207,-0.0362 -0.13877,-0.0512 -0.0267,-0.015 -0.0636,-0.001 -0.0819,0.0307 -0.0627,0.109 -0.1005,0.0195 -0.0501,-0.1187 0.0276,-0.0759 0.0708,-0.20136 0.0959,-0.2788 0.0289,-0.0893 0.0605,-0.13214 0.0866,-0.11713 0.0226,0.013 0.007,0.11043 -0.0344,0.21648 -0.0737,0.18837 -0.0724,0.19391 0.0558,0.23702 0.0722,0.0243 0.14168,0.0413 0.15448,0.0379 0.0255,-0.007 0.3555,-1.00284 0.34506,-1.04153 -0.0117,-0.0434 -0.27078,-0.0917 -0.28452,-0.053 -0.007,0.0208 -0.0388,0.10994 -0.0697,0.19814 -0.034,0.0968 -0.0713,0.15165 -0.0943,0.13844 -0.0209,-0.012 -0.009,-0.0977 0.0261,-0.19047 0.0352,-0.0928 0.0486,-0.17755 0.0296,-0.18846 -0.019,-0.0109 -0.006,-0.0493 0.0297,-0.0851 0.0354,-0.0358 0.074,-0.0472 0.0859,-0.0251 0.0119,0.0221 0.0869,0.0629 0.16649,0.0911 l 0.14504,0.0508 0.15635,-0.48353 c 0.086,-0.26591 0.17374,-0.51398 0.19501,-0.5512 0.0613,-0.10724 0.11828,-0.0364 0.0769,0.0955 -0.0207,0.0659 -0.0538,0.19087 -0.0737,0.27786 -0.0316,0.13771 -0.0267,0.15047 0.0377,0.0987 0.10348,-0.083 0.13588,-0.14119 0.0554,-0.0984 -0.0535,0.0282 -0.0611,0.0127 -0.0364,-0.0746 0.0172,-0.0605 0.0639,-0.17463 0.10372,-0.25357 0.0397,-0.079 0.055,-0.14296 0.0335,-0.14242 -0.0215,5.4e-4 0.006,-0.0767 0.0602,-0.17175 0.0578,-0.10048 0.12498,-0.17059 0.1606,-0.16754 0.0489,0.004 0.0541,-0.005 0.0259,-0.0451 -0.0194,-0.0276 -0.0256,-0.0672 -0.0137,-0.0879 0.0119,-0.0207 0.0339,-0.0149 0.0491,0.013 0.0198,0.0368 0.0284,0.0221 0.0304,-0.0523 0.003,-0.11336 0.17375,-0.3362 0.20817,-0.27249 0.0118,0.0219 0.0266,0.007 0.0331,-0.0332 0.006,-0.0402 -0.003,-0.0814 -0.0204,-0.0915 -0.0426,-0.0245 0.20926,-0.37993 0.31724,-0.44692 0.0615,-0.0384 0.0693,-0.0527 0.0274,-0.0516 -0.0362,0.001 -0.0361,-0.0393 3.7e-4,-0.10915 0.15761,-0.30214 0.29499,-0.37413 0.19421,-0.10176 -0.0375,0.10125 -0.0692,0.18347 -0.0705,0.18273 -0.002,-0.001 -0.0472,0.14624 -0.10193,0.32668 -0.0633,0.2081 -0.13802,0.37117 -0.20466,0.44613 -0.12501,0.14053 -0.13031,0.18966 -0.0226,0.20903 0.044,0.008 0.0623,0.0203 0.0404,0.0278 -0.0327,0.0109 -0.10949,0.21707 -0.24637,0.6609 -0.0114,0.0358 -0.0294,0.12533 -0.0407,0.19851 -0.0206,0.13327 -0.1369,0.29059 -0.24831,0.33568 -0.0835,0.0338 0.006,0.13243 0.10002,0.11093 0.0591,-0.0134 0.0611,-0.005 0.01,0.0388 -0.0498,0.0427 -0.0468,0.0604 0.0132,0.0754 0.0803,0.0201 1.52221,0.52567 2.51143,0.88063 l 0.55361,0.19866 -0.10396,-0.15012 c -0.0571,-0.0826 -0.1103,-0.18685 -0.11805,-0.23177 -0.0286,-0.16555 0.0619,-0.0936 0.19954,0.15894 l 0.14199,0.25995 0.32517,0.11618 c 0.67128,0.23973 0.73501,0.25215 0.79136,0.15416 0.0284,-0.0493 0.0813,-0.18726 0.11747,-0.30655 0.0542,-0.17856 0.0501,-0.23831 -0.0236,-0.33858 -0.11116,-0.15126 -0.0768,-0.20354 0.10421,-0.15874 0.0765,0.019 0.16812,0.008 0.20339,-0.0243 0.11876,-0.10882 0.15653,0.0127 0.0464,0.14936 -0.0118,0.0145 -0.005,0.0354 0.0139,0.0465 0.0193,0.0111 0.0794,-0.0631 0.13342,-0.16499 l 0.0984,-0.18513 0.21919,0.0655 c 0.12058,0.036 0.31517,0.0762 0.43247,0.0892 0.18831,0.0209 0.23154,0.0416 0.36928,0.17662 0.1763,0.17291 0.28168,0.35637 0.26517,0.46166 -0.008,0.0491 0.0205,0.0785 0.091,0.0949 0.078,0.0181 0.0856,0.0287 0.0323,0.0446 -0.0485,0.0145 -0.0869,0.0759 -0.12596,0.20096 -0.0307,0.0991 -0.11275,0.25823 -0.18225,0.35362 -0.09,0.1236 -0.11244,0.18145 -0.0786,0.2009 0.0262,0.0151 0.44278,0.16363 0.92576,0.33001 0.48297,0.16644 0.96735,0.33837 1.07645,0.38206 0.10908,0.0437 0.20949,0.0596 0.2231,0.0353 0.0136,-0.0243 0.0541,-0.15443 0.0899,-0.28926 0.0851,-0.32031 0.11063,-0.36045 0.26355,-0.41353 0.0706,-0.0246 0.14448,-0.0723 0.16424,-0.10606 0.0196,-0.0338 0.12849,-0.12374 0.24177,-0.19987 0.11324,-0.0762 0.2237,-0.16801 0.24539,-0.20418 0.0218,-0.0362 0.13934,-0.13899 0.26145,-0.22849 0.12208,-0.0895 0.23635,-0.18765 0.25387,-0.21812 0.0184,-0.032 0.044,-0.0329 0.0606,-0.002 0.0177,0.0328 0.028,0.0302 0.0268,-0.007 -10e-4,-0.0329 0.0804,-0.11972 0.18029,-0.19334 0.10025,-0.0734 0.20152,-0.16707 0.22511,-0.20809 0.0268,-0.0465 0.0537,-0.0546 0.0716,-0.0214 0.0176,0.0326 0.028,0.0302 0.0269,-0.006 -0.001,-0.0325 0.0476,-0.0907 0.10823,-0.12922 0.10458,-0.0665 0.10216,-0.044 -0.0482,0.44629 -0.0871,0.28397 -0.19199,0.57428 -0.23313,0.64516 -0.0705,0.12153 -0.29228,0.28852 -0.39807,0.29983 -0.0264,0.003 -0.0472,0.0304 -0.0466,0.061 9.8e-4,0.0308 -0.0415,0.0841 -0.095,0.11806 -0.21393,0.13705 -0.24403,0.16329 -0.2425,0.21149 8.5e-4,0.0276 0.0231,0.0607 0.0493,0.0736 0.0343,0.0163 0.0379,0.0114 0.0138,-0.0201 -0.0227,-0.0292 0.0323,-0.0882 0.16853,-0.18132 0.11115,-0.0759 0.21986,-0.16839 0.24163,-0.20547 0.0341,-0.0583 0.0405,-0.0564 0.0478,0.0145 0.007,0.0681 0.0113,0.0678 0.026,-0.002 0.01,-0.0461 0.0655,-0.10589 0.12313,-0.13326 0.058,-0.0272 0.0976,-0.0358 0.0881,-0.0191 -0.01,0.0166 -0.0838,0.25067 -0.16499,0.52018 -0.16325,0.54187 -0.23855,0.68681 -0.39893,0.76808 -0.0948,0.0481 -0.10102,0.0587 -0.0511,0.0875 0.0313,0.018 0.0921,0.0125 0.13506,-0.0122 0.0434,-0.025 0.0664,-0.0232 0.0517,0.004 -0.0147,0.0269 -0.003,0.0628 0.0268,0.0797 0.0639,0.0367 0.19921,-0.0888 0.18624,-0.17278 -0.013,-0.084 0.14485,-0.20193 0.21571,-0.16118 0.0325,0.0187 0.0491,0.0513 0.0369,0.0726 -0.0122,0.0212 0.004,0.0536 0.0357,0.0719 0.0318,0.0183 0.0431,0.059 0.0251,0.0904 -0.0273,0.0475 -0.0115,0.0591 0.0945,0.0691 0.07,0.007 0.11165,-0.006 0.0924,-0.0273 -0.0193,-0.0215 -0.015,-0.05 0.009,-0.0632 0.027,-0.0146 0.0563,0.008 0.0746,0.0573 0.0252,0.0678 0.035,0.0681 0.0583,0.002 0.0199,-0.0564 0.0642,-0.0698 0.15392,-0.0464 0.10222,0.0265 0.11226,0.0377 0.0534,0.0596 -0.0417,0.0155 -0.0869,0.0784 -0.10669,0.14801 -0.0315,0.11139 -0.0407,0.11488 -0.11471,0.0434 -0.0515,-0.0497 -0.14063,-0.0763 -0.24767,-0.0736 -0.20298,0.005 -0.24694,0.0576 -0.0927,0.11098 0.0764,0.0264 0.0966,0.0486 0.0624,0.0669 -0.0311,0.0168 0.0132,0.0358 0.11317,0.0485 l 0.16427,0.0209 -0.0583,0.15754 c -0.0321,0.0867 -0.0725,0.18983 -0.0898,0.22933 -0.0171,0.0397 -0.0138,0.0827 0.008,0.0961 0.11516,0.0709 -0.17658,0.0352 -0.31821,-0.039 -0.20892,-0.10977 -0.25364,-0.0975 -0.31502,0.085 -0.0425,0.12617 -0.0387,0.13833 0.0273,0.0895 0.0623,-0.0459 0.0626,-0.0407 0.002,0.0289 -0.10864,0.12412 -0.27411,0.6038 -0.24526,0.71086 0.0286,0.10595 0.11486,0.13746 0.16018,0.0587 0.0171,-0.0298 0.0685,-0.0386 0.11403,-0.0195 0.0797,0.0333 0.0795,0.0342 -0.01,0.0232 -0.0889,-0.0109 -0.0903,-0.009 -0.0373,0.0569 0.0327,0.0403 0.0788,0.0557 0.11177,0.038 0.0435,-0.0235 0.0636,-0.0106 0.0888,0.058 0.0262,0.0704 0.0186,0.0894 -0.0376,0.0945 -0.0556,0.005 -0.0627,0.0165 -0.0333,0.0539 0.0604,0.0772 0.0104,0.10902 -0.0812,0.0519 -0.0518,-0.0321 -0.0981,-0.0304 -0.11842,0.005 -0.0241,0.0419 0.007,0.0796 0.114,0.13674 0.11714,0.0628 0.13915,0.0931 0.10749,0.1481 -0.0237,0.0412 -0.079,0.0558 -0.13632,0.036 -0.0827,-0.0285 -0.0818,-0.0237 0.007,0.0331 0.0767,0.0487 0.0917,0.0863 0.0588,0.14349 -0.0244,0.0425 -0.0618,0.0673 -0.083,0.0551 -0.0212,-0.0122 -0.0558,0.008 -0.0768,0.0457 -0.0328,0.058 -0.0279,0.0626 0.0324,0.0315 0.0611,-0.0315 0.0658,-0.0276 0.0345,0.0279 -0.0201,0.0356 -0.0417,0.0982 -0.0481,0.13898 -0.008,0.0496 -0.0489,0.069 -0.12355,0.0586 -0.10842,-0.0152 -0.1084,-0.0139 7.7e-4,0.0406 0.0947,0.0475 0.11813,0.0406 0.14678,-0.0422 0.0187,-0.0542 0.0526,-0.0994 0.0762,-0.0999 0.0232,-7.5e-4 0.15298,-0.0662 0.28857,-0.14548 0.20585,-0.12038 0.2473,-0.16201 0.25135,-0.25251 0.003,-0.0596 0.0354,-0.17169 0.0728,-0.24908 0.0571,-0.11929 0.0823,-0.13501 0.16178,-0.10318 0.0928,0.0371 0.17352,-0.0122 0.0943,-0.0577 -0.0224,-0.0129 -0.0236,-0.0328 -0.002,-0.0442 0.0211,-0.0114 0.0868,0.0174 0.14597,0.0641 0.0808,0.0636 0.11602,0.0702 0.14229,0.0245 0.0191,-0.0332 0.0753,-0.0606 0.12488,-0.0609 0.065,-3.3e-4 0.0751,-0.01 0.036,-0.0333 -0.0298,-0.0179 -0.10264,-0.0222 -0.1619,-0.009 -0.0592,0.0129 -0.11243,0.006 -0.11813,-0.0153 -0.0148,-0.0549 0.14396,-0.10649 0.21036,-0.0683 0.0305,0.0175 0.0547,0.008 0.0538,-0.0213 -9.3e-4,-0.0293 -0.0236,-0.0524 -0.0504,-0.0516 -0.0268,8.6e-4 -0.0405,-0.0129 -0.0305,-0.0302 0.01,-0.0174 0.11949,-0.002 0.24327,0.035 0.1963,0.0583 0.23543,0.0842 0.30707,0.20302 0.0452,0.0749 0.0807,0.15104 0.079,0.16918 -0.001,0.0184 0.0523,0.0448 0.11982,0.0597 0.0677,0.0145 0.35249,0.10606 0.63291,0.20344 0.28041,0.0974 0.4957,0.16119 0.47844,0.14179 -0.0173,-0.0192 -0.28012,-0.11922 -0.58412,-0.22184 -0.50642,-0.17092 -0.55267,-0.19358 -0.55178,-0.27038 7e-4,-0.058 -0.0153,-0.0751 -0.0516,-0.0554 -0.0368,0.0199 -0.065,-0.007 -0.094,-0.0909 -0.0336,-0.0968 -0.0215,-0.14381 0.0645,-0.24951 0.0918,-0.11282 0.0965,-0.13952 0.0358,-0.19936 -0.0886,-0.0873 -0.0564,-0.15195 0.0464,-0.0928 0.0425,0.0244 0.0878,0.026 0.10077,0.004 0.0129,-0.0224 0.0347,-0.0202 0.0483,0.005 0.0137,0.0253 0.0341,0.03 0.0454,0.0103 0.0113,-0.0197 0.16511,0.0164 0.3418,0.0801 0.17672,0.0637 0.35631,0.10283 0.39917,0.0869 0.0643,-0.0238 0.0622,-0.0329 -0.0118,-0.051 -0.0493,-0.0121 -0.19539,-0.0593 -0.32459,-0.10488 -0.68464,-0.24147 -0.71784,-0.2494 -0.75121,-0.17942 -0.0237,0.0492 -0.0667,0.0518 -0.15249,0.009 -0.15351,-0.0768 -0.3496,-0.2367 -0.32687,-0.26655 0.0496,-0.0652 0.0336,-0.0892 -0.0617,-0.0921 -0.0577,-0.002 -0.12463,-0.0275 -0.14873,-0.0572 -0.0377,-0.0464 -0.0275,-0.0622 0.0734,-0.11355 l 0.1174,-0.0595 -0.14704,-0.0363 c -0.0809,-0.02 -0.14838,-0.0425 -0.15003,-0.0501 -0.0134,-0.061 0.0937,-0.3442 0.13951,-0.36894 0.0318,-0.0172 0.0721,-0.0952 0.0893,-0.17333 0.1049,-0.47098 0.15711,-0.6199 0.22638,-0.64567 0.0527,-0.0195 0.0611,-0.0384 0.0317,-0.0712 -0.0221,-0.0248 0.003,-0.0327 0.0577,-0.0179 0.10479,0.0285 0.1046,0.0464 -0.003,0.34368 -0.0415,0.11474 -0.0415,0.15361 6e-5,0.11944 0.0542,-0.0446 0.0667,-0.0389 0.1048,0.0475 0.0345,0.0782 0.031,0.0911 -0.0173,0.0633 -0.0333,-0.0191 -0.0987,-0.0207 -0.14533,-0.003 -0.0746,0.0278 -0.0693,0.0361 0.0438,0.0694 0.0707,0.0208 0.13724,0.0362 0.14788,0.0344 0.0104,-0.002 0.0526,-0.10945 0.0928,-0.23934 0.0667,-0.21446 0.0642,-0.23917 -0.0284,-0.27121 -0.11493,-0.0398 -0.10074,-0.10454 0.0278,-0.12676 0.047,-0.008 0.0769,4.1e-4 0.0664,0.019 -0.0105,0.0186 0.0512,0.006 0.13733,-0.0276 l 0.15653,-0.0614 0.0386,0.16833 c 0.0213,0.0926 0.0179,0.20503 -0.008,0.24989 -0.0841,0.14822 -0.0536,0.21602 0.12554,0.28094 l 0.16567,0.06 -0.12374,0.0362 c -0.16095,0.0471 -0.41738,-0.0333 -0.36989,-0.11583 0.0183,-0.0319 0.0207,-0.0922 0.005,-0.13385 -0.0236,-0.0633 -0.0408,-0.0315 -0.10363,0.19022 -0.0413,0.14643 -0.0541,0.26551 -0.0282,0.26472 0.0258,-8.3e-4 0.0462,-0.0236 0.0454,-0.0506 -8.4e-4,-0.027 0.0392,-0.0602 0.0891,-0.0736 0.0803,-0.0216 0.0882,-0.0156 0.0694,0.0532 -0.0201,0.0739 -0.0191,0.0745 0.0221,0.0127 0.024,-0.0357 0.0607,-0.055 0.0819,-0.0428 0.0368,0.0211 0.0314,0.0503 -0.0335,0.18391 -0.016,0.0319 0.008,0.0931 0.0537,0.13549 l 0.0821,0.0771 -0.13463,0.0363 c -0.074,0.02 -0.16067,0.0213 -0.19252,0.003 -0.0318,-0.0183 -0.0705,-0.0117 -0.0859,0.0148 -0.0154,0.0265 -0.0802,0.0814 -0.14395,0.12213 -0.10568,0.0674 -0.11199,0.0826 -0.0709,0.17038 0.0265,0.0567 0.0216,0.11545 -0.0118,0.1427 -0.0314,0.0254 -0.048,0.0633 -0.0364,0.0845 0.0314,0.0582 0.2226,0.0237 0.22058,-0.0398 -0.001,-0.0352 0.0452,-0.0286 0.12578,0.018 0.0702,0.0406 0.34435,0.14947 0.60932,0.24199 0.41996,0.14658 0.49845,0.16037 0.61175,0.10732 0.0715,-0.0335 0.70789,-0.37365 1.41422,-0.75598 0.87484,-0.47354 1.29173,-0.72262 1.30774,-0.78136 0.013,-0.0474 0.0273,-0.0723 0.0318,-0.0554 0.005,0.0169 0.0727,0.0464 0.15143,0.0656 0.0787,0.0192 0.2004,0.0557 0.27043,0.0813 0.07,0.0256 0.15788,0.0538 0.19517,0.0626 0.0373,0.009 0.15143,0.0516 0.25366,0.0949 0.10223,0.0433 0.22366,0.0874 0.26991,0.0979 0.13233,0.03 0.29377,0.0943 0.48686,0.19416 0.098,0.0506 0.23254,0.0923 0.2989,0.0927 0.0741,3e-4 0.1649,0.0383 0.23525,0.0985 0.0886,0.0758 0.13252,0.0877 0.19421,0.0522 0.0438,-0.0252 0.0729,-0.0329 0.0648,-0.0171 -0.008,0.0158 0.0345,0.0366 0.095,0.0465 0.0605,0.01 0.20103,0.0568 0.31229,0.10462 0.11125,0.0478 0.25137,0.10211 0.31133,0.12068 0.22396,0.069 0.3281,0.10493 0.4182,0.14395 0.0507,0.0223 0.11079,0.0352 0.13303,0.0292 0.0771,-0.0208 0.33776,0.15698 0.30744,0.20969 -0.0159,0.0277 -0.79666,0.38205 -1.73495,0.78746 -0.9383,0.4054 -1.80753,0.78124 -1.93164,0.8352 -0.34039,0.14798 -0.42216,0.15606 -0.64631,0.0639 -0.26131,-0.10737 -0.33891,-0.11901 -0.37503,-0.0562 -0.0375,0.0653 -0.38991,-0.06 -0.37502,-0.13331 0.006,-0.0283 -0.007,-0.0619 -0.0291,-0.0744 -0.0218,-0.0125 -0.0445,0.009 -0.0505,0.048 -0.006,0.0415 -0.0327,0.0582 -0.0636,0.0405 -0.029,-0.0166 -0.0474,-0.0629 -0.0412,-0.10293 0.009,-0.0564 -0.0107,-0.0734 -0.0873,-0.0757 -0.13667,-0.004 -0.22347,0.18698 -0.14109,0.31093 0.0344,0.0517 0.0688,0.1413 0.0765,0.19911 0.0133,0.0998 0.0163,0.10004 0.0604,0.003 0.0378,-0.0817 0.063,-0.0914 0.1315,-0.0487 0.095,0.0593 0.1225,0.0394 0.0936,-0.0675 -0.0223,-0.0827 0.0424,-0.11663 0.0821,-0.0431 0.041,0.0759 -0.0367,0.17691 -0.18012,0.23415 -0.18506,0.0738 -0.68771,0.29439 -1.44238,0.63294 -0.35882,0.16097 -0.66356,0.29713 -0.67721,0.30259 -0.0135,0.005 -0.0265,-0.0245 -0.0281,-0.0675 -0.004,-0.10544 -0.0399,-0.0389 -0.0436,0.0819 -0.002,0.0533 -0.0303,0.17981 -0.0637,0.28107 -0.0334,0.10126 -0.0898,0.29457 -0.12538,0.42952 -0.0712,0.27051 -0.19052,0.61475 -0.22592,0.65174 -0.0122,0.0132 -0.0305,0.0836 -0.0398,0.1569 -0.0248,0.19279 -0.29782,1.02383 -0.33672,1.02506 -0.0373,0.001 -0.51594,-0.16607 -0.72279,-0.25255 -0.075,-0.0314 -0.15935,-0.0648 -0.18726,-0.0742 -0.028,-0.009 -0.0321,-0.0641 -0.009,-0.12164 0.0227,-0.0575 0.0353,-0.13012 0.0275,-0.16146 -0.0191,-0.0767 0.0175,-0.13502 0.049,-0.0772 0.0165,0.0303 0.0313,0.005 0.0439,-0.0744 0.0174,-0.10844 0.0284,-0.11502 0.11252,-0.0667 0.14058,0.0808 0.18529,0.0281 0.22303,-0.26304 0.0312,-0.24014 0.024,-0.26865 -0.0763,-0.30237 -0.10027,-0.0338 -0.1052,-0.0547 -0.0549,-0.22005 0.0708,-0.23247 0.16373,-0.35189 0.23975,-0.30817 0.0448,0.0258 0.0674,0.006 0.0922,-0.0817 0.0671,-0.23681 0.0614,-0.47245 -0.0121,-0.49951 -0.0498,-0.0183 -0.0545,-0.0406 -0.0151,-0.0729 0.0689,-0.056 0.0186,-0.0887 -0.29247,-0.19035 -0.12607,-0.0411 -0.28396,-0.0626 -0.35088,-0.0477 -0.11951,0.0267 -0.2675,-0.0252 -0.28792,-0.10087 -0.006,-0.0212 0.0278,-0.0624 0.0747,-0.0914 0.0678,-0.0422 0.10914,-0.0333 0.20365,0.0435 0.0885,0.072 0.13801,0.0851 0.19399,0.0533 0.0477,-0.0274 0.0652,-0.0245 0.0476,0.008 -0.033,0.0594 0.24009,-0.0182 0.41981,-0.12004 0.14389,-0.0815 0.18804,-0.0707 0.15816,0.0388 -0.0174,0.0639 -0.0141,0.0672 0.0191,0.0179 0.0305,-0.0451 0.15048,-0.0224 0.49901,0.0948 0.25238,0.0848 0.47279,0.15043 0.48981,0.14584 0.0896,-0.0242 -0.0289,-0.0841 -0.4287,-0.2169 -0.31563,-0.10481 -0.44809,-0.16599 -0.46066,-0.21244 -0.01,-0.0359 -0.004,-0.069 0.0129,-0.0736 0.0168,-0.005 0.22213,0.0551 0.45633,0.13239 0.23419,0.0774 0.43563,0.13795 0.4476,0.13476 0.0123,-0.003 0.0671,-0.17067 0.1225,-0.37208 0.0846,-0.3078 0.11688,-0.37634 0.20231,-0.4296 0.0559,-0.0349 0.12157,-0.0519 0.14601,-0.0378 0.0281,0.0161 0.0725,-0.0339 0.12097,-0.13593 0.0624,-0.13149 0.0892,-0.15436 0.14445,-0.1232 0.12356,0.0699 0.21794,0.0339 0.31776,-0.12087 0.0921,-0.14205 0.0913,-0.15678 -0.004,-0.21085 -0.0784,-0.0445 -0.0939,-0.042 -0.0663,0.0104 0.0198,0.0377 0.0174,0.0737 -0.006,0.0799 -0.0229,0.006 -0.0429,0.0513 -0.0444,0.10029 -0.002,0.0631 -0.0272,0.0932 -0.087,0.1036 -0.0705,0.0121 -0.0755,-8.7e-4 -0.0304,-0.0793 0.0297,-0.0517 0.0464,-0.14309 0.0372,-0.20324 -0.0162,-0.10519 -0.018,-0.10516 -0.0479,0.001 -0.0171,0.0608 -0.0401,0.1457 -0.0511,0.18866 -0.014,0.055 -0.0333,0.0618 -0.0643,0.0235 -0.0609,-0.075 -0.17301,0.0362 -0.19871,0.19708 -0.0174,0.10846 -0.028,0.12016 -0.0663,0.0731 -0.0331,-0.0407 -0.0606,-0.0302 -0.0992,0.0369 -0.0294,0.0511 -0.0812,0.0939 -0.11506,0.095 -0.0867,0.003 -0.87353,-0.2811 -0.89636,-0.32335 -0.0258,-0.0477 -0.0698,0.0367 -0.11553,0.22156 -0.0211,0.0851 -0.0576,0.15648 -0.0809,0.15866 -0.0751,0.007 -1.23308,0.60899 -1.25973,0.65533 -0.0272,0.0473 -0.0486,0.0426 -0.53477,-0.11854 -0.17174,-0.0569 -0.43081,-0.1271 -0.57577,-0.15593 -0.2428,-0.0483 -0.26433,-0.0595 -0.2734,-0.14212 -0.005,-0.0494 0.0273,-0.13833 0.0728,-0.19773 0.0457,-0.0593 0.0921,-0.1604 0.10349,-0.22447 0.0843,-0.47032 0.24736,-0.9008 0.36535,-0.96454 0.10227,-0.0553 0.04,-0.13289 -0.16209,-0.20201 -0.10627,-0.0363 -0.30227,-0.10335 -0.43562,-0.14889 -0.16072,-0.0549 -0.26259,-0.0651 -0.30237,-0.0299 -0.0619,0.0547 -0.22292,0.14524 -0.28002,0.15756 -0.0504,0.0108 -0.55285,0.34063 -0.57194,0.37536 -0.009,0.017 0.0162,0.0151 0.0564,-0.004 0.0609,-0.0289 0.0639,-0.0231 0.0181,0.0338 -0.0319,0.0394 -0.10189,0.0548 -0.16452,0.0361 -0.0601,-0.0179 -0.1338,-0.004 -0.16394,0.0309 -0.0494,0.0573 -0.0344,0.0718 0.15489,0.14964 l 0.20967,0.0862 -0.0434,0.16911 c -0.0238,0.093 -0.0608,0.19955 -0.082,0.2368 -0.0213,0.0373 -0.0156,0.0809 0.0126,0.0971 0.0355,0.0204 0.0239,0.0648 -0.0381,0.14507 -0.0731,0.0947 -0.0749,0.11224 -0.0107,0.0966 0.14438,-0.035 0.21745,0.0528 0.19452,0.23373 -0.0121,0.0954 -0.0258,0.18 -0.0304,0.18802 -0.0236,0.041 -0.11998,-0.0621 -0.16666,-0.17752 -0.0631,-0.15682 -0.11532,-0.15572 -0.14071,0.003 -0.0349,0.2181 -0.0874,0.25937 -0.2516,0.19738 -0.0842,-0.0318 -0.19989,-0.0476 -0.25726,-0.0351 -0.0664,0.0144 -0.10495,0.003 -0.10598,-0.0314 -0.002,-0.0793 -0.25774,-0.15515 -0.39176,-0.11606 -0.0933,0.0271 -0.13664,0.0783 -0.23011,0.27195 -0.13532,0.28022 -0.12789,0.48826 0.0226,0.63576 0.0704,0.069 0.0904,0.12908 0.0646,0.19356 -0.0229,0.0579 -0.0105,0.10896 0.0329,0.13394 0.0441,0.0254 0.0645,0.11359 0.0547,0.23693 -0.009,0.10808 -0.006,0.18008 0.007,0.16003 0.0125,-0.02 0.0593,0.0909 0.10399,0.24653 0.0896,0.31186 0.17788,0.47431 0.2563,0.47183 0.0282,-8.7e-4 0.0403,0.0174 0.0264,0.0415 -0.0137,0.0238 -0.002,0.0424 0.0259,0.0416 0.0568,-0.002 0.21072,0.21774 0.21346,0.30451 9.8e-4,0.0308 -0.0485,0.0723 -0.11005,0.0923 -0.11059,0.0358 -0.11247,0.0343 -0.16021,-0.12894 -0.0386,-0.13153 -0.0648,-0.16229 -0.1294,-0.15113 -0.0657,0.0114 -0.0905,-0.0399 -0.13153,-0.27147 -0.0278,-0.15698 -0.11265,-0.4425 -0.18861,-0.63446 -0.076,-0.19196 -0.16805,-0.47695 -0.20468,-0.6333 -0.0366,-0.15636 -0.0903,-0.2979 -0.11922,-0.31454 -0.0606,-0.0349 -0.15117,0.0968 -0.11395,0.16564 0.0388,0.0718 -0.0355,0.16707 -0.1392,0.17845 -0.0783,0.009 -0.0914,0.0251 -0.0785,0.0998 0.0122,0.0711 -0.0103,0.11259 -0.10898,0.20153 -0.0687,0.0615 -0.23528,0.29598 -0.37021,0.52116 -0.22726,0.37912 -0.25099,0.40614 -0.32129,0.36571 -0.0575,-0.0331 -0.0964,-0.0148 -0.1602,0.0748 -0.0687,0.0965 -0.10094,0.10892 -0.1742,0.0668 -0.11268,-0.0648 -0.0998,-0.15744 0.0407,-0.29358 0.0602,-0.0583 0.11724,-0.14229 0.12693,-0.18681 0.01,-0.0448 0.0368,-0.07 0.0611,-0.056 0.0239,0.0138 0.0427,0.001 0.0418,-0.0273 -8.8e-4,-0.0288 0.0239,-0.0376 0.0554,-0.0195 0.0472,0.0271 0.0647,0.004 0.10112,-0.1345 0.0534,-0.20303 0.0696,-0.64067 0.0247,-0.66652 -0.0179,-0.0103 -0.008,-0.0621 0.023,-0.11521 0.0326,-0.0566 0.0333,-0.10399 0.002,-0.11463 -0.0331,-0.0109 -0.029,-0.0647 0.0102,-0.1383 0.0356,-0.0659 0.0611,-0.17833 0.0576,-0.24942 -0.004,-0.0711 0.0165,-0.18792 0.0445,-0.25964 0.028,-0.0717 0.0621,-0.23708 0.0757,-0.36746 0.0187,-0.17894 0.009,-0.22747 -0.0411,-0.19789 -0.0717,0.0426 -0.30716,0.62958 -0.34024,0.848 -0.011,0.0731 -0.0648,0.21059 -0.11936,0.30542 -0.0677,0.11766 -0.0848,0.19006 -0.054,0.22795 0.0493,0.0607 -0.008,0.1962 -0.0837,0.19865 -0.0261,8.1e-4 -0.0582,0.0413 -0.0715,0.0898 -0.0133,0.0486 -0.008,0.0878 0.0105,0.0872 0.019,-6e-4 -0.049,0.14328 -0.15121,0.31969 -0.10223,0.17642 -0.16815,0.32026 -0.14654,0.3196 0.0216,-6.3e-4 0.0107,0.0485 -0.0243,0.10915 -0.0812,0.14126 -0.10129,0.36509 -0.0361,0.40308 0.0277,0.0161 0.0495,0.003 0.0485,-0.0298 -0.001,-0.0356 0.015,-0.0402 0.0407,-0.0113 0.0234,0.0263 0.0207,0.14493 -0.006,0.26368 -0.0423,0.18821 -0.0582,0.21631 -0.1248,0.21901 -0.11326,0.005 -0.16657,-0.0372 -0.15344,-0.12089 z m 0.1849,-0.002 c -0.0215,-0.0272 -0.0556,-0.045 -0.076,-0.0391 -0.0202,0.005 -0.003,0.0277 0.039,0.0494 0.046,0.0241 0.0604,0.0201 0.0367,-0.01 z m 0.61429,-0.68055 c -0.005,-0.0187 -0.043,-0.0247 -0.0844,-0.0135 -0.0597,0.0164 -0.0579,0.0234 0.009,0.034 0.0464,0.007 0.0802,-0.002 0.0752,-0.0206 z m 0.54506,-0.63403 c 0.0868,-0.15493 0.25695,-0.43275 0.37942,-0.61661 0.25977,-0.39132 0.3075,-0.63136 0.1498,-0.7536 -0.11434,-0.0886 -0.15206,-0.19081 -0.0957,-0.25904 0.0333,-0.0398 0.007,-0.0795 -0.10186,-0.15226 -0.20015,-0.13425 -0.31074,-0.11307 -0.26052,0.0499 0.0215,0.0699 0.0132,0.14184 -0.0194,0.16832 -0.0314,0.0255 -0.0545,0.0968 -0.0504,0.1592 0.004,0.0621 -0.0153,0.18086 -0.042,0.26399 -0.0267,0.0832 -0.062,0.30522 -0.0784,0.49359 -0.0164,0.18837 -0.0431,0.43885 -0.0594,0.55664 -0.0296,0.21438 -0.0282,0.34341 0.004,0.36197 0.009,0.005 0.088,-0.11702 0.1744,-0.27216 z m 1.65795,1.27118 c 0.0802,-0.0434 0.0408,-0.085 -0.0485,-0.0514 -0.0515,0.0192 -0.0672,0.0397 -0.0417,0.0544 0.0225,0.013 0.0632,0.0117 0.0902,-0.003 z m -0.83118,-2.50229 c 0.0299,-0.0243 0.0573,-0.1056 0.0603,-0.18093 0.004,-0.09 0.0275,-0.14476 0.0692,-0.16026 0.048,-0.0179 0.0134,-0.0393 -0.14337,-0.0894 -0.11376,-0.036 -0.21678,-0.0642 -0.22898,-0.0626 -0.0263,0.003 0.13007,0.49816 0.16477,0.52118 0.0132,0.009 0.0483,-0.004 0.0783,-0.0284 z m -1.96197,-1.4767 c 0.11588,-0.0745 0.12341,-0.0858 0.0489,-0.0729 -0.08,0.0137 -0.23584,0.13241 -0.20053,0.15271 0.008,0.004 0.0763,-0.0312 0.15173,-0.0797 z m -3.73546,-2.32263 c 0.0133,-0.003 -0.0178,-0.029 -0.069,-0.0587 -0.0741,-0.0432 -0.0771,-0.0547 -0.0135,-0.0584 0.0639,-0.003 0.0621,-0.0143 -0.009,-0.0559 -0.0554,-0.0325 -0.0881,-0.03 -0.0869,0.006 10e-4,0.0319 -0.031,0.0598 -0.0711,0.0618 -0.0454,0.002 -0.016,0.0239 0.0765,0.0566 0.0821,0.0291 0.1602,0.0508 0.17339,0.0484 z m 2.9925,1.54707 c 0.007,-0.16312 0.0763,-0.2356 0.14455,-0.15166 0.0466,0.0574 0.0604,0.0428 0.0999,-0.10548 0.0213,-0.08 0.0104,-0.0984 -0.0517,-0.0876 -0.0626,0.0107 -0.069,-0.003 -0.0315,-0.0684 0.0259,-0.0451 0.0663,-0.0709 0.0898,-0.0573 0.0249,0.0143 0.0482,-0.01 0.0557,-0.0579 0.007,-0.0454 0.0682,-0.23565 0.13568,-0.42286 0.0675,-0.18721 0.14181,-0.41628 0.16516,-0.50901 0.0386,-0.15353 0.0318,-0.17175 -0.0763,-0.2036 -0.16475,-0.0486 -0.1617,-0.0512 -0.23169,0.20065 -0.0526,0.18938 -0.0744,0.2263 -0.13508,0.22886 -0.0602,0.003 -0.063,0.009 -0.0162,0.0361 0.0433,0.0255 0.0394,0.0372 -0.0173,0.0524 -0.0401,0.0108 -0.0871,0.0474 -0.10431,0.0813 -0.0247,0.049 -0.0202,0.0532 0.021,0.0201 0.047,-0.0374 0.008,0.45823 -0.0428,0.54683 -0.0266,0.0463 -0.0675,0.47334 -0.0536,0.56125 0.0193,0.12302 0.042,0.0938 0.049,-0.0632 z m -2.29687,-1.30318 c -0.0215,-0.0272 -0.0556,-0.045 -0.076,-0.0391 -0.0202,0.005 -0.003,0.0277 0.0391,0.0495 0.046,0.0241 0.0604,0.0201 0.0367,-0.01 z m -2.3288,-1.6253 c 0.005,-0.0327 -0.0165,-0.0164 -0.0473,0.0371 -0.0305,0.053 -0.0343,0.0798 -0.008,0.0595 0.0259,-0.0204 0.0509,-0.0638 0.0555,-0.0965 z m 0.02,-0.21864 c -0.005,-0.0202 -0.0277,-0.003 -0.0494,0.039 -0.0241,0.046 -0.0201,0.0604 0.01,0.0367 0.0272,-0.0215 0.045,-0.0556 0.0391,-0.076 z m 8.88408,5.04401 c 0.0122,-0.0212 0.004,-0.0491 -0.0187,-0.0621 -0.0225,-0.0129 -0.0401,-1e-5 -0.0392,0.0288 8.7e-4,0.0288 0.009,0.0567 0.0187,0.0621 0.009,0.005 0.027,-0.008 0.0392,-0.0288 z m -8.81168,-5.25922 c -0.005,-0.0202 -0.0277,-0.003 -0.0494,0.039 -0.0241,0.046 -0.0201,0.0604 0.01,0.0367 0.0272,-0.0215 0.045,-0.0556 0.0391,-0.076 z m 1.74304,0.89966 c -0.005,-0.0202 -0.0277,-0.003 -0.0494,0.039 -0.0241,0.046 -0.0201,0.0604 0.01,0.0367 0.0272,-0.0214 0.045,-0.0556 0.0391,-0.076 z m -0.0945,-0.0683 c 0.0122,-0.0212 0.005,-0.0485 -0.0164,-0.0608 -0.0212,-0.0122 -0.0486,-0.005 -0.0608,0.0164 -0.0122,0.0212 -0.005,0.0486 0.0164,0.0608 0.0212,0.0122 0.0485,0.005 0.0608,-0.0164 z m 0.33515,-0.077 c 0.005,-0.0327 -0.0165,-0.0164 -0.0473,0.0371 -0.0305,0.053 -0.0343,0.0798 -0.008,0.0595 0.0259,-0.0204 0.0509,-0.0638 0.0555,-0.0965 z m 3.99951,2.36602 c 0.0118,-0.0205 0.0395,-0.0152 0.0616,0.012 0.0221,0.0271 0.054,0.0253 0.0706,-0.004 0.0199,-0.0347 -0.004,-0.065 -0.0695,-0.0876 -0.0959,-0.0331 -0.20238,0.0487 -0.12282,0.0944 0.0212,0.0122 0.0483,0.005 0.0601,-0.0152 z m 1.50153,0.77899 c 0.0584,0.0188 0.0948,0.0118 0.081,-0.0154 -0.0139,-0.0272 -0.009,-0.10372 0.01,-0.16995 0.0334,-0.11543 0.0379,-0.11626 0.10635,-0.0206 0.0528,0.0737 0.0537,0.10644 0.003,0.12508 -0.0474,0.0176 -0.0597,0.0405 -0.041,0.0753 0.0342,0.0634 0.38179,0.19441 0.35121,0.13253 -0.0487,-0.0988 0.004,-0.20499 0.0918,-0.18584 0.0703,0.0153 0.0961,-0.007 0.13223,-0.11438 0.032,-0.0952 0.0532,-0.11813 0.0737,-0.0802 0.0158,0.0293 -0.007,0.1152 -0.0504,0.19092 -0.0768,0.1336 -0.0753,0.13894 0.0553,0.18292 0.0739,0.0249 0.14722,0.0526 0.16277,0.0615 0.0296,0.017 0.35914,-1.00837 0.34309,-1.06784 -0.005,-0.0188 -0.0682,-0.0528 -0.14012,-0.076 -0.0897,-0.0283 -0.13441,-0.0201 -0.14167,0.0262 -0.006,0.0371 -0.0283,0.0573 -0.0499,0.0449 -0.0217,-0.0125 -0.0107,-0.0999 0.0242,-0.19437 0.048,-0.12966 0.046,-0.17726 -0.008,-0.19437 -0.0759,-0.0239 -0.0772,-0.0222 -0.15205,0.19057 -0.0425,0.12106 -0.0621,0.13259 -0.18467,0.10947 -0.13511,-0.0255 -0.21265,-4.2e-4 -0.10785,0.0349 0.0295,0.01 0.0357,0.0384 0.0137,0.0632 -0.0223,0.0247 5.3e-4,0.0946 0.0502,0.15495 0.0751,0.0914 0.079,0.14508 0.0228,0.31993 -0.0902,0.28093 -0.0858,0.27663 -0.20577,0.20494 -0.0723,-0.0427 -0.10124,-0.0977 -0.0927,-0.17377 0.008,-0.068 -0.0156,-0.11855 -0.0599,-0.1308 -0.0525,-0.0144 -0.061,-0.0714 -0.0309,-0.20796 0.0528,-0.23961 0.0408,-0.3289 -0.0458,-0.34248 -0.038,-0.006 -0.08,-0.0402 -0.0934,-0.076 -0.0162,-0.0433 -0.0761,-0.0773 -0.17898,-0.10178 -0.0852,-0.02 -0.22948,-0.0675 -0.32074,-0.10533 -0.27342,-0.11363 -0.53585,-0.1871 -0.69356,-0.19415 -0.11591,-0.005 -0.15509,-0.0238 -0.17756,-0.0841 -0.0206,-0.0552 -0.0359,-0.0651 -0.0536,-0.0343 -0.0137,0.0238 -0.007,0.0539 0.016,0.0669 0.0224,0.0129 0.0165,0.0366 -0.0132,0.0527 -0.0298,0.0161 -0.10821,0.13279 -0.17422,0.25942 -0.0743,0.14329 -0.13541,0.2214 -0.1615,0.20639 -0.0227,-0.0131 -0.0513,-0.006 -0.0635,0.0148 -0.0122,0.0212 0.001,0.0519 0.0294,0.0682 0.0366,0.021 0.0943,-0.0388 0.19851,-0.20576 0.0804,-0.12973 0.15745,-0.23828 0.17039,-0.24173 0.0355,-0.01 0.55845,0.16269 0.65328,0.21516 0.066,0.0368 0.0718,0.0859 0.0276,0.24232 -0.0735,0.26021 -0.13546,0.36171 -0.19874,0.32531 -0.0641,-0.0368 -0.27765,0.0276 -0.24676,0.0744 0.0297,0.045 0.18523,0.1228 0.37608,0.18814 0.11017,0.0377 0.15897,0.0761 0.16873,0.13257 0.0135,0.0784 0.0736,0.10726 0.52602,0.25269 z m -5.13567,-2.99048 c 0.0143,-0.0247 0.0644,-0.0236 0.11135,0.003 0.0469,0.0262 0.10503,0.0422 0.12909,0.0357 0.024,-0.006 0.0849,0.0118 0.13509,0.0407 0.0502,0.0289 0.11523,0.0331 0.14448,0.009 0.0396,-0.0321 0.0936,-0.0129 0.21138,0.0755 0.1242,0.0932 0.17084,0.10863 0.2176,0.0705 0.0327,-0.0265 0.0759,-0.0387 0.0961,-0.0271 0.0202,0.0116 0.016,0.0323 -0.009,0.046 -0.0253,0.0137 -0.0187,0.0406 0.0141,0.0595 0.0664,0.0382 0.0738,0.0332 0.0892,-0.0642 0.009,-0.0564 -0.0446,-0.084 -0.35146,-0.18182 -0.19906,-0.0634 -0.41882,-0.12438 -0.48839,-0.13551 -0.0695,-0.0111 -0.19483,-0.0596 -0.27838,-0.1076 -0.11778,-0.0677 -0.16132,-0.0726 -0.19379,-0.0216 -0.0249,0.0393 -0.0386,0.0418 -0.0337,0.006 0.005,-0.0327 -0.009,-0.0695 -0.0303,-0.0817 -0.0212,-0.0122 -0.0438,0.004 -0.0502,0.0354 -0.006,0.0317 0.0477,0.0917 0.12022,0.1334 0.0971,0.0559 0.11963,0.0891 0.0856,0.12629 -0.0252,0.0278 -0.0232,0.0444 0.005,0.0369 0.0279,-0.008 0.0624,-0.0339 0.0768,-0.0587 z m 0.35606,-0.0146 c 0.0202,-0.005 0.0543,0.0123 0.076,0.0391 0.0237,0.03 0.009,0.034 -0.0367,0.01 -0.0416,-0.0216 -0.059,-0.0443 -0.039,-0.0494 z m 0.16014,0.41198 c 0.004,-0.008 -0.008,-0.0559 -0.0287,-0.10636 -0.0336,-0.0832 -0.0358,-0.0826 -0.0229,0.006 0.0135,0.0933 0.0333,0.132 0.0516,0.10018 z m 0.83632,0.25979 c -0.0215,-0.0272 -0.0556,-0.045 -0.076,-0.0391 -0.0202,0.005 -0.003,0.0277 0.039,0.0494 0.046,0.0241 0.0604,0.0201 0.0367,-0.01 z m 0.21635,0.0537 c 0.0115,-0.02 -0.005,-0.0513 -0.037,-0.0696 -0.0597,-0.0343 -0.10294,0.001 -0.0844,0.0699 0.0131,0.0486 0.0936,0.0481 0.12144,-3e-4 z m -0.36825,-0.20832 c -0.0799,-0.10663 -0.14086,-0.14169 -0.0965,-0.0555 0.02,0.0388 0.063,0.0848 0.0955,0.10188 0.0391,0.0202 0.0394,0.005 9.6e-4,-0.0464 z m -2.75837,-1.98343 c -0.005,-0.0202 -0.0277,-0.003 -0.0495,0.039 -0.0241,0.046 -0.0201,0.0604 0.01,0.0367 0.0272,-0.0215 0.045,-0.0556 0.0391,-0.076 z m 9.97564,5.82589 c 0.0122,-0.0212 -0.0299,-0.0685 -0.0936,-0.10518 -0.0637,-0.0367 -0.12578,-0.0493 -0.13799,-0.028 -0.0122,0.0212 0.0299,0.0685 0.0936,0.10518 0.0637,0.0366 0.12579,0.0493 0.138,0.028 z m 1.67254,0.71893 c -0.005,-0.0202 -0.0277,-0.003 -0.0495,0.039 -0.0241,0.046 -0.0201,0.0604 0.01,0.0367 0.0272,-0.0215 0.045,-0.0556 0.0391,-0.076 z m -12.09986,-7.01005 c -0.005,-0.0202 -0.0277,-0.003 -0.0494,0.039 -0.0241,0.046 -0.0201,0.0604 0.01,0.0367 0.0272,-0.0215 0.045,-0.0556 0.0391,-0.076 z m 1.85234,1.11905 c -0.0215,-0.0272 -0.0556,-0.045 -0.076,-0.0391 -0.0202,0.005 -0.003,0.0277 0.0389,0.0494 0.046,0.0241 0.0604,0.0201 0.0367,-0.01 z m 5.81276,3.27536 c 0.0122,-0.0212 0.005,-0.0486 -0.0164,-0.0608 -0.0212,-0.0122 -0.0485,-0.005 -0.0608,0.0164 -0.0122,0.0212 -0.005,0.0486 0.0164,0.0608 0.0212,0.0122 0.0486,0.005 0.0608,-0.0164 z m -2.96656,-1.75742 c 0.009,0.005 0.0305,-0.0158 0.0481,-0.0464 0.0501,-0.0871 -0.003,-0.14075 -0.102,-0.10285 -0.0794,0.0304 -0.0791,0.0365 0.003,0.0522 l 0.0925,0.0178 -0.11358,0.0188 c -0.10019,0.0165 -0.10362,0.0207 -0.0292,0.0347 0.0466,0.009 0.0921,0.0203 0.10097,0.0254 z m 5.54646,3.1672 c 0.0176,-0.0306 0.0208,-0.0763 0.007,-0.10168 -0.0137,-0.0253 -0.0454,-0.0103 -0.0706,0.0335 -0.0251,0.0437 -0.0284,0.0895 -0.007,0.10167 0.0212,0.0122 0.053,-0.003 0.0706,-0.0335 z m -10.19072,-5.91844 c 0.0329,-0.0268 0.0356,-0.0459 0.006,-0.0451 -0.0285,9.4e-4 -0.0611,0.018 -0.0726,0.038 -0.032,0.0556 0.003,0.0592 0.0669,0.007 z m 0.51043,0.22111 c 0.027,-0.0681 0.0713,-0.12001 0.0989,-0.11503 0.0272,0.005 0.0227,-0.004 -0.0104,-0.0202 -0.0333,-0.0157 -0.0634,-0.0137 -0.0671,0.005 -0.004,0.0186 -0.0317,0.0774 -0.0622,0.13048 -0.0305,0.0531 -0.0448,0.10264 -0.0318,0.11011 0.013,0.007 0.0457,-0.0421 0.0727,-0.11032 z m 9.87053,5.68849 c -0.005,-0.0202 -0.0277,-0.003 -0.0494,0.039 -0.0241,0.046 -0.0201,0.0604 0.01,0.0367 0.0272,-0.0214 0.045,-0.0556 0.0391,-0.076 z m -4.35079,-2.70767 c -0.005,-0.0202 -0.0277,-0.003 -0.0494,0.0391 -0.0241,0.046 -0.0201,0.0604 0.01,0.0367 0.0272,-0.0215 0.045,-0.0556 0.0391,-0.076 z m 4.23184,2.50321 c 0.0168,-0.0292 0.0182,-0.0864 0.003,-0.12711 -0.0222,-0.0598 -0.0346,-0.0534 -0.0647,0.0336 -0.039,0.11268 0.009,0.18528 0.0616,0.0936 z m -9.28423,-5.47416 c 0.0685,-0.004 0.0705,-0.009 0.0149,-0.042 -0.0357,-0.0209 -0.0857,-0.0269 -0.11103,-0.0132 -0.0583,0.0315 -0.007,0.0609 0.0965,0.0555 z m 5.04086,2.8477 c -0.02,-0.0388 -0.063,-0.0848 -0.0955,-0.10188 -0.0391,-0.0202 -0.0394,-0.005 -9.6e-4,0.0464 0.0799,0.10663 0.14086,0.14168 0.0965,0.0555 z m -4.58909,-2.69528 c 0.0916,0.007 0.0917,0.005 0.002,-0.0257 -0.0547,-0.019 -0.0856,-0.0527 -0.0712,-0.0785 0.0179,-0.0321 0.01,-0.0374 -0.028,-0.0184 -0.029,0.0143 -0.0846,0.0211 -0.12335,0.0149 -0.0425,-0.007 -0.0323,0.011 0.0257,0.0446 0.053,0.0307 0.14057,0.0593 0.19461,0.0636 z m 1.63582,0.56735 c 0.0717,-0.0193 -0.10046,-0.0917 -0.66758,-0.28057 -0.78129,-0.26025 -0.7896,-0.21898 -0.0122,0.0606 0.35244,0.12679 0.65836,0.22575 0.67978,0.21998 z m 8.20116,4.88364 c 0.0296,-0.0514 0.0155,-0.0866 -0.0474,-0.11852 -0.0674,-0.0341 -0.0752,-0.0315 -0.032,0.011 0.0608,0.0599 0.0431,0.14351 -0.0223,0.10586 -0.0212,-0.0122 -0.0483,-0.005 -0.0601,0.0152 -0.0118,0.0206 0.0103,0.0424 0.0492,0.0485 0.0388,0.006 0.0896,-0.0218 0.11272,-0.062 z m -10.78302,-6.17325 c 0.005,-0.009 -0.0173,-0.0325 -0.0504,-0.0516 -0.0331,-0.019 -0.0594,-0.0106 -0.0585,0.0186 0.002,0.0483 0.0854,0.0738 0.10888,0.0331 z m 2.5745,1.52399 c -0.0491,-0.0422 -0.0609,-0.0843 -0.0306,-0.10885 0.0388,-0.0316 0.0192,-0.0474 -0.0936,-0.0754 -0.0786,-0.0195 -0.20554,-0.0675 -0.28214,-0.10654 -0.0821,-0.0414 -0.0418,-0.001 0.0972,0.0984 0.28855,0.20702 0.42467,0.29176 0.30921,0.19248 z m 0.35808,0.15841 c 0.0133,-0.003 -0.0212,-0.0307 -0.0766,-0.0625 -0.0554,-0.0319 -0.12221,-0.0463 -0.14857,-0.032 -0.0433,0.0234 0.15716,0.10757 0.22518,0.0945 z m -1.92307,-1.20449 c 0.005,-0.009 -0.008,-0.027 -0.0288,-0.0392 -0.0212,-0.0122 -0.0491,-0.004 -0.0621,0.0187 -0.0129,0.0225 -2e-5,0.0401 0.0288,0.0392 0.0288,-8.8e-4 0.0567,-0.009 0.0621,-0.0187 z m 6.95842,3.9129 c 0.003,-0.0181 0.0262,-0.0678 0.0507,-0.11044 0.0356,-0.0619 0.0267,-0.0781 -0.0437,-0.0803 -0.0486,-0.002 -0.12249,-0.0106 -0.16423,-0.0202 -0.0486,-0.0111 -0.0843,0.0132 -0.0991,0.0679 -0.019,0.0698 0.002,0.0934 0.11356,0.1306 0.0753,0.0249 0.13954,0.0305 0.14291,0.0124 z m -4.38726,-2.5739 c 0.0348,0.0343 0.10128,0.0675 0.14723,0.0743 0.075,0.0105 0.0767,0.003 0.016,-0.0723 -0.0663,-0.0819 -0.29235,-0.13814 -0.32525,-0.0809 -0.0331,0.0576 0.0124,0.1142 0.054,0.0672 0.0275,-0.0317 0.0685,-0.027 0.10794,0.0119 z m -0.38274,-0.19647 c 0.0208,-0.0112 -0.0178,-0.0423 -0.0857,-0.0691 -0.0679,-0.0268 -0.12724,-0.042 -0.13197,-0.0338 -0.0169,0.0294 0.1807,0.12284 0.21763,0.1029 z m 0.0177,-0.0853 c 0.16737,0.0673 0.32185,0.0659 0.20396,-0.002 -0.11937,-0.0687 -0.56521,-0.2045 -0.62186,-0.18948 -0.0401,0.0106 -0.01,0.0335 0.0894,0.0678 0.0825,0.0284 0.23032,0.0841 0.32852,0.12352 z m 1.48552,0.78304 c -9.5e-4,-0.0307 -0.0174,-0.0516 -0.0364,-0.0465 -0.019,0.005 -0.0531,-0.0421 -0.076,-0.10452 -0.0414,-0.11378 -0.0414,-0.11378 -0.018,0.0153 0.0234,0.128 0.13362,0.2429 0.13022,0.13568 z m 6.29528,3.53107 c -0.005,-0.0187 -0.043,-0.0248 -0.0844,-0.0135 -0.0598,0.0164 -0.0579,0.0234 0.009,0.034 0.0464,0.007 0.0802,-0.002 0.0752,-0.0206 z m 0.31043,0.20367 c 0.0863,-0.0321 0.0825,-0.24448 -0.005,-0.29496 -0.0342,-0.0197 -0.0335,-0.0737 0.002,-0.14012 l 0.0576,-0.10815 -0.0895,0.0842 c -0.19808,0.18655 -0.17143,0.53571 0.0351,0.45889 z m -7.3367,-4.2615 c 0.13423,0.045 0.25371,0.065 0.26552,0.0445 0.0118,-0.0205 -0.01,-0.0423 -0.0486,-0.0484 -0.0385,-0.006 -0.16424,-0.0497 -0.27931,-0.097 -0.11508,-0.0473 -0.22717,-0.0763 -0.24918,-0.0644 -0.0533,0.0287 0.019,0.0671 0.31153,0.16532 z m 2.87964,1.67952 c -0.0215,-0.0272 -0.0556,-0.045 -0.076,-0.0391 -0.0202,0.005 -0.003,0.0277 0.039,0.0494 0.046,0.0241 0.0604,0.0201 0.0367,-0.01 z m 0.25578,0.0968 c -0.0204,-0.0259 -0.0638,-0.0509 -0.0965,-0.0555 -0.0327,-0.005 -0.0164,0.0165 0.0371,0.0473 0.053,0.0305 0.0798,0.0343 0.0595,0.008 z m 1.41697,0.65628 c 0.15086,-0.11688 0.1853,-0.16314 0.14075,-0.18876 -0.0216,-0.0124 -0.0442,0.008 -0.0502,0.0466 -0.006,0.0381 -0.0308,0.0696 -0.0546,0.0706 -0.0469,0.002 -0.18505,0.1272 -0.15731,0.14315 0.009,0.005 0.0637,-0.0269 0.12131,-0.0715 z m -2.37176,-1.46565 c -0.005,-0.0202 -0.0277,-0.003 -0.0495,0.0391 -0.0241,0.046 -0.0201,0.0604 0.01,0.0367 0.0272,-0.0215 0.045,-0.0556 0.04,-0.0755 z m 1.94751,1.18521 c 0.01,-0.003 0.0616,-0.13299 0.11634,-0.29054 0.0885,-0.2546 0.0896,-0.28912 0.01,-0.31025 -0.0493,-0.0131 -0.11342,-0.0372 -0.14252,-0.0535 -0.0395,-0.0221 -0.0663,0.009 -0.10629,0.12303 -0.0294,0.084 -0.0582,0.18303 -0.0639,0.2201 -0.006,0.037 -0.0282,0.0571 -0.0494,0.045 -0.0369,-0.0212 0.0688,-0.46196 0.11289,-0.47047 0.0118,-0.002 0.10148,0.0167 0.19993,0.0421 l 0.179,0.0461 -0.2021,-0.0952 c -0.22761,-0.10726 -0.29886,-0.13508 -0.83895,-0.32781 -0.42806,-0.15275 -0.51584,-0.17584 -0.50421,-0.13272 0.004,0.0162 0.19772,0.0922 0.42963,0.16887 0.53745,0.1775 0.61873,0.22361 0.56359,0.3195 -0.0235,0.0408 -0.0736,0.17596 -0.11141,0.30023 l -0.0687,0.22597 0.22979,0.0969 c 0.12637,0.0533 0.23736,0.095 0.24657,0.0928 z m -3.50587,-2.07185 c 0.006,-0.04 -0.002,-0.0692 -0.0176,-0.0649 -0.016,0.004 -0.0282,0.0329 -0.0273,0.0635 0.003,0.0834 0.0318,0.0843 0.0448,10e-4 z m 0.22119,-0.004 c -0.0774,-0.19254 -0.0546,-0.49278 0.0529,-0.69478 l 0.09,-0.1686 -0.11647,0.13852 c -0.0879,0.10446 -0.10307,0.11224 -0.0622,0.0315 0.0294,-0.0591 0.0426,-0.12862 0.0284,-0.15493 -0.0288,-0.0534 -0.0754,0.0758 -0.14333,0.39785 -0.023,0.10897 -0.0608,0.20835 -0.084,0.22084 -0.0231,0.0125 -0.009,0.028 0.031,0.0342 0.0402,0.006 0.0619,0.031 0.0485,0.0542 -0.0135,0.0235 0.009,0.0621 0.0503,0.0858 0.0412,0.0237 0.0757,0.0666 0.0766,0.0954 8.8e-4,0.0288 0.0204,0.0631 0.0432,0.0762 0.0228,0.0131 0.0166,-0.0389 -0.0148,-0.11613 z m 6.6857,3.90475 c 0.0236,-0.0127 0.0337,-0.0406 0.0217,-0.0623 -0.0116,-0.0216 -0.0358,-0.0136 -0.0535,0.0171 -0.0374,0.0651 -0.0285,0.0777 0.0317,0.0452 z m -11.39786,-6.69896 c -0.005,-0.0202 -0.0277,-0.003 -0.0494,0.039 -0.0241,0.046 -0.0201,0.0604 0.01,0.0367 0.0272,-0.0215 0.045,-0.0556 0.0391,-0.076 z m 8.2837,4.71268 c -0.005,-0.0202 -0.0277,-0.003 -0.0494,0.039 -0.0241,0.046 -0.0201,0.0604 0.01,0.0367 0.0272,-0.0215 0.045,-0.0556 0.0391,-0.076 z m 4.27576,2.5197 c 0.056,-0.0208 0.0845,-0.0124 0.0858,0.0253 0.003,0.088 0.15375,0.0907 0.20405,0.003 0.0403,-0.0701 0.0267,-0.085 -0.13416,-0.14638 -0.10894,-0.0417 -0.23492,-0.0512 -0.32194,-0.0245 l -0.14294,0.0439 0.11265,0.0648 c 0.062,0.0357 0.15042,0.0507 0.19658,0.0336 z m -6.28432,-3.69779 c 0.30052,0.0974 0.24275,0.0286 -0.0695,-0.0826 -0.31424,-0.11208 -0.57163,-0.15462 -0.30687,-0.0507 0.0922,0.0362 0.26157,0.0962 0.37635,0.13338 z m 5.42698,3.10068 c 0.0402,-0.0699 0.0395,-0.07 -0.0924,-0.0273 -0.10548,0.0342 -0.10653,0.0368 -0.0247,0.059 0.047,0.0129 0.0998,-0.001 0.11725,-0.0318 z m -2.8593,-1.78747 c 0.0282,-0.0491 -0.002,-0.0374 -0.12647,0.0484 -0.0957,0.0661 -0.0956,0.0677 0.002,0.0297 0.0567,-0.0222 0.11291,-0.0573 0.12483,-0.078 z m -8.59981,-4.91421 c -0.0114,-0.0422 -0.11593,-0.0299 -0.14275,0.0168 -0.0147,0.0256 0.009,0.0354 0.0633,0.026 0.0478,-0.008 0.0835,-0.0275 0.0794,-0.0428 z m 13.35682,7.55193 c -0.0164,-0.0597 -0.0234,-0.0579 -0.034,0.009 -0.007,0.0464 0.002,0.0802 0.0206,0.0752 0.0187,-0.005 0.0248,-0.043 0.0135,-0.0844 z m 0.42259,0.17971 c 0.006,-0.0388 0.004,-0.0746 -0.004,-0.0794 -0.009,-0.005 -0.0302,0.0174 -0.0485,0.0492 -0.0183,0.0318 -0.0165,0.0676 0.004,0.0794 0.0206,0.0118 0.0424,-0.0103 0.0485,-0.0492 z m -8.07329,-4.71465 c 0.0226,-0.0122 0.0211,-0.0468 -0.003,-0.0764 -0.047,-0.0578 -0.12621,-0.0394 -0.10873,0.0254 0.0149,0.055 0.0632,0.0771 0.11151,0.051 z m 7.63513,4.28293 c 0.002,-0.0555 -0.005,-0.10566 -0.0149,-0.11134 -0.01,-0.006 -0.0379,0.0244 -0.0624,0.0669 -0.0251,0.0437 -0.0187,0.092 0.0149,0.11134 0.0473,0.0272 0.0599,0.0137 0.0624,-0.0669 z m 0.13089,0.12973 c 0.0115,-0.02 0.0115,-0.0536 1.5e-4,-0.0747 -0.0114,-0.0211 -0.0352,-0.0133 -0.0531,0.0178 -0.0178,0.0309 -0.0178,0.0645 -1.5e-4,0.0747 0.0177,0.0102 0.0416,0.002 0.053,-0.0178 z m 0.2712,0.11144 c -0.005,-0.0187 -0.0431,-0.0248 -0.0844,-0.0135 -0.0598,0.0164 -0.0579,0.0234 0.009,0.034 0.0464,0.007 0.0802,-0.002 0.0752,-0.0206 z m -2.02172,-1.21116 c 0.0104,-0.0435 0.0349,-0.13343 0.0545,-0.19985 0.0196,-0.0665 0.021,-0.1292 0.003,-0.13952 -0.0179,-0.0103 -0.0478,0.0629 -0.0662,0.16275 -0.0185,0.0999 -0.0497,0.18592 -0.0695,0.19122 -0.0198,0.005 -0.014,0.0223 0.0118,0.0371 0.0273,0.0157 0.0557,-0.006 0.0664,-0.0517 z m 2.25397,1.23075 c -0.0475,-0.0604 -0.0477,-0.0995 -6.9e-4,-0.13841 0.0567,-0.0469 0.0532,-0.0521 -0.0266,-0.0392 -0.12834,0.0208 -0.13402,0.13816 -0.01,0.20566 0.10047,0.0543 0.10144,0.0537 0.0371,-0.028 z m -0.22008,-0.16037 c -0.0215,-0.0272 -0.0556,-0.045 -0.076,-0.0391 -0.0202,0.005 -0.003,0.0277 0.039,0.0494 0.046,0.0241 0.0604,0.0201 0.0367,-0.01 z m -8.31435,-4.90008 c 0.0261,-0.0141 0.0146,-0.0293 -0.0276,-0.0361 -0.0817,-0.0128 -0.10981,0.008 -0.0542,0.0397 0.0199,0.0115 0.0568,0.01 0.0818,-0.004 z m 7.6039,4.25782 c -0.0121,-0.0452 -0.0258,-0.033 -0.046,0.0409 -0.0164,0.06 -0.009,0.0876 0.0173,0.0642 0.0253,-0.0225 0.038,-0.07 0.0286,-0.10518 z m 0.79578,0.50806 c -0.001,-0.036 0.0292,-0.1086 0.0675,-0.16144 0.0469,-0.0654 0.0534,-0.13045 0.0194,-0.20309 -0.0292,-0.0625 -0.0273,-0.12228 0.005,-0.14381 0.0301,-0.0203 0.004,-0.0142 -0.0595,0.0131 -0.0629,0.0274 -0.13831,0.036 -0.16757,0.0192 -0.0719,-0.0413 -0.13461,0.0786 -0.12103,0.23132 0.008,0.0916 0.0384,0.13238 0.11392,0.15376 0.0565,0.016 0.10355,0.0526 0.10442,0.0816 9.1e-4,0.0289 0.0103,0.0575 0.021,0.0636 0.0107,0.006 0.0185,-0.0182 0.0172,-0.0542 z m -8.98682,-5.48624 c 0.0161,-0.028 0.0678,-0.0575 0.11482,-0.0657 0.12499,-0.0216 0.14245,-0.0838 0.0224,-0.0794 -0.0564,0.002 -0.0997,0.0144 -0.0961,0.0276 0.004,0.0136 -0.0341,0.0572 -0.0842,0.0978 -0.0594,0.0486 -0.0726,0.0735 -0.0382,0.0725 0.0287,-9.2e-4 0.0654,-0.0246 0.0815,-0.0526 z m 6.40044,3.69951 c 0.0105,-0.0183 -0.0127,-0.0382 -0.0516,-0.0443 -0.0388,-0.006 -0.0793,0.004 -0.0898,0.0222 -0.0105,0.0183 0.0127,0.0382 0.0515,0.0444 0.0388,0.006 0.0793,-0.004 0.0898,-0.0222 z m -2.58114,-1.58629 c 0.0129,-0.0225 2e-5,-0.0401 -0.0288,-0.0392 -0.0288,8.7e-4 -0.0567,0.009 -0.0621,0.0187 -0.005,0.009 0.008,0.027 0.0288,0.0392 0.0212,0.0122 0.0491,0.004 0.0621,-0.0187 z m 5.56262,3.10174 c -0.0219,0.0381 -0.0119,0.0474 0.037,0.0342 0.0403,-0.0109 0.067,-0.0485 0.0669,-0.094 -3.3e-4,-0.11336 -0.19845,-0.13316 -0.26007,-0.026 -0.0472,0.082 -0.0448,0.0839 0.0689,0.059 0.0857,-0.0186 0.10929,-0.0113 0.0873,0.0268 z m -5.33712,-3.22584 c 0.0471,-0.0294 0.0771,-0.0584 0.0664,-0.0646 -0.0107,-0.006 -0.0579,0.013 -0.10501,0.0424 -0.0471,0.0294 -0.0771,0.0584 -0.0664,0.0646 0.0106,0.006 0.0579,-0.013 0.10502,-0.0424 z m -3.33935,-1.92049 c -8.8e-4,-0.0288 0.0291,-0.0346 0.0662,-0.0132 0.0528,0.0304 0.0636,0.0228 0.0482,-0.0339 -0.0144,-0.0535 -0.0376,-0.0681 -0.0873,-0.0548 -0.0612,0.0165 -0.0922,0.11583 -0.0447,0.14315 0.0106,0.006 0.0186,-0.0123 0.0178,-0.0411 z m 8.91091,5.09601 c 0.005,-0.009 -0.008,-0.027 -0.0288,-0.0392 -0.0212,-0.0122 -0.0491,-0.004 -0.0621,0.0187 -0.0129,0.0224 -1e-5,0.0401 0.0288,0.0392 0.0288,-8.7e-4 0.0567,-0.009 0.0621,-0.0187 z m -0.0588,-0.13669 c 0.14408,0.0691 0.35551,0.0549 0.33462,-0.0225 -0.004,-0.0137 -0.11971,-0.0619 -0.25848,-0.10794 -0.13863,-0.0463 -0.283,-0.0996 -0.32083,-0.11864 -0.0377,-0.0194 -0.0921,-0.0156 -0.12051,0.008 -0.0342,0.0278 -0.0285,0.0455 0.018,0.0529 0.0383,0.006 0.0705,0.0336 0.0713,0.0618 8.8e-4,0.028 0.0262,0.0501 0.0562,0.0491 0.03,-9.8e-4 0.12887,0.034 0.21975,0.0776 z m -5.25173,-3.24954 c 0.0348,-0.0726 0.0119,-0.0987 -0.028,-0.0321 -0.0105,0.0175 -0.0576,0.056 -0.1046,0.0854 -0.0754,0.0472 -0.0747,0.0517 0.005,0.0382 0.05,-0.009 0.10731,-0.0496 0.12737,-0.0915 z m 1.89838,1.19028 c 0.0325,-0.0564 0.0606,-0.0643 0.0919,-0.0258 0.0248,0.0305 0.0549,0.0385 0.0666,0.0181 0.029,-0.0505 -0.15449,-0.15252 -0.21546,-0.1193 -0.0619,0.0335 -0.0817,0.15607 -0.0299,0.18583 0.0219,0.0126 0.0608,-0.0137 0.0866,-0.0584 z m 3.57581,1.9113 c 0.17146,0.0588 0.27657,0.0656 0.3843,0.0249 0.2438,-0.0921 2.81655,-1.30687 2.88418,-1.36184 0.0537,-0.0436 0.0473,-0.0512 -0.0451,-0.0541 -0.0591,-0.002 -0.14562,0.0205 -0.19221,0.0496 -0.0931,0.058 -0.28608,-0.0249 -0.31599,-0.13593 -0.0531,-0.19684 -0.1943,-0.14866 -1.6583,0.56618 -0.79716,0.38922 -1.45779,0.72062 -1.46808,0.73644 -0.0102,0.0158 0.0249,0.0434 0.0782,0.0612 0.0533,0.0178 0.2031,0.0689 0.33289,0.11347 z m -2.90165,-1.80064 c 0.006,-0.0388 0.004,-0.0746 -0.004,-0.0794 -0.009,-0.005 -0.0302,0.0174 -0.0485,0.0492 -0.0183,0.0318 -0.0165,0.0676 0.004,0.0794 0.0205,0.0118 0.0424,-0.0103 0.0485,-0.0492 z m -25.1512,-4.78496 c -0.0111,-0.26184 -0.0342,-0.78575 -0.0513,-1.16422 -0.0171,-0.37846 -0.0227,-0.69033 -0.0124,-0.69304 0.0314,-0.008 1.42025,0.47391 1.42323,0.4941 0.002,0.0104 -0.0119,0.46127 -0.0297,1.00196 -0.0179,0.5407 -0.0113,1.05503 0.0147,1.14297 0.026,0.088 0.0261,0.14933 2.4e-4,0.13637 -0.0643,-0.0324 -1.19254,-0.4158 -1.26564,-0.43035 -0.0347,-0.007 -0.0671,-0.20686 -0.0791,-0.4878 z m 10.8778,4.82718 c 0.0323,-0.0561 0.0268,-0.11225 -0.0147,-0.15316 -0.0361,-0.0355 -0.0518,-0.0886 -0.0349,-0.11801 0.061,-0.10615 -0.13903,-0.14122 -0.22229,-0.0389 -0.035,0.0428 -0.0183,0.0681 0.0683,0.10448 0.11371,0.0477 0.11371,0.0479 -0.002,0.0266 -0.19914,-0.0368 -0.29018,-0.10217 -0.24144,-0.17323 0.0389,-0.0576 0.0101,-0.0821 -0.26282,-0.2229 -0.44917,-0.23179 -0.34453,-0.28743 0.27748,-0.14751 0.3007,0.0676 0.49774,0.16182 0.4634,0.22152 -0.0122,0.0212 -0.006,0.0479 0.0138,0.0593 0.0571,0.0329 0.18262,-0.10498 0.16277,-0.1787 -0.0277,-0.10282 0.009,-0.13337 0.0988,-0.0818 0.0668,0.0384 0.0676,0.0611 0.004,0.12676 -0.13264,0.13736 -0.11923,0.21534 0.0437,0.25564 0.0921,0.0228 0.13955,0.0518 0.13355,0.0814 -0.005,0.0252 0.008,0.0559 0.0286,0.0679 0.0212,0.0122 0.0473,-0.0211 0.0592,-0.0752 0.0162,-0.0745 0.029,-0.0824 0.0548,-0.0342 0.0185,0.0345 0.0756,0.0802 0.12694,0.10149 0.0512,0.0214 0.0819,0.0586 0.0682,0.0824 -0.0138,0.024 -0.002,0.0429 0.0252,0.0421 0.0321,-0.001 0.0574,-0.0459 0.0701,-0.12395 0.0108,-0.0674 0.0351,-0.12666 0.0541,-0.13179 0.019,-0.005 0.0222,0.0358 0.007,0.0911 -0.0192,0.0704 -10e-4,0.11131 0.0605,0.13689 0.0485,0.0198 0.10265,0.0636 0.12047,0.0972 0.0256,0.0477 0.0461,0.0261 0.0956,-0.10071 0.0553,-0.14151 0.0625,-0.14753 0.0582,-0.0487 -0.004,0.0828 0.0295,0.13252 0.12438,0.18712 0.1114,0.0641 0.12169,0.0874 0.0748,0.1689 -0.0299,0.052 -0.0865,0.0946 -0.12574,0.0947 -0.0392,4e-5 -0.0977,0.0311 -0.13003,0.0691 -0.0387,0.0454 -0.0972,0.0524 -0.17154,0.0204 -0.0917,-0.0396 -0.10384,-0.0643 -0.0657,-0.13074 0.026,-0.0452 0.0237,-0.0813 -0.005,-0.0804 -0.0288,8.7e-4 -0.0717,0.0354 -0.0954,0.0766 -0.0237,0.0412 -0.059,0.0657 -0.0785,0.0545 -0.0195,-0.0112 -0.0663,-0.0252 -0.1038,-0.0311 -0.0427,-0.007 -0.0588,-0.0454 -0.0434,-0.10203 0.0137,-0.0503 0.008,-0.10134 -0.0137,-0.11355 -0.0212,-0.0122 -0.0495,0.0178 -0.0628,0.0667 -0.0133,0.0489 -0.0393,0.0804 -0.058,0.0701 -0.0185,-0.0103 -0.0789,-0.0307 -0.13403,-0.0454 -0.0809,-0.0215 -0.0913,-0.0422 -0.0533,-0.10838 0.0258,-0.0449 0.0297,-0.0917 0.008,-0.10393 -0.0212,-0.0122 -0.0635,0.0212 -0.0941,0.0743 -0.0386,0.0672 -0.0766,0.0844 -0.12503,0.0565 -0.0382,-0.022 -0.1023,-0.0311 -0.14243,-0.0203 -0.0568,0.0153 -0.0616,-1e-5 -0.022,-0.0688 z m -2.3463,-1.81597 c 0.0233,-0.0406 0.0312,-0.0944 0.0175,-0.11976 -0.0137,-0.0253 -4.9e-4,-0.0884 0.0293,-0.14028 0.0386,-0.0671 0.033,-0.10645 -0.0198,-0.13681 -0.0917,-0.0527 -0.0779,-0.1432 0.031,-0.20361 0.0649,-0.036 0.074,-0.0649 0.043,-0.13616 -0.0351,-0.0806 -0.0312,-0.0892 0.036,-0.0786 0.11823,0.0185 0.0849,-0.0712 -0.0456,-0.12279 -0.082,-0.0324 -0.12602,-0.084 -0.14451,-0.16928 -0.023,-0.10635 -0.0127,-0.1313 0.0773,-0.18745 0.0572,-0.0356 0.11521,-0.10605 0.1289,-0.15654 0.0138,-0.0504 0.0407,-0.0828 0.06,-0.0716 0.0192,0.0111 0.0239,0.0426 0.0103,0.0702 -0.0193,0.0396 -0.0151,0.0422 0.0222,0.0132 0.0258,-0.0202 0.0355,-0.0798 0.0209,-0.1329 -0.0143,-0.0528 -0.007,-0.12961 0.0169,-0.17057 0.0235,-0.0409 0.0167,-0.0895 -0.0151,-0.10776 -0.0318,-0.0183 -0.046,-0.054 -0.0315,-0.0793 0.0146,-0.0253 -0.017,-0.0267 -0.0702,-0.003 -0.0901,0.04 -0.0933,0.03 -0.0455,-0.14999 0.0578,-0.21844 0.0478,-0.21033 0.20286,-0.16459 0.0926,0.0273 0.11779,0.0608 0.12379,0.16832 0.004,0.0744 0.0337,0.13336 0.0659,0.13228 0.0363,-10e-4 0.0371,0.01 0.002,0.0286 -0.0309,0.0167 -0.0746,0.008 -0.0969,-0.0195 -0.0261,-0.0321 -0.0444,-0.0255 -0.0513,0.0184 -0.006,0.0376 0.0177,0.0849 0.0524,0.10533 0.0547,0.0322 0.0528,0.0373 -0.0166,0.041 -0.0604,0.003 -0.05,0.0212 0.0434,0.0756 0.0676,0.0393 0.14312,0.0605 0.16794,0.0471 0.0286,-0.0154 0.0622,0.008 0.0918,0.0632 0.0519,0.097 -0.009,0.16059 -0.0754,0.0789 -0.0241,-0.0295 -0.056,-0.0276 -0.074,0.004 -0.0193,0.0336 -0.004,0.0598 0.0394,0.0667 0.12164,0.0191 0.13082,0.14999 0.0305,0.43765 -0.053,0.1522 -0.0851,0.28267 -0.0713,0.28994 0.0138,0.007 0.099,0.0356 0.18945,0.0629 0.0927,0.028 0.16497,0.0695 0.16573,0.0951 7.9e-4,0.0249 -0.0532,0.0281 -0.11992,0.007 -0.0668,-0.0211 -0.18159,-0.0515 -0.25519,-0.0676 -0.1446,-0.0316 -0.17434,-0.10086 -0.0999,-0.23293 0.0219,-0.0388 0.0274,-0.11663 0.0123,-0.17276 -0.0259,-0.0956 -0.0294,-0.095 -0.0568,0.01 -0.016,0.0614 -0.0558,0.18334 -0.0885,0.27095 -0.0406,0.1092 -0.0396,0.15644 0.003,0.15022 0.10572,-0.0153 0.41064,0.13037 0.42177,0.20149 0.006,0.0357 -0.0198,0.15632 -0.0563,0.26809 -0.0652,0.1999 -0.0685,0.2028 -0.19923,0.17814 -0.0731,-0.0138 -0.14456,-0.005 -0.15887,0.0201 -0.015,0.0261 -0.0535,0.0179 -0.0916,-0.0194 -0.0407,-0.0401 -0.0767,-0.0453 -0.0945,-0.0144 -0.0159,0.0276 -0.0607,0.0452 -0.0995,0.0391 -0.0476,-0.007 -0.0569,-0.035 -0.0283,-0.0848 z m 0.17254,-1.10398 c 0.005,-0.009 -0.0123,-0.041 -0.038,-0.0726 -0.0267,-0.0329 -0.0459,-0.0356 -0.0451,-0.006 0.002,0.0497 0.065,0.10962 0.083,0.0783 z m 0.18526,-0.23287 c 0.0122,-0.0212 0.004,-0.0491 -0.0187,-0.0621 -0.0225,-0.0129 -0.0401,-1e-5 -0.0392,0.0288 8.7e-4,0.0288 0.009,0.0567 0.0187,0.0621 0.009,0.005 0.027,-0.008 0.0392,-0.0288 z m -8.94828,-3.67198 c 0.006,-0.0353 0.0304,-0.0532 0.0553,-0.0397 0.11481,0.0626 1.29451,0.46 1.37084,0.46224 0.0534,0.002 0.0867,0.0219 0.0876,0.0539 0.003,0.10574 0.0768,0.0902 0.10895,-0.0232 0.0214,-0.0756 0.0422,-0.10024 0.0588,-0.0695 0.0379,0.0701 -0.0617,0.30186 -0.10623,0.2471 -0.0305,-0.0375 -1.29782,-0.49758 -1.51169,-0.54878 -0.0406,-0.01 -0.0691,-0.0466 -0.0636,-0.0819 z m 10.3079,5.86366 c 0.019,-0.0331 0.0457,-0.0394 0.0595,-0.0141 0.0137,0.0253 0.0155,0.0624 0.004,0.0823 -0.0115,0.02 -0.0382,0.0263 -0.0595,0.0141 -0.0212,-0.0122 -0.023,-0.0492 -0.004,-0.0824 z m 0.12854,0.0203 c -0.007,-0.0245 0.003,-0.071 0.0221,-0.10355 0.025,-0.0434 0.0389,-0.0412 0.0522,0.008 0.0101,0.0373 1.3e-4,0.0838 -0.0221,0.10354 -0.0219,0.02 -0.0457,0.0159 -0.0522,-0.008 z m -8.75889,-5.08864 c 0.0202,-0.005 0.0543,0.0123 0.076,0.0391 0.0237,0.03 0.009,0.034 -0.0367,0.01 -0.0417,-0.0216 -0.059,-0.0443 -0.039,-0.0494 z m 0.23047,-0.0676 c 0.0331,-0.0576 0.0689,-0.0812 0.083,-0.0551 0.0137,0.0253 0.0111,0.07 -0.006,0.0994 -0.0169,0.0294 -0.0542,0.0541 -0.083,0.0551 -0.0298,9.4e-4 -0.0273,-0.0419 0.006,-0.0994 z m 8.91241,5.05165 c 0.002,-0.0692 0.0201,-0.0985 0.061,-0.1 0.0616,-0.002 0.0832,0.10982 0.0373,0.19191 -0.0416,0.0743 -0.10205,0.0178 -0.0987,-0.0922 z m 0.83594,0.50879 c 0.005,-0.009 0.0406,-0.0101 0.0794,-0.004 0.0388,0.006 0.0609,0.0281 0.0492,0.0485 -0.0118,0.0205 -0.0476,0.0224 -0.0794,0.004 -0.0318,-0.0183 -0.0539,-0.0402 -0.0492,-0.0485 z m -9.74971,-6.12636 c 0.006,-0.0388 -0.0207,-0.089 -0.0596,-0.11135 -0.0726,-0.0418 -0.12386,-0.1626 -0.0923,-0.21748 0.01,-0.017 0.0611,-0.006 0.11407,0.0245 0.0765,0.044 0.13418,0.029 0.28072,-0.0734 l 0.18443,-0.12873 0.1037,-1.51642 c 0.0641,-0.93753 0.0828,-1.53444 0.049,-1.56365 -0.0299,-0.0264 -0.11964,-0.0285 -0.19897,-0.006 -0.17984,0.0518 -0.33411,0.01 -0.35232,-0.0956 -0.0134,-0.0774 -0.15246,-0.18643 -0.21598,-0.16932 -0.0173,0.005 -0.0437,0.36519 -0.0586,0.80114 -0.0149,0.43595 -0.0394,1.12579 -0.0544,1.53298 -0.024,0.6486 -0.0147,0.75707 0.0748,0.87524 l 0.10227,0.13483 -0.11681,-0.0649 c -0.0642,-0.0358 -0.4162,-0.16737 -0.78187,-0.29307 -0.36566,-0.12573 -0.69251,-0.24445 -0.72635,-0.26381 -0.073,-0.0418 -0.19586,-3.26907 -0.12893,-3.38545 0.0456,-0.0792 0.092,-0.0709 0.58183,0.10492 0.12879,0.0463 0.34962,0.12459 0.49072,0.17401 0.14106,0.0495 0.32175,0.11721 0.40145,0.15059 0.0797,0.0333 0.17203,0.0654 0.20504,0.0713 0.033,0.006 0.0829,0.0523 0.11067,0.10333 0.0421,0.0769 0.0651,0.0862 0.1363,0.0553 0.12194,-0.053 0.31721,0.0112 0.35666,0.11722 0.0274,0.0737 0.0485,0.0809 0.13913,0.0472 0.0588,-0.0218 0.14464,-0.025 0.19091,-0.007 0.0465,0.0175 0.18018,0.0664 0.29766,0.10774 0.11743,0.0415 0.27975,0.1009 0.3606,0.13228 0.0809,0.0313 0.31695,0.11342 0.52462,0.18241 0.20766,0.069 0.38907,0.14681 0.40314,0.1729 0.0454,0.0841 -0.41592,3.208 -0.47214,3.19692 -0.0286,-0.006 -0.26391,-0.0846 -0.5225,-0.17543 -0.81538,-0.28639 -0.92382,-0.31793 -0.92224,-0.26824 8.2e-4,0.0267 -0.0249,0.0333 -0.0568,0.015 -0.0427,-0.0246 -0.0751,0.003 -0.1211,0.10247 -0.0349,0.0747 -0.0619,0.16282 -0.0609,0.19557 10e-4,0.0394 -0.0152,0.0385 -0.0483,-0.002 -0.0404,-0.0497 -0.0542,-0.0427 -0.0716,0.0365 -0.0241,0.11051 -0.0634,0.11629 -0.0458,0.007 z m 10.41832,5.52394 c 0.0202,-0.005 0.0543,0.0123 0.076,0.0391 0.0237,0.03 0.009,0.034 -0.0367,0.01 -0.0417,-0.0216 -0.0591,-0.0444 -0.0391,-0.0495 z m -2.80171,-2.11844 c -0.008,-0.0478 -0.0389,-0.10068 -0.0682,-0.11752 -0.0292,-0.0168 -0.0436,-0.0474 -0.0317,-0.068 0.0118,-0.0205 0.0453,-0.008 0.0743,0.0271 0.0655,0.0799 0.10851,0.22703 0.0695,0.23756 -0.016,0.004 -0.0359,-0.031 -0.044,-0.0792 z m 18.93457,10.66727 c 0.0342,-0.0595 0.0545,-0.13648 0.0452,-0.17117 -0.0278,-0.10309 0.16415,-0.23247 0.26169,-0.17638 0.0889,0.0511 0.0865,0.0567 0.13852,-0.31828 0.023,-0.16551 0.01,-0.21257 -0.0732,-0.26044 -0.0825,-0.0476 -0.0929,-0.0833 -0.056,-0.19294 0.0738,-0.21935 0.15155,-0.32811 0.24169,-0.33802 0.0753,-0.008 0.0882,-0.041 0.11447,-0.28931 0.0173,-0.16355 0.007,-0.27925 -0.0256,-0.27823 -0.0304,9.6e-4 -0.0446,-0.0372 -0.0318,-0.0844 0.0229,-0.0842 0.0108,-0.0904 -0.5361,-0.27452 -0.40616,-0.13668 -0.58052,-0.17584 -0.63585,-0.14278 -0.0814,0.0487 -0.27744,-0.0372 -0.30473,-0.13338 -0.01,-0.035 -0.25607,-0.13689 -0.64077,-0.26503 -0.34359,-0.11444 -0.64174,-0.22915 -0.66259,-0.2548 -0.0521,-0.0642 -0.005,-0.13361 0.0643,-0.0938 0.0309,0.0177 0.50478,-0.15473 1.05306,-0.38332 1.43329,-0.59756 1.56979,-0.64746 1.68838,-0.61715 0.11044,0.0282 0.11765,0.0711 0.017,0.098 -0.0367,0.01 0.004,0.045 0.11195,0.0957 0.19953,0.094 0.41202,0.0361 0.41856,-0.11397 0.002,-0.0485 0.0402,-0.18283 0.0847,-0.29851 l 0.0808,-0.21039 -0.10389,0.11386 c -0.10341,0.11341 -0.20219,0.14452 -0.29466,0.0928 -0.0267,-0.015 -0.0376,-0.0464 -0.024,-0.0699 0.0135,-0.0235 0.0449,-0.0178 0.0697,0.0128 0.028,0.0344 0.058,0.0332 0.079,-0.003 0.0186,-0.0324 0.0451,-0.0383 0.0588,-0.0129 0.0321,0.0594 0.10667,-0.0707 0.13702,-0.23894 0.0227,-0.12549 0.0244,-0.12627 0.0414,-0.0181 0.0176,0.11186 0.018,0.11197 0.0408,0.0154 0.0252,-0.10643 -0.007,-0.11112 0.52746,0.0764 0.16757,0.0588 0.30979,0.0786 0.38809,0.0543 0.068,-0.0211 0.86615,-0.33867 1.77368,-0.70559 1.12807,-0.45608 1.65693,-0.69231 1.67177,-0.74674 0.0119,-0.0438 0.0423,-0.0696 0.068,-0.0569 0.0255,0.0124 0.0862,0.0338 0.13491,0.0474 0.0488,0.0135 0.12597,0.04 0.17167,0.0588 0.0455,0.0192 0.16365,0.0549 0.26214,0.0802 0.0985,0.0253 0.2133,0.0668 0.25512,0.0924 0.042,0.0253 0.13486,0.0647 0.20668,0.0873 0.0719,0.0224 0.16845,0.0572 0.21466,0.0772 0.0463,0.0197 0.11243,0.0355 0.1472,0.0343 0.0348,-10e-4 0.0757,0.021 0.091,0.0489 0.0152,0.0281 0.0581,0.0369 0.0955,0.0194 0.0525,-0.0246 0.066,-0.0183 0.0598,0.0275 -0.0108,0.0783 0.054,0.11237 0.16802,0.0886 0.11329,-0.0237 0.28702,0.0452 0.33381,0.13245 0.0226,0.0422 0.0611,0.0532 0.11022,0.0317 0.0758,-0.0333 0.11832,-0.0224 0.34045,0.0868 0.0662,0.0323 0.12823,0.045 0.1382,0.0277 0.01,-0.0173 0.0463,-0.0102 0.0807,0.0159 0.0347,0.0257 0.0951,0.0512 0.13494,0.0557 0.064,0.007 0.19875,0.0608 0.54424,0.21494 0.056,0.0253 0.11682,0.0403 0.13472,0.0338 0.0179,-0.007 0.10458,0.0157 0.1926,0.0494 0.21999,0.0842 0.19544,0.17769 -0.0708,0.2695 -0.25848,0.0891 -4.29029,1.39114 -4.39639,1.41976 -0.0422,0.0114 -0.18759,-0.0174 -0.3232,-0.0641 -0.42339,-0.14556 -0.44084,-0.14901 -0.473,-0.0931 -0.0366,0.0636 -0.0576,0.059 -0.59299,-0.12916 -0.22301,-0.0784 -0.38874,-0.12366 -0.3682,-0.10066 0.0204,0.0233 0.20391,0.10019 0.40751,0.17149 0.2036,0.0713 0.37297,0.13974 0.37631,0.15216 0.003,0.0123 -0.52134,0.19895 -1.16598,0.41451 -0.73462,0.24564 -1.17603,0.41712 -1.18267,0.45942 -0.006,0.0372 -0.0168,0.0639 -0.024,0.0599 -0.008,-0.004 -0.21517,-0.0768 -0.46123,-0.16108 -0.35439,-0.12145 -0.44779,-0.16709 -0.44946,-0.21938 -0.003,-0.0925 0.0611,-0.0824 0.53585,0.0847 0.2291,0.0806 0.42506,0.13187 0.4354,0.11388 0.0104,-0.018 0.0277,-0.10247 0.0385,-0.18765 0.0108,-0.0851 0.0553,-0.24589 0.0988,-0.35713 0.0706,-0.1803 0.0688,-0.2053 -0.0164,-0.2305 -0.0525,-0.0156 -0.27445,-0.0921 -0.49312,-0.1702 -0.39502,-0.141 -0.39787,-0.14114 -0.43254,-0.0268 -0.0221,0.073 -0.0367,0.0894 -0.0397,0.0449 -0.003,-0.0506 -0.26331,0.0289 -0.93237,0.28543 -0.51019,0.19563 -0.9257,0.36281 -0.92334,0.37153 0.002,0.008 0.0774,0.0202 0.16691,0.0255 0.12688,0.008 0.16308,0.024 0.16471,0.0749 0.001,0.0487 0.0347,0.0564 0.13086,0.0305 0.0709,-0.0191 0.15074,-0.0227 0.17759,-0.008 0.0268,0.0148 0.28284,-0.0599 0.56894,-0.16596 l 0.52017,-0.19282 -0.0418,0.19943 c -0.023,0.1097 -0.0403,0.20788 -0.0384,0.21824 0.002,0.0104 0.19833,0.0829 0.43668,0.16127 0.55501,0.18244 0.56635,0.18953 0.49668,0.31068 -0.0313,0.0544 -0.0583,0.14297 -0.0599,0.1967 -0.002,0.0676 -0.0154,0.0905 -0.0432,0.0745 -0.0257,-0.0148 -0.0419,0.008 -0.0449,0.064 -0.01,0.1936 -0.0382,0.33807 -0.11107,0.56545 -0.042,0.13124 -0.084,0.28797 -0.0934,0.3483 -0.009,0.0603 -0.0323,0.11809 -0.0512,0.12826 -0.0189,0.0101 -0.0694,0.1734 -0.11219,0.36276 -0.0693,0.30598 -0.27235,0.85974 -0.30793,0.83969 -0.007,-0.004 -0.21216,-0.0756 -0.45493,-0.15885 -0.24277,-0.0832 -0.45815,-0.16094 -0.47863,-0.17271 -0.0205,-0.0118 -0.009,-0.0701 0.0249,-0.12954 z m 1.51599,-3.54861 c 0.0371,-0.002 0.0732,-0.0382 0.0799,-0.0814 0.0141,-0.0899 -0.0442,-0.0983 -0.16419,-0.0235 -0.0903,0.0563 -0.0466,0.11058 0.0842,0.10486 z m 0.39179,0.13938 c 0.0277,0.0513 0.19938,-0.0469 0.19728,-0.11284 -0.001,-0.0394 -0.38037,-0.15693 -0.44751,-0.13883 -0.0123,0.003 -0.011,0.0504 0.004,0.1045 0.0203,0.0751 0.0499,0.099 0.12505,0.10133 0.0542,0.002 0.10891,0.0223 0.12161,0.0458 z m -0.15898,-0.16757 c 0.0122,-0.0212 0.03,-0.0341 0.0392,-0.0288 0.009,0.005 0.0178,0.0333 0.0187,0.0621 8.7e-4,0.0288 -0.017,0.0416 -0.0392,0.0288 -0.0225,-0.0129 -0.031,-0.0409 -0.0187,-0.0621 z m 0.65895,0.12448 c 0.0389,-0.0985 0.0736,-0.11994 0.19193,-0.11676 0.11984,0.003 0.13145,-0.004 0.0684,-0.0429 -0.0631,-0.0386 -0.0624,-0.0474 0.003,-0.0506 0.11978,-0.006 0.14162,0.0186 0.1223,0.1392 -0.0144,0.0896 0.006,0.11935 0.10859,0.15993 0.0948,0.0374 0.12915,0.0311 0.13802,-0.0254 0.008,-0.0488 -0.003,-0.062 -0.0303,-0.0378 -0.0233,0.0205 -0.0726,0.0199 -0.10985,-0.002 -0.0772,-0.0444 -0.0713,-0.24026 0.0117,-0.38447 0.048,-0.0835 0.0413,-0.10045 -0.047,-0.11931 -0.0566,-0.0121 -0.12589,-0.035 -0.154,-0.0508 -0.0493,-0.028 -0.089,0.0536 -0.11885,0.24417 -0.006,0.0413 -0.0284,0.0654 -0.0489,0.0537 -0.0205,-0.0118 -0.0242,-0.089 -0.008,-0.17174 l 0.0289,-0.15034 -0.0631,0.15639 c -0.0347,0.086 -0.0789,0.14726 -0.0981,0.13624 -0.0203,-0.0117 -0.0597,0.0607 -0.0936,0.17281 -0.0654,0.21387 0.0197,0.29082 0.0991,0.0897 z m -1.08819,-0.61198 c -0.0215,-0.0272 -0.0556,-0.045 -0.076,-0.0391 -0.0202,0.005 -0.003,0.0277 0.039,0.0494 0.046,0.0241 0.0604,0.0201 0.0367,-0.01 z m 0.4784,0.1787 c 0.0266,0.003 -0.0269,-0.0247 -0.11881,-0.0614 -0.092,-0.0365 -0.19205,-0.0601 -0.22229,-0.0525 -0.0487,0.0123 0.21565,0.10061 0.34115,0.11384 z m 0.3998,0.15344 c 0.0778,0.0153 0.0483,-0.006 -0.0905,-0.066 -0.1132,-0.0488 -0.21682,-0.0864 -0.23021,-0.0836 -0.046,0.01 0.20519,0.12723 0.32068,0.14958 z M 138.786,167.3691 c 0.0447,-0.0166 0.0726,-0.0353 0.0621,-0.0414 -0.0106,-0.006 -0.0559,0.003 -0.10066,0.0192 -0.0447,0.0166 -0.0727,0.0353 -0.0621,0.0414 0.0107,0.006 0.0559,-0.003 0.10066,-0.0192 z m 1.71185,0.54783 c 0.0387,0.0223 0.0763,0.0844 0.0835,0.13788 0.0122,0.091 0.0179,0.0926 0.0874,0.0245 0.0495,-0.0484 0.10414,-0.0557 0.16309,-0.0218 0.0688,0.0396 0.55825,-0.11485 2.18949,-0.69101 1.15544,-0.40809 2.10587,-0.75082 2.11208,-0.76161 0.0279,-0.0485 -0.13304,-0.0352 -0.1885,0.0156 -0.0775,0.0709 -0.32067,-0.016 -0.36244,-0.12954 -0.0165,-0.0449 -0.0604,-0.0984 -0.0976,-0.11877 -0.0402,-0.0222 -0.89075,0.26706 -2.10746,0.7166 -1.12196,0.41452 -2.08534,0.77558 -2.14084,0.80233 -0.0921,0.0445 -0.0882,0.0459 0.0451,0.0167 0.0802,-0.0175 0.17757,-0.0135 0.21631,0.009 z m -25.03611,-8.54184 c -8.7e-4,-0.0288 0.0351,-0.0311 0.0801,-0.005 0.045,0.0259 0.061,0.0582 0.0357,0.0719 -0.0253,0.0137 -0.0614,0.016 -0.0801,0.005 -0.0187,-0.0108 -0.0348,-0.0431 -0.0357,-0.0719 z m 0.19461,0.0636 c 0.0129,-0.0225 0.0409,-0.0309 0.0621,-0.0187 0.0212,0.0122 0.0341,0.03 0.0288,0.0392 -0.005,0.009 -0.0333,0.0178 -0.0621,0.0187 -0.0288,8.7e-4 -0.0416,-0.017 -0.0288,-0.0392 z m 3.42234,1.87524 c 0.0219,-0.0652 0.10514,-0.27629 0.1849,-0.46935 0.0798,-0.19305 0.16053,-0.43137 0.17944,-0.5296 0.0398,-0.20634 0.0105,-0.20295 0.46713,-0.0545 0.69058,0.22442 0.73642,0.26433 0.60676,0.52819 -0.0375,0.0752 -0.0575,0.15616 -0.0455,0.17935 0.012,0.0232 -0.0298,0.13675 -0.0931,0.25237 -0.0631,0.11571 -0.11026,0.23885 -0.10435,0.27391 0.006,0.0351 -0.0171,0.12602 -0.0513,0.20206 -0.0536,0.11969 -0.0757,0.13305 -0.16397,0.0994 -0.0559,-0.0218 -0.135,-0.0332 -0.17528,-0.0263 -0.0403,0.007 -0.084,-0.007 -0.0971,-0.0314 -0.0131,-0.0242 -0.16317,-0.0892 -0.33335,-0.14476 -0.40938,-0.13323 -0.42069,-0.14158 -0.37435,-0.27932 z m -1.5558,-1.24394 c 0.0651,-0.21488 0.0943,-0.23233 0.26445,-0.15785 0.0678,0.0298 0.0811,0.0501 0.0404,0.0609 -0.0374,0.0101 -0.0799,0.0776 -0.10952,0.17438 -0.0557,0.18016 -0.0954,0.21369 -0.18914,0.1598 -0.0468,-0.0269 -0.0486,-0.0962 -0.006,-0.23702 z m -0.3447,-0.1063 c 0.0929,-0.0265 0.34753,0.0657 0.31885,0.11554 -0.0132,0.0229 -0.0545,0.0244 -0.0918,0.003 -0.0374,-0.0211 -0.11753,-0.0525 -0.17819,-0.0698 -0.0753,-0.0215 -0.0908,-0.0371 -0.0488,-0.0491 z m 0.54568,0.29652 c -0.001,-0.0325 0.0275,-0.0599 0.0631,-0.0611 0.0505,-0.002 0.0559,-0.0134 0.0247,-0.053 -0.0242,-0.0304 -0.006,-0.0331 0.0444,-0.006 0.0665,0.0348 0.0708,0.0593 0.0199,0.11101 -0.0815,0.0827 -0.14929,0.0871 -0.15175,0.01 z m -0.0764,-0.53186 c 0.0312,-0.0543 0.0239,-0.0654 -0.0328,-0.05 -0.0401,0.0108 -0.10789,-0.002 -0.1506,-0.0285 -0.0692,-0.0433 -0.0649,-0.0466 0.0445,-0.0372 0.0672,0.006 0.14138,0.002 0.16486,-0.009 0.0235,-0.0108 0.0373,0.0157 0.0302,0.0598 -0.007,0.0463 0.0169,0.0841 0.0578,0.0906 0.0386,0.006 0.0606,0.0279 0.0487,0.0485 -0.0118,0.0205 -0.0284,0.0334 -0.0376,0.0281 -0.009,-0.005 -0.0497,-0.0145 -0.0907,-0.021 -0.051,-0.008 -0.062,-0.0334 -0.0344,-0.0814 z m 0.24632,0.0481 c 0.0183,-0.0318 0.0414,-0.0427 0.0514,-0.0243 0.01,0.0184 0.043,0.0132 0.0735,-0.0114 0.0338,-0.0275 0.0331,-0.0578 -0.002,-0.078 -0.0426,-0.0245 -0.0359,-0.0553 0.0257,-0.11917 0.0763,-0.079 0.0745,-0.0864 -0.0213,-0.0893 -0.0575,-0.002 -0.15424,-0.0318 -0.21507,-0.0668 -0.0902,-0.0519 -0.10558,-0.0921 -0.0832,-0.21848 0.0366,-0.20728 0.0438,-0.2151 0.14467,-0.15787 0.0479,0.0272 0.13072,0.061 0.18391,0.0752 0.10488,0.0279 0.14792,-0.0484 0.2662,-0.47291 l 0.0532,-0.19009 -0.12952,0.03 c -0.0712,0.0165 -0.13021,0.008 -0.13104,-0.0181 -7.8e-4,-0.0265 0.0545,-0.0544 0.12287,-0.062 l 0.12441,-0.0138 -0.10152,-0.0245 c -0.0747,-0.0181 -0.0923,-0.0404 -0.0667,-0.085 0.0223,-0.0388 0.0695,-0.0406 0.13178,-0.005 0.0914,0.0526 0.10059,0.0462 0.16082,-0.11214 0.052,-0.13684 0.0792,-0.16553 0.14667,-0.15495 0.0456,0.007 0.10355,0.0515 0.12871,0.0988 0.0252,0.0472 0.0721,0.10101 0.10428,0.11949 0.0322,0.0185 0.0434,0.0597 0.0251,0.0915 -0.0183,0.0318 -0.016,0.0679 0.005,0.0801 0.0212,0.0122 0.0136,0.0656 -0.0169,0.11871 -0.067,0.11657 -0.086,0.10935 -0.13559,-0.0518 -0.0428,-0.13894 -0.0744,-0.15109 -0.0925,-0.0355 -0.007,0.0426 0.0121,0.0914 0.0416,0.10838 0.0623,0.0358 0.0659,0.0238 -0.0952,0.32734 -0.12847,0.24142 -0.11717,0.36239 0.0215,0.23601 0.0665,-0.0606 0.0759,-0.0597 0.0584,0.006 -0.0115,0.0429 0.003,0.0917 0.0325,0.10856 0.0293,0.0168 0.0339,0.10613 0.0102,0.19852 -0.057,0.22232 -0.0659,0.23478 -0.17922,0.24925 -0.0593,0.008 -0.0786,0.0237 -0.0495,0.0414 0.0261,0.016 0.0276,0.0637 0.003,0.10622 -0.0452,0.0786 -0.0817,0.0744 -0.22864,-0.0267 -0.0562,-0.0381 -0.095,-0.0357 -0.12041,0.008 -0.0312,0.0542 -0.0228,0.0628 0.0492,0.0504 0.0721,-0.0124 0.0771,-0.007 0.0298,0.0314 -0.0314,0.0255 -0.0912,0.038 -0.13277,0.0278 -0.0416,-0.0102 -0.10974,-0.023 -0.15133,-0.0284 -0.0494,-0.006 -0.0641,-0.03 -0.0424,-0.0677 z m 0.58189,-0.45302 c -0.0178,-0.0665 -0.0854,-0.016 -0.0953,0.0712 -0.009,0.0826 -0.007,0.0838 0.0478,0.0252 0.0315,-0.0336 0.0534,-0.0768 0.0476,-0.0968 z m 0.0457,-0.60332 c 0.0839,-0.24758 0.0323,-0.33561 -0.0568,-0.0969 -0.0812,0.2176 -0.0901,0.26925 -0.0503,0.29218 0.0194,0.0112 0.0658,-0.0734 0.10668,-0.19552 z m 0.29347,-0.39634 c 0.0122,-0.0212 0.004,-0.0491 -0.0187,-0.0621 -0.0225,-0.0129 -0.0401,-1e-5 -0.0392,0.0288 8.8e-4,0.0288 0.009,0.0567 0.0187,0.0621 0.009,0.005 0.027,-0.008 0.0392,-0.0288 z m -0.59258,1.6168 c -7.9e-4,-0.0257 0.0289,-0.0422 0.0665,-0.0362 0.0454,0.007 0.05,0.0253 0.0144,0.0543 -0.0622,0.0505 -0.0788,0.0468 -0.0809,-0.018 z m 0.1912,-0.006 c 0.0548,-0.0488 0.14447,-0.0102 0.12198,0.0524 -0.009,0.0232 -0.05,0.0307 -0.0922,0.0161 -0.0494,-0.0169 -0.06,-0.0414 -0.0298,-0.0684 z m 0.24201,0.0957 c 0.0122,-0.0212 0.03,-0.0341 0.0392,-0.0288 0.009,0.005 0.0178,0.0333 0.0187,0.0621 8.8e-4,0.0288 -0.017,0.0416 -0.0392,0.0288 -0.0224,-0.0129 -0.0309,-0.0409 -0.0187,-0.0621 z m 0.523,0.15009 c 0.16408,-0.0328 0.25785,0.0108 0.20838,0.0968 -0.024,0.0418 -0.056,0.0426 -0.0968,0.002 -0.0335,-0.033 -0.1031,-0.0628 -0.15474,-0.0659 -0.0662,-0.004 -0.0536,-0.0139 0.0432,-0.0333 z m -0.55657,-1.29529 c 0.0244,-0.11177 0.17634,-0.27092 0.20613,-0.21581 0.0125,0.0231 0.003,0.0523 -0.0202,0.0651 -0.0236,0.0127 -0.0268,0.0325 -0.007,0.0441 0.0737,0.0424 -0.0105,0.19982 -0.10521,0.197 -0.0733,-0.002 -0.089,-0.0214 -0.074,-0.0902 z m 13.63345,7.12784 c 0.0417,-0.002 0.062,-0.0292 0.0598,-0.0804 -0.002,-0.0427 0.007,-0.095 0.019,-0.11618 0.0122,-0.0212 0.0236,-0.007 0.0253,0.0326 0.002,0.0568 0.0259,0.072 0.11532,0.0744 l 0.1121,0.003 -0.15653,0.0685 c -0.0862,0.0377 -0.17483,0.0576 -0.19719,0.0443 -0.0244,-0.0144 -0.0153,-0.0253 0.0224,-0.027 z m -0.63828,-0.55331 c 0.0217,-0.0417 0.0443,-0.0591 0.0494,-0.0391 0.005,0.0202 -0.0123,0.0543 -0.0391,0.076 -0.03,0.0237 -0.034,0.009 -0.01,-0.0367 z m -6.79808,-4.38484 c -0.006,-0.0222 0.007,-0.072 0.0293,-0.11058 0.0243,-0.0422 0.008,-0.10118 -0.0409,-0.14846 -0.0447,-0.0431 -0.0872,-0.11278 -0.0944,-0.15479 -0.0176,-0.10231 0.23747,-0.0928 0.42649,0.0159 0.16011,0.0921 0.15806,0.10301 -0.0358,0.19198 -0.0989,0.0453 -0.15639,0.10243 -0.17711,0.17578 -0.0291,0.10301 -0.0837,0.11833 -0.10749,0.0302 z m 13.22065,7.55854 c 0.007,-0.0421 0.0248,-0.0963 0.0403,-0.12029 0.016,-0.0238 0.0211,0.007 0.0122,0.07 -0.009,0.0626 -0.0271,0.11668 -0.0404,0.12025 -0.0137,0.004 -0.0188,-0.028 -0.0122,-0.07 z m 0.30005,0.11488 c 0.0327,0.005 0.0761,0.0295 0.0965,0.0555 0.0204,0.0259 -0.006,0.0225 -0.0595,-0.008 -0.053,-0.0305 -0.0698,-0.0518 -0.0371,-0.0473 z m 0.23407,0.0862 c 0.0202,-0.005 0.0543,0.0123 0.076,0.0391 0.0237,0.03 0.009,0.034 -0.0367,0.01 -0.0417,-0.0217 -0.0591,-0.0443 -0.039,-0.0494 z m -5.5386,-3.25704 c 0.0122,-0.0212 0.0386,-0.0292 0.0585,-0.0177 0.0199,0.0115 0.0371,0.0444 0.038,0.0732 8.7e-4,0.0288 -0.0257,0.0366 -0.0585,0.0177 -0.0331,-0.019 -0.0502,-0.0519 -0.038,-0.0732 z m 5.85771,3.35369 c 0.0364,-0.0297 0.0703,-0.0387 0.0753,-0.02 0.005,0.0187 -0.0247,0.043 -0.0662,0.0541 -0.0599,0.0159 -0.0618,0.009 -0.009,-0.034 z m -5.77468,-3.40873 c -0.0509,-0.0834 -0.0704,-0.13994 -0.0434,-0.12555 0.027,0.0144 0.0736,-0.0163 0.10341,-0.0681 0.0636,-0.11063 0.16026,-0.12641 0.18616,-0.0304 0.0133,0.0494 -0.0112,0.072 -0.0916,0.0844 -0.1056,0.0163 -0.10548,0.0173 0.001,0.0248 0.0957,0.007 0.10505,0.0183 0.0677,0.0832 -0.0239,0.0415 -0.0486,0.10897 -0.0551,0.14994 -0.0151,0.0962 -0.0544,0.0686 -0.16858,-0.11841 z m 0.25964,0.009 c 0.0754,-0.23381 0.0619,-0.21952 0.17031,-0.18038 0.0675,0.0244 0.0711,0.0649 0.0197,0.21904 -0.048,0.14388 -0.0799,0.18988 -0.13347,0.19216 -0.1191,0.005 -0.12492,-0.0187 -0.0566,-0.23081 z m -0.58322,-0.22582 c 0.0202,-0.005 0.0543,0.0123 0.076,0.0391 0.0237,0.03 0.009,0.034 -0.0367,0.01 -0.0417,-0.0216 -0.0591,-0.0443 -0.039,-0.0494 z m -0.25395,-0.47593 c -0.0717,-0.0729 -0.0709,-0.0813 0.006,-0.0719 0.0503,0.006 0.095,0.0393 0.10557,0.0785 0.0253,0.0937 -0.0158,0.0913 -0.11186,-0.007 z m 4.36,2.47586 c 0.01,-0.0626 0.0177,-0.0626 0.0408,-4e-5 0.0224,0.06 0.0397,0.0688 0.0776,0.0388 0.031,-0.0244 0.0357,-0.0131 0.0129,0.0309 -0.0457,0.0875 -0.14742,0.0333 -0.13132,-0.0698 z m -4.18714,-2.44993 c 0.007,-0.042 0.0338,-0.0508 0.0732,-0.0244 0.0345,0.0233 0.12197,0.0598 0.19444,0.0811 0.0955,0.0284 0.10953,0.0407 0.0512,0.0449 -0.062,0.004 -0.0503,0.0234 0.0511,0.0824 0.20148,0.11703 0.0878,0.10934 -0.16023,-0.0109 -0.16325,-0.0791 -0.21743,-0.1239 -0.20969,-0.1732 z m 3.50376,2.06741 c 0.0285,-0.0495 0.0666,-0.0668 0.0898,-0.0408 0.0138,0.0149 0.0691,0.0293 0.12361,0.0307 0.0998,0.003 0.10571,0.0441 0.0123,0.0853 -0.0548,0.0242 -0.24616,-0.0396 -0.22567,-0.0752 z m 0.50074,0.15238 c -0.002,-0.0721 0.0489,-0.0843 0.11134,-0.0265 0.0415,0.0384 0.0365,0.0488 -0.0298,0.0639 -0.0542,0.0122 -0.0801,3e-4 -0.0812,-0.0375 z m -0.43802,-0.35077 c 0.0122,-0.0212 0.0483,-0.0236 0.0801,-0.005 0.0318,0.0183 0.0479,0.0506 0.0357,0.0719 -0.0122,0.0212 -0.0483,0.0236 -0.0801,0.005 -0.0318,-0.0183 -0.0479,-0.0506 -0.0357,-0.0719 z m 1.63554,0.9526 c -0.0123,-0.0278 -0.0154,-0.0697 -0.007,-0.093 0.009,-0.0232 0.0213,-0.0819 0.0287,-0.12997 0.0105,-0.069 0.027,-0.0755 0.078,-0.0306 0.041,0.036 0.0458,0.0873 0.013,0.13987 -0.0435,0.0697 -0.0339,0.0888 0.0599,0.11922 0.10738,0.0349 0.10744,0.0369 0.002,0.0536 -0.12317,0.0196 -0.14274,0.013 -0.17454,-0.0591 z m -0.16531,-0.20385 c 0.0122,-0.0212 0.0457,-0.0394 0.0745,-0.0403 0.0288,-8.7e-4 0.0421,0.0161 0.0301,0.0369 -0.0122,0.0212 -0.0457,0.0394 -0.0745,0.0403 -0.0288,8.8e-4 -0.0421,-0.0161 -0.0301,-0.0369 z m 0.36591,0.0544 c 0.0201,-0.0739 0.0338,-0.0861 0.046,-0.0409 0.01,0.0354 -0.003,0.0826 -0.0287,0.10518 -0.0262,0.0233 -0.0337,-0.004 -0.0173,-0.0643 z m 0.0795,0.0715 c 0.0216,-0.0416 0.0443,-0.059 0.0494,-0.039 0.005,0.0202 -0.0123,0.0543 -0.0391,0.076 -0.03,0.0237 -0.034,0.009 -0.01,-0.0367 z m -11.42253,-6.67623 c 0.0183,-0.0318 0.0506,-0.0479 0.0719,-0.0357 0.0212,0.0122 0.0236,0.0483 0.005,0.0801 -0.0183,0.0318 -0.0506,0.0479 -0.0719,0.0357 -0.0212,-0.0122 -0.0236,-0.0483 -0.005,-0.0801 z m 11.47277,6.49955 c 0.0216,-0.0417 0.0443,-0.0591 0.0494,-0.039 0.005,0.0202 -0.0123,0.0543 -0.0391,0.076 -0.03,0.0237 -0.034,0.009 -0.01,-0.0367 z m -0.11246,-0.46063 c 0.0413,-0.0113 0.0793,-0.005 0.0844,0.0135 0.005,0.0187 -0.0288,0.028 -0.0752,0.0206 -0.0671,-0.0107 -0.0689,-0.0177 -0.009,-0.034 z m 0.13338,0.0359 c 0.0201,-0.0739 0.0338,-0.0861 0.046,-0.0409 0.01,0.0354 -0.003,0.0827 -0.0286,0.10519 -0.0263,0.0234 -0.0337,-0.004 -0.0174,-0.0642 z m -10.35455,-6.08325 c 0.0216,-0.0417 0.0443,-0.059 0.0494,-0.039 0.005,0.0202 -0.0123,0.0543 -0.0391,0.076 -0.03,0.0237 -0.034,0.009 -0.01,-0.0367 z m 6.08887,3.45896 c 0.0345,-0.0297 0.0458,-0.0635 0.0252,-0.0754 -0.0205,-0.0118 -0.0252,-0.0426 -0.0104,-0.0684 0.0169,-0.0293 0.0375,-0.008 0.0549,0.057 0.0235,0.087 0.015,0.10677 -0.0522,0.12226 -0.0657,0.0152 -0.0689,0.009 -0.0176,-0.0354 z m -6.01647,-3.67418 c 0.0216,-0.0416 0.0444,-0.059 0.0494,-0.039 0.005,0.0202 -0.0123,0.0543 -0.0391,0.076 -0.03,0.0237 -0.034,0.009 -0.01,-0.0367 z m -0.10777,-0.20161 c -0.0585,-0.0977 0.005,-0.20558 0.15631,-0.26377 0.11416,-0.044 0.12347,-0.0402 0.19783,0.0803 0.0429,0.0696 0.0552,0.11433 0.0272,0.0994 -0.028,-0.0149 -0.0605,-0.004 -0.0724,0.0247 -0.0669,0.16154 -0.22933,0.19276 -0.30903,0.0594 z m 5.55611,3.04837 c 0.0244,-0.0425 0.0647,-0.0656 0.0895,-0.0513 0.0248,0.0143 0.0272,0.0307 0.005,0.0366 -0.0218,0.006 -0.0224,0.051 -0.002,0.1 0.0348,0.0824 0.0309,0.0856 -0.0499,0.0406 -0.062,-0.0345 -0.0746,-0.0713 -0.0432,-0.12589 z"
       id="path6286"
       inkscape:connector-curvature="0" />
    <ellipse
       style="opacity:1;fill:none;stroke:#550000;stroke-width:0.3311215;stroke-linejoin:round;stroke-miterlimit:4;stroke-dasharray:none;stroke-opacity:1"
       id="path70"
       cx="206.22769"
       cy="28.880295"
       rx="21.942673"
       ry="25.686382"
       transform="matrix(0.71470351,0.69942755,-0.74934613,0.66217851,0,0)" />
    <ellipse
       style="opacity:1;fill:none;stroke:#550000;stroke-width:0.23416704;stroke-linejoin:round;stroke-miterlimit:4;stroke-dasharray:none;stroke-opacity:1"
       id="path6210"
       cx="140.62657"
       cy="149.81871"
       rx="2.6594422"
       ry="2.4932272" />
    <g
       aria-label=""
       transform="rotate(18.623089)"
       style="font-style:normal;font-weight:normal;font-size:10.58333302px;line-height:1.25;font-family:sans-serif;letter-spacing:0px;word-spacing:0px;fill:#000000;fill-opacity:1;stroke:none;stroke-width:0.26458332"
       id="text6308">
      <path
         d="m 166.62913,130.15712 h -1.81384 v -3.60185 l -1.31775,2.37712 h -0.81648 l -1.31775,-2.37712 v 3.60185 h -1.76217 v -5.80326 h 2.02055 l 1.49345,2.63549 1.49345,-2.63549 h 2.02054 z"
         style="font-style:normal;font-variant:normal;font-weight:bold;font-stretch:normal;font-family:sans-serif;-inkscape-font-specification:'sans-serif Bold';stroke-width:0.26458332"
         id="path4523" />
      <path
         d="m 174.54596,130.15712 h -2.14974 l -1.55546,-2.2996 h -0.59428 v 2.2996 h -1.86035 v -5.80326 h 1.86035 v 2.3306 q 0.51677,-0.005 0.71314,-0.10852 0.19637,-0.10852 0.45475,-0.56327 0.0775,-0.13436 0.18604,-0.34623 0.10852,-0.21188 0.17053,-0.32556 0.28422,-0.50643 0.66146,-0.74931 0.3824,-0.24805 1.05936,-0.24805 0.19638,0 0.41342,0.005 0.2222,0.005 0.29972,0.005 v 1.55029 h -0.50643 q -0.31006,0 -0.49609,0.15503 -0.18087,0.15503 -0.31523,0.45992 -0.11369,0.25321 -0.20671,0.40308 -0.093,0.14469 -0.23771,0.24804 z"
         style="font-style:normal;font-variant:normal;font-weight:bold;font-stretch:normal;font-family:sans-serif;-inkscape-font-specification:'sans-serif Bold';stroke-width:0.26458332"
         id="path4525" />
      <path
         d="m 178.51988,130.31215 q -0.75964,0 -1.39009,-0.18087 -0.62529,-0.18087 -1.09038,-0.5581 -0.45992,-0.37724 -0.71313,-0.95085 -0.25322,-0.57361 -0.25322,-1.34359 0,-0.81132 0.26872,-1.40043 0.27389,-0.58911 0.75964,-0.97668 0.47026,-0.36691 1.08521,-0.53744 0.61495,-0.17053 1.27641,-0.17053 0.59428,0 1.09554,0.12919 0.50126,0.12919 0.93534,0.3359 v 1.58646 h -0.26355 q -0.10852,-0.093 -0.26355,-0.21704 -0.14986,-0.12402 -0.37207,-0.24288 -0.21187,-0.11368 -0.46509,-0.18603 -0.25321,-0.0775 -0.58911,-0.0775 -0.74414,0 -1.14721,0.47543 -0.39791,0.47025 -0.39791,1.28157 0,0.83716 0.40824,1.27124 0.41341,0.43408 1.16789,0.43408 0.3514,0 0.63045,-0.0775 0.28422,-0.0827 0.47026,-0.1912 0.1757,-0.10336 0.31005,-0.21704 0.13436,-0.11369 0.24805,-0.22221 h 0.26355 v 1.58646 q -0.43925,0.20671 -0.91984,0.32557 -0.47542,0.12402 -1.0542,0.12402 z"
         style="font-style:normal;font-variant:normal;font-weight:bold;font-stretch:normal;font-family:sans-serif;-inkscape-font-specification:'sans-serif Bold';stroke-width:0.26458332"
         id="path4527" />
    </g>
  </g>
</svg>
