  0
SECTION
  2
HEADER
  9
$ACADVER
  1
AC1014
  9
$HANDSEED
  5
FFFF
  9
$MEASUREMENT
 70
     1
  0
ENDSEC
  0
SECTION
  2
TABLES
  0
TABLE
  2
VPORT
  5
8
330
0
100
AcDbSymbolTable
 70
     4
  0
VPORT
  5
2E
330
8
100
AcDbSymbolTableRecord
100
AcDbViewportTableRecord
  2
*ACTIVE
 70
     0
 10
0.0
 20
0.0
 11
1.0
 21
1.0
 12
210.0
 22
148.5
 13
0.0
 23
0.0
 14
10.0
 24
10.0
 15
10.0
 25
10.0
 16
0.0
 26
0.0
 36
1.0
 17
0.0
 27
0.0
 37
0.0
 40
341.0
 41
1.24
 42
50.0
 43
0.0
 44
0.0
 50
0.0
 51
0.0
 71
     0
 72
   100
 73
     1
 74
     3
 75
     0
 76
     0
 77
     0
 78
     0
  0
ENDTAB
  0
TABLE
  2
LTYPE
  5
5
330
0
100
AcDbSymbolTable
 70
     1
  0
LTYPE
  5
14
330
5
100
AcDbSymbolTableRecord
100
AcDbLinetypeTableRecord
  2
BYBLOCK
 70
     0
  3

 72
    65
 73
     0
 40
0.0
  0
LTYPE
  5
15
330
5
100
AcDbSymbolTableRecord
100
AcDbLinetypeTableRecord
  2
BYLAYER
 70
     0
  3

 72
    65
 73
     0
 40
0.0
  0
LTYPE
  5
16
330
5
100
AcDbSymbolTableRecord
100
AcDbLinetypeTableRecord
  2
CONTINUOUS
 70
     0
  3
Solid line
 72
    65
 73
     0
 40
0.0
  0
ENDTAB
  0
TABLE
  2
LAYER
  5
2
100
AcDbSymbolTable
 70
2
  0
LAYER
  5
50
100
AcDbSymbolTableRecord
100
AcDbLayerTableRecord
  2
0
 70
0
  6
CONTINUOUS
  0
LAYER
  5
51
100
AcDbSymbolTableRecord
100
AcDbLayerTableRecord
  2
Layer_1
 70
0
  6
CONTINUOUS
  0
ENDTAB
  0
TABLE
  2
STYLE
  5
3
330
0
100
AcDbSymbolTable
 70
     1
  0
STYLE
  5
11
330
3
100
AcDbSymbolTableRecord
100
AcDbTextStyleTableRecord
  2
STANDARD
 70
     0
 40
0.0
 41
1.0
 50
0.0
 71
     0
 42
2.5
  3
txt
  4

  0
ENDTAB
  0
TABLE
  2
VIEW
  5
6
330
0
100
AcDbSymbolTable
 70
     0
  0
ENDTAB
  0
TABLE
  2
UCS
  5
7
330
0
100
AcDbSymbolTable
 70
     0
  0
ENDTAB
  0
TABLE
  2
APPID
  5
9
330
0
100
AcDbSymbolTable
 70
     2
  0
APPID
  5
12
330
9
100
AcDbSymbolTableRecord
100
AcDbRegAppTableRecord
  2
ACAD
 70
     0
  0
ENDTAB
  0
TABLE
  2
DIMSTYLE
  5
A
330
0
100
AcDbSymbolTable
 70
     1
  0
DIMSTYLE
105
27
330
A
100
AcDbSymbolTableRecord
100
AcDbDimStyleTableRecord
  2
ISO-25
 70
     0
  3

  4

  5

  6

  7

 40
1.0
 41
2.5
 42
0.625
 43
3.75
 44
1.25
 45
0.0
 46
0.0
 47
0.0
 48
0.0
140
2.5
141
2.5
142
0.0
143
0.03937007874016
144
1.0
145
0.0
146
1.0
147
0.625
 71
     0
 72
     0
 73
     0
 74
     0
 75
     0
 76
     0
 77
     1
 78
     8
170
     0
171
     3
172
     1
173
     0
174
     0
175
     0
176
     0
177
     0
178
     0
270
     2
271
     2
272
     2
273
     2
274
     3
340
11
275
     0
280
     0
281
     0
282
     0
283
     0
284
     8
285
     0
286
     0
287
     3
288
     0
  0
ENDTAB
  0
TABLE
  2
BLOCK_RECORD
  5
1
330
0
100
AcDbSymbolTable
 70
     1
  0
BLOCK_RECORD
  5
1F
330
1
100
AcDbSymbolTableRecord
100
AcDbBlockTableRecord
  2
*MODEL_SPACE
  0
BLOCK_RECORD
  5
1B
330
1
100
AcDbSymbolTableRecord
100
AcDbBlockTableRecord
  2
*PAPER_SPACE
  0
ENDTAB
  0
ENDSEC
  0
SECTION
  2
BLOCKS
  0
BLOCK
  5
20
330
1F
100
AcDbEntity
  8
0
100
AcDbBlockBegin
  2
*MODEL_SPACE
 70
     0
 10
0.0
 20
0.0
 30
0.0
  3
*MODEL_SPACE
  1

  0
ENDBLK
  5
21
330
1F
100
AcDbEntity
  8
0
100
AcDbBlockEnd
  0
BLOCK
  5
1C
330
1B
100
AcDbEntity
 67
     1
  8
0
100
AcDbBlockBegin
  2
*PAPER_SPACE
  1

  0
ENDBLK
  5
1D
330
1B
100
AcDbEntity
 67
     1
  8
0
100
AcDbBlockEnd
  0
ENDSEC
  0
SECTION
  2
ENTITIES
  0
SPLINE
  5
100
100
AcDbEntity
  8
Layer_1
 62
7
100
AcDbSpline
 70
8
 71
3
 72
8
 73
4
 74
0
 40
0
 40
0
 40
0
 40
0
 40
1
 40
1
 40
1
 40
1
 10
52.747611
 20
94.196813
 30
0.0
 10
53.048539
 20
94.511490
 30
0.0
 10
53.393329
 20
94.983983
 30
0.0
 10
53.513813
 20
95.246790
 30
0.0
  0
SPLINE
  5
101
100
AcDbEntity
  8
Layer_1
 62
7
100
AcDbSpline
 70
8
 71
3
 72
8
 73
4
 74
0
 40
0
 40
0
 40
0
 40
0
 40
1
 40
1
 40
1
 40
1
 10
53.513813
 20
95.246790
 30
0.0
 10
53.679679
 20
95.608605
 30
0.0
 10
53.809127
 20
95.733825
 30
0.0
 10
54.046917
 20
95.762513
 30
0.0
  0
SPLINE
  5
102
100
AcDbEntity
  8
Layer_1
 62
7
100
AcDbSpline
 70
8
 71
3
 72
8
 73
4
 74
0
 40
0
 40
0
 40
0
 40
0
 40
1
 40
1
 40
1
 40
1
 10
54.046917
 20
95.762513
 30
0.0
 10
54.339127
 20
95.797763
 30
0.0
 10
54.355303
 20
95.837655
 30
0.0
 10
54.279533
 20
96.336248
 30
0.0
  0
SPLINE
  5
103
100
AcDbEntity
  8
Layer_1
 62
7
100
AcDbSpline
 70
8
 71
3
 72
8
 73
4
 74
0
 40
0
 40
0
 40
0
 40
0
 40
1
 40
1
 40
1
 40
1
 10
54.279533
 20
96.336248
 30
0.0
 10
54.190115
 20
96.924675
 30
0.0
 10
54.337051
 20
97.301025
 30
0.0
 10
54.711831
 20
97.443540
 30
0.0
  0
SPLINE
  5
104
100
AcDbEntity
  8
Layer_1
 62
7
100
AcDbSpline
 70
8
 71
3
 72
8
 73
4
 74
0
 40
0
 40
0
 40
0
 40
0
 40
1
 40
1
 40
1
 40
1
 10
54.711831
 20
97.443540
 30
0.0
 10
54.911321
 20
97.519380
 30
0.0
 10
54.933587
 20
97.601378
 30
0.0
 10
54.835063
 20
97.897313
 30
0.0
  0
SPLINE
  5
105
100
AcDbEntity
  8
Layer_1
 62
7
100
AcDbSpline
 70
8
 71
3
 72
8
 73
4
 74
0
 40
0
 40
0
 40
0
 40
0
 40
1
 40
1
 40
1
 40
1
 10
54.835063
 20
97.897313
 30
0.0
 10
54.739280
 20
98.185028
 30
0.0
 10
54.781040
 20
98.363310
 30
0.0
 10
55.040342
 20
98.773560
 30
0.0
  0
SPLINE
  5
106
100
AcDbEntity
  8
Layer_1
 62
7
100
AcDbSpline
 70
8
 71
3
 72
8
 73
4
 74
0
 40
0
 40
0
 40
0
 40
0
 40
1
 40
1
 40
1
 40
1
 10
55.040342
 20
98.773560
 30
0.0
 10
55.219383
 20
99.056828
 30
0.0
 10
55.385787
 20
99.418605
 30
0.0
 10
55.410125
 20
99.577508
 30
0.0
  0
SPLINE
  5
107
100
AcDbEntity
  8
Layer_1
 62
7
100
AcDbSpline
 70
8
 71
3
 72
8
 73
4
 74
0
 40
0
 40
0
 40
0
 40
0
 40
1
 40
1
 40
1
 40
1
 10
55.410125
 20
99.577508
 30
0.0
 10
55.434463
 20
99.736403
 30
0.0
 10
55.916296
 20
100.677473
 30
0.0
 10
56.480860
 20
101.668763
 30
0.0
  0
SPLINE
  5
108
100
AcDbEntity
  8
Layer_1
 62
7
100
AcDbSpline
 70
8
 71
3
 72
8
 73
4
 74
0
 40
0
 40
0
 40
0
 40
0
 40
1
 40
1
 40
1
 40
1
 10
56.480860
 20
101.668763
 30
0.0
 10
57.318451
 20
103.139453
 30
0.0
 10
57.566477
 20
103.484445
 30
0.0
 10
57.828719
 20
103.543575
 30
0.0
  0
SPLINE
  5
109
100
AcDbEntity
  8
Layer_1
 62
7
100
AcDbSpline
 70
8
 71
3
 72
8
 73
4
 74
0
 40
0
 40
0
 40
0
 40
0
 40
1
 40
1
 40
1
 40
1
 10
57.828719
 20
103.543575
 30
0.0
 10
58.171784
 20
103.620570
 30
0.0
 10
58.606575
 20
104.020523
 30
0.0
 10
58.562153
 20
104.217548
 30
0.0
  0
SPLINE
  5
10a
100
AcDbEntity
  8
Layer_1
 62
7
100
AcDbSpline
 70
8
 71
3
 72
8
 73
4
 74
0
 40
0
 40
0
 40
0
 40
0
 40
1
 40
1
 40
1
 40
1
 10
58.562153
 20
104.217548
 30
0.0
 10
58.547386
 20
104.282948
 30
0.0
 10
58.596631
 20
104.433518
 30
0.0
 10
58.671551
 20
104.552063
 30
0.0
  0
SPLINE
  5
10b
100
AcDbEntity
  8
Layer_1
 62
7
100
AcDbSpline
 70
8
 71
3
 72
8
 73
4
 74
0
 40
0
 40
0
 40
0
 40
0
 40
1
 40
1
 40
1
 40
1
 10
58.671551
 20
104.552063
 30
0.0
 10
58.746476
 20
104.670600
 30
0.0
 10
58.814554
 20
104.737523
 30
0.0
 10
58.822839
 20
104.700765
 30
0.0
  0
SPLINE
  5
10c
100
AcDbEntity
  8
Layer_1
 62
7
100
AcDbSpline
 70
8
 71
3
 72
8
 73
4
 74
0
 40
0
 40
0
 40
0
 40
0
 40
1
 40
1
 40
1
 40
1
 10
58.822839
 20
104.700765
 30
0.0
 10
58.837539
 20
104.635665
 30
0.0
 10
59.148434
 20
105.005333
 30
0.0
 10
60.702340
 20
106.935398
 30
0.0
  0
SPLINE
  5
10d
100
AcDbEntity
  8
Layer_1
 62
7
100
AcDbSpline
 70
8
 71
3
 72
8
 73
4
 74
0
 40
0
 40
0
 40
0
 40
0
 40
1
 40
1
 40
1
 40
1
 10
60.702340
 20
106.935398
 30
0.0
 10
61.117577
 20
107.451150
 30
0.0
 10
61.663654
 20
108.103080
 30
0.0
 10
61.915839
 20
108.384120
 30
0.0
  0
SPLINE
  5
10e
100
AcDbEntity
  8
Layer_1
 62
7
100
AcDbSpline
 70
8
 71
3
 72
8
 73
4
 74
0
 40
0
 40
0
 40
0
 40
0
 40
1
 40
1
 40
1
 40
1
 10
61.915839
 20
108.384120
 30
0.0
 10
62.417707
 20
108.943395
 30
0.0
 10
63.069649
 20
110.010923
 30
0.0
 10
64.026108
 20
111.839588
 30
0.0
  0
SPLINE
  5
10f
100
AcDbEntity
  8
Layer_1
 62
7
100
AcDbSpline
 70
8
 71
3
 72
8
 73
4
 74
0
 40
0
 40
0
 40
0
 40
0
 40
1
 40
1
 40
1
 40
1
 10
64.026108
 20
111.839588
 30
0.0
 10
64.367340
 20
112.491998
 30
0.0
 10
64.776223
 20
113.242455
 30
0.0
 10
64.934734
 20
113.507280
 30
0.0
  0
SPLINE
  5
110
100
AcDbEntity
  8
Layer_1
 62
7
100
AcDbSpline
 70
8
 71
3
 72
8
 73
4
 74
0
 40
0
 40
0
 40
0
 40
0
 40
1
 40
1
 40
1
 40
1
 10
64.934734
 20
113.507280
 30
0.0
 10
65.093247
 20
113.772105
 30
0.0
 10
65.281567
 20
114.240210
 30
0.0
 10
65.353225
 20
114.547508
 30
0.0
  0
SPLINE
  5
111
100
AcDbEntity
  8
Layer_1
 62
7
100
AcDbSpline
 70
8
 71
3
 72
8
 73
4
 74
0
 40
0
 40
0
 40
0
 40
0
 40
1
 40
1
 40
1
 40
1
 10
65.353225
 20
114.547508
 30
0.0
 10
65.424888
 20
114.854805
 30
0.0
 10
65.548838
 20
115.191045
 30
0.0
 10
65.628678
 20
115.294703
 30
0.0
  0
SPLINE
  5
112
100
AcDbEntity
  8
Layer_1
 62
7
100
AcDbSpline
 70
8
 71
3
 72
8
 73
4
 74
0
 40
0
 40
0
 40
0
 40
0
 40
1
 40
1
 40
1
 40
1
 10
65.628678
 20
115.294703
 30
0.0
 10
65.708518
 20
115.398353
 30
0.0
 10
65.830508
 20
115.705095
 30
0.0
 10
65.899769
 20
115.976355
 30
0.0
  0
SPLINE
  5
113
100
AcDbEntity
  8
Layer_1
 62
7
100
AcDbSpline
 70
8
 71
3
 72
8
 73
4
 74
0
 40
0
 40
0
 40
0
 40
0
 40
1
 40
1
 40
1
 40
1
 10
65.899769
 20
115.976355
 30
0.0
 10
65.969032
 20
116.247600
 30
0.0
 10
66.186014
 20
116.660618
 30
0.0
 10
66.381957
 20
116.894175
 30
0.0
  0
SPLINE
  5
114
100
AcDbEntity
  8
Layer_1
 62
7
100
AcDbSpline
 70
8
 71
3
 72
8
 73
4
 74
0
 40
0
 40
0
 40
0
 40
0
 40
1
 40
1
 40
1
 40
1
 10
66.381957
 20
116.894175
 30
0.0
 10
66.577900
 20
117.127725
 30
0.0
 10
66.843202
 20
117.488588
 30
0.0
 10
66.971516
 20
117.696098
 30
0.0
  0
SPLINE
  5
115
100
AcDbEntity
  8
Layer_1
 62
7
100
AcDbSpline
 70
8
 71
3
 72
8
 73
4
 74
0
 40
0
 40
0
 40
0
 40
0
 40
1
 40
1
 40
1
 40
1
 10
66.971516
 20
117.696098
 30
0.0
 10
67.099830
 20
117.903608
 30
0.0
 10
67.328306
 20
118.140443
 30
0.0
 10
67.479242
 20
118.222403
 30
0.0
  0
SPLINE
  5
116
100
AcDbEntity
  8
Layer_1
 62
7
100
AcDbSpline
 70
8
 71
3
 72
8
 73
4
 74
0
 40
0
 40
0
 40
0
 40
0
 40
1
 40
1
 40
1
 40
1
 10
67.509427
 20
118.092150
 30
0.0
 10
67.212563
 20
117.752700
 30
0.0
 10
66.866759
 20
117.120795
 30
0.0
 10
66.949214
 20
117.068438
 30
0.0
  0
SPLINE
  5
117
100
AcDbEntity
  8
Layer_1
 62
7
100
AcDbSpline
 70
8
 71
3
 72
8
 73
4
 74
0
 40
0
 40
0
 40
0
 40
0
 40
1
 40
1
 40
1
 40
1
 10
66.949214
 20
117.068438
 30
0.0
 10
66.982139
 20
117.047513
 30
0.0
 10
67.115983
 20
117.122888
 30
0.0
 10
67.246637
 20
117.235883
 30
0.0
  0
SPLINE
  5
118
100
AcDbEntity
  8
Layer_1
 62
7
100
AcDbSpline
 70
8
 71
3
 72
8
 73
4
 74
0
 40
0
 40
0
 40
0
 40
0
 40
1
 40
1
 40
1
 40
1
 10
67.246637
 20
117.235883
 30
0.0
 10
67.377284
 20
117.348900
 30
0.0
 10
67.555283
 20
117.439935
 30
0.0
 10
67.642189
 20
117.438203
 30
0.0
  0
SPLINE
  5
119
100
AcDbEntity
  8
Layer_1
 62
7
100
AcDbSpline
 70
8
 71
3
 72
8
 73
4
 74
0
 40
0
 40
0
 40
0
 40
0
 40
1
 40
1
 40
1
 40
1
 10
67.642189
 20
117.438203
 30
0.0
 10
67.729799
 20
117.436703
 30
0.0
 10
67.820467
 20
117.629475
 30
0.0
 10
67.845692
 20
117.871508
 30
0.0
  0
SPLINE
  5
11a
100
AcDbEntity
  8
Layer_1
 62
7
100
AcDbSpline
 70
8
 71
3
 72
8
 73
4
 74
0
 40
0
 40
0
 40
0
 40
0
 40
1
 40
1
 40
1
 40
1
 10
67.845692
 20
117.871508
 30
0.0
 10
67.877019
 20
118.172093
 30
0.0
 10
67.977664
 20
118.349738
 30
0.0
 10
68.168969
 20
118.442100
 30
0.0
  0
SPLINE
  5
11b
100
AcDbEntity
  8
Layer_1
 62
7
100
AcDbSpline
 70
8
 71
3
 72
8
 73
4
 74
0
 40
0
 40
0
 40
0
 40
0
 40
1
 40
1
 40
1
 40
1
 10
68.168969
 20
118.442100
 30
0.0
 10
68.368277
 20
118.538355
 30
0.0
 10
68.436931
 20
118.668863
 30
0.0
 10
68.411979
 20
118.904175
 30
0.0
  0
SPLINE
  5
11c
100
AcDbEntity
  8
Layer_1
 62
7
100
AcDbSpline
 70
8
 71
3
 72
8
 73
4
 74
0
 40
0
 40
0
 40
0
 40
0
 40
1
 40
1
 40
1
 40
1
 10
68.411979
 20
118.904175
 30
0.0
 10
68.386727
 20
119.142368
 30
0.0
 10
68.471027
 20
119.298765
 30
0.0
 10
68.720006
 20
119.475585
 30
0.0
  0
SPLINE
  5
11d
100
AcDbEntity
  8
Layer_1
 62
7
100
AcDbSpline
 70
8
 71
3
 72
8
 73
4
 74
0
 40
0
 40
0
 40
0
 40
0
 40
1
 40
1
 40
1
 40
1
 10
68.720006
 20
119.475585
 30
0.0
 10
68.908546
 20
119.609475
 30
0.0
 10
69.122588
 20
119.878688
 30
0.0
 10
69.195656
 20
120.073815
 30
0.0
  0
SPLINE
  5
11e
100
AcDbEntity
  8
Layer_1
 62
7
100
AcDbSpline
 70
8
 71
3
 72
8
 73
4
 74
0
 40
0
 40
0
 40
0
 40
0
 40
1
 40
1
 40
1
 40
1
 10
69.195656
 20
120.073815
 30
0.0
 10
69.350505
 20
120.487343
 30
0.0
 10
69.767057
 20
120.644213
 30
0.0
 10
69.840875
 20
120.316800
 30
0.0
  0
SPLINE
  5
11f
100
AcDbEntity
  8
Layer_1
 62
7
100
AcDbSpline
 70
8
 71
3
 72
8
 73
4
 74
0
 40
0
 40
0
 40
0
 40
0
 40
1
 40
1
 40
1
 40
1
 10
69.840875
 20
120.316800
 30
0.0
 10
69.867672
 20
120.197813
 30
0.0
 10
69.805655
 20
119.981175
 30
0.0
 10
69.702993
 20
119.835383
 30
0.0
  0
SPLINE
  5
120
100
AcDbEntity
  8
Layer_1
 62
7
100
AcDbSpline
 70
8
 71
3
 72
8
 73
4
 74
0
 40
0
 40
0
 40
0
 40
0
 40
1
 40
1
 40
1
 40
1
 10
69.702993
 20
119.835383
 30
0.0
 10
69.600333
 20
119.689583
 30
0.0
 10
69.539426
 20
119.467898
 30
0.0
 10
69.567642
 20
119.342745
 30
0.0
  0
SPLINE
  5
121
100
AcDbEntity
  8
Layer_1
 62
7
100
AcDbSpline
 70
8
 71
3
 72
8
 73
4
 74
0
 40
0
 40
0
 40
0
 40
0
 40
1
 40
1
 40
1
 40
1
 10
69.567642
 20
119.342745
 30
0.0
 10
69.642335
 20
119.011305
 30
0.0
 10
69.409668
 20
118.379640
 30
0.0
 10
69.166502
 20
118.253805
 30
0.0
  0
SPLINE
  5
122
100
AcDbEntity
  8
Layer_1
 62
7
100
AcDbSpline
 70
8
 71
3
 72
8
 73
4
 74
0
 40
0
 40
0
 40
0
 40
0
 40
1
 40
1
 40
1
 40
1
 10
69.166502
 20
118.253805
 30
0.0
 10
68.993849
 20
118.164458
 30
0.0
 10
68.988418
 20
118.108605
 30
0.0
 10
69.135827
 20
117.938190
 30
0.0
  0
SPLINE
  5
123
100
AcDbEntity
  8
Layer_1
 62
7
100
AcDbSpline
 70
8
 71
3
 72
8
 73
4
 74
0
 40
0
 40
0
 40
0
 40
0
 40
1
 40
1
 40
1
 40
1
 10
69.135827
 20
117.938190
 30
0.0
 10
69.404114
 20
117.628028
 30
0.0
 10
69.462362
 20
117.200775
 30
0.0
 10
69.286649
 20
116.831895
 30
0.0
  0
SPLINE
  5
124
100
AcDbEntity
  8
Layer_1
 62
7
100
AcDbSpline
 70
8
 71
3
 72
8
 73
4
 74
0
 40
0
 40
0
 40
0
 40
0
 40
1
 40
1
 40
1
 40
1
 10
69.286649
 20
116.831895
 30
0.0
 10
69.200403
 20
116.650845
 30
0.0
 10
69.078254
 20
116.270040
 30
0.0
 10
69.015205
 20
115.985670
 30
0.0
  0
SPLINE
  5
125
100
AcDbEntity
  8
Layer_1
 62
7
100
AcDbSpline
 70
8
 71
3
 72
8
 73
4
 74
0
 40
0
 40
0
 40
0
 40
0
 40
1
 40
1
 40
1
 40
1
 10
69.015205
 20
115.985670
 30
0.0
 10
68.948635
 20
115.685423
 30
0.0
 10
68.806349
 20
115.428630
 30
0.0
 10
68.675856
 20
115.373220
 30
0.0
  0
SPLINE
  5
126
100
AcDbEntity
  8
Layer_1
 62
7
100
AcDbSpline
 70
8
 71
3
 72
8
 73
4
 74
0
 40
0
 40
0
 40
0
 40
0
 40
1
 40
1
 40
1
 40
1
 10
68.675856
 20
115.373220
 30
0.0
 10
68.325677
 20
115.224525
 30
0.0
 10
68.026235
 20
114.703238
 30
0.0
 10
68.100862
 20
114.372240
 30
0.0
  0
SPLINE
  5
127
100
AcDbEntity
  8
Layer_1
 62
7
100
AcDbSpline
 70
8
 71
3
 72
8
 73
4
 74
0
 40
0
 40
0
 40
0
 40
0
 40
1
 40
1
 40
1
 40
1
 10
68.100862
 20
114.372240
 30
0.0
 10
68.149244
 20
114.157778
 30
0.0
 10
68.004917
 20
113.822715
 30
0.0
 10
67.595411
 20
113.198573
 30
0.0
  0
SPLINE
  5
128
100
AcDbEntity
  8
Layer_1
 62
7
100
AcDbSpline
 70
8
 71
3
 72
8
 73
4
 74
0
 40
0
 40
0
 40
0
 40
0
 40
1
 40
1
 40
1
 40
1
 10
67.595411
 20
113.198573
 30
0.0
 10
67.280195
 20
112.718130
 30
0.0
 10
66.862350
 20
111.948203
 30
0.0
 10
66.666870
 20
111.487605
 30
0.0
  0
SPLINE
  5
129
100
AcDbEntity
  8
Layer_1
 62
7
100
AcDbSpline
 70
8
 71
3
 72
8
 73
4
 74
0
 40
0
 40
0
 40
0
 40
0
 40
1
 40
1
 40
1
 40
1
 10
66.666870
 20
111.487605
 30
0.0
 10
66.471389
 20
111.027008
 30
0.0
 10
66.227246
 20
110.585243
 30
0.0
 10
66.124329
 20
110.505908
 30
0.0
  0
SPLINE
  5
12a
100
AcDbEntity
  8
Layer_1
 62
7
100
AcDbSpline
 70
8
 71
3
 72
8
 73
4
 74
0
 40
0
 40
0
 40
0
 40
0
 40
1
 40
1
 40
1
 40
1
 10
66.124329
 20
110.505908
 30
0.0
 10
65.902113
 20
110.334623
 30
0.0
 10
65.017284
 20
108.375600
 30
0.0
 10
65.065515
 20
108.161678
 30
0.0
  0
SPLINE
  5
12b
100
AcDbEntity
  8
Layer_1
 62
7
100
AcDbSpline
 70
8
 71
3
 72
8
 73
4
 74
0
 40
0
 40
0
 40
0
 40
0
 40
1
 40
1
 40
1
 40
1
 10
65.065515
 20
108.161678
 30
0.0
 10
65.083958
 20
108.080010
 30
0.0
 10
65.068740
 20
107.910098
 30
0.0
 10
65.031848
 20
107.784098
 30
0.0
  0
SPLINE
  5
12c
100
AcDbEntity
  8
Layer_1
 62
7
100
AcDbSpline
 70
8
 71
3
 72
8
 73
4
 74
0
 40
0
 40
0
 40
0
 40
0
 40
1
 40
1
 40
1
 40
1
 10
65.031848
 20
107.784098
 30
0.0
 10
64.994918
 20
107.658098
 30
0.0
 10
64.765602
 20
106.733903
 30
0.0
 10
64.522261
 20
105.730320
 30
0.0
  0
SPLINE
  5
12d
100
AcDbEntity
  8
Layer_1
 62
7
100
AcDbSpline
 70
8
 71
3
 72
8
 73
4
 74
0
 40
0
 40
0
 40
0
 40
0
 40
1
 40
1
 40
1
 40
1
 10
64.522261
 20
105.730320
 30
0.0
 10
64.278921
 20
104.726753
 30
0.0
 10
64.031100
 20
103.728323
 30
0.0
 10
63.971549
 20
103.511595
 30
0.0
  0
SPLINE
  5
12e
100
AcDbEntity
  8
Layer_1
 62
7
100
AcDbSpline
 70
8
 71
3
 72
8
 73
4
 74
0
 40
0
 40
0
 40
0
 40
0
 40
1
 40
1
 40
1
 40
1
 10
63.971549
 20
103.511595
 30
0.0
 10
63.911999
 20
103.294868
 30
0.0
 10
63.900636
 20
102.950318
 30
0.0
 10
63.946274
 20
102.745913
 30
0.0
  0
SPLINE
  5
12f
100
AcDbEntity
  8
Layer_1
 62
7
100
AcDbSpline
 70
8
 71
3
 72
8
 73
4
 74
0
 40
0
 40
0
 40
0
 40
0
 40
1
 40
1
 40
1
 40
1
 10
63.946274
 20
102.745913
 30
0.0
 10
64.062630
 20
102.225120
 30
0.0
 10
64.005644
 20
101.979165
 30
0.0
 10
63.755555
 20
101.922780
 30
0.0
  0
SPLINE
  5
130
100
AcDbEntity
  8
Layer_1
 62
7
100
AcDbSpline
 70
8
 71
3
 72
8
 73
4
 74
0
 40
0
 40
0
 40
0
 40
0
 40
1
 40
1
 40
1
 40
1
 10
63.755555
 20
101.922780
 30
0.0
 10
63.492854
 20
101.863905
 30
0.0
 10
63.398773
 20
101.634765
 30
0.0
 10
63.476102
 20
101.243730
 30
0.0
  0
SPLINE
  5
131
100
AcDbEntity
  8
Layer_1
 62
7
100
AcDbSpline
 70
8
 71
3
 72
8
 73
4
 74
0
 40
0
 40
0
 40
0
 40
0
 40
1
 40
1
 40
1
 40
1
 10
63.476102
 20
101.243730
 30
0.0
 10
63.666590
 20
100.280475
 30
0.0
 10
63.651622
 20
100.173960
 30
0.0
 10
63.206861
 20
99.327653
 30
0.0
  0
SPLINE
  5
132
100
AcDbEntity
  8
Layer_1
 62
7
100
AcDbSpline
 70
8
 71
3
 72
8
 73
4
 74
0
 40
0
 40
0
 40
0
 40
0
 40
1
 40
1
 40
1
 40
1
 10
63.206861
 20
99.327653
 30
0.0
 10
62.957897
 20
98.853923
 30
0.0
 10
62.638056
 20
98.182905
 30
0.0
 10
62.496101
 20
97.836510
 30
0.0
  0
SPLINE
  5
133
100
AcDbEntity
  8
Layer_1
 62
7
100
AcDbSpline
 70
8
 71
3
 72
8
 73
4
 74
0
 40
0
 40
0
 40
0
 40
0
 40
1
 40
1
 40
1
 40
1
 10
62.496101
 20
97.836510
 30
0.0
 10
62.195108
 20
97.102020
 30
0.0
 10
61.423884
 20
95.987828
 30
0.0
 10
61.171480
 20
95.922810
 30
0.0
  0
SPLINE
  5
134
100
AcDbEntity
  8
Layer_1
 62
7
100
AcDbSpline
 70
8
 71
3
 72
8
 73
4
 74
0
 40
0
 40
0
 40
0
 40
0
 40
1
 40
1
 40
1
 40
1
 10
61.171480
 20
95.922810
 30
0.0
 10
60.866129
 20
95.844233
 30
0.0
 10
59.771196
 20
93.936323
 30
0.0
 10
59.844581
 20
93.610830
 30
0.0
  0
SPLINE
  5
135
100
AcDbEntity
  8
Layer_1
 62
7
100
AcDbSpline
 70
8
 71
3
 72
8
 73
4
 74
0
 40
0
 40
0
 40
0
 40
0
 40
1
 40
1
 40
1
 40
1
 10
59.844581
 20
93.610830
 30
0.0
 10
59.904176
 20
93.346440
 30
0.0
 10
59.460638
 20
92.552348
 30
0.0
 10
59.268958
 20
92.580270
 30
0.0
  0
SPLINE
  5
136
100
AcDbEntity
  8
Layer_1
 62
7
100
AcDbSpline
 70
8
 71
3
 72
8
 73
4
 74
0
 40
0
 40
0
 40
0
 40
0
 40
1
 40
1
 40
1
 40
1
 10
59.268958
 20
92.580270
 30
0.0
 10
58.316570
 20
91.814993
 30
0.0
 10
59.733998
 20
94.427258
 30
0.0
 10
59.123355
 20
92.823825
 30
0.0
  0
SPLINE
  5
137
100
AcDbEntity
  8
Layer_1
 62
7
100
AcDbSpline
 70
8
 71
3
 72
8
 73
4
 74
0
 40
0
 40
0
 40
0
 40
0
 40
1
 40
1
 40
1
 40
1
 10
59.123355
 20
92.823825
 30
0.0
 10
59.250572
 20
92.743425
 30
0.0
 10
59.570994
 20
93.225728
 30
0.0
 10
59.463336
 20
93.335580
 30
0.0
  0
SPLINE
  5
138
100
AcDbEntity
  8
Layer_1
 62
7
100
AcDbSpline
 70
8
 71
3
 72
8
 73
4
 74
0
 40
0
 40
0
 40
0
 40
0
 40
1
 40
1
 40
1
 40
1
 10
59.463336
 20
93.335580
 30
0.0
 10
59.414864
 20
93.385005
 30
0.0
 10
59.448359
 20
93.426765
 30
0.0
 10
59.537744
 20
93.428295
 30
0.0
  0
SPLINE
  5
139
100
AcDbEntity
  8
Layer_1
 62
7
100
AcDbSpline
 70
8
 71
3
 72
8
 73
4
 74
0
 40
0
 40
0
 40
0
 40
0
 40
1
 40
1
 40
1
 40
1
 10
59.537744
 20
93.428295
 30
0.0
 10
59.640545
 20
93.429795
 30
0.0
 10
59.682260
 20
93.573878
 30
0.0
 10
59.651243
 20
93.819563
 30
0.0
  0
SPLINE
  5
13a
100
AcDbEntity
  8
Layer_1
 62
7
100
AcDbSpline
 70
8
 71
3
 72
8
 73
4
 74
0
 40
0
 40
0
 40
0
 40
0
 40
1
 40
1
 40
1
 40
1
 10
59.651243
 20
93.819563
 30
0.0
 10
59.611793
 20
94.132065
 30
0.0
 10
59.569210
 20
94.186050
 30
0.0
 10
59.433596
 20
94.095615
 30
0.0
  0
SPLINE
  5
13b
100
AcDbEntity
  8
Layer_1
 62
7
100
AcDbSpline
 70
8
 71
3
 72
8
 73
4
 74
0
 40
0
 40
0
 40
0
 40
0
 40
1
 40
1
 40
1
 40
1
 10
59.433596
 20
94.095615
 30
0.0
 10
59.209440
 20
93.946125
 30
0.0
 10
59.258327
 20
94.299945
 30
0.0
 10
59.525452
 20
94.760430
 30
0.0
  0
SPLINE
  5
13c
100
AcDbEntity
  8
Layer_1
 62
7
100
AcDbSpline
 70
8
 71
3
 72
8
 73
4
 74
0
 40
0
 40
0
 40
0
 40
0
 40
1
 40
1
 40
1
 40
1
 10
59.525452
 20
94.760430
 30
0.0
 10
59.759063
 20
95.163135
 30
0.0
 10
60.102308
 20
95.313930
 30
0.0
 10
59.894664
 20
94.922663
 30
0.0
  0
SPLINE
  5
13d
100
AcDbEntity
  8
Layer_1
 62
7
100
AcDbSpline
 70
8
 71
3
 72
8
 73
4
 74
0
 40
0
 40
0
 40
0
 40
0
 40
1
 40
1
 40
1
 40
1
 10
59.894664
 20
94.922663
 30
0.0
 10
59.823182
 20
94.787955
 30
0.0
 10
59.750879
 20
94.565033
 30
0.0
 10
59.733988
 20
94.427288
 30
0.0
  0
SPLINE
  5
13e
100
AcDbEntity
  8
Layer_1
 62
7
100
AcDbSpline
 70
8
 71
3
 72
8
 73
4
 74
0
 40
0
 40
0
 40
0
 40
0
 40
1
 40
1
 40
1
 40
1
 10
59.733988
 20
94.427288
 30
0.0
 10
59.706770
 20
94.205340
 30
0.0
 10
59.957150
 20
94.582860
 30
0.0
 10
60.555122
 20
95.665410
 30
0.0
  0
LWPOLYLINE
  5
13f
100
AcDbEntity
  8
Layer_1
 62
7
100
AcDbPolyline
 90
3
 70
0
 10
67.479242
 20
118.222403
 30
0.0
 10
67.753669
 20
118.371420
 30
0.0
 10
67.509427
 20
118.092150
 30
0.0
  0
SPLINE
  5
140
100
AcDbEntity
  8
Layer_1
 62
7
100
AcDbSpline
 70
8
 71
3
 72
8
 73
4
 74
0
 40
0
 40
0
 40
0
 40
0
 40
1
 40
1
 40
1
 40
1
 10
60.501969
 20
95.785958
 30
0.0
 10
60.153179
 20
95.489325
 30
0.0
 10
60.005696
 20
95.491268
 30
0.0
 10
60.088643
 20
95.791208
 30
0.0
  0
SPLINE
  5
141
100
AcDbEntity
  8
Layer_1
 62
7
100
AcDbSpline
 70
8
 71
3
 72
8
 73
4
 74
0
 40
0
 40
0
 40
0
 40
0
 40
1
 40
1
 40
1
 40
1
 10
60.088643
 20
95.791208
 30
0.0
 10
60.148853
 20
96.009053
 30
0.0
 10
60.214355
 20
96.040605
 30
0.0
 10
60.531311
 20
96.004418
 30
0.0
  0
SPLINE
  5
142
100
AcDbEntity
  8
Layer_1
 62
7
100
AcDbSpline
 70
8
 71
3
 72
8
 73
4
 74
0
 40
0
 40
0
 40
0
 40
0
 40
1
 40
1
 40
1
 40
1
 10
60.531311
 20
96.004418
 30
0.0
 10
60.943409
 20
95.957318
 30
0.0
 10
61.536138
 20
96.328605
 30
0.0
 10
61.428159
 20
96.566138
 30
0.0
  0
SPLINE
  5
143
100
AcDbEntity
  8
Layer_1
 62
7
100
AcDbSpline
 70
8
 71
3
 72
8
 73
4
 74
0
 40
0
 40
0
 40
0
 40
0
 40
1
 40
1
 40
1
 40
1
 10
61.428159
 20
96.566138
 30
0.0
 10
61.396007
 20
96.636863
 30
0.0
 10
61.445319
 20
96.971355
 30
0.0
 10
61.537799
 20
97.309440
 30
0.0
  0
SPLINE
  5
144
100
AcDbEntity
  8
Layer_1
 62
7
100
AcDbSpline
 70
8
 71
3
 72
8
 73
4
 74
0
 40
0
 40
0
 40
0
 40
0
 40
1
 40
1
 40
1
 40
1
 10
61.537799
 20
97.309440
 30
0.0
 10
61.630256
 20
97.647525
 30
0.0
 10
61.678925
 20
98.043795
 30
0.0
 10
61.645953
 20
98.190038
 30
0.0
  0
SPLINE
  5
145
100
AcDbEntity
  8
Layer_1
 62
7
100
AcDbSpline
 70
8
 71
3
 72
8
 73
4
 74
0
 40
0
 40
0
 40
0
 40
0
 40
1
 40
1
 40
1
 40
1
 10
61.645953
 20
98.190038
 30
0.0
 10
61.612953
 20
98.336265
 30
0.0
 10
61.643628
 20
98.490750
 30
0.0
 10
61.714091
 20
98.533313
 30
0.0
  0
SPLINE
  5
146
100
AcDbEntity
  8
Layer_1
 62
7
100
AcDbSpline
 70
8
 71
3
 72
8
 73
4
 74
0
 40
0
 40
0
 40
0
 40
0
 40
1
 40
1
 40
1
 40
1
 10
61.714091
 20
98.533313
 30
0.0
 10
61.784531
 20
98.575838
 30
0.0
 10
61.871518
 20
98.808023
 30
0.0
 10
61.907388
 20
99.049193
 30
0.0
  0
LWPOLYLINE
  5
147
100
AcDbEntity
  8
Layer_1
 62
7
100
AcDbPolyline
 90
3
 70
0
 10
60.555122
 20
95.665410
 30
0.0
 10
60.727793
 20
95.978010
 30
0.0
 10
60.501969
 20
95.785958
 30
0.0
  0
SPLINE
  5
148
100
AcDbEntity
  8
Layer_1
 62
7
100
AcDbSpline
 70
8
 71
3
 72
8
 73
4
 74
0
 40
0
 40
0
 40
0
 40
0
 40
1
 40
1
 40
1
 40
1
 10
62.001866
 20
99.071138
 30
0.0
 10
62.017961
 20
98.842035
 30
0.0
 10
61.972173
 20
98.550120
 30
0.0
 10
61.900115
 20
98.422455
 30
0.0
  0
SPLINE
  5
149
100
AcDbEntity
  8
Layer_1
 62
7
100
AcDbSpline
 70
8
 71
3
 72
8
 73
4
 74
0
 40
0
 40
0
 40
0
 40
0
 40
1
 40
1
 40
1
 40
1
 10
61.900115
 20
98.422455
 30
0.0
 10
61.828063
 20
98.294775
 30
0.0
 10
61.802016
 20
98.044328
 30
0.0
 10
61.842245
 20
97.865895
 30
0.0
  0
SPLINE
  5
14a
100
AcDbEntity
  8
Layer_1
 62
7
100
AcDbSpline
 70
8
 71
3
 72
8
 73
4
 74
0
 40
0
 40
0
 40
0
 40
0
 40
1
 40
1
 40
1
 40
1
 10
61.842245
 20
97.865895
 30
0.0
 10
61.882430
 20
97.687455
 30
0.0
 10
61.837370
 20
97.349010
 30
0.0
 10
61.742104
 20
97.113765
 30
0.0
  0
LWPOLYLINE
  5
14b
100
AcDbEntity
  8
Layer_1
 62
7
100
AcDbPolyline
 90
3
 70
0
 10
61.907388
 20
99.049193
 30
0.0
 10
61.972601
 20
99.487695
 30
0.0
 10
62.001866
 20
99.071138
 30
0.0
  0
SPLINE
  5
14c
100
AcDbEntity
  8
Layer_1
 62
7
100
AcDbSpline
 70
8
 71
3
 72
8
 73
4
 74
0
 40
0
 40
0
 40
0
 40
0
 40
1
 40
1
 40
1
 40
1
 10
61.786266
 20
96.981488
 30
0.0
 10
61.905863
 20
97.143983
 30
0.0
 10
62.111469
 20
97.550730
 30
0.0
 10
62.243174
 20
97.885358
 30
0.0
  0
SPLINE
  5
14d
100
AcDbEntity
  8
Layer_1
 62
7
100
AcDbSpline
 70
8
 71
3
 72
8
 73
4
 74
0
 40
0
 40
0
 40
0
 40
0
 40
1
 40
1
 40
1
 40
1
 10
62.243174
 20
97.885358
 30
0.0
 10
62.374874
 20
98.220000
 30
0.0
 10
62.675624
 20
98.858573
 30
0.0
 10
62.911505
 20
99.304418
 30
0.0
  0
SPLINE
  5
14e
100
AcDbEntity
  8
Layer_1
 62
7
100
AcDbSpline
 70
8
 71
3
 72
8
 73
4
 74
0
 40
0
 40
0
 40
0
 40
0
 40
1
 40
1
 40
1
 40
1
 10
62.911505
 20
99.304418
 30
0.0
 10
63.224444
 20
99.895905
 30
0.0
 10
63.334720
 20
100.267680
 30
0.0
 10
63.319445
 20
100.679723
 30
0.0
  0
SPLINE
  5
14f
100
AcDbEntity
  8
Layer_1
 62
7
100
AcDbSpline
 70
8
 71
3
 72
8
 73
4
 74
0
 40
0
 40
0
 40
0
 40
0
 40
1
 40
1
 40
1
 40
1
 10
63.319445
 20
100.679723
 30
0.0
 10
63.292460
 20
101.407553
 30
0.0
 10
63.212279
 20
101.454525
 30
0.0
 10
63.160802
 20
100.772670
 30
0.0
  0
SPLINE
  5
150
100
AcDbEntity
  8
Layer_1
 62
7
100
AcDbSpline
 70
8
 71
3
 72
8
 73
4
 74
0
 40
0
 40
0
 40
0
 40
0
 40
1
 40
1
 40
1
 40
1
 10
63.160802
 20
100.772670
 30
0.0
 10
63.121300
 20
100.249403
 30
0.0
 10
62.653157
 20
98.840033
 30
0.0
 10
62.508151
 20
98.807813
 30
0.0
  0
SPLINE
  5
151
100
AcDbEntity
  8
Layer_1
 62
7
100
AcDbSpline
 70
8
 71
3
 72
8
 73
4
 74
0
 40
0
 40
0
 40
0
 40
0
 40
1
 40
1
 40
1
 40
1
 10
62.508151
 20
98.807813
 30
0.0
 10
62.467643
 20
98.798663
 30
0.0
 10
62.389304
 20
98.961360
 30
0.0
 10
62.334139
 20
99.169013
 30
0.0
  0
SPLINE
  5
152
100
AcDbEntity
  8
Layer_1
 62
7
100
AcDbSpline
 70
8
 71
3
 72
8
 73
4
 74
0
 40
0
 40
0
 40
0
 40
0
 40
1
 40
1
 40
1
 40
1
 10
62.334139
 20
99.169013
 30
0.0
 10
62.278999
 20
99.376688
 30
0.0
 10
62.278961
 20
99.457883
 30
0.0
 10
62.334113
 20
99.349455
 30
0.0
  0
SPLINE
  5
153
100
AcDbEntity
  8
Layer_1
 62
7
100
AcDbSpline
 70
8
 71
3
 72
8
 73
4
 74
0
 40
0
 40
0
 40
0
 40
0
 40
1
 40
1
 40
1
 40
1
 10
62.334113
 20
99.349455
 30
0.0
 10
62.422321
 20
99.175995
 30
0.0
 10
62.454422
 20
99.194408
 30
0.0
 10
62.601338
 20
99.502650
 30
0.0
  0
SPLINE
  5
154
100
AcDbEntity
  8
Layer_1
 62
7
100
AcDbSpline
 70
8
 71
3
 72
8
 73
4
 74
0
 40
0
 40
0
 40
0
 40
0
 40
1
 40
1
 40
1
 40
1
 10
62.601338
 20
99.502650
 30
0.0
 10
62.843089
 20
100.009868
 30
0.0
 10
63.019070
 20
101.324355
 30
0.0
 10
62.893956
 20
101.688338
 30
0.0
  0
SPLINE
  5
155
100
AcDbEntity
  8
Layer_1
 62
7
100
AcDbSpline
 70
8
 71
3
 72
8
 73
4
 74
0
 40
0
 40
0
 40
0
 40
0
 40
1
 40
1
 40
1
 40
1
 10
62.893956
 20
101.688338
 30
0.0
 10
62.762748
 20
102.070058
 30
0.0
 10
62.141346
 20
102.421155
 30
0.0
 10
61.752239
 20
102.333435
 30
0.0
  0
SPLINE
  5
156
100
AcDbEntity
  8
Layer_1
 62
7
100
AcDbSpline
 70
8
 71
3
 72
8
 73
4
 74
0
 40
0
 40
0
 40
0
 40
0
 40
1
 40
1
 40
1
 40
1
 10
61.752239
 20
102.333435
 30
0.0
 10
61.594610
 20
102.297960
 30
0.0
 10
61.452205
 20
102.328185
 30
0.0
 10
61.435760
 20
102.401385
 30
0.0
  0
SPLINE
  5
157
100
AcDbEntity
  8
Layer_1
 62
7
100
AcDbSpline
 70
8
 71
3
 72
8
 73
4
 74
0
 40
0
 40
0
 40
0
 40
0
 40
1
 40
1
 40
1
 40
1
 10
61.435760
 20
102.401385
 30
0.0
 10
61.381737
 20
102.641078
 30
0.0
 10
62.274867
 20
102.599760
 30
0.0
 10
62.700999
 20
102.343260
 30
0.0
  0
SPLINE
  5
158
100
AcDbEntity
  8
Layer_1
 62
7
100
AcDbSpline
 70
8
 71
3
 72
8
 73
4
 74
0
 40
0
 40
0
 40
0
 40
0
 40
1
 40
1
 40
1
 40
1
 10
62.700999
 20
102.343260
 30
0.0
 10
63.011231
 20
102.156353
 30
0.0
 10
63.132549
 20
102.138180
 30
0.0
 10
63.213630
 20
102.266438
 30
0.0
  0
SPLINE
  5
159
100
AcDbEntity
  8
Layer_1
 62
7
100
AcDbSpline
 70
8
 71
3
 72
8
 73
4
 74
0
 40
0
 40
0
 40
0
 40
0
 40
1
 40
1
 40
1
 40
1
 10
63.213630
 20
102.266438
 30
0.0
 10
63.286905
 20
102.382388
 30
0.0
 10
63.373111
 20
102.407378
 30
0.0
 10
63.491605
 20
102.347048
 30
0.0
  0
SPLINE
  5
15a
100
AcDbEntity
  8
Layer_1
 62
7
100
AcDbSpline
 70
8
 71
3
 72
8
 73
4
 74
0
 40
0
 40
0
 40
0
 40
0
 40
1
 40
1
 40
1
 40
1
 10
63.491605
 20
102.347048
 30
0.0
 10
63.624088
 20
102.279623
 30
0.0
 10
63.636336
 20
102.469050
 30
0.0
 10
63.545170
 20
103.175633
 30
0.0
  0
SPLINE
  5
15b
100
AcDbEntity
  8
Layer_1
 62
7
100
AcDbSpline
 70
8
 71
3
 72
8
 73
4
 74
0
 40
0
 40
0
 40
0
 40
0
 40
1
 40
1
 40
1
 40
1
 10
63.545170
 20
103.175633
 30
0.0
 10
63.480167
 20
103.679468
 30
0.0
 10
63.480167
 20
104.037413
 30
0.0
 10
63.545184
 20
103.971075
 30
0.0
  0
SPLINE
  5
15c
100
AcDbEntity
  8
Layer_1
 62
7
100
AcDbSpline
 70
8
 71
3
 72
8
 73
4
 74
0
 40
0
 40
0
 40
0
 40
0
 40
1
 40
1
 40
1
 40
1
 10
63.545184
 20
103.971075
 30
0.0
 10
63.620229
 20
103.894515
 30
0.0
 10
63.659624
 20
103.965825
 30
0.0
 10
63.653068
 20
104.164395
 30
0.0
  0
SPLINE
  5
15d
100
AcDbEntity
  8
Layer_1
 62
7
100
AcDbSpline
 70
8
 71
3
 72
8
 73
4
 74
0
 40
0
 40
0
 40
0
 40
0
 40
1
 40
1
 40
1
 40
1
 10
63.653068
 20
104.164395
 30
0.0
 10
63.640093
 20
104.559173
 30
0.0
 10
63.289205
 20
104.773770
 30
0.0
 10
62.823999
 20
104.671440
 30
0.0
  0
SPLINE
  5
15e
100
AcDbEntity
  8
Layer_1
 62
7
100
AcDbSpline
 70
8
 71
3
 72
8
 73
4
 74
0
 40
0
 40
0
 40
0
 40
0
 40
1
 40
1
 40
1
 40
1
 10
62.823999
 20
104.671440
 30
0.0
 10
62.222108
 20
104.539058
 30
0.0
 10
62.148660
 20
104.662590
 30
0.0
 10
62.469887
 20
105.267375
 30
0.0
  0
SPLINE
  5
15f
100
AcDbEntity
  8
Layer_1
 62
7
100
AcDbSpline
 70
8
 71
3
 72
8
 73
4
 74
0
 40
0
 40
0
 40
0
 40
0
 40
1
 40
1
 40
1
 40
1
 10
62.469887
 20
105.267375
 30
0.0
 10
63.546740
 20
107.294558
 30
0.0
 10
63.480968
 20
107.101050
 30
0.0
 10
63.175229
 20
107.342475
 30
0.0
  0
SPLINE
  5
160
100
AcDbEntity
  8
Layer_1
 62
7
100
AcDbSpline
 70
8
 71
3
 72
8
 73
4
 74
0
 40
0
 40
0
 40
0
 40
0
 40
1
 40
1
 40
1
 40
1
 10
63.175229
 20
107.342475
 30
0.0
 10
62.962737
 20
107.510265
 30
0.0
 10
62.885361
 20
107.519910
 30
0.0
 10
62.838683
 20
107.384400
 30
0.0
  0
SPLINE
  5
161
100
AcDbEntity
  8
Layer_1
 62
7
100
AcDbSpline
 70
8
 71
3
 72
8
 73
4
 74
0
 40
0
 40
0
 40
0
 40
0
 40
1
 40
1
 40
1
 40
1
 10
62.838683
 20
107.384400
 30
0.0
 10
62.795678
 20
107.259623
 30
0.0
 10
62.816918
 20
107.246565
 30
0.0
 10
62.911718
 20
107.339475
 30
0.0
  0
SPLINE
  5
162
100
AcDbEntity
  8
Layer_1
 62
7
100
AcDbSpline
 70
8
 71
3
 72
8
 73
4
 74
0
 40
0
 40
0
 40
0
 40
0
 40
1
 40
1
 40
1
 40
1
 10
62.911718
 20
107.339475
 30
0.0
 10
63.141979
 20
107.565143
 30
0.0
 10
63.021323
 20
107.165670
 30
0.0
 10
62.388644
 20
105.607680
 30
0.0
  0
SPLINE
  5
163
100
AcDbEntity
  8
Layer_1
 62
7
100
AcDbSpline
 70
8
 71
3
 72
8
 73
4
 74
0
 40
0
 40
0
 40
0
 40
0
 40
1
 40
1
 40
1
 40
1
 10
62.388644
 20
105.607680
 30
0.0
 10
61.743311
 20
104.018535
 30
0.0
 10
61.372583
 20
103.235048
 30
0.0
 10
61.337509
 20
103.386255
 30
0.0
  0
SPLINE
  5
164
100
AcDbEntity
  8
Layer_1
 62
7
100
AcDbSpline
 70
8
 71
3
 72
8
 73
4
 74
0
 40
0
 40
0
 40
0
 40
0
 40
1
 40
1
 40
1
 40
1
 10
61.337509
 20
103.386255
 30
0.0
 10
61.325456
 20
103.438080
 30
0.0
 10
61.456199
 20
103.855673
 30
0.0
 10
61.627981
 20
104.314223
 30
0.0
  0
SPLINE
  5
165
100
AcDbEntity
  8
Layer_1
 62
7
100
AcDbSpline
 70
8
 71
3
 72
8
 73
4
 74
0
 40
0
 40
0
 40
0
 40
0
 40
1
 40
1
 40
1
 40
1
 10
61.627981
 20
104.314223
 30
0.0
 10
61.890840
 20
105.015870
 30
0.0
 10
61.897484
 20
105.069968
 30
0.0
 10
61.669928
 20
104.655743
 30
0.0
  0
SPLINE
  5
166
100
AcDbEntity
  8
Layer_1
 62
7
100
AcDbSpline
 70
8
 71
3
 72
8
 73
4
 74
0
 40
0
 40
0
 40
0
 40
0
 40
1
 40
1
 40
1
 40
1
 10
61.669928
 20
104.655743
 30
0.0
 10
61.258374
 20
103.906560
 30
0.0
 10
60.974707
 20
103.148738
 30
0.0
 10
61.080746
 20
103.081710
 30
0.0
  0
SPLINE
  5
167
100
AcDbEntity
  8
Layer_1
 62
7
100
AcDbSpline
 70
8
 71
3
 72
8
 73
4
 74
0
 40
0
 40
0
 40
0
 40
0
 40
1
 40
1
 40
1
 40
1
 10
61.080746
 20
103.081710
 30
0.0
 10
61.132961
 20
103.048710
 30
0.0
 10
61.310519
 20
103.177778
 30
0.0
 10
61.475296
 20
103.368555
 30
0.0
  0
SPLINE
  5
168
100
AcDbEntity
  8
Layer_1
 62
7
100
AcDbSpline
 70
8
 71
3
 72
8
 73
4
 74
0
 40
0
 40
0
 40
0
 40
0
 40
1
 40
1
 40
1
 40
1
 10
61.475296
 20
103.368555
 30
0.0
 10
61.847443
 20
103.799423
 30
0.0
 10
62.009089
 20
103.737840
 30
0.0
 10
61.699551
 20
103.283130
 30
0.0
  0
SPLINE
  5
169
100
AcDbEntity
  8
Layer_1
 62
7
100
AcDbSpline
 70
8
 71
3
 72
8
 73
4
 74
0
 40
0
 40
0
 40
0
 40
0
 40
1
 40
1
 40
1
 40
1
 10
61.699551
 20
103.283130
 30
0.0
 10
61.573923
 20
103.098585
 30
0.0
 10
61.425545
 20
102.770843
 30
0.0
 10
61.369817
 20
102.554828
 30
0.0
  0
SPLINE
  5
16a
100
AcDbEntity
  8
Layer_1
 62
7
100
AcDbSpline
 70
8
 71
3
 72
8
 73
4
 74
0
 40
0
 40
0
 40
0
 40
0
 40
1
 40
1
 40
1
 40
1
 10
61.369817
 20
102.554828
 30
0.0
 10
61.253066
 20
102.102248
 30
0.0
 10
60.890820
 20
101.539358
 30
0.0
 10
60.845546
 20
101.740163
 30
0.0
  0
SPLINE
  5
16b
100
AcDbEntity
  8
Layer_1
 62
7
100
AcDbSpline
 70
8
 71
3
 72
8
 73
4
 74
0
 40
0
 40
0
 40
0
 40
0
 40
1
 40
1
 40
1
 40
1
 10
60.845546
 20
101.740163
 30
0.0
 10
60.828784
 20
101.814638
 30
0.0
 10
60.744668
 20
101.859728
 30
0.0
 10
60.658682
 20
101.840340
 30
0.0
  0
SPLINE
  5
16c
100
AcDbEntity
  8
Layer_1
 62
7
100
AcDbSpline
 70
8
 71
3
 72
8
 73
4
 74
0
 40
0
 40
0
 40
0
 40
0
 40
1
 40
1
 40
1
 40
1
 10
60.658682
 20
101.840340
 30
0.0
 10
60.572724
 20
101.820840
 30
0.0
 10
60.484505
 20
101.884215
 30
0.0
 10
60.462696
 20
101.980965
 30
0.0
  0
SPLINE
  5
16d
100
AcDbEntity
  8
Layer_1
 62
7
100
AcDbSpline
 70
8
 71
3
 72
8
 73
4
 74
0
 40
0
 40
0
 40
0
 40
0
 40
1
 40
1
 40
1
 40
1
 10
60.462696
 20
101.980965
 30
0.0
 10
60.409679
 20
102.216255
 30
0.0
 10
60.697043
 20
102.271283
 30
0.0
 10
60.798524
 20
102.045315
 30
0.0
  0
SPLINE
  5
16e
100
AcDbEntity
  8
Layer_1
 62
7
100
AcDbSpline
 70
8
 71
3
 72
8
 73
4
 74
0
 40
0
 40
0
 40
0
 40
0
 40
1
 40
1
 40
1
 40
1
 10
60.798524
 20
102.045315
 30
0.0
 10
60.857939
 20
101.913000
 30
0.0
 10
60.926298
 20
101.976015
 30
0.0
 10
61.064105
 20
102.290010
 30
0.0
  0
SPLINE
  5
16f
100
AcDbEntity
  8
Layer_1
 62
7
100
AcDbSpline
 70
8
 71
3
 72
8
 73
4
 74
0
 40
0
 40
0
 40
0
 40
0
 40
1
 40
1
 40
1
 40
1
 10
61.064105
 20
102.290010
 30
0.0
 10
61.208120
 20
102.618173
 30
0.0
 10
61.210328
 20
102.704003
 30
0.0
 10
61.073945
 20
102.673268
 30
0.0
  0
SPLINE
  5
170
100
AcDbEntity
  8
Layer_1
 62
7
100
AcDbSpline
 70
8
 71
3
 72
8
 73
4
 74
0
 40
0
 40
0
 40
0
 40
0
 40
1
 40
1
 40
1
 40
1
 10
61.073945
 20
102.673268
 30
0.0
 10
60.957821
 20
102.647168
 30
0.0
 10
60.908771
 20
102.705968
 30
0.0
 10
60.929299
 20
102.846855
 30
0.0
  0
SPLINE
  5
171
100
AcDbEntity
  8
Layer_1
 62
7
100
AcDbSpline
 70
8
 71
3
 72
8
 73
4
 74
0
 40
0
 40
0
 40
0
 40
0
 40
1
 40
1
 40
1
 40
1
 10
60.929299
 20
102.846855
 30
0.0
 10
60.952826
 20
103.008375
 30
0.0
 10
60.916909
 20
103.031085
 30
0.0
 10
60.781107
 20
102.940523
 30
0.0
  0
SPLINE
  5
172
100
AcDbEntity
  8
Layer_1
 62
7
100
AcDbSpline
 70
8
 71
3
 72
8
 73
4
 74
0
 40
0
 40
0
 40
0
 40
0
 40
1
 40
1
 40
1
 40
1
 10
60.781107
 20
102.940523
 30
0.0
 10
60.682513
 20
102.874748
 30
0.0
 10
60.590333
 20
102.872048
 30
0.0
 10
60.576243
 20
102.934523
 30
0.0
  0
SPLINE
  5
173
100
AcDbEntity
  8
Layer_1
 62
7
100
AcDbSpline
 70
8
 71
3
 72
8
 73
4
 74
0
 40
0
 40
0
 40
0
 40
0
 40
1
 40
1
 40
1
 40
1
 10
60.576243
 20
102.934523
 30
0.0
 10
60.562188
 20
102.996998
 30
0.0
 10
60.606513
 20
103.060695
 30
0.0
 10
60.674809
 20
103.076093
 30
0.0
  0
SPLINE
  5
174
100
AcDbEntity
  8
Layer_1
 62
7
100
AcDbSpline
 70
8
 71
3
 72
8
 73
4
 74
0
 40
0
 40
0
 40
0
 40
0
 40
1
 40
1
 40
1
 40
1
 10
60.674809
 20
103.076093
 30
0.0
 10
60.743156
 20
103.091243
 30
0.0
 10
60.760946
 20
103.142843
 30
0.0
 10
60.714454
 20
103.190325
 30
0.0
  0
SPLINE
  5
175
100
AcDbEntity
  8
Layer_1
 62
7
100
AcDbSpline
 70
8
 71
3
 72
8
 73
4
 74
0
 40
0
 40
0
 40
0
 40
0
 40
1
 40
1
 40
1
 40
1
 10
60.714454
 20
103.190325
 30
0.0
 10
60.667954
 20
103.237800
 30
0.0
 10
60.736969
 20
103.433520
 30
0.0
 10
60.867790
 20
103.625325
 30
0.0
  0
SPLINE
  5
176
100
AcDbEntity
  8
Layer_1
 62
7
100
AcDbSpline
 70
8
 71
3
 72
8
 73
4
 74
0
 40
0
 40
0
 40
0
 40
0
 40
1
 40
1
 40
1
 40
1
 10
60.867790
 20
103.625325
 30
0.0
 10
60.998612
 20
103.817145
 30
0.0
 10
61.213903
 20
104.197868
 30
0.0
 10
61.346214
 20
104.471370
 30
0.0
  0
SPLINE
  5
177
100
AcDbEntity
  8
Layer_1
 62
7
100
AcDbSpline
 70
8
 71
3
 72
8
 73
4
 74
0
 40
0
 40
0
 40
0
 40
0
 40
1
 40
1
 40
1
 40
1
 10
61.346214
 20
104.471370
 30
0.0
 10
61.563299
 20
104.920125
 30
0.0
 10
61.565813
 20
105.007853
 30
0.0
 10
61.371977
 20
105.370253
 30
0.0
  0
SPLINE
  5
178
100
AcDbEntity
  8
Layer_1
 62
7
100
AcDbSpline
 70
8
 71
3
 72
8
 73
4
 74
0
 40
0
 40
0
 40
0
 40
0
 40
1
 40
1
 40
1
 40
1
 10
61.371977
 20
105.370253
 30
0.0
 10
61.228376
 20
105.638738
 30
0.0
 10
61.031161
 20
105.804773
 30
0.0
 10
60.777011
 20
105.871163
 30
0.0
  0
SPLINE
  5
179
100
AcDbEntity
  8
Layer_1
 62
7
100
AcDbSpline
 70
8
 71
3
 72
8
 73
4
 74
0
 40
0
 40
0
 40
0
 40
0
 40
1
 40
1
 40
1
 40
1
 10
60.777011
 20
105.871163
 30
0.0
 10
60.365006
 20
105.978780
 30
0.0
 10
60.089372
 20
105.967635
 30
0.0
 10
60.402496
 20
105.856013
 30
0.0
  0
SPLINE
  5
17a
100
AcDbEntity
  8
Layer_1
 62
7
100
AcDbSpline
 70
8
 71
3
 72
8
 73
4
 74
0
 40
0
 40
0
 40
0
 40
0
 40
1
 40
1
 40
1
 40
1
 10
60.402496
 20
105.856013
 30
0.0
 10
60.691172
 20
105.753105
 30
0.0
 10
60.454838
 20
105.367470
 30
0.0
 10
60.046706
 20
105.275460
 30
0.0
  0
SPLINE
  5
17b
100
AcDbEntity
  8
Layer_1
 62
7
100
AcDbSpline
 70
8
 71
3
 72
8
 73
4
 74
0
 40
0
 40
0
 40
0
 40
0
 40
1
 40
1
 40
1
 40
1
 10
60.046706
 20
105.275460
 30
0.0
 10
59.702051
 20
105.198068
 30
0.0
 10
58.900259
 20
104.308125
 30
0.0
 10
59.001382
 20
104.115705
 30
0.0
  0
SPLINE
  5
17c
100
AcDbEntity
  8
Layer_1
 62
7
100
AcDbSpline
 70
8
 71
3
 72
8
 73
4
 74
0
 40
0
 40
0
 40
0
 40
0
 40
1
 40
1
 40
1
 40
1
 10
59.001382
 20
104.115705
 30
0.0
 10
59.033212
 20
104.055180
 30
0.0
 10
59.219941
 20
103.967640
 30
0.0
 10
59.416316
 20
103.921320
 30
0.0
  0
SPLINE
  5
17d
100
AcDbEntity
  8
Layer_1
 62
7
100
AcDbSpline
 70
8
 71
3
 72
8
 73
4
 74
0
 40
0
 40
0
 40
0
 40
0
 40
1
 40
1
 40
1
 40
1
 10
59.416316
 20
103.921320
 30
0.0
 10
59.932887
 20
103.799460
 30
0.0
 10
60.694373
 20
102.957278
 30
0.0
 10
60.356804
 20
102.881168
 30
0.0
  0
SPLINE
  5
17e
100
AcDbEntity
  8
Layer_1
 62
7
100
AcDbSpline
 70
8
 71
3
 72
8
 73
4
 74
0
 40
0
 40
0
 40
0
 40
0
 40
1
 40
1
 40
1
 40
1
 10
60.356804
 20
102.881168
 30
0.0
 10
60.300224
 20
102.868118
 30
0.0
 10
60.150934
 20
103.003703
 30
0.0
 10
60.025238
 20
103.181858
 30
0.0
  0
SPLINE
  5
17f
100
AcDbEntity
  8
Layer_1
 62
7
100
AcDbSpline
 70
8
 71
3
 72
8
 73
4
 74
0
 40
0
 40
0
 40
0
 40
0
 40
1
 40
1
 40
1
 40
1
 10
60.025238
 20
103.181858
 30
0.0
 10
59.780318
 20
103.528988
 30
0.0
 10
59.121320
 20
103.772115
 30
0.0
 10
58.873433
 20
103.606800
 30
0.0
  0
SPLINE
  5
180
100
AcDbEntity
  8
Layer_1
 62
7
100
AcDbSpline
 70
8
 71
3
 72
8
 73
4
 74
0
 40
0
 40
0
 40
0
 40
0
 40
1
 40
1
 40
1
 40
1
 10
58.873433
 20
103.606800
 30
0.0
 10
58.790378
 20
103.551450
 30
0.0
 10
58.710923
 20
103.557150
 30
0.0
 10
58.696835
 20
103.619625
 30
0.0
  0
SPLINE
  5
181
100
AcDbEntity
  8
Layer_1
 62
7
100
AcDbSpline
 70
8
 71
3
 72
8
 73
4
 74
0
 40
0
 40
0
 40
0
 40
0
 40
1
 40
1
 40
1
 40
1
 10
58.696835
 20
103.619625
 30
0.0
 10
58.682780
 20
103.682100
 30
0.0
 10
58.588972
 20
103.714650
 30
0.0
 10
58.488436
 20
103.692000
 30
0.0
  0
SPLINE
  5
182
100
AcDbEntity
  8
Layer_1
 62
7
100
AcDbSpline
 70
8
 71
3
 72
8
 73
4
 74
0
 40
0
 40
0
 40
0
 40
0
 40
1
 40
1
 40
1
 40
1
 10
58.488436
 20
103.692000
 30
0.0
 10
58.387820
 20
103.669725
 30
0.0
 10
58.346461
 20
103.609155
 30
0.0
 10
58.396368
 20
103.558215
 30
0.0
  0
SPLINE
  5
183
100
AcDbEntity
  8
Layer_1
 62
7
100
AcDbSpline
 70
8
 71
3
 72
8
 73
4
 74
0
 40
0
 40
0
 40
0
 40
0
 40
1
 40
1
 40
1
 40
1
 10
58.396368
 20
103.558215
 30
0.0
 10
58.446258
 20
103.507365
 30
0.0
 10
58.350903
 20
103.305608
 30
0.0
 10
58.184440
 20
103.110000
 30
0.0
  0
SPLINE
  5
184
100
AcDbEntity
  8
Layer_1
 62
7
100
AcDbSpline
 70
8
 71
3
 72
8
 73
4
 74
0
 40
0
 40
0
 40
0
 40
0
 40
1
 40
1
 40
1
 40
1
 10
58.184440
 20
103.110000
 30
0.0
 10
58.017979
 20
102.914400
 30
0.0
 10
57.666086
 20
102.414653
 30
0.0
 10
57.402454
 20
101.999445
 30
0.0
  0
SPLINE
  5
185
100
AcDbEntity
  8
Layer_1
 62
7
100
AcDbSpline
 70
8
 71
3
 72
8
 73
4
 74
0
 40
0
 40
0
 40
0
 40
0
 40
1
 40
1
 40
1
 40
1
 10
57.402454
 20
101.999445
 30
0.0
 10
57.138821
 20
101.584230
 30
0.0
 10
56.886658
 20
101.236298
 30
0.0
 10
56.842087
 20
101.226248
 30
0.0
  0
SPLINE
  5
186
100
AcDbEntity
  8
Layer_1
 62
7
100
AcDbSpline
 70
8
 71
3
 72
8
 73
4
 74
0
 40
0
 40
0
 40
0
 40
0
 40
1
 40
1
 40
1
 40
1
 10
56.842087
 20
101.226248
 30
0.0
 10
56.743749
 20
101.203748
 30
0.0
 10
57.218305
 20
102.344618
 30
0.0
 10
57.436386
 20
102.654330
 30
0.0
  0
SPLINE
  5
187
100
AcDbEntity
  8
Layer_1
 62
7
100
AcDbSpline
 70
8
 71
3
 72
8
 73
4
 74
0
 40
0
 40
0
 40
0
 40
0
 40
1
 40
1
 40
1
 40
1
 10
57.436386
 20
102.654330
 30
0.0
 10
57.522154
 20
102.776145
 30
0.0
 10
57.775043
 20
103.027620
 30
0.0
 10
57.998361
 20
103.213170
 30
0.0
  0
SPLINE
  5
188
100
AcDbEntity
  8
Layer_1
 62
7
100
AcDbSpline
 70
8
 71
3
 72
8
 73
4
 74
0
 40
0
 40
0
 40
0
 40
0
 40
1
 40
1
 40
1
 40
1
 10
57.998361
 20
103.213170
 30
0.0
 10
58.360758
 20
103.514273
 30
0.0
 10
58.368470
 20
103.533675
 30
0.0
 10
58.070121
 20
103.393680
 30
0.0
  0
SPLINE
  5
189
100
AcDbEntity
  8
Layer_1
 62
7
100
AcDbSpline
 70
8
 71
3
 72
8
 73
4
 74
0
 40
0
 40
0
 40
0
 40
0
 40
1
 40
1
 40
1
 40
1
 10
58.070121
 20
103.393680
 30
0.0
 10
57.628523
 20
103.186470
 30
0.0
 10
57.170774
 20
102.631380
 30
0.0
 10
56.930723
 20
102.011985
 30
0.0
  0
SPLINE
  5
18a
100
AcDbEntity
  8
Layer_1
 62
7
100
AcDbSpline
 70
8
 71
3
 72
8
 73
4
 74
0
 40
0
 40
0
 40
0
 40
0
 40
1
 40
1
 40
1
 40
1
 10
56.930723
 20
102.011985
 30
0.0
 10
56.823815
 20
101.736135
 30
0.0
 10
56.510601
 20
101.133893
 30
0.0
 10
56.234692
 20
100.673663
 30
0.0
  0
SPLINE
  5
18b
100
AcDbEntity
  8
Layer_1
 62
7
100
AcDbSpline
 70
8
 71
3
 72
8
 73
4
 74
0
 40
0
 40
0
 40
0
 40
0
 40
1
 40
1
 40
1
 40
1
 10
56.234692
 20
100.673663
 30
0.0
 10
55.809716
 20
99.964808
 30
0.0
 10
55.502503
 20
99.207225
 30
0.0
 10
55.551638
 20
98.989290
 30
0.0
  0
SPLINE
  5
18c
100
AcDbEntity
  8
Layer_1
 62
7
100
AcDbSpline
 70
8
 71
3
 72
8
 73
4
 74
0
 40
0
 40
0
 40
0
 40
0
 40
1
 40
1
 40
1
 40
1
 10
55.551638
 20
98.989290
 30
0.0
 10
55.558688
 20
98.957865
 30
0.0
 10
55.722906
 20
99.222075
 30
0.0
 10
55.916497
 20
99.576405
 30
0.0
  0
SPLINE
  5
18d
100
AcDbEntity
  8
Layer_1
 62
7
100
AcDbSpline
 70
8
 71
3
 72
8
 73
4
 74
0
 40
0
 40
0
 40
0
 40
0
 40
1
 40
1
 40
1
 40
1
 10
55.916497
 20
99.576405
 30
0.0
 10
56.110086
 20
99.930735
 30
0.0
 10
56.377362
 20
100.282253
 30
0.0
 10
56.510444
 20
100.357545
 30
0.0
  0
SPLINE
  5
18e
100
AcDbEntity
  8
Layer_1
 62
7
100
AcDbSpline
 70
8
 71
3
 72
8
 73
4
 74
0
 40
0
 40
0
 40
0
 40
0
 40
1
 40
1
 40
1
 40
1
 10
56.510444
 20
100.357545
 30
0.0
 10
56.643518
 20
100.432890
 30
0.0
 10
56.857454
 20
100.643355
 30
0.0
 10
56.985841
 20
100.825320
 30
0.0
  0
SPLINE
  5
18f
100
AcDbEntity
  8
Layer_1
 62
7
100
AcDbSpline
 70
8
 71
3
 72
8
 73
4
 74
0
 40
0
 40
0
 40
0
 40
0
 40
1
 40
1
 40
1
 40
1
 10
56.985841
 20
100.825320
 30
0.0
 10
57.114227
 20
101.007300
 30
0.0
 10
57.355631
 20
101.289128
 30
0.0
 10
57.522293
 20
101.451608
 30
0.0
  0
SPLINE
  5
190
100
AcDbEntity
  8
Layer_1
 62
7
100
AcDbSpline
 70
8
 71
3
 72
8
 73
4
 74
0
 40
0
 40
0
 40
0
 40
0
 40
1
 40
1
 40
1
 40
1
 10
57.522293
 20
101.451608
 30
0.0
 10
57.777563
 20
101.700488
 30
0.0
 10
57.765335
 20
101.653028
 30
0.0
 10
57.444689
 20
101.150430
 30
0.0
  0
SPLINE
  5
191
100
AcDbEntity
  8
Layer_1
 62
7
100
AcDbSpline
 70
8
 71
3
 72
8
 73
4
 74
0
 40
0
 40
0
 40
0
 40
0
 40
1
 40
1
 40
1
 40
1
 10
57.444689
 20
101.150430
 30
0.0
 10
57.235345
 20
100.822298
 30
0.0
 10
56.948303
 20
100.454648
 30
0.0
 10
56.806820
 20
100.333425
 30
0.0
  0
SPLINE
  5
192
100
AcDbEntity
  8
Layer_1
 62
7
100
AcDbSpline
 70
8
 71
3
 72
8
 73
4
 74
0
 40
0
 40
0
 40
0
 40
0
 40
1
 40
1
 40
1
 40
1
 10
56.806820
 20
100.333425
 30
0.0
 10
56.665336
 20
100.212203
 30
0.0
 10
56.338970
 20
99.798390
 30
0.0
 10
56.081564
 20
99.413843
 30
0.0
  0
SPLINE
  5
193
100
AcDbEntity
  8
Layer_1
 62
7
100
AcDbSpline
 70
8
 71
3
 72
8
 73
4
 74
0
 40
0
 40
0
 40
0
 40
0
 40
1
 40
1
 40
1
 40
1
 10
56.081564
 20
99.413843
 30
0.0
 10
55.824158
 20
99.029288
 30
0.0
 10
55.598099
 20
98.783205
 30
0.0
 10
55.579212
 20
98.866980
 30
0.0
  0
SPLINE
  5
194
100
AcDbEntity
  8
Layer_1
 62
7
100
AcDbSpline
 70
8
 71
3
 72
8
 73
4
 74
0
 40
0
 40
0
 40
0
 40
0
 40
1
 40
1
 40
1
 40
1
 10
55.579212
 20
98.866980
 30
0.0
 10
55.560335
 20
98.950755
 30
0.0
 10
55.413179
 20
98.804205
 30
0.0
 10
55.252227
 20
98.541210
 30
0.0
  0
SPLINE
  5
195
100
AcDbEntity
  8
Layer_1
 62
7
100
AcDbSpline
 70
8
 71
3
 72
8
 73
4
 74
0
 40
0
 40
0
 40
0
 40
0
 40
1
 40
1
 40
1
 40
1
 10
55.252227
 20
98.541210
 30
0.0
 10
55.042400
 20
98.198415
 30
0.0
 10
55.008608
 20
98.056493
 30
0.0
 10
55.132815
 20
98.039708
 30
0.0
  0
SPLINE
  5
196
100
AcDbEntity
  8
Layer_1
 62
7
100
AcDbSpline
 70
8
 71
3
 72
8
 73
4
 74
0
 40
0
 40
0
 40
0
 40
0
 40
1
 40
1
 40
1
 40
1
 10
55.132815
 20
98.039708
 30
0.0
 10
55.273659
 20
98.020658
 30
0.0
 10
55.281467
 20
97.992233
 30
0.0
 10
55.174560
 20
97.887405
 30
0.0
  0
SPLINE
  5
197
100
AcDbEntity
  8
Layer_1
 62
7
100
AcDbSpline
 70
8
 71
3
 72
8
 73
4
 74
0
 40
0
 40
0
 40
0
 40
0
 40
1
 40
1
 40
1
 40
1
 10
55.174560
 20
97.887405
 30
0.0
 10
55.097407
 20
97.811775
 30
0.0
 10
55.092826
 20
97.511835
 30
0.0
 10
55.163483
 20
97.161600
 30
0.0
  0
SPLINE
  5
198
100
AcDbEntity
  8
Layer_1
 62
7
100
AcDbSpline
 70
8
 71
3
 72
8
 73
4
 74
0
 40
0
 40
0
 40
0
 40
0
 40
1
 40
1
 40
1
 40
1
 10
55.163483
 20
97.161600
 30
0.0
 10
55.261695
 20
96.674783
 30
0.0
 10
55.236240
 20
96.485550
 30
0.0
 10
55.025498
 20
96.135743
 30
0.0
  0
SPLINE
  5
199
100
AcDbEntity
  8
Layer_1
 62
7
100
AcDbSpline
 70
8
 71
3
 72
8
 73
4
 74
0
 40
0
 40
0
 40
0
 40
0
 40
1
 40
1
 40
1
 40
1
 10
55.025498
 20
96.135743
 30
0.0
 10
54.771255
 20
95.713748
 30
0.0
 10
54.511037
 20
95.511038
 30
0.0
 10
54.616513
 20
95.817143
 30
0.0
  0
SPLINE
  5
19a
100
AcDbEntity
  8
Layer_1
 62
7
100
AcDbSpline
 70
8
 71
3
 72
8
 73
4
 74
0
 40
0
 40
0
 40
0
 40
0
 40
1
 40
1
 40
1
 40
1
 10
54.616513
 20
95.817143
 30
0.0
 10
54.646160
 20
95.903168
 30
0.0
 10
54.558103
 20
95.841743
 30
0.0
 10
54.420839
 20
95.680620
 30
0.0
  0
SPLINE
  5
19b
100
AcDbEntity
  8
Layer_1
 62
7
100
AcDbSpline
 70
8
 71
3
 72
8
 73
4
 74
0
 40
0
 40
0
 40
0
 40
0
 40
1
 40
1
 40
1
 40
1
 10
54.420839
 20
95.680620
 30
0.0
 10
54.283575
 20
95.519513
 30
0.0
 10
54.210742
 20
95.346915
 30
0.0
 10
54.258984
 20
95.297085
 30
0.0
  0
SPLINE
  5
19c
100
AcDbEntity
  8
Layer_1
 62
7
100
AcDbSpline
 70
8
 71
3
 72
8
 73
4
 74
0
 40
0
 40
0
 40
0
 40
0
 40
1
 40
1
 40
1
 40
1
 10
54.258984
 20
95.297085
 30
0.0
 10
54.308244
 20
95.246235
 30
0.0
 10
54.190052
 20
95.206793
 30
0.0
 10
53.989340
 20
95.207168
 30
0.0
  0
SPLINE
  5
19d
100
AcDbEntity
  8
Layer_1
 62
7
100
AcDbSpline
 70
8
 71
3
 72
8
 73
4
 74
0
 40
0
 40
0
 40
0
 40
0
 40
1
 40
1
 40
1
 40
1
 10
53.989340
 20
95.207168
 30
0.0
 10
53.701569
 20
95.207715
 30
0.0
 10
53.677951
 20
95.192468
 30
0.0
 10
53.868055
 20
95.128620
 30
0.0
  0
SPLINE
  5
19e
100
AcDbEntity
  8
Layer_1
 62
7
100
AcDbSpline
 70
8
 71
3
 72
8
 73
4
 74
0
 40
0
 40
0
 40
0
 40
0
 40
1
 40
1
 40
1
 40
1
 10
53.868055
 20
95.128620
 30
0.0
 10
53.997898
 20
95.085045
 30
0.0
 10
54.084506
 20
94.992405
 30
0.0
 10
54.060518
 20
94.922790
 30
0.0
  0
SPLINE
  5
19f
100
AcDbEntity
  8
Layer_1
 62
7
100
AcDbSpline
 70
8
 71
3
 72
8
 73
4
 74
0
 40
0
 40
0
 40
0
 40
0
 40
1
 40
1
 40
1
 40
1
 10
54.060518
 20
94.922790
 30
0.0
 10
53.997511
 20
94.739925
 30
0.0
 10
54.254861
 20
94.342568
 30
0.0
 10
54.365856
 20
94.451348
 30
0.0
  0
SPLINE
  5
1a0
100
AcDbEntity
  8
Layer_1
 62
7
100
AcDbSpline
 70
8
 71
3
 72
8
 73
4
 74
0
 40
0
 40
0
 40
0
 40
0
 40
1
 40
1
 40
1
 40
1
 10
54.365856
 20
94.451348
 30
0.0
 10
54.417359
 20
94.501898
 30
0.0
 10
54.472484
 20
94.485548
 30
0.0
 10
54.488336
 20
94.415198
 30
0.0
  0
SPLINE
  5
1a1
100
AcDbEntity
  8
Layer_1
 62
7
100
AcDbSpline
 70
8
 71
3
 72
8
 73
4
 74
0
 40
0
 40
0
 40
0
 40
0
 40
1
 40
1
 40
1
 40
1
 10
54.488336
 20
94.415198
 30
0.0
 10
54.504153
 20
94.344848
 30
0.0
 10
54.444866
 20
94.239135
 30
0.0
 10
54.356501
 20
94.180208
 30
0.0
  0
SPLINE
  5
1a2
100
AcDbEntity
  8
Layer_1
 62
7
100
AcDbSpline
 70
8
 71
3
 72
8
 73
4
 74
0
 40
0
 40
0
 40
0
 40
0
 40
1
 40
1
 40
1
 40
1
 10
54.356501
 20
94.180208
 30
0.0
 10
54.268134
 20
94.121333
 30
0.0
 10
54.225599
 20
93.941085
 30
0.0
 10
54.261966
 20
93.779775
 30
0.0
  0
SPLINE
  5
1a3
100
AcDbEntity
  8
Layer_1
 62
7
100
AcDbSpline
 70
8
 71
3
 72
8
 73
4
 74
0
 40
0
 40
0
 40
0
 40
0
 40
1
 40
1
 40
1
 40
1
 10
54.261966
 20
93.779775
 30
0.0
 10
54.320849
 20
93.518633
 30
0.0
 10
54.290886
 20
93.487380
 30
0.0
 10
53.988650
 20
93.494685
 30
0.0
  0
SPLINE
  5
1a4
100
AcDbEntity
  8
Layer_1
 62
7
100
AcDbSpline
 70
8
 71
3
 72
8
 73
4
 74
0
 40
0
 40
0
 40
0
 40
0
 40
1
 40
1
 40
1
 40
1
 10
53.988650
 20
93.494685
 30
0.0
 10
53.801963
 20
93.499185
 30
0.0
 10
53.613450
 20
93.536010
 30
0.0
 10
53.569750
 20
93.576630
 30
0.0
  0
SPLINE
  5
1a5
100
AcDbEntity
  8
Layer_1
 62
7
100
AcDbSpline
 70
8
 71
3
 72
8
 73
4
 74
0
 40
0
 40
0
 40
0
 40
0
 40
1
 40
1
 40
1
 40
1
 10
53.569750
 20
93.576630
 30
0.0
 10
53.526062
 20
93.617130
 30
0.0
 10
53.390278
 20
93.663593
 30
0.0
 10
53.268037
 20
93.679778
 30
0.0
  0
SPLINE
  5
1a6
100
AcDbEntity
  8
Layer_1
 62
7
100
AcDbSpline
 70
8
 71
3
 72
8
 73
4
 74
0
 40
0
 40
0
 40
0
 40
0
 40
1
 40
1
 40
1
 40
1
 10
53.268037
 20
93.679778
 30
0.0
 10
53.145800
 20
93.695978
 30
0.0
 10
53.033767
 20
93.762518
 30
0.0
 10
53.019083
 20
93.827648
 30
0.0
  0
SPLINE
  5
1a7
100
AcDbEntity
  8
Layer_1
 62
7
100
AcDbSpline
 70
8
 71
3
 72
8
 73
4
 74
0
 40
0
 40
0
 40
0
 40
0
 40
1
 40
1
 40
1
 40
1
 10
53.019083
 20
93.827648
 30
0.0
 10
52.992038
 20
93.947625
 30
0.0
 10
53.525480
 20
93.893048
 30
0.0
 10
53.870396
 20
93.740498
 30
0.0
  0
SPLINE
  5
1a8
100
AcDbEntity
  8
Layer_1
 62
7
100
AcDbSpline
 70
8
 71
3
 72
8
 73
4
 74
0
 40
0
 40
0
 40
0
 40
0
 40
1
 40
1
 40
1
 40
1
 10
53.870396
 20
93.740498
 30
0.0
 10
54.062649
 20
93.655485
 30
0.0
 10
54.058598
 20
93.802073
 30
0.0
 10
53.863346
 20
93.996578
 30
0.0
  0
SPLINE
  5
1a9
100
AcDbEntity
  8
Layer_1
 62
7
100
AcDbSpline
 70
8
 71
3
 72
8
 73
4
 74
0
 40
0
 40
0
 40
0
 40
0
 40
1
 40
1
 40
1
 40
1
 10
53.863346
 20
93.996578
 30
0.0
 10
53.679018
 20
94.180215
 30
0.0
 10
53.185859
 20
94.140458
 30
0.0
 10
52.864574
 20
93.916035
 30
0.0
  0
SPLINE
  5
1aa
100
AcDbEntity
  8
Layer_1
 62
7
100
AcDbSpline
 70
8
 71
3
 72
8
 73
4
 74
0
 40
0
 40
0
 40
0
 40
0
 40
1
 40
1
 40
1
 40
1
 10
52.864574
 20
93.916035
 30
0.0
 10
52.626851
 20
93.749985
 30
0.0
 10
52.604048
 20
93.649658
 30
0.0
 10
52.700003
 20
93.191910
 30
0.0
  0
SPLINE
  5
1ab
100
AcDbEntity
  8
Layer_1
 62
7
100
AcDbSpline
 70
8
 71
3
 72
8
 73
4
 74
0
 40
0
 40
0
 40
0
 40
0
 40
1
 40
1
 40
1
 40
1
 10
52.700003
 20
93.191910
 30
0.0
 10
52.496253
 20
92.011118
 30
0.0
 10
52.213624
 20
93.632610
 30
0.0
 10
52.747665
 20
94.196505
 30
0.0
  0
LWPOLYLINE
  5
1ac
100
AcDbEntity
  8
Layer_1
 62
7
100
AcDbPolyline
 90
3
 70
0
 10
61.742104
 20
97.113765
 30
0.0
 10
61.568823
 20
96.686040
 30
0.0
 10
61.786266
 20
96.981488
 30
0.0
  0
SPLINE
  5
1ad
100
AcDbEntity
  8
Layer_1
 62
7
100
AcDbSpline
 70
8
 71
3
 72
8
 73
4
 74
0
 40
0
 40
0
 40
0
 40
0
 40
1
 40
1
 40
1
 40
1
 10
52.430337
 20
93.208950
 30
0.0
 10
52.747611
 20
94.196813
 30
0.0
 10
53.661157
 20
94.337460
 30
0.0
 10
52.430337
 20
93.208950
 30
0.0
  0
LWPOLYLINE
  5
1ae
100
AcDbEntity
  8
Layer_1
 62
7
100
AcDbPolyline
 90
2
 70
0
 10
52.747665
 20
94.196505
 30
0.0
 10
52.747611
 20
94.196813
 30
0.0
  0
SPLINE
  5
1af
100
AcDbEntity
  8
Layer_1
 62
7
100
AcDbSpline
 70
8
 71
3
 72
8
 73
4
 74
0
 40
0
 40
0
 40
0
 40
0
 40
1
 40
1
 40
1
 40
1
 10
53.856806
 20
94.404668
 30
0.0
 10
53.877296
 20
94.591388
 30
0.0
 10
53.736664
 20
94.652175
 30
0.0
 10
53.598193
 20
94.516462
 30
0.0
  0
SPLINE
  5
1b0
100
AcDbEntity
  8
Layer_1
 62
7
100
AcDbSpline
 70
8
 71
3
 72
8
 73
4
 74
0
 40
0
 40
0
 40
0
 40
0
 40
1
 40
1
 40
1
 40
1
 10
53.598193
 20
94.516462
 30
0.0
 10
53.510403
 20
94.430438
 30
0.0
 10
53.526680
 20
94.384155
 30
0.0
 10
53.661163
 20
94.337460
 30
0.0
  0
SPLINE
  5
1b1
100
AcDbEntity
  8
Layer_1
 62
7
100
AcDbSpline
 70
8
 71
3
 72
8
 73
4
 74
0
 40
0
 40
0
 40
0
 40
0
 40
1
 40
1
 40
1
 40
1
 10
53.661163
 20
94.337460
 30
0.0
 10
53.767683
 20
94.300485
 30
0.0
 10
53.848416
 20
94.328235
 30
0.0
 10
53.856813
 20
94.404660
 30
0.0
  0
LWPOLYLINE
  5
1b2
100
AcDbEntity
  8
Layer_1
 62
7
100
AcDbPolyline
 90
1
 70
1
 10
52.430337
 20
93.208950
 30
0.0
  0
SPLINE
  5
1b3
100
AcDbEntity
  8
Layer_1
 62
7
100
AcDbSpline
 70
8
 71
3
 72
8
 73
4
 74
0
 40
0
 40
0
 40
0
 40
0
 40
1
 40
1
 40
1
 40
1
 10
54.757000
 20
96.202103
 30
0.0
 10
54.913027
 20
96.451785
 30
0.0
 10
54.901634
 20
97.275233
 30
0.0
 10
54.744287
 20
97.121018
 30
0.0
  0
SPLINE
  5
1b4
100
AcDbEntity
  8
Layer_1
 62
7
100
AcDbSpline
 70
8
 71
3
 72
8
 73
4
 74
0
 40
0
 40
0
 40
0
 40
0
 40
1
 40
1
 40
1
 40
1
 10
54.744287
 20
97.121018
 30
0.0
 10
54.687250
 20
97.065143
 30
0.0
 10
54.669617
 20
96.890588
 30
0.0
 10
54.705107
 20
96.733185
 30
0.0
  0
SPLINE
  5
1b5
100
AcDbEntity
  8
Layer_1
 62
7
100
AcDbSpline
 70
8
 71
3
 72
8
 73
4
 74
0
 40
0
 40
0
 40
0
 40
0
 40
1
 40
1
 40
1
 40
1
 10
54.705107
 20
96.733185
 30
0.0
 10
54.740612
 20
96.575768
 30
0.0
 10
54.716875
 20
96.435075
 30
0.0
 10
54.652382
 20
96.420533
 30
0.0
  0
SPLINE
  5
1b6
100
AcDbEntity
  8
Layer_1
 62
7
100
AcDbSpline
 70
8
 71
3
 72
8
 73
4
 74
0
 40
0
 40
0
 40
0
 40
0
 40
1
 40
1
 40
1
 40
1
 10
54.652382
 20
96.420533
 30
0.0
 10
54.587822
 20
96.406283
 30
0.0
 10
54.555524
 20
96.303645
 30
0.0
 10
54.580450
 20
96.193103
 30
0.0
  0
SPLINE
  5
1b7
100
AcDbEntity
  8
Layer_1
 62
7
100
AcDbSpline
 70
8
 71
3
 72
8
 73
4
 74
0
 40
0
 40
0
 40
0
 40
0
 40
1
 40
1
 40
1
 40
1
 10
54.580450
 20
96.193103
 30
0.0
 10
54.620200
 20
96.016755
 30
0.0
 10
54.641860
 20
96.017858
 30
0.0
 10
54.756998
 20
96.202103
 30
0.0
  0
LWPOLYLINE
  5
1b8
100
AcDbEntity
  8
Layer_1
 62
7
100
AcDbPolyline
 90
1
 70
1
 10
53.856813
 20
94.404660
 30
0.0
  0
SPLINE
  5
1b9
100
AcDbEntity
  8
Layer_1
 62
7
100
AcDbSpline
 70
8
 71
3
 72
8
 73
4
 74
0
 40
0
 40
0
 40
0
 40
0
 40
1
 40
1
 40
1
 40
1
 10
60.888376
 20
106.071548
 30
0.0
 10
61.152767
 20
106.008547
 30
0.0
 10
61.385001
 20
105.844515
 30
0.0
 10
61.514697
 20
105.629070
 30
0.0
  0
LWPOLYLINE
  5
1ba
100
AcDbEntity
  8
Layer_1
 62
7
100
AcDbPolyline
 90
1
 70
1
 10
54.756998
 20
96.202103
 30
0.0
  0
SPLINE
  5
1bb
100
AcDbEntity
  8
Layer_1
 62
7
100
AcDbSpline
 70
8
 71
3
 72
8
 73
4
 74
0
 40
0
 40
0
 40
0
 40
0
 40
1
 40
1
 40
1
 40
1
 10
61.968592
 20
106.049423
 30
0.0
 10
62.104867
 20
106.468935
 30
0.0
 10
62.343960
 20
107.046353
 30
0.0
 10
62.499908
 20
107.332583
 30
0.0
  0
SPLINE
  5
1bc
100
AcDbEntity
  8
Layer_1
 62
7
100
AcDbSpline
 70
8
 71
3
 72
8
 73
4
 74
0
 40
0
 40
0
 40
0
 40
0
 40
1
 40
1
 40
1
 40
1
 10
62.499908
 20
107.332583
 30
0.0
 10
62.943200
 20
108.146190
 30
0.0
 10
63.214185
 20
109.518098
 30
0.0
 10
62.863766
 20
109.174665
 30
0.0
  0
SPLINE
  5
1bd
100
AcDbEntity
  8
Layer_1
 62
7
100
AcDbSpline
 70
8
 71
3
 72
8
 73
4
 74
0
 40
0
 40
0
 40
0
 40
0
 40
1
 40
1
 40
1
 40
1
 10
62.863766
 20
109.174665
 30
0.0
 10
62.807351
 20
109.119390
 30
0.0
 10
62.802634
 20
109.031873
 30
0.0
 10
62.853251
 20
108.980220
 30
0.0
  0
SPLINE
  5
1be
100
AcDbEntity
  8
Layer_1
 62
7
100
AcDbSpline
 70
8
 71
3
 72
8
 73
4
 74
0
 40
0
 40
0
 40
0
 40
0
 40
1
 40
1
 40
1
 40
1
 10
62.853251
 20
108.980220
 30
0.0
 10
62.903891
 20
108.928545
 30
0.0
 10
62.861884
 20
108.867473
 30
0.0
 10
62.759904
 20
108.844470
 30
0.0
  0
SPLINE
  5
1bf
100
AcDbEntity
  8
Layer_1
 62
7
100
AcDbSpline
 70
8
 71
3
 72
8
 73
4
 74
0
 40
0
 40
0
 40
0
 40
0
 40
1
 40
1
 40
1
 40
1
 10
62.759904
 20
108.844470
 30
0.0
 10
62.657851
 20
108.821820
 30
0.0
 10
62.393109
 20
108.540000
 30
0.0
 10
62.171422
 20
108.218962
 30
0.0
  0
SPLINE
  5
1c0
100
AcDbEntity
  8
Layer_1
 62
7
100
AcDbSpline
 70
8
 71
3
 72
8
 73
4
 74
0
 40
0
 40
0
 40
0
 40
0
 40
1
 40
1
 40
1
 40
1
 10
62.171422
 20
108.218962
 30
0.0
 10
61.949736
 20
107.897910
 30
0.0
 10
61.681921
 20
107.615760
 30
0.0
 10
61.576280
 20
107.591940
 30
0.0
  0
SPLINE
  5
1c1
100
AcDbEntity
  8
Layer_1
 62
7
100
AcDbSpline
 70
8
 71
3
 72
8
 73
4
 74
0
 40
0
 40
0
 40
0
 40
0
 40
1
 40
1
 40
1
 40
1
 10
61.576280
 20
107.591940
 30
0.0
 10
61.470570
 20
107.568390
 30
0.0
 10
61.393027
 20
107.509035
 30
0.0
 10
61.403805
 20
107.460645
 30
0.0
  0
SPLINE
  5
1c2
100
AcDbEntity
  8
Layer_1
 62
7
100
AcDbSpline
 70
8
 71
3
 72
8
 73
4
 74
0
 40
0
 40
0
 40
0
 40
0
 40
1
 40
1
 40
1
 40
1
 10
61.403805
 20
107.460645
 30
0.0
 10
61.414567
 20
107.412270
 30
0.0
 10
61.200217
 20
107.133465
 30
0.0
 10
60.927431
 20
106.841122
 30
0.0
  0
SPLINE
  5
1c3
100
AcDbEntity
  8
Layer_1
 62
7
100
AcDbSpline
 70
8
 71
3
 72
8
 73
4
 74
0
 40
0
 40
0
 40
0
 40
0
 40
1
 40
1
 40
1
 40
1
 10
60.927431
 20
106.841122
 30
0.0
 10
60.654645
 20
106.548780
 30
0.0
 10
60.439716
 20
106.278547
 30
0.0
 10
60.449809
 20
106.240597
 30
0.0
  0
SPLINE
  5
1c4
100
AcDbEntity
  8
Layer_1
 62
7
100
AcDbSpline
 70
8
 71
3
 72
8
 73
4
 74
0
 40
0
 40
0
 40
0
 40
0
 40
1
 40
1
 40
1
 40
1
 10
60.449809
 20
106.240597
 30
0.0
 10
60.459882
 20
106.202572
 30
0.0
 10
60.657247
 20
106.126590
 30
0.0
 10
60.888355
 20
106.071547
 30
0.0
  0
LWPOLYLINE
  5
1c5
100
AcDbEntity
  8
Layer_1
 62
7
100
AcDbPolyline
 90
3
 70
0
 10
61.514697
 20
105.629070
 30
0.0
 10
61.720821
 20
105.286665
 30
0.0
 10
61.968592
 20
106.049423
 30
0.0
  0
SPLINE
  5
1c6
100
AcDbEntity
  8
Layer_1
 62
7
100
AcDbSpline
 70
8
 71
3
 72
8
 73
4
 74
0
 40
0
 40
0
 40
0
 40
0
 40
1
 40
1
 40
1
 40
1
 10
62.833096
 20
104.959328
 30
0.0
 10
63.056993
 20
105.009503
 30
0.0
 10
63.333141
 20
104.951378
 30
0.0
 10
63.583347
 20
104.800620
 30
0.0
  0
LWPOLYLINE
  5
1c7
100
AcDbEntity
  8
Layer_1
 62
7
100
AcDbPolyline
 90
1
 70
1
 10
60.888355
 20
106.071547
 30
0.0
  0
SPLINE
  5
1c8
100
AcDbEntity
  8
Layer_1
 62
7
100
AcDbSpline
 70
8
 71
3
 72
8
 73
4
 74
0
 40
0
 40
0
 40
0
 40
0
 40
1
 40
1
 40
1
 40
1
 10
64.416099
 20
106.292333
 30
0.0
 10
64.656312
 20
107.244000
 30
0.0
 10
64.842562
 20
108.065858
 30
0.0
 10
64.829990
 20
108.118688
 30
0.0
  0
SPLINE
  5
1c9
100
AcDbEntity
  8
Layer_1
 62
7
100
AcDbSpline
 70
8
 71
3
 72
8
 73
4
 74
0
 40
0
 40
0
 40
0
 40
0
 40
1
 40
1
 40
1
 40
1
 10
64.829990
 20
108.118688
 30
0.0
 10
64.817413
 20
108.171488
 30
0.0
 10
64.712893
 20
108.274313
 30
0.0
 10
64.597712
 20
108.347108
 30
0.0
  0
SPLINE
  5
1ca
100
AcDbEntity
  8
Layer_1
 62
7
100
AcDbSpline
 70
8
 71
3
 72
8
 73
4
 74
0
 40
0
 40
0
 40
0
 40
0
 40
1
 40
1
 40
1
 40
1
 10
64.597712
 20
108.347108
 30
0.0
 10
64.340221
 20
108.509850
 30
0.0
 10
64.372775
 20
108.875093
 30
0.0
 10
64.644684
 20
108.874035
 30
0.0
  0
SPLINE
  5
1cb
100
AcDbEntity
  8
Layer_1
 62
7
100
AcDbSpline
 70
8
 71
3
 72
8
 73
4
 74
0
 40
0
 40
0
 40
0
 40
0
 40
1
 40
1
 40
1
 40
1
 10
64.644684
 20
108.874035
 30
0.0
 10
64.754024
 20
108.873840
 30
0.0
 10
64.946278
 20
109.032128
 30
0.0
 10
65.071916
 20
109.226288
 30
0.0
  0
SPLINE
  5
1cc
100
AcDbEntity
  8
Layer_1
 62
7
100
AcDbSpline
 70
8
 71
3
 72
8
 73
4
 74
0
 40
0
 40
0
 40
0
 40
0
 40
1
 40
1
 40
1
 40
1
 10
65.071916
 20
109.226288
 30
0.0
 10
65.197556
 20
109.420448
 30
0.0
 10
65.236387
 20
109.520220
 30
0.0
 10
65.158208
 20
109.447988
 30
0.0
  0
SPLINE
  5
1cd
100
AcDbEntity
  8
Layer_1
 62
7
100
AcDbSpline
 70
8
 71
3
 72
8
 73
4
 74
0
 40
0
 40
0
 40
0
 40
0
 40
1
 40
1
 40
1
 40
1
 10
65.158208
 20
109.447988
 30
0.0
 10
64.965040
 20
109.269533
 30
0.0
 10
65.230357
 20
110.089170
 30
0.0
 10
65.472583
 20
110.419200
 30
0.0
  0
SPLINE
  5
1ce
100
AcDbEntity
  8
Layer_1
 62
7
100
AcDbSpline
 70
8
 71
3
 72
8
 73
4
 74
0
 40
0
 40
0
 40
0
 40
0
 40
1
 40
1
 40
1
 40
1
 10
65.472583
 20
110.419200
 30
0.0
 10
65.586962
 20
110.575035
 30
0.0
 10
65.571605
 20
110.465100
 30
0.0
 10
65.431386
 20
110.124428
 30
0.0
  0
LWPOLYLINE
  5
1cf
100
AcDbEntity
  8
Layer_1
 62
7
100
AcDbPolyline
 90
3
 70
0
 10
63.583347
 20
104.800620
 30
0.0
 10
63.979348
 20
104.562038
 30
0.0
 10
64.416099
 20
106.292333
 30
0.0
  0
SPLINE
  5
1d0
100
AcDbEntity
  8
Layer_1
 62
7
100
AcDbSpline
 70
8
 71
3
 72
8
 73
4
 74
0
 40
0
 40
0
 40
0
 40
0
 40
1
 40
1
 40
1
 40
1
 10
65.469948
 20
110.065800
 30
0.0
 10
65.614115
 20
110.332343
 30
0.0
 10
65.694550
 20
110.606693
 30
0.0
 10
65.648692
 20
110.675445
 30
0.0
  0
SPLINE
  5
1d1
100
AcDbEntity
  8
Layer_1
 62
7
100
AcDbSpline
 70
8
 71
3
 72
8
 73
4
 74
0
 40
0
 40
0
 40
0
 40
0
 40
1
 40
1
 40
1
 40
1
 10
65.648692
 20
110.675445
 30
0.0
 10
65.602837
 20
110.744145
 30
0.0
 10
65.636647
 20
110.848035
 30
0.0
 10
65.723812
 20
110.906175
 30
0.0
  0
SPLINE
  5
1d2
100
AcDbEntity
  8
Layer_1
 62
7
100
AcDbSpline
 70
8
 71
3
 72
8
 73
4
 74
0
 40
0
 40
0
 40
0
 40
0
 40
1
 40
1
 40
1
 40
1
 10
65.723812
 20
110.906175
 30
0.0
 10
65.945188
 20
111.053805
 30
0.0
 10
65.723258
 20
111.434363
 30
0.0
 10
65.297434
 20
111.637320
 30
0.0
  0
SPLINE
  5
1d3
100
AcDbEntity
  8
Layer_1
 62
7
100
AcDbSpline
 70
8
 71
3
 72
8
 73
4
 74
0
 40
0
 40
0
 40
0
 40
0
 40
1
 40
1
 40
1
 40
1
 10
65.297434
 20
111.637320
 30
0.0
 10
64.666547
 20
111.938010
 30
0.0
 10
64.416967
 20
111.768285
 30
0.0
 10
63.623407
 20
110.498880
 30
0.0
  0
SPLINE
  5
1d4
100
AcDbEntity
  8
Layer_1
 62
7
100
AcDbSpline
 70
8
 71
3
 72
8
 73
4
 74
0
 40
0
 40
0
 40
0
 40
0
 40
1
 40
1
 40
1
 40
1
 10
63.623407
 20
110.498880
 30
0.0
 10
63.221377
 20
109.855793
 30
0.0
 10
62.992396
 20
109.415033
 30
0.0
 10
63.114556
 20
109.519440
 30
0.0
  0
SPLINE
  5
1d5
100
AcDbEntity
  8
Layer_1
 62
7
100
AcDbSpline
 70
8
 71
3
 72
8
 73
4
 74
0
 40
0
 40
0
 40
0
 40
0
 40
1
 40
1
 40
1
 40
1
 10
63.114556
 20
109.519440
 30
0.0
 10
63.476557
 20
109.828800
 30
0.0
 10
63.563467
 20
109.498740
 30
0.0
 10
63.368431
 20
108.555885
 30
0.0
  0
SPLINE
  5
1d6
100
AcDbEntity
  8
Layer_1
 62
7
100
AcDbSpline
 70
8
 71
3
 72
8
 73
4
 74
0
 40
0
 40
0
 40
0
 40
0
 40
1
 40
1
 40
1
 40
1
 10
63.368431
 20
108.555885
 30
0.0
 10
63.198745
 20
107.735445
 30
0.0
 10
63.201273
 20
107.707223
 30
0.0
 10
63.459055
 20
107.544293
 30
0.0
  0
SPLINE
  5
1d7
100
AcDbEntity
  8
Layer_1
 62
7
100
AcDbSpline
 70
8
 71
3
 72
8
 73
4
 74
0
 40
0
 40
0
 40
0
 40
0
 40
1
 40
1
 40
1
 40
1
 10
63.459055
 20
107.544293
 30
0.0
 10
63.716836
 20
107.381363
 30
0.0
 10
63.732697
 20
107.388548
 30
0.0
 10
64.027663
 20
107.801858
 30
0.0
  0
SPLINE
  5
1d8
100
AcDbEntity
  8
Layer_1
 62
7
100
AcDbSpline
 70
8
 71
3
 72
8
 73
4
 74
0
 40
0
 40
0
 40
0
 40
0
 40
1
 40
1
 40
1
 40
1
 10
64.027663
 20
107.801858
 30
0.0
 10
64.341184
 20
108.241178
 30
0.0
 10
64.542105
 20
108.312803
 30
0.0
 10
64.704179
 20
108.042990
 30
0.0
  0
SPLINE
  5
1d9
100
AcDbEntity
  8
Layer_1
 62
7
100
AcDbSpline
 70
8
 71
3
 72
8
 73
4
 74
0
 40
0
 40
0
 40
0
 40
0
 40
1
 40
1
 40
1
 40
1
 10
64.704179
 20
108.042990
 30
0.0
 10
64.779691
 20
107.917290
 30
0.0
 10
64.758052
 20
107.907135
 30
0.0
 10
64.592687
 20
107.990790
 30
0.0
  0
SPLINE
  5
1da
100
AcDbEntity
  8
Layer_1
 62
7
100
AcDbSpline
 70
8
 71
3
 72
8
 73
4
 74
0
 40
0
 40
0
 40
0
 40
0
 40
1
 40
1
 40
1
 40
1
 10
64.592687
 20
107.990790
 30
0.0
 10
64.339713
 20
108.118658
 30
0.0
 10
64.108795
 20
107.803590
 30
0.0
 10
63.241570
 20
106.147470
 30
0.0
  0
SPLINE
  5
1db
100
AcDbEntity
  8
Layer_1
 62
7
100
AcDbSpline
 70
8
 71
3
 72
8
 73
4
 74
0
 40
0
 40
0
 40
0
 40
0
 40
1
 40
1
 40
1
 40
1
 10
63.241570
 20
106.147470
 30
0.0
 10
62.910482
 20
105.515198
 30
0.0
 10
62.599460
 20
104.988833
 30
0.0
 10
62.550409
 20
104.977770
 30
0.0
  0
SPLINE
  5
1dc
100
AcDbEntity
  8
Layer_1
 62
7
100
AcDbSpline
 70
8
 71
3
 72
8
 73
4
 74
0
 40
0
 40
0
 40
0
 40
0
 40
1
 40
1
 40
1
 40
1
 10
62.550409
 20
104.977770
 30
0.0
 10
62.501389
 20
104.966520
 30
0.0
 10
62.465182
 20
104.940045
 30
0.0
 10
62.470045
 20
104.918595
 30
0.0
  0
SPLINE
  5
1dd
100
AcDbEntity
  8
Layer_1
 62
7
100
AcDbSpline
 70
8
 71
3
 72
8
 73
4
 74
0
 40
0
 40
0
 40
0
 40
0
 40
1
 40
1
 40
1
 40
1
 10
62.470045
 20
104.918595
 30
0.0
 10
62.474920
 20
104.897070
 30
0.0
 10
62.638265
 20
104.914845
 30
0.0
 10
62.833104
 20
104.959395
 30
0.0
  0
LWPOLYLINE
  5
1de
100
AcDbEntity
  8
Layer_1
 62
7
100
AcDbPolyline
 90
3
 70
0
 10
65.431386
 20
110.124428
 30
0.0
 10
65.207824
 20
109.581180
 30
0.0
 10
65.469948
 20
110.065800
 30
0.0
  0
SPLINE
  5
1df
100
AcDbEntity
  8
Layer_1
 62
7
100
AcDbSpline
 70
8
 71
3
 72
8
 73
4
 74
0
 40
0
 40
0
 40
0
 40
0
 40
1
 40
1
 40
1
 40
1
 10
63.218869
 20
108.701520
 30
0.0
 10
63.259571
 20
108.812355
 30
0.0
 10
63.280976
 20
108.955793
 30
0.0
 10
63.266441
 20
109.020277
 30
0.0
  0
SPLINE
  5
1e0
100
AcDbEntity
  8
Layer_1
 62
7
100
AcDbSpline
 70
8
 71
3
 72
8
 73
4
 74
0
 40
0
 40
0
 40
0
 40
0
 40
1
 40
1
 40
1
 40
1
 10
63.266441
 20
109.020277
 30
0.0
 10
63.251884
 20
109.084852
 30
0.0
 10
63.206696
 20
109.046903
 30
0.0
 10
63.166003
 20
108.936015
 30
0.0
  0
SPLINE
  5
1e1
100
AcDbEntity
  8
Layer_1
 62
7
100
AcDbSpline
 70
8
 71
3
 72
8
 73
4
 74
0
 40
0
 40
0
 40
0
 40
0
 40
1
 40
1
 40
1
 40
1
 10
63.166003
 20
108.936015
 30
0.0
 10
63.125293
 20
108.825195
 30
0.0
 10
63.103888
 20
108.681758
 30
0.0
 10
63.118430
 20
108.617265
 30
0.0
  0
SPLINE
  5
1e2
100
AcDbEntity
  8
Layer_1
 62
7
100
AcDbSpline
 70
8
 71
3
 72
8
 73
4
 74
0
 40
0
 40
0
 40
0
 40
0
 40
1
 40
1
 40
1
 40
1
 10
63.118430
 20
108.617265
 30
0.0
 10
63.132973
 20
108.552840
 30
0.0
 10
63.178175
 20
108.590640
 30
0.0
 10
63.218870
 20
108.701527
 30
0.0
  0
LWPOLYLINE
  5
1e3
100
AcDbEntity
  8
Layer_1
 62
7
100
AcDbPolyline
 90
1
 70
1
 10
62.833104
 20
104.959395
 30
0.0
  0
SPLINE
  5
1e4
100
AcDbEntity
  8
Layer_1
 62
7
100
AcDbSpline
 70
8
 71
3
 72
8
 73
4
 74
0
 40
0
 40
0
 40
0
 40
0
 40
1
 40
1
 40
1
 40
1
 10
66.022144
 20
112.193100
 30
0.0
 10
66.237520
 20
111.997215
 30
0.0
 10
66.240884
 20
111.998513
 30
0.0
 10
66.308587
 20
112.302420
 30
0.0
  0
SPLINE
  5
1e5
100
AcDbEntity
  8
Layer_1
 62
7
100
AcDbSpline
 70
8
 71
3
 72
8
 73
4
 74
0
 40
0
 40
0
 40
0
 40
0
 40
1
 40
1
 40
1
 40
1
 10
66.308587
 20
112.302420
 30
0.0
 10
66.367267
 20
112.565850
 30
0.0
 10
66.324967
 20
112.642875
 30
0.0
 10
66.013754
 20
112.839592
 30
0.0
  0
SPLINE
  5
1e6
100
AcDbEntity
  8
Layer_1
 62
7
100
AcDbSpline
 70
8
 71
3
 72
8
 73
4
 74
0
 40
0
 40
0
 40
0
 40
0
 40
1
 40
1
 40
1
 40
1
 10
66.013754
 20
112.839592
 30
0.0
 10
65.628217
 20
113.083268
 30
0.0
 10
65.099338
 20
113.044778
 30
0.0
 10
64.919308
 20
112.759935
 30
0.0
  0
SPLINE
  5
1e7
100
AcDbEntity
  8
Layer_1
 62
7
100
AcDbSpline
 70
8
 71
3
 72
8
 73
4
 74
0
 40
0
 40
0
 40
0
 40
0
 40
1
 40
1
 40
1
 40
1
 10
64.919308
 20
112.759935
 30
0.0
 10
64.837870
 20
112.631092
 30
0.0
 10
64.929418
 20
112.567920
 30
0.0
 10
65.308515
 20
112.491382
 30
0.0
  0
SPLINE
  5
1e8
100
AcDbEntity
  8
Layer_1
 62
7
100
AcDbSpline
 70
8
 71
3
 72
8
 73
4
 74
0
 40
0
 40
0
 40
0
 40
0
 40
1
 40
1
 40
1
 40
1
 10
65.308515
 20
112.491382
 30
0.0
 10
65.581145
 20
112.436332
 30
0.0
 10
65.902279
 20
112.302120
 30
0.0
 10
66.022144
 20
112.193100
 30
0.0
  0
LWPOLYLINE
  5
1e9
100
AcDbEntity
  8
Layer_1
 62
7
100
AcDbPolyline
 90
1
 70
1
 10
63.218870
 20
108.701527
 30
0.0
  0
SPLINE
  5
1ea
100
AcDbEntity
  8
Layer_1
 62
7
100
AcDbSpline
 70
8
 71
3
 72
8
 73
4
 74
0
 40
0
 40
0
 40
0
 40
0
 40
1
 40
1
 40
1
 40
1
 10
66.421918
 20
112.822267
 30
0.0
 10
66.727635
 20
112.526415
 30
0.0
 10
66.858909
 20
112.521097
 30
0.0
 10
66.899963
 20
112.802992
 30
0.0
  0
SPLINE
  5
1eb
100
AcDbEntity
  8
Layer_1
 62
7
100
AcDbSpline
 70
8
 71
3
 72
8
 73
4
 74
0
 40
0
 40
0
 40
0
 40
0
 40
1
 40
1
 40
1
 40
1
 10
66.899963
 20
112.802992
 30
0.0
 10
66.917093
 20
112.920555
 30
0.0
 10
66.886696
 20
112.959457
 30
0.0
 10
66.824963
 20
112.898962
 30
0.0
  0
SPLINE
  5
1ec
100
AcDbEntity
  8
Layer_1
 62
7
100
AcDbSpline
 70
8
 71
3
 72
8
 73
4
 74
0
 40
0
 40
0
 40
0
 40
0
 40
1
 40
1
 40
1
 40
1
 10
66.824963
 20
112.898962
 30
0.0
 10
66.758738
 20
112.834013
 30
0.0
 10
66.723875
 20
112.909463
 30
0.0
 10
66.728633
 20
113.106585
 30
0.0
  0
SPLINE
  5
1ed
100
AcDbEntity
  8
Layer_1
 62
7
100
AcDbSpline
 70
8
 71
3
 72
8
 73
4
 74
0
 40
0
 40
0
 40
0
 40
0
 40
1
 40
1
 40
1
 40
1
 10
66.728633
 20
113.106585
 30
0.0
 10
66.739531
 20
113.558940
 30
0.0
 10
66.263707
 20
113.823630
 30
0.0
 10
65.677238
 20
113.691412
 30
0.0
  0
SPLINE
  5
1ee
100
AcDbEntity
  8
Layer_1
 62
7
100
AcDbSpline
 70
8
 71
3
 72
8
 73
4
 74
0
 40
0
 40
0
 40
0
 40
0
 40
1
 40
1
 40
1
 40
1
 10
65.677238
 20
113.691412
 30
0.0
 10
65.067809
 20
113.554020
 30
0.0
 10
65.064692
 20
113.300663
 30
0.0
 10
65.670938
 20
113.178285
 30
0.0
  0
SPLINE
  5
1ef
100
AcDbEntity
  8
Layer_1
 62
7
100
AcDbSpline
 70
8
 71
3
 72
8
 73
4
 74
0
 40
0
 40
0
 40
0
 40
0
 40
1
 40
1
 40
1
 40
1
 10
65.670938
 20
113.178285
 30
0.0
 10
65.937246
 20
113.124510
 30
0.0
 10
66.275195
 20
112.964348
 30
0.0
 10
66.421937
 20
112.822342
 30
0.0
  0
LWPOLYLINE
  5
1f0
100
AcDbEntity
  8
Layer_1
 62
7
100
AcDbPolyline
 90
1
 70
1
 10
66.022144
 20
112.193100
 30
0.0
  0
SPLINE
  5
1f1
100
AcDbEntity
  8
Layer_1
 62
7
100
AcDbSpline
 70
8
 71
3
 72
8
 73
4
 74
0
 40
0
 40
0
 40
0
 40
0
 40
1
 40
1
 40
1
 40
1
 10
66.051603
 20
113.993572
 30
0.0
 10
66.384959
 20
113.915580
 30
0.0
 10
66.445588
 20
113.925397
 30
0.0
 10
66.366161
 20
114.044497
 30
0.0
  0
SPLINE
  5
1f2
100
AcDbEntity
  8
Layer_1
 62
7
100
AcDbSpline
 70
8
 71
3
 72
8
 73
4
 74
0
 40
0
 40
0
 40
0
 40
0
 40
1
 40
1
 40
1
 40
1
 10
66.366161
 20
114.044497
 30
0.0
 10
66.230641
 20
114.247717
 30
0.0
 10
66.595916
 20
114.471577
 30
0.0
 10
66.776418
 20
114.295927
 30
0.0
  0
SPLINE
  5
1f3
100
AcDbEntity
  8
Layer_1
 62
7
100
AcDbSpline
 70
8
 71
3
 72
8
 73
4
 74
0
 40
0
 40
0
 40
0
 40
0
 40
1
 40
1
 40
1
 40
1
 10
66.776418
 20
114.295927
 30
0.0
 10
66.855331
 20
114.219180
 30
0.0
 10
66.918434
 20
114.018285
 30
0.0
 10
66.916649
 20
113.849572
 30
0.0
  0
LWPOLYLINE
  5
1f4
100
AcDbEntity
  8
Layer_1
 62
7
100
AcDbPolyline
 90
1
 70
1
 10
66.421937
 20
112.822342
 30
0.0
  0
SPLINE
  5
1f5
100
AcDbEntity
  8
Layer_1
 62
7
100
AcDbSpline
 70
8
 71
3
 72
8
 73
4
 74
0
 40
0
 40
0
 40
0
 40
0
 40
1
 40
1
 40
1
 40
1
 10
67.087208
 20
113.907465
 30
0.0
 10
67.182793
 20
114.107992
 30
0.0
 10
67.245835
 20
114.343080
 30
0.0
 10
67.227307
 20
114.429870
 30
0.0
  0
SPLINE
  5
1f6
100
AcDbEntity
  8
Layer_1
 62
7
100
AcDbSpline
 70
8
 71
3
 72
8
 73
4
 74
0
 40
0
 40
0
 40
0
 40
0
 40
1
 40
1
 40
1
 40
1
 10
67.227307
 20
114.429870
 30
0.0
 10
67.201612
 20
114.550350
 30
0.0
 10
67.228958
 20
114.552360
 30
0.0
 10
67.342924
 20
114.438420
 30
0.0
  0
SPLINE
  5
1f7
100
AcDbEntity
  8
Layer_1
 62
7
100
AcDbSpline
 70
8
 71
3
 72
8
 73
4
 74
0
 40
0
 40
0
 40
0
 40
0
 40
1
 40
1
 40
1
 40
1
 10
67.342924
 20
114.438420
 30
0.0
 10
67.448165
 20
114.333210
 30
0.0
 10
67.440372
 20
114.201172
 30
0.0
 10
67.316524
 20
113.990970
 30
0.0
  0
SPLINE
  5
1f8
100
AcDbEntity
  8
Layer_1
 62
7
100
AcDbSpline
 70
8
 71
3
 72
8
 73
4
 74
0
 40
0
 40
0
 40
0
 40
0
 40
1
 40
1
 40
1
 40
1
 10
67.316524
 20
113.990970
 30
0.0
 10
67.181813
 20
113.762332
 30
0.0
 10
67.180817
 20
113.701785
 30
0.0
 10
67.312249
 20
113.731410
 30
0.0
  0
SPLINE
  5
1f9
100
AcDbEntity
  8
Layer_1
 62
7
100
AcDbSpline
 70
8
 71
3
 72
8
 73
4
 74
0
 40
0
 40
0
 40
0
 40
0
 40
1
 40
1
 40
1
 40
1
 10
67.312249
 20
113.731410
 30
0.0
 10
67.406473
 20
113.752935
 30
0.0
 10
67.473437
 20
113.800110
 30
0.0
 10
67.460895
 20
113.836815
 30
0.0
  0
SPLINE
  5
1fa
100
AcDbEntity
  8
Layer_1
 62
7
100
AcDbSpline
 70
8
 71
3
 72
8
 73
4
 74
0
 40
0
 40
0
 40
0
 40
0
 40
1
 40
1
 40
1
 40
1
 10
67.460895
 20
113.836815
 30
0.0
 10
67.386907
 20
114.053437
 30
0.0
 10
67.437232
 20
114.125227
 30
0.0
 10
67.572029
 20
113.995350
 30
0.0
  0
SPLINE
  5
1fb
100
AcDbEntity
  8
Layer_1
 62
7
100
AcDbSpline
 70
8
 71
3
 72
8
 73
4
 74
0
 40
0
 40
0
 40
0
 40
0
 40
1
 40
1
 40
1
 40
1
 10
67.572029
 20
113.995350
 30
0.0
 10
67.691590
 20
113.880142
 30
0.0
 10
67.702007
 20
113.910922
 30
0.0
 10
67.617164
 20
114.128730
 30
0.0
  0
SPLINE
  5
1fc
100
AcDbEntity
  8
Layer_1
 62
7
100
AcDbSpline
 70
8
 71
3
 72
8
 73
4
 74
0
 40
0
 40
0
 40
0
 40
0
 40
1
 40
1
 40
1
 40
1
 10
67.617164
 20
114.128730
 30
0.0
 10
67.556504
 20
114.284460
 30
0.0
 10
67.544579
 20
114.489697
 30
0.0
 10
67.590689
 20
114.584797
 30
0.0
  0
SPLINE
  5
1fd
100
AcDbEntity
  8
Layer_1
 62
7
100
AcDbSpline
 70
8
 71
3
 72
8
 73
4
 74
0
 40
0
 40
0
 40
0
 40
0
 40
1
 40
1
 40
1
 40
1
 10
67.590689
 20
114.584797
 30
0.0
 10
67.647959
 20
114.702930
 30
0.0
 10
67.609357
 20
114.809062
 30
0.0
 10
67.468871
 20
114.919815
 30
0.0
  0
SPLINE
  5
1fe
100
AcDbEntity
  8
Layer_1
 62
7
100
AcDbSpline
 70
8
 71
3
 72
8
 73
4
 74
0
 40
0
 40
0
 40
0
 40
0
 40
1
 40
1
 40
1
 40
1
 10
67.468871
 20
114.919815
 30
0.0
 10
67.291496
 20
115.059630
 30
0.0
 10
67.290616
 20
115.073107
 30
0.0
 10
67.462496
 20
115.017930
 30
0.0
  0
SPLINE
  5
1ff
100
AcDbEntity
  8
Layer_1
 62
7
100
AcDbSpline
 70
8
 71
3
 72
8
 73
4
 74
0
 40
0
 40
0
 40
0
 40
0
 40
1
 40
1
 40
1
 40
1
 10
67.462496
 20
115.017930
 30
0.0
 10
67.633934
 20
114.962805
 30
0.0
 10
67.633231
 20
114.976455
 30
0.0
 10
67.457471
 20
115.114995
 30
0.0
  0
SPLINE
  5
200
100
AcDbEntity
  8
Layer_1
 62
7
100
AcDbSpline
 70
8
 71
3
 72
8
 73
4
 74
0
 40
0
 40
0
 40
0
 40
0
 40
1
 40
1
 40
1
 40
1
 10
67.457471
 20
115.114995
 30
0.0
 10
67.345117
 20
115.203570
 30
0.0
 10
67.205907
 20
115.229707
 30
0.0
 10
67.148119
 20
115.173045
 30
0.0
  0
SPLINE
  5
201
100
AcDbEntity
  8
Layer_1
 62
7
100
AcDbSpline
 70
8
 71
3
 72
8
 73
4
 74
0
 40
0
 40
0
 40
0
 40
0
 40
1
 40
1
 40
1
 40
1
 10
67.148119
 20
115.173045
 30
0.0
 10
67.090091
 20
115.116120
 30
0.0
 10
67.065090
 20
115.133970
 30
0.0
 10
67.092259
 20
115.212870
 30
0.0
  0
SPLINE
  5
202
100
AcDbEntity
  8
Layer_1
 62
7
100
AcDbSpline
 70
8
 71
3
 72
8
 73
4
 74
0
 40
0
 40
0
 40
0
 40
0
 40
1
 40
1
 40
1
 40
1
 10
67.092259
 20
115.212870
 30
0.0
 10
67.160456
 20
115.410802
 30
0.0
 10
66.894904
 20
115.423380
 30
0.0
 10
66.437522
 20
115.243920
 30
0.0
  0
SPLINE
  5
203
100
AcDbEntity
  8
Layer_1
 62
7
100
AcDbSpline
 70
8
 71
3
 72
8
 73
4
 74
0
 40
0
 40
0
 40
0
 40
0
 40
1
 40
1
 40
1
 40
1
 10
66.437522
 20
115.243920
 30
0.0
 10
66.127081
 20
115.122090
 30
0.0
 10
66.064149
 20
115.129087
 30
0.0
 10
66.114227
 20
115.279920
 30
0.0
  0
SPLINE
  5
204
100
AcDbEntity
  8
Layer_1
 62
7
100
AcDbSpline
 70
8
 71
3
 72
8
 73
4
 74
0
 40
0
 40
0
 40
0
 40
0
 40
1
 40
1
 40
1
 40
1
 10
66.114227
 20
115.279920
 30
0.0
 10
66.165879
 20
115.435440
 30
0.0
 10
66.147624
 20
115.430610
 30
0.0
 10
66.006568
 20
115.251270
 30
0.0
  0
SPLINE
  5
205
100
AcDbEntity
  8
Layer_1
 62
7
100
AcDbSpline
 70
8
 71
3
 72
8
 73
4
 74
0
 40
0
 40
0
 40
0
 40
0
 40
1
 40
1
 40
1
 40
1
 10
66.006568
 20
115.251270
 30
0.0
 10
65.876809
 20
115.086488
 30
0.0
 10
65.569849
 20
114.152010
 30
0.0
 10
65.628223
 20
114.099495
 30
0.0
  0
SPLINE
  5
206
100
AcDbEntity
  8
Layer_1
 62
7
100
AcDbSpline
 70
8
 71
3
 72
8
 73
4
 74
0
 40
0
 40
0
 40
0
 40
0
 40
1
 40
1
 40
1
 40
1
 10
65.628223
 20
114.099495
 30
0.0
 10
65.634073
 20
114.094245
 30
0.0
 10
65.824574
 20
114.046545
 30
0.0
 10
66.051696
 20
113.993415
 30
0.0
  0
LWPOLYLINE
  5
207
100
AcDbEntity
  8
Layer_1
 62
7
100
AcDbPolyline
 90
3
 70
0
 10
66.916649
 20
113.849572
 30
0.0
 10
66.913424
 20
113.542837
 30
0.0
 10
67.087208
 20
113.907465
 30
0.0
  0
SPLINE
  5
208
100
AcDbEntity
  8
Layer_1
 62
7
100
AcDbSpline
 70
8
 71
3
 72
8
 73
4
 74
0
 40
0
 40
0
 40
0
 40
0
 40
1
 40
1
 40
1
 40
1
 10
66.174971
 20
115.697632
 30
0.0
 10
66.314411
 20
115.834290
 30
0.0
 10
67.284085
 20
115.576147
 30
0.0
 10
67.601996
 20
115.317727
 30
0.0
  0
SPLINE
  5
209
100
AcDbEntity
  8
Layer_1
 62
7
100
AcDbSpline
 70
8
 71
3
 72
8
 73
4
 74
0
 40
0
 40
0
 40
0
 40
0
 40
1
 40
1
 40
1
 40
1
 10
67.601996
 20
115.317727
 30
0.0
 10
67.817656
 20
115.142430
 30
0.0
 10
67.935682
 20
115.114402
 30
0.0
 10
68.003883
 20
115.222312
 30
0.0
  0
SPLINE
  5
20a
100
AcDbEntity
  8
Layer_1
 62
7
100
AcDbSpline
 70
8
 71
3
 72
8
 73
4
 74
0
 40
0
 40
0
 40
0
 40
0
 40
1
 40
1
 40
1
 40
1
 10
68.003883
 20
115.222312
 30
0.0
 10
68.056990
 20
115.306342
 30
0.0
 10
68.209449
 20
115.465620
 30
0.0
 10
68.342677
 20
115.576282
 30
0.0
  0
SPLINE
  5
20b
100
AcDbEntity
  8
Layer_1
 62
7
100
AcDbSpline
 70
8
 71
3
 72
8
 73
4
 74
0
 40
0
 40
0
 40
0
 40
0
 40
1
 40
1
 40
1
 40
1
 10
68.342677
 20
115.576282
 30
0.0
 10
68.488773
 20
115.697617
 30
0.0
 10
68.551335
 20
115.857667
 30
0.0
 10
68.500311
 20
115.979542
 30
0.0
  0
SPLINE
  5
20c
100
AcDbEntity
  8
Layer_1
 62
7
100
AcDbSpline
 70
8
 71
3
 72
8
 73
4
 74
0
 40
0
 40
0
 40
0
 40
0
 40
1
 40
1
 40
1
 40
1
 10
68.500311
 20
115.979542
 30
0.0
 10
68.453233
 20
116.091997
 30
0.0
 10
68.474818
 20
116.161245
 30
0.0
 10
68.549001
 20
116.135692
 30
0.0
  0
SPLINE
  5
20d
100
AcDbEntity
  8
Layer_1
 62
7
100
AcDbSpline
 70
8
 71
3
 72
8
 73
4
 74
0
 40
0
 40
0
 40
0
 40
0
 40
1
 40
1
 40
1
 40
1
 10
68.549001
 20
116.135692
 30
0.0
 10
68.622313
 20
116.110417
 30
0.0
 10
68.701527
 20
116.145517
 30
0.0
 10
68.725026
 20
116.213820
 30
0.0
  0
SPLINE
  5
20e
100
AcDbEntity
  8
Layer_1
 62
7
100
AcDbSpline
 70
8
 71
3
 72
8
 73
4
 74
0
 40
0
 40
0
 40
0
 40
0
 40
1
 40
1
 40
1
 40
1
 10
68.725026
 20
116.213820
 30
0.0
 10
68.748531
 20
116.281995
 30
0.0
 10
68.704221
 20
116.311147
 30
0.0
 10
68.626549
 20
116.278545
 30
0.0
  0
SPLINE
  5
20f
100
AcDbEntity
  8
Layer_1
 62
7
100
AcDbSpline
 70
8
 71
3
 72
8
 73
4
 74
0
 40
0
 40
0
 40
0
 40
0
 40
1
 40
1
 40
1
 40
1
 10
68.626549
 20
116.278545
 30
0.0
 10
68.206763
 20
116.102092
 30
0.0
 10
68.018564
 20
115.903605
 30
0.0
 10
68.011960
 20
115.630267
 30
0.0
  0
SPLINE
  5
210
100
AcDbEntity
  8
Layer_1
 62
7
100
AcDbSpline
 70
8
 71
3
 72
8
 73
4
 74
0
 40
0
 40
0
 40
0
 40
0
 40
1
 40
1
 40
1
 40
1
 10
68.011960
 20
115.630267
 30
0.0
 10
68.003882
 20
115.296585
 30
0.0
 10
67.837516
 20
115.176022
 30
0.0
 10
67.773984
 20
115.457827
 30
0.0
  0
SPLINE
  5
211
100
AcDbEntity
  8
Layer_1
 62
7
100
AcDbSpline
 70
8
 71
3
 72
8
 73
4
 74
0
 40
0
 40
0
 40
0
 40
0
 40
1
 40
1
 40
1
 40
1
 10
67.773984
 20
115.457827
 30
0.0
 10
67.752166
 20
115.554547
 30
0.0
 10
67.778334
 20
115.643610
 30
0.0
 10
67.832034
 20
115.655722
 30
0.0
  0
SPLINE
  5
212
100
AcDbEntity
  8
Layer_1
 62
7
100
AcDbSpline
 70
8
 71
3
 72
8
 73
4
 74
0
 40
0
 40
0
 40
0
 40
0
 40
1
 40
1
 40
1
 40
1
 10
67.832034
 20
115.655722
 30
0.0
 10
67.885704
 20
115.668097
 30
0.0
 10
67.917148
 20
115.733610
 30
0.0
 10
67.901746
 20
115.801920
 30
0.0
  0
SPLINE
  5
213
100
AcDbEntity
  8
Layer_1
 62
7
100
AcDbSpline
 70
8
 71
3
 72
8
 73
4
 74
0
 40
0
 40
0
 40
0
 40
0
 40
1
 40
1
 40
1
 40
1
 10
67.901746
 20
115.801920
 30
0.0
 10
67.886349
 20
115.870170
 30
0.0
 10
67.833489
 20
115.886632
 30
0.0
 10
67.784265
 20
115.838445
 30
0.0
  0
SPLINE
  5
214
100
AcDbEntity
  8
Layer_1
 62
7
100
AcDbSpline
 70
8
 71
3
 72
8
 73
4
 74
0
 40
0
 40
0
 40
0
 40
0
 40
1
 40
1
 40
1
 40
1
 10
67.784265
 20
115.838445
 30
0.0
 10
67.673145
 20
115.729545
 30
0.0
 10
67.343010
 20
115.969072
 30
0.0
 10
67.425139
 20
116.099010
 30
0.0
  0
SPLINE
  5
215
100
AcDbEntity
  8
Layer_1
 62
7
100
AcDbSpline
 70
8
 71
3
 72
8
 73
4
 74
0
 40
0
 40
0
 40
0
 40
0
 40
1
 40
1
 40
1
 40
1
 10
67.425139
 20
116.099010
 30
0.0
 10
67.458011
 20
116.150985
 30
0.0
 10
67.382831
 20
116.174910
 30
0.0
 10
67.258078
 20
116.152185
 30
0.0
  0
SPLINE
  5
216
100
AcDbEntity
  8
Layer_1
 62
7
100
AcDbSpline
 70
8
 71
3
 72
8
 73
4
 74
0
 40
0
 40
0
 40
0
 40
0
 40
1
 40
1
 40
1
 40
1
 10
67.258078
 20
116.152185
 30
0.0
 10
67.121136
 20
116.127135
 30
0.0
 10
67.086541
 20
116.149185
 30
0.0
 10
67.170772
 20
116.206710
 30
0.0
  0
SPLINE
  5
217
100
AcDbEntity
  8
Layer_1
 62
7
100
AcDbSpline
 70
8
 71
3
 72
8
 73
4
 74
0
 40
0
 40
0
 40
0
 40
0
 40
1
 40
1
 40
1
 40
1
 10
67.170772
 20
116.206710
 30
0.0
 10
67.247496
 20
116.259435
 30
0.0
 10
67.437533
 20
116.230860
 30
0.0
 10
67.593071
 20
116.143035
 30
0.0
  0
SPLINE
  5
218
100
AcDbEntity
  8
Layer_1
 62
7
100
AcDbSpline
 70
8
 71
3
 72
8
 73
4
 74
0
 40
0
 40
0
 40
0
 40
0
 40
1
 40
1
 40
1
 40
1
 10
67.593071
 20
116.143035
 30
0.0
 10
67.828983
 20
116.009895
 30
0.0
 10
67.886570
 20
116.014507
 30
0.0
 10
67.940425
 20
116.170785
 30
0.0
  0
SPLINE
  5
219
100
AcDbEntity
  8
Layer_1
 62
7
100
AcDbSpline
 70
8
 71
3
 72
8
 73
4
 74
0
 40
0
 40
0
 40
0
 40
0
 40
1
 40
1
 40
1
 40
1
 10
67.940425
 20
116.170785
 30
0.0
 10
68.012455
 20
116.379832
 30
0.0
 10
67.668565
 20
116.594017
 30
0.0
 10
67.361482
 20
116.531377
 30
0.0
  0
SPLINE
  5
21a
100
AcDbEntity
  8
Layer_1
 62
7
100
AcDbSpline
 70
8
 71
3
 72
8
 73
4
 74
0
 40
0
 40
0
 40
0
 40
0
 40
1
 40
1
 40
1
 40
1
 10
67.361482
 20
116.531377
 30
0.0
 10
67.261123
 20
116.510677
 30
0.0
 10
67.104048
 20
116.541202
 30
0.0
 10
67.012573
 20
116.599252
 30
0.0
  0
SPLINE
  5
21b
100
AcDbEntity
  8
Layer_1
 62
7
100
AcDbSpline
 70
8
 71
3
 72
8
 73
4
 74
0
 40
0
 40
0
 40
0
 40
0
 40
1
 40
1
 40
1
 40
1
 10
67.012573
 20
116.599252
 30
0.0
 10
66.887242
 20
116.678467
 30
0.0
 10
66.813713
 20
116.662102
 30
0.0
 10
66.714268
 20
116.533177
 30
0.0
  0
SPLINE
  5
21c
100
AcDbEntity
  8
Layer_1
 62
7
100
AcDbSpline
 70
8
 71
3
 72
8
 73
4
 74
0
 40
0
 40
0
 40
0
 40
0
 40
1
 40
1
 40
1
 40
1
 10
66.714268
 20
116.533177
 30
0.0
 10
66.641691
 20
116.438977
 30
0.0
 10
66.530323
 20
116.391255
 30
0.0
 10
66.466781
 20
116.427142
 30
0.0
  0
SPLINE
  5
21d
100
AcDbEntity
  8
Layer_1
 62
7
100
AcDbSpline
 70
8
 71
3
 72
8
 73
4
 74
0
 40
0
 40
0
 40
0
 40
0
 40
1
 40
1
 40
1
 40
1
 10
66.466781
 20
116.427142
 30
0.0
 10
66.403234
 20
116.463067
 30
0.0
 10
66.393424
 20
116.445892
 30
0.0
 10
66.444986
 20
116.388967
 30
0.0
  0
SPLINE
  5
21e
100
AcDbEntity
  8
Layer_1
 62
7
100
AcDbSpline
 70
8
 71
3
 72
8
 73
4
 74
0
 40
0
 40
0
 40
0
 40
0
 40
1
 40
1
 40
1
 40
1
 10
66.444986
 20
116.388967
 30
0.0
 10
66.496541
 20
116.332117
 30
0.0
 10
66.487234
 20
116.166907
 30
0.0
 10
66.424279
 20
116.021925
 30
0.0
  0
SPLINE
  5
21f
100
AcDbEntity
  8
Layer_1
 62
7
100
AcDbSpline
 70
8
 71
3
 72
8
 73
4
 74
0
 40
0
 40
0
 40
0
 40
0
 40
1
 40
1
 40
1
 40
1
 10
66.424279
 20
116.021925
 30
0.0
 10
66.361331
 20
115.876905
 30
0.0
 10
66.294961
 20
115.824232
 30
0.0
 10
66.276786
 20
115.904850
 30
0.0
  0
SPLINE
  5
220
100
AcDbEntity
  8
Layer_1
 62
7
100
AcDbSpline
 70
8
 71
3
 72
8
 73
4
 74
0
 40
0
 40
0
 40
0
 40
0
 40
1
 40
1
 40
1
 40
1
 10
66.276786
 20
115.904850
 30
0.0
 10
66.258606
 20
115.985467
 30
0.0
 10
66.198330
 20
116.006932
 30
0.0
 10
66.142825
 20
115.952550
 30
0.0
  0
SPLINE
  5
221
100
AcDbEntity
  8
Layer_1
 62
7
100
AcDbSpline
 70
8
 71
3
 72
8
 73
4
 74
0
 40
0
 40
0
 40
0
 40
0
 40
1
 40
1
 40
1
 40
1
 10
66.142825
 20
115.952550
 30
0.0
 10
66.087325
 20
115.898100
 30
0.0
 10
66.053809
 20
115.800877
 30
0.0
 10
66.068350
 20
115.736400
 30
0.0
  0
SPLINE
  5
222
100
AcDbEntity
  8
Layer_1
 62
7
100
AcDbSpline
 70
8
 71
3
 72
8
 73
4
 74
0
 40
0
 40
0
 40
0
 40
0
 40
1
 40
1
 40
1
 40
1
 10
66.068350
 20
115.736400
 30
0.0
 10
66.082908
 20
115.671825
 30
0.0
 10
66.130848
 20
115.654500
 30
0.0
 10
66.174937
 20
115.697700
 30
0.0
  0
LWPOLYLINE
  5
223
100
AcDbEntity
  8
Layer_1
 62
7
100
AcDbPolyline
 90
2
 70
0
 10
66.051696
 20
113.993415
 30
0.0
 10
66.051603
 20
113.993572
 30
0.0
  0
SPLINE
  5
224
100
AcDbEntity
  8
Layer_1
 62
7
100
AcDbSpline
 70
8
 71
3
 72
8
 73
4
 74
0
 40
0
 40
0
 40
0
 40
0
 40
1
 40
1
 40
1
 40
1
 10
67.228943
 20
116.751787
 30
0.0
 10
67.375876
 20
116.784637
 30
0.0
 10
67.636910
 20
116.754037
 30
0.0
 10
67.809161
 20
116.683537
 30
0.0
  0
SPLINE
  5
225
100
AcDbEntity
  8
Layer_1
 62
7
100
AcDbSpline
 70
8
 71
3
 72
8
 73
4
 74
0
 40
0
 40
0
 40
0
 40
0
 40
1
 40
1
 40
1
 40
1
 10
67.809161
 20
116.683537
 30
0.0
 10
68.043873
 20
116.587260
 30
0.0
 10
68.148322
 20
116.596170
 30
0.0
 10
68.226036
 20
116.719162
 30
0.0
  0
SPLINE
  5
226
100
AcDbEntity
  8
Layer_1
 62
7
100
AcDbSpline
 70
8
 71
3
 72
8
 73
4
 74
0
 40
0
 40
0
 40
0
 40
0
 40
1
 40
1
 40
1
 40
1
 10
68.226036
 20
116.719162
 30
0.0
 10
68.303745
 20
116.842117
 30
0.0
 10
68.386301
 20
116.840955
 30
0.0
 10
68.555527
 20
116.714662
 30
0.0
  0
SPLINE
  5
227
100
AcDbEntity
  8
Layer_1
 62
7
100
AcDbSpline
 70
8
 71
3
 72
8
 73
4
 74
0
 40
0
 40
0
 40
0
 40
0
 40
1
 40
1
 40
1
 40
1
 10
68.555527
 20
116.714662
 30
0.0
 10
68.679713
 20
116.621887
 30
0.0
 10
68.765849
 20
116.563590
 30
0.0
 10
68.746942
 20
116.585092
 30
0.0
  0
SPLINE
  5
228
100
AcDbEntity
  8
Layer_1
 62
7
100
AcDbSpline
 70
8
 71
3
 72
8
 73
4
 74
0
 40
0
 40
0
 40
0
 40
0
 40
1
 40
1
 40
1
 40
1
 10
68.746942
 20
116.585092
 30
0.0
 10
68.728034
 20
116.606542
 30
0.0
 10
68.805817
 20
116.753437
 30
0.0
 10
68.919789
 20
116.911417
 30
0.0
  0
SPLINE
  5
229
100
AcDbEntity
  8
Layer_1
 62
7
100
AcDbSpline
 70
8
 71
3
 72
8
 73
4
 74
0
 40
0
 40
0
 40
0
 40
0
 40
1
 40
1
 40
1
 40
1
 10
68.919789
 20
116.911417
 30
0.0
 10
69.033763
 20
117.069390
 30
0.0
 10
69.060899
 20
117.142702
 30
0.0
 10
68.980089
 20
117.074325
 30
0.0
  0
SPLINE
  5
22a
100
AcDbEntity
  8
Layer_1
 62
7
100
AcDbSpline
 70
8
 71
3
 72
8
 73
4
 74
0
 40
0
 40
0
 40
0
 40
0
 40
1
 40
1
 40
1
 40
1
 10
68.980089
 20
117.074325
 30
0.0
 10
68.872562
 20
116.983312
 30
0.0
 10
68.841450
 20
117.006825
 30
0.0
 10
68.864051
 20
117.161985
 30
0.0
  0
SPLINE
  5
22b
100
AcDbEntity
  8
Layer_1
 62
7
100
AcDbSpline
 70
8
 71
3
 72
8
 73
4
 74
0
 40
0
 40
0
 40
0
 40
0
 40
1
 40
1
 40
1
 40
1
 10
68.864051
 20
117.161985
 30
0.0
 10
68.884556
 20
117.302692
 30
0.0
 10
68.834710
 20
117.360397
 30
0.0
 10
68.715819
 20
117.333592
 30
0.0
  0
SPLINE
  5
22c
100
AcDbEntity
  8
Layer_1
 62
7
100
AcDbSpline
 70
8
 71
3
 72
8
 73
4
 74
0
 40
0
 40
0
 40
0
 40
0
 40
1
 40
1
 40
1
 40
1
 10
68.715819
 20
117.333592
 30
0.0
 10
68.617379
 20
117.311017
 30
0.0
 10
68.580694
 20
117.248333
 30
0.0
 10
68.634471
 20
117.193447
 30
0.0
  0
SPLINE
  5
22d
100
AcDbEntity
  8
Layer_1
 62
7
100
AcDbSpline
 70
8
 71
3
 72
8
 73
4
 74
0
 40
0
 40
0
 40
0
 40
0
 40
1
 40
1
 40
1
 40
1
 10
68.634471
 20
117.193447
 30
0.0
 10
68.689633
 20
117.137123
 30
0.0
 10
68.649606
 20
117.105735
 30
0.0
 10
68.542580
 20
117.121297
 30
0.0
  0
SPLINE
  5
22e
100
AcDbEntity
  8
Layer_1
 62
7
100
AcDbSpline
 70
8
 71
3
 72
8
 73
4
 74
0
 40
0
 40
0
 40
0
 40
0
 40
1
 40
1
 40
1
 40
1
 10
68.542580
 20
117.121297
 30
0.0
 10
68.438262
 20
117.136522
 30
0.0
 10
68.363676
 20
117.222772
 30
0.0
 10
68.376824
 20
117.313035
 30
0.0
  0
SPLINE
  5
22f
100
AcDbEntity
  8
Layer_1
 62
7
100
AcDbSpline
 70
8
 71
3
 72
8
 73
4
 74
0
 40
0
 40
0
 40
0
 40
0
 40
1
 40
1
 40
1
 40
1
 10
68.376824
 20
117.313035
 30
0.0
 10
68.412374
 20
117.557055
 30
0.0
 10
68.031655
 20
117.566115
 30
0.0
 10
67.879172
 20
117.324660
 30
0.0
  0
SPLINE
  5
230
100
AcDbEntity
  8
Layer_1
 62
7
100
AcDbSpline
 70
8
 71
3
 72
8
 73
4
 74
0
 40
0
 40
0
 40
0
 40
0
 40
1
 40
1
 40
1
 40
1
 10
67.879172
 20
117.324660
 30
0.0
 10
67.806512
 20
117.209700
 30
0.0
 10
67.662616
 20
117.127950
 30
0.0
 10
67.559396
 20
117.142987
 30
0.0
  0
SPLINE
  5
231
100
AcDbEntity
  8
Layer_1
 62
7
100
AcDbSpline
 70
8
 71
3
 72
8
 73
4
 74
0
 40
0
 40
0
 40
0
 40
0
 40
1
 40
1
 40
1
 40
1
 10
67.559396
 20
117.142987
 30
0.0
 10
67.456175
 20
117.158062
 30
0.0
 10
67.350500
 20
117.108787
 30
0.0
 10
67.324565
 20
117.033487
 30
0.0
  0
SPLINE
  5
232
100
AcDbEntity
  8
Layer_1
 62
7
100
AcDbSpline
 70
8
 71
3
 72
8
 73
4
 74
0
 40
0
 40
0
 40
0
 40
0
 40
1
 40
1
 40
1
 40
1
 10
67.324565
 20
117.033487
 30
0.0
 10
67.298630
 20
116.958187
 30
0.0
 10
67.193253
 20
116.908875
 30
0.0
 10
67.090403
 20
116.923837
 30
0.0
  0
SPLINE
  5
233
100
AcDbEntity
  8
Layer_1
 62
7
100
AcDbSpline
 70
8
 71
3
 72
8
 73
4
 74
0
 40
0
 40
0
 40
0
 40
0
 40
1
 40
1
 40
1
 40
1
 10
67.090403
 20
116.923837
 30
0.0
 10
66.987539
 20
116.938838
 30
0.0
 10
66.916557
 20
116.892712
 30
0.0
 10
66.932649
 20
116.821305
 30
0.0
  0
SPLINE
  5
234
100
AcDbEntity
  8
Layer_1
 62
7
100
AcDbSpline
 70
8
 71
3
 72
8
 73
4
 74
0
 40
0
 40
0
 40
0
 40
0
 40
1
 40
1
 40
1
 40
1
 10
66.932649
 20
116.821305
 30
0.0
 10
66.948722
 20
116.749980
 30
0.0
 10
67.082080
 20
116.718600
 30
0.0
 10
67.228949
 20
116.751780
 30
0.0
  0
LWPOLYLINE
  5
235
100
AcDbEntity
  8
Layer_1
 62
7
100
AcDbPolyline
 90
1
 70
1
 10
66.174937
 20
115.697700
 30
0.0
  0
SPLINE
  5
236
100
AcDbEntity
  8
Layer_1
 62
7
100
AcDbSpline
 70
8
 71
3
 72
8
 73
4
 74
0
 40
0
 40
0
 40
0
 40
0
 40
1
 40
1
 40
1
 40
1
 10
68.415974
 20
117.937312
 30
0.0
 10
68.495413
 20
117.909862
 30
0.0
 10
68.697755
 20
117.745357
 30
0.0
 10
68.865648
 20
117.571567
 30
0.0
  0
LWPOLYLINE
  5
237
100
AcDbEntity
  8
Layer_1
 62
7
100
AcDbPolyline
 90
1
 70
1
 10
67.228949
 20
116.751780
 30
0.0
  0
SPLINE
  5
238
100
AcDbEntity
  8
Layer_1
 62
7
100
AcDbSpline
 70
8
 71
3
 72
8
 73
4
 74
0
 40
0
 40
0
 40
0
 40
0
 40
1
 40
1
 40
1
 40
1
 10
68.966357
 20
117.834502
 30
0.0
 10
68.842837
 20
118.184115
 30
0.0
 10
68.792538
 20
118.524660
 30
0.0
 10
68.839404
 20
118.694205
 30
0.0
  0
SPLINE
  5
239
100
AcDbEntity
  8
Layer_1
 62
7
100
AcDbSpline
 70
8
 71
3
 72
8
 73
4
 74
0
 40
0
 40
0
 40
0
 40
0
 40
1
 40
1
 40
1
 40
1
 10
68.839404
 20
118.694205
 30
0.0
 10
68.903162
 20
118.924905
 30
0.0
 10
68.889384
 20
118.956555
 30
0.0
 10
68.762146
 20
118.871700
 30
0.0
  0
SPLINE
  5
23a
100
AcDbEntity
  8
Layer_1
 62
7
100
AcDbSpline
 70
8
 71
3
 72
8
 73
4
 74
0
 40
0
 40
0
 40
0
 40
0
 40
1
 40
1
 40
1
 40
1
 10
68.762146
 20
118.871700
 30
0.0
 10
68.676969
 20
118.814925
 30
0.0
 10
68.595409
 20
118.686870
 30
0.0
 10
68.580887
 20
118.587187
 30
0.0
  0
SPLINE
  5
23b
100
AcDbEntity
  8
Layer_1
 62
7
100
AcDbSpline
 70
8
 71
3
 72
8
 73
4
 74
0
 40
0
 40
0
 40
0
 40
0
 40
1
 40
1
 40
1
 40
1
 10
68.580887
 20
118.587187
 30
0.0
 10
68.566367
 20
118.487505
 30
0.0
 10
68.473685
 20
118.387732
 30
0.0
 10
68.374928
 20
118.365472
 30
0.0
  0
SPLINE
  5
23c
100
AcDbEntity
  8
Layer_1
 62
7
100
AcDbSpline
 70
8
 71
3
 72
8
 73
4
 74
0
 40
0
 40
0
 40
0
 40
0
 40
1
 40
1
 40
1
 40
1
 10
68.374928
 20
118.365472
 30
0.0
 10
68.169703
 20
118.319122
 30
0.0
 10
68.199125
 20
118.012035
 30
0.0
 10
68.415976
 20
117.937312
 30
0.0
  0
LWPOLYLINE
  5
23d
100
AcDbEntity
  8
Layer_1
 62
7
100
AcDbPolyline
 90
3
 70
0
 10
68.865648
 20
117.571567
 30
0.0
 10
69.170909
 20
117.255577
 30
0.0
 10
68.966357
 20
117.834502
 30
0.0
  0
SPLINE
  5
23e
100
AcDbEntity
  8
Layer_1
 62
7
100
AcDbSpline
 70
8
 71
3
 72
8
 73
4
 74
0
 40
0
 40
0
 40
0
 40
0
 40
1
 40
1
 40
1
 40
1
 10
69.512509
 20
119.806815
 30
0.0
 10
69.827789
 20
120.384652
 30
0.0
 10
69.752135
 20
120.486855
 30
0.0
 10
69.377150
 20
119.989672
 30
0.0
  0
SPLINE
  5
23f
100
AcDbEntity
  8
Layer_1
 62
7
100
AcDbSpline
 70
8
 71
3
 72
8
 73
4
 74
0
 40
0
 40
0
 40
0
 40
0
 40
1
 40
1
 40
1
 40
1
 10
69.377150
 20
119.989672
 30
0.0
 10
69.201739
 20
119.757090
 30
0.0
 10
69.110706
 20
119.529660
 30
0.0
 10
69.174854
 20
119.484270
 30
0.0
  0
SPLINE
  5
240
100
AcDbEntity
  8
Layer_1
 62
7
100
AcDbSpline
 70
8
 71
3
 72
8
 73
4
 74
0
 40
0
 40
0
 40
0
 40
0
 40
1
 40
1
 40
1
 40
1
 10
69.174854
 20
119.484270
 30
0.0
 10
69.238994
 20
119.438895
 30
0.0
 10
69.390950
 20
119.584013
 30
0.0
 10
69.512509
 20
119.806815
 30
0.0
  0
LWPOLYLINE
  5
241
100
AcDbEntity
  8
Layer_1
 62
7
100
AcDbPolyline
 90
1
 70
1
 10
68.415976
 20
117.937312
 30
0.0
  0
SPLINE
  5
242
100
AcDbEntity
  8
Layer_1
 62
7
100
AcDbSpline
 70
8
 71
3
 72
8
 73
4
 74
0
 40
0
 40
0
 40
0
 40
0
 40
1
 40
1
 40
1
 40
1
 10
53.059063
 20
93.104280
 30
0.0
 10
53.059063
 20
93.104280
 30
0.0
 10
53.870368
 20
93.740805
 30
0.0
 10
53.059063
 20
93.104280
 30
0.0
  0
LWPOLYLINE
  5
243
100
AcDbEntity
  8
Layer_1
 62
7
100
AcDbPolyline
 90
1
 70
1
 10
69.512509
 20
119.806815
 30
0.0
  0
SPLINE
  5
244
100
AcDbEntity
  8
Layer_1
 62
7
100
AcDbSpline
 70
8
 71
3
 72
8
 73
4
 74
0
 40
0
 40
0
 40
0
 40
0
 40
1
 40
1
 40
1
 40
1
 10
55.800297
 20
98.296785
 30
0.0
 10
55.953379
 20
98.484562
 30
0.0
 10
55.958462
 20
98.481345
 30
0.0
 10
55.854537
 20
98.262510
 30
0.0
  0
SPLINE
  5
245
100
AcDbEntity
  8
Layer_1
 62
7
100
AcDbSpline
 70
8
 71
3
 72
8
 73
4
 74
0
 40
0
 40
0
 40
0
 40
0
 40
1
 40
1
 40
1
 40
1
 10
55.854537
 20
98.262510
 30
0.0
 10
55.791470
 20
98.129700
 30
0.0
 10
55.719957
 20
98.016555
 30
0.0
 10
55.695611
 20
98.011065
 30
0.0
  0
SPLINE
  5
246
100
AcDbEntity
  8
Layer_1
 62
7
100
AcDbSpline
 70
8
 71
3
 72
8
 73
4
 74
0
 40
0
 40
0
 40
0
 40
0
 40
1
 40
1
 40
1
 40
1
 10
55.695611
 20
98.011065
 30
0.0
 10
55.599177
 20
97.989015
 30
0.0
 10
55.639511
 20
98.099587
 30
0.0
 10
55.800289
 20
98.296800
 30
0.0
  0
LWPOLYLINE
  5
247
100
AcDbEntity
  8
Layer_1
 62
7
100
AcDbPolyline
 90
1
 70
1
 10
53.059063
 20
93.104280
 30
0.0
  0
SPLINE
  5
248
100
AcDbEntity
  8
Layer_1
 62
7
100
AcDbSpline
 70
8
 71
3
 72
8
 73
4
 74
0
 40
0
 40
0
 40
0
 40
0
 40
1
 40
1
 40
1
 40
1
 10
58.334370
 20
91.514257
 30
0.0
 10
58.384673
 20
91.563532
 30
0.0
 10
58.376648
 20
91.698877
 30
0.0
 10
58.316565
 20
91.814992
 30
0.0
  0
SPLINE
  5
249
100
AcDbEntity
  8
Layer_1
 62
7
100
AcDbSpline
 70
8
 71
3
 72
8
 73
4
 74
0
 40
0
 40
0
 40
0
 40
0
 40
1
 40
1
 40
1
 40
1
 10
58.316565
 20
91.814992
 30
0.0
 10
58.246170
 20
91.951012
 30
0.0
 10
58.279373
 20
92.088435
 30
0.0
 10
58.409879
 20
92.201317
 30
0.0
  0
SPLINE
  5
24a
100
AcDbEntity
  8
Layer_1
 62
7
100
AcDbSpline
 70
8
 71
3
 72
8
 73
4
 74
0
 40
0
 40
0
 40
0
 40
0
 40
1
 40
1
 40
1
 40
1
 10
58.409879
 20
92.201317
 30
0.0
 10
58.602694
 20
92.368117
 30
0.0
 10
58.610106
 20
92.355277
 30
0.0
 10
58.563910
 20
91.934610
 30
0.0
  0
SPLINE
  5
24b
100
AcDbEntity
  8
Layer_1
 62
7
100
AcDbSpline
 70
8
 71
3
 72
8
 73
4
 74
0
 40
0
 40
0
 40
0
 40
0
 40
1
 40
1
 40
1
 40
1
 10
58.563910
 20
91.934610
 30
0.0
 10
58.582570
 20
91.483380
 30
0.0
 10
58.095919
 20
90.908715
 30
0.0
 10
58.334375
 20
91.514257
 30
0.0
  0
LWPOLYLINE
  5
24c
100
AcDbEntity
  8
Layer_1
 62
7
100
AcDbPolyline
 90
1
 70
1
 10
55.800289
 20
98.296800
 30
0.0
  0
SPLINE
  5
24d
100
AcDbEntity
  8
Layer_1
 62
7
100
AcDbSpline
 70
8
 71
3
 72
8
 73
4
 74
0
 40
0
 40
0
 40
0
 40
0
 40
1
 40
1
 40
1
 40
1
 10
60.508598
 20
96.645315
 30
0.0
 10
60.602267
 20
96.828502
 30
0.0
 10
60.693255
 20
96.922912
 30
0.0
 10
60.710795
 20
96.855120
 30
0.0
  0
SPLINE
  5
24e
100
AcDbEntity
  8
Layer_1
 62
7
100
AcDbSpline
 70
8
 71
3
 72
8
 73
4
 74
0
 40
0
 40
0
 40
0
 40
0
 40
1
 40
1
 40
1
 40
1
 10
60.710795
 20
96.855120
 30
0.0
 10
60.757513
 20
96.674617
 30
0.0
 10
60.527515
 20
96.192637
 30
0.0
 10
60.425472
 20
96.257137
 30
0.0
  0
SPLINE
  5
24f
100
AcDbEntity
  8
Layer_1
 62
7
100
AcDbSpline
 70
8
 71
3
 72
8
 73
4
 74
0
 40
0
 40
0
 40
0
 40
0
 40
1
 40
1
 40
1
 40
1
 10
60.425472
 20
96.257137
 30
0.0
 10
60.377525
 20
96.287437
 30
0.0
 10
60.414927
 20
96.462127
 30
0.0
 10
60.508598
 20
96.645315
 30
0.0
  0
LWPOLYLINE
  5
250
100
AcDbEntity
  8
Layer_1
 62
7
100
AcDbPolyline
 90
1
 70
1
 10
58.334375
 20
91.514257
 30
0.0
  0
SPLINE
  5
251
100
AcDbEntity
  8
Layer_1
 62
7
100
AcDbSpline
 70
8
 71
3
 72
8
 73
4
 74
0
 40
0
 40
0
 40
0
 40
0
 40
1
 40
1
 40
1
 40
1
 10
61.091321
 20
96.824970
 30
0.0
 10
61.219802
 20
96.950887
 30
0.0
 10
61.281043
 20
96.679245
 30
0.0
 10
61.183844
 20
96.414600
 30
0.0
  0
SPLINE
  5
252
100
AcDbEntity
  8
Layer_1
 62
7
100
AcDbSpline
 70
8
 71
3
 72
8
 73
4
 74
0
 40
0
 40
0
 40
0
 40
0
 40
1
 40
1
 40
1
 40
1
 10
61.183844
 20
96.414600
 30
0.0
 10
61.123679
 20
96.250777
 30
0.0
 10
61.098670
 20
96.261067
 30
0.0
 10
61.050122
 20
96.469575
 30
0.0
  0
SPLINE
  5
253
100
AcDbEntity
  8
Layer_1
 62
7
100
AcDbSpline
 70
8
 71
3
 72
8
 73
4
 74
0
 40
0
 40
0
 40
0
 40
0
 40
1
 40
1
 40
1
 40
1
 10
61.050122
 20
96.469575
 30
0.0
 10
61.017302
 20
96.610642
 30
0.0
 10
61.035827
 20
96.770565
 30
0.0
 10
61.091327
 20
96.824955
 30
0.0
  0
LWPOLYLINE
  5
254
100
AcDbEntity
  8
Layer_1
 62
7
100
AcDbPolyline
 90
1
 70
1
 10
60.508598
 20
96.645315
 30
0.0
  0
SPLINE
  5
255
100
AcDbEntity
  8
Layer_1
 62
7
100
AcDbSpline
 70
8
 71
3
 72
8
 73
4
 74
0
 40
0
 40
0
 40
0
 40
0
 40
1
 40
1
 40
1
 40
1
 10
60.187424
 20
102.473655
 30
0.0
 10
60.271664
 20
102.660037
 30
0.0
 10
60.389912
 20
102.781350
 30
0.0
 10
60.450197
 20
102.743242
 30
0.0
  0
SPLINE
  5
256
100
AcDbEntity
  8
Layer_1
 62
7
100
AcDbSpline
 70
8
 71
3
 72
8
 73
4
 74
0
 40
0
 40
0
 40
0
 40
0
 40
1
 40
1
 40
1
 40
1
 10
60.450197
 20
102.743242
 30
0.0
 10
60.510482
 20
102.705217
 30
0.0
 10
60.471257
 20
102.533872
 30
0.0
 10
60.363038
 20
102.362655
 30
0.0
  0
SPLINE
  5
257
100
AcDbEntity
  8
Layer_1
 62
7
100
AcDbSpline
 70
8
 71
3
 72
8
 73
4
 74
0
 40
0
 40
0
 40
0
 40
0
 40
1
 40
1
 40
1
 40
1
 10
60.363038
 20
102.362655
 30
0.0
 10
60.108455
 20
101.959860
 30
0.0
 10
59.989255
 20
102.035197
 30
0.0
 10
60.187424
 20
102.473655
 30
0.0
  0
LWPOLYLINE
  5
258
100
AcDbEntity
  8
Layer_1
 62
7
100
AcDbPolyline
 90
1
 70
1
 10
61.091327
 20
96.824955
 30
0.0
  0
SPLINE
  5
259
100
AcDbEntity
  8
Layer_1
 62
7
100
AcDbSpline
 70
8
 71
3
 72
8
 73
4
 74
0
 40
0
 40
0
 40
0
 40
0
 40
1
 40
1
 40
1
 40
1
 10
60.343513
 20
101.745960
 30
0.0
 10
60.485887
 20
101.696160
 30
0.0
 10
60.584804
 20
101.604412
 30
0.0
 10
60.563324
 20
101.542080
 30
0.0
  0
SPLINE
  5
25a
100
AcDbEntity
  8
Layer_1
 62
7
100
AcDbSpline
 70
8
 71
3
 72
8
 73
4
 74
0
 40
0
 40
0
 40
0
 40
0
 40
1
 40
1
 40
1
 40
1
 10
60.563324
 20
101.542080
 30
0.0
 10
60.519442
 20
101.414715
 30
0.0
 10
60.144348
 20
101.571705
 30
0.0
 10
60.108068
 20
101.732625
 30
0.0
  0
SPLINE
  5
25b
100
AcDbEntity
  8
Layer_1
 62
7
100
AcDbSpline
 70
8
 71
3
 72
8
 73
4
 74
0
 40
0
 40
0
 40
0
 40
0
 40
1
 40
1
 40
1
 40
1
 10
60.108068
 20
101.732625
 30
0.0
 10
60.095183
 20
101.789700
 30
0.0
 10
60.201133
 20
101.795775
 30
0.0
 10
60.343505
 20
101.745975
 30
0.0
  0
LWPOLYLINE
  5
25c
100
AcDbEntity
  8
Layer_1
 62
7
100
AcDbPolyline
 90
1
 70
1
 10
60.187424
 20
102.473655
 30
0.0
  0
SPLINE
  5
25d
100
AcDbEntity
  8
Layer_1
 62
7
100
AcDbSpline
 70
8
 71
3
 72
8
 73
4
 74
0
 40
0
 40
0
 40
0
 40
0
 40
1
 40
1
 40
1
 40
1
 10
59.701005
 20
104.704155
 30
0.0
 10
59.900786
 20
104.749980
 30
0.0
 10
61.008284
 20
104.037510
 30
0.0
 10
60.929920
 20
103.913527
 30
0.0
  0
SPLINE
  5
25e
100
AcDbEntity
  8
Layer_1
 62
7
100
AcDbSpline
 70
8
 71
3
 72
8
 73
4
 74
0
 40
0
 40
0
 40
0
 40
0
 40
1
 40
1
 40
1
 40
1
 10
60.929920
 20
103.913527
 30
0.0
 10
60.877675
 20
103.830862
 30
0.0
 10
60.278676
 20
104.188080
 30
0.0
 10
60.302006
 20
104.287995
 30
0.0
  0
SPLINE
  5
25f
100
AcDbEntity
  8
Layer_1
 62
7
100
AcDbSpline
 70
8
 71
3
 72
8
 73
4
 74
0
 40
0
 40
0
 40
0
 40
0
 40
1
 40
1
 40
1
 40
1
 10
60.302006
 20
104.287995
 30
0.0
 10
60.310631
 20
104.324820
 30
0.0
 10
60.135868
 20
104.423760
 30
0.0
 10
59.913658
 20
104.507655
 30
0.0
  0
SPLINE
  5
260
100
AcDbEntity
  8
Layer_1
 62
7
100
AcDbSpline
 70
8
 71
3
 72
8
 73
4
 74
0
 40
0
 40
0
 40
0
 40
0
 40
1
 40
1
 40
1
 40
1
 10
59.913658
 20
104.507655
 30
0.0
 10
59.652614
 20
104.606212
 30
0.0
 10
59.577359
 20
104.675760
 30
0.0
 10
59.701005
 20
104.704155
 30
0.0
  0
LWPOLYLINE
  5
261
100
AcDbEntity
  8
Layer_1
 62
7
100
AcDbPolyline
 90
1
 70
1
 10
60.343505
 20
101.745975
 30
0.0
  0
SPLINE
  5
262
100
AcDbEntity
  8
Layer_1
 62
7
100
AcDbSpline
 70
8
 71
3
 72
8
 73
4
 74
0
 40
0
 40
0
 40
0
 40
0
 40
1
 40
1
 40
1
 40
1
 10
62.675486
 20
103.293705
 30
0.0
 10
62.959958
 20
103.221705
 30
0.0
 10
63.202508
 20
103.048215
 30
0.0
 10
63.139070
 20
102.962130
 30
0.0
  0
SPLINE
  5
263
100
AcDbEntity
  8
Layer_1
 62
7
100
AcDbSpline
 70
8
 71
3
 72
8
 73
4
 74
0
 40
0
 40
0
 40
0
 40
0
 40
1
 40
1
 40
1
 40
1
 10
63.139070
 20
102.962130
 30
0.0
 10
63.120905
 20
102.937455
 30
0.0
 10
62.944649
 20
103.018380
 30
0.0
 10
62.747399
 20
103.141792
 30
0.0
  0
SPLINE
  5
264
100
AcDbEntity
  8
Layer_1
 62
7
100
AcDbSpline
 70
8
 71
3
 72
8
 73
4
 74
0
 40
0
 40
0
 40
0
 40
0
 40
1
 40
1
 40
1
 40
1
 10
62.747399
 20
103.141792
 30
0.0
 10
62.419698
 20
103.346925
 30
0.0
 10
62.413496
 20
103.360020
 30
0.0
 10
62.675489
 20
103.293705
 30
0.0
  0
LWPOLYLINE
  5
265
100
AcDbEntity
  8
Layer_1
 62
7
100
AcDbPolyline
 90
1
 70
1
 10
59.701005
 20
104.704155
 30
0.0
  0
SPLINE
  5
266
100
AcDbEntity
  8
Layer_1
 62
1
100
AcDbSpline
 70
8
 71
3
 72
8
 73
4
 74
0
 40
0
 40
0
 40
0
 40
0
 40
1
 40
1
 40
1
 40
1
 10
74.694919
 20
93.944875
 30
0.0
 10
69.537435
 20
89.387335
 30
0.0
 10
62.529923
 20
87.369880
 30
0.0
 10
56.312043
 20
88.652466
 30
0.0
  0
SPLINE
  5
267
100
AcDbEntity
  8
Layer_1
 62
1
100
AcDbSpline
 70
8
 71
3
 72
8
 73
4
 74
0
 40
0
 40
0
 40
0
 40
0
 40
1
 40
1
 40
1
 40
1
 10
56.312043
 20
88.652466
 30
0.0
 10
50.094163
 20
89.935052
 30
0.0
 10
45.610560
 20
94.322823
 30
0.0
 10
44.550164
 20
100.162948
 30
0.0
  0
SPLINE
  5
268
100
AcDbEntity
  8
Layer_1
 62
1
100
AcDbSpline
 70
8
 71
3
 72
8
 73
4
 74
0
 40
0
 40
0
 40
0
 40
0
 40
1
 40
1
 40
1
 40
1
 10
44.550164
 20
100.162948
 30
0.0
 10
43.489767
 20
106.003074
 30
0.0
 10
46.013677
 20
112.408300
 30
0.0
 10
51.171161
 20
116.965840
 30
0.0
  0
SPLINE
  5
269
100
AcDbEntity
  8
Layer_1
 62
1
100
AcDbSpline
 70
8
 71
3
 72
8
 73
4
 74
0
 40
0
 40
0
 40
0
 40
0
 40
1
 40
1
 40
1
 40
1
 10
51.171161
 20
116.965840
 30
0.0
 10
59.143940
 20
124.011186
 30
0.0
 10
70.873126
 20
124.569148
 30
0.0
 10
77.369033
 20
118.212085
 30
0.0
  0
SPLINE
  5
26a
100
AcDbEntity
  8
Layer_1
 62
1
100
AcDbSpline
 70
8
 71
3
 72
8
 73
4
 74
0
 40
0
 40
0
 40
0
 40
0
 40
1
 40
1
 40
1
 40
1
 10
77.369033
 20
118.212085
 30
0.0
 10
83.864939
 20
111.855021
 30
0.0
 10
82.667698
 20
100.990221
 30
0.0
 10
74.694919
 20
93.944875
 30
0.0
  0
LWPOLYLINE
  5
26b
100
AcDbEntity
  8
Layer_1
 62
7
100
AcDbPolyline
 90
1
 70
1
 10
62.675489
 20
103.293705
 30
0.0
  0
SPLINE
  5
26c
100
AcDbEntity
  8
Layer_1
 62
1
100
AcDbSpline
 70
8
 71
3
 72
8
 73
4
 74
0
 40
0
 40
0
 40
0
 40
0
 40
1
 40
1
 40
1
 40
1
 10
76.084811
 20
115.615252
 30
0.0
 10
76.084811
 20
114.947194
 30
0.0
 10
75.704646
 20
114.329883
 30
0.0
 10
75.087520
 20
113.995854
 30
0.0
  0
SPLINE
  5
26d
100
AcDbEntity
  8
Layer_1
 62
1
100
AcDbSpline
 70
8
 71
3
 72
8
 73
4
 74
0
 40
0
 40
0
 40
0
 40
0
 40
1
 40
1
 40
1
 40
1
 10
75.087520
 20
113.995854
 30
0.0
 10
74.470394
 20
113.661825
 30
0.0
 10
73.710064
 20
113.661825
 30
0.0
 10
73.092938
 20
113.995854
 30
0.0
  0
SPLINE
  5
26e
100
AcDbEntity
  8
Layer_1
 62
1
100
AcDbSpline
 70
8
 71
3
 72
8
 73
4
 74
0
 40
0
 40
0
 40
0
 40
0
 40
1
 40
1
 40
1
 40
1
 10
73.092938
 20
113.995854
 30
0.0
 10
72.475812
 20
114.329883
 30
0.0
 10
72.095647
 20
114.947194
 30
0.0
 10
72.095647
 20
115.615252
 30
0.0
  0
SPLINE
  5
26f
100
AcDbEntity
  8
Layer_1
 62
1
100
AcDbSpline
 70
8
 71
3
 72
8
 73
4
 74
0
 40
0
 40
0
 40
0
 40
0
 40
1
 40
1
 40
1
 40
1
 10
72.095647
 20
115.615252
 30
0.0
 10
72.095647
 20
116.283311
 30
0.0
 10
72.475812
 20
116.900622
 30
0.0
 10
73.092938
 20
117.234651
 30
0.0
  0
SPLINE
  5
270
100
AcDbEntity
  8
Layer_1
 62
1
100
AcDbSpline
 70
8
 71
3
 72
8
 73
4
 74
0
 40
0
 40
0
 40
0
 40
0
 40
1
 40
1
 40
1
 40
1
 10
73.092938
 20
117.234651
 30
0.0
 10
73.710064
 20
117.568680
 30
0.0
 10
74.470394
 20
117.568680
 30
0.0
 10
75.087520
 20
117.234651
 30
0.0
  0
SPLINE
  5
271
100
AcDbEntity
  8
Layer_1
 62
1
100
AcDbSpline
 70
8
 71
3
 72
8
 73
4
 74
0
 40
0
 40
0
 40
0
 40
0
 40
1
 40
1
 40
1
 40
1
 10
75.087520
 20
117.234651
 30
0.0
 10
75.704646
 20
116.900622
 30
0.0
 10
76.084811
 20
116.283311
 30
0.0
 10
76.084811
 20
115.615252
 30
0.0
  0
LWPOLYLINE
  5
272
100
AcDbEntity
  8
Layer_1
 62
1
100
AcDbPolyline
 90
1
 70
1
 10
74.694919
 20
93.944875
 30
0.0
  0
LWPOLYLINE
  5
273
100
AcDbEntity
  8
Layer_1
 62
1
100
AcDbPolyline
 90
1
 70
1
 10
76.084811
 20
115.615252
 30
0.0
  0
ENDSEC
  0
SECTION
  2
OBJECTS
  0
DICTIONARY
  5
C
330
0
100
AcDbDictionary
  3
ACAD_GROUP
350
D
  3
ACAD_MLINESTYLE
350
17
  0
DICTIONARY
  5
D
330
C
100
AcDbDictionary
  0
DICTIONARY
  5
1A
330
C
100
AcDbDictionary
  0
DICTIONARY
  5
17
330
C
100
AcDbDictionary
  3
STANDARD
350
18
  0
DICTIONARY
  5
19
330
C
100
AcDbDictionary
  0
ENDSEC
  0
EOF
