<?xml version="1.0" encoding="UTF-8" standalone="no"?>
<!-- Created with Inkscape (http://www.inkscape.org/) -->

<svg
   xmlns:dc="http://purl.org/dc/elements/1.1/"
   xmlns:cc="http://creativecommons.org/ns#"
   xmlns:rdf="http://www.w3.org/1999/02/22-rdf-syntax-ns#"
   xmlns:svg="http://www.w3.org/2000/svg"
   xmlns="http://www.w3.org/2000/svg"
   xmlns:sodipodi="http://sodipodi.sourceforge.net/DTD/sodipodi-0.dtd"
   xmlns:inkscape="http://www.inkscape.org/namespaces/inkscape"
   width="210mm"
   height="297mm"
   viewBox="0 0 210 297"
   version="1.1"
   id="svg6316"
   inkscape:version="0.92.1 r15371"
   sodipodi:docname="SOUZ_fgT.svg">
  <defs
     id="defs6310" />
  <sodipodi:namedview
     id="base"
     pagecolor="#ffffff"
     bordercolor="#666666"
     borderopacity="1.0"
     inkscape:pageopacity="0.0"
     inkscape:pageshadow="2"
     inkscape:zoom="1.4"
     inkscape:cx="113.58034"
     inkscape:cy="505.3043"
     inkscape:document-units="mm"
     inkscape:current-layer="layer1"
     showgrid="false"
     inkscape:window-width="1366"
     inkscape:window-height="705"
     inkscape:window-x="-8"
     inkscape:window-y="-8"
     inkscape:window-maximized="1" />
  <metadata
     id="metadata6313">
    <rdf:RDF>
      <cc:Work
         rdf:about="">
        <dc:format>image/svg+xml</dc:format>
        <dc:type
           rdf:resource="http://purl.org/dc/dcmitype/StillImage" />
        <dc:title></dc:title>
      </cc:Work>
    </rdf:RDF>
  </metadata>
  <g
     inkscape:label="Layer 1"
     inkscape:groupmode="layer"
     id="layer1">
    <path
       style="fill:#000000;stroke-width:0.16025728"
       d="m 70.330148,171.40425 c 0.401237,-0.41957 0.860957,-1.04956 1.021602,-1.39997 0.221155,-0.48242 0.393752,-0.64938 0.710806,-0.68763 0.389613,-0.047 0.411181,-0.10019 0.310155,-0.76498 -0.119224,-0.78457 0.07669,-1.28637 0.576397,-1.47639 0.265987,-0.10112 0.295675,-0.21045 0.164309,-0.60503 -0.12771,-0.38362 -0.07203,-0.62133 0.273705,-1.16833 0.238722,-0.37769 0.460594,-0.86006 0.493045,-1.07193 0.03245,-0.21186 0.674894,-1.46662 1.427646,-2.78834 1.116789,-1.96092 1.447489,-2.42091 1.797146,-2.49975 0.45742,-0.10266 1.037141,-0.63593 0.977912,-0.89863 -0.01969,-0.0872 0.04597,-0.28796 0.145864,-0.44602 0.0999,-0.15805 0.19067,-0.24728 0.201717,-0.19827 0.0196,0.0868 0.434127,-0.40609 2.506001,-2.97951 0.55365,-0.68767 1.281752,-1.55691 1.617999,-1.93163 0.669158,-0.7457 1.538414,-2.16907 2.813692,-4.60729 0.454976,-0.86988 1.000153,-1.87049 1.211502,-2.22359 0.21135,-0.3531 0.462444,-0.97724 0.557988,-1.38697 0.09555,-0.40973 0.260817,-0.85805 0.36727,-0.99626 0.106454,-0.1382 0.269107,-0.54719 0.361455,-0.90887 0.09235,-0.36166 0.38166,-0.91235 0.642917,-1.22376 0.261258,-0.3114 0.614993,-0.79255 0.786078,-1.06923 0.171086,-0.27668 0.475721,-0.59246 0.676968,-0.70174 l 0.365903,-0.19869 -0.325656,0.37236 c -0.395818,0.4526 -0.856891,1.29514 -0.74695,1.36495 0.0439,0.0279 0.222358,-0.0726 0.396563,-0.22326 0.174196,-0.15069 0.411528,-0.27207 0.527403,-0.26976 0.116813,0.002 0.237704,-0.25503 0.271337,-0.57774 0.04177,-0.40078 0.175963,-0.63764 0.431036,-0.76079 0.265744,-0.12834 0.357283,-0.30235 0.324014,-0.6161 -0.03367,-0.31759 0.07873,-0.52612 0.410703,-0.76188 0.251386,-0.17852 0.536776,-0.53747 0.6342,-0.79764 0.206465,-0.55137 0.761868,-0.76053 0.860291,-0.32398 0.03573,0.15865 -0.04696,0.4475 -0.183842,0.64189 -0.13688,0.1944 -0.21809,0.48998 -0.180468,0.65685 0.09959,0.44192 -0.210632,1.28414 -0.534854,1.45192 -0.230203,0.11913 -0.237445,0.1936 -0.0409,0.42082 0.357716,0.41355 0.435381,0.98322 0.201097,1.47506 -0.114995,0.2414 -0.27786,0.74914 -0.361926,1.1283 -0.08876,0.40033 -0.278474,0.74272 -0.452465,0.8166 -0.466905,0.19826 -0.866161,0.89331 -0.766659,1.33464 0.06451,0.28595 -0.127927,0.7327 -0.673934,1.56489 -0.420288,0.64059 -0.977415,1.66716 -1.238055,2.28129 -0.260641,0.61413 -0.586166,1.20315 -0.723388,1.30893 -0.296288,0.22838 -1.47606,2.84041 -1.411752,3.12564 0.02459,0.10889 0.0043,0.33544 -0.04489,0.50344 -0.04924,0.168 -0.354994,1.40026 -0.679449,2.73837 -0.324453,1.33809 -0.654881,2.66933 -0.734283,2.9583 -0.0794,0.28897 -0.09455,0.74837 -0.0337,1.02091 0.155142,0.69439 0.07916,1.02233 -0.254291,1.09751 -0.350268,0.0785 -0.47571,0.38402 -0.372605,0.9054 0.253985,1.28434 0.234027,1.42636 -0.358988,2.55477 -0.331951,0.63164 -0.758406,1.52633 -0.94768,1.98819 -0.401324,0.97932 -1.429622,2.46491 -1.766161,2.5516 -0.407134,0.10477 -1.867045,2.64865 -1.769198,3.08264 0.07946,0.35252 -0.511924,1.41131 -0.767498,1.37408 -1.26985,1.02037 0.620054,-2.46265 -0.194137,-0.32474 0.169623,0.1072 0.596852,-0.53587 0.453308,-0.68234 -0.06463,-0.0659 -0.01997,-0.12158 0.09921,-0.12362 0.137069,-0.002 0.192688,-0.19411 0.151332,-0.52169 -0.0526,-0.41667 -0.109377,-0.48865 -0.290196,-0.36807 -0.298874,0.19932 -0.233692,-0.27244 0.122475,-0.88642 0.311481,-0.53694 0.769141,-0.738 0.492283,-0.21631 -0.09531,0.17961 -0.191713,0.47684 -0.214235,0.6605 -0.03629,0.29593 0.297549,-0.20743 1.094845,-1.65083 l 0.230228,-0.4168 -0.301098,0.25607 c -0.465053,0.39551 -0.661697,0.39292 -0.551102,-0.007 0.08028,-0.29046 0.167616,-0.33253 0.590224,-0.28428 0.549464,0.0628 1.33977,-0.43225 1.195798,-0.74896 -0.04287,-0.0943 0.02288,-0.54029 0.146187,-0.99107 0.123276,-0.45078 0.188167,-0.97914 0.144205,-1.17413 -0.044,-0.19497 -0.0031,-0.40095 0.09085,-0.4577 0.09392,-0.0567 0.209903,-0.36628 0.25773,-0.68784 l 0.08695,-0.58467 0.03902,0.55541 c 0.02146,0.30547 -0.03959,0.69469 -0.135667,0.86491 -0.09607,0.17024 -0.130799,0.50417 -0.07716,0.74208 0.05358,0.23792 -0.0065,0.68918 -0.133522,1.00284 l -0.231041,0.5703 0.289924,-0.39393 c 0.159462,-0.21666 0.433604,-0.75899 0.60921,-1.20516 0.175601,-0.44619 0.5766,-1.29762 0.891109,-1.89208 0.417252,-0.78865 0.564286,-1.28435 0.543919,-1.83374 -0.03598,-0.97044 -0.142888,-1.03307 -0.211523,-0.12393 -0.05267,0.69769 -0.67686,2.57685 -0.870202,2.61981 -0.05401,0.0122 -0.158463,-0.20473 -0.232016,-0.4816 -0.07352,-0.2769 -0.07357,-0.38516 -3.5e-5,-0.24059 0.117611,0.23128 0.160412,0.20673 0.3563,-0.20426 0.322335,-0.67629 0.556976,-2.42894 0.390158,-2.91425 -0.174944,-0.50896 -1.00348,-0.97709 -1.52229,-0.86013 -0.210171,0.0473 -0.400045,0.007 -0.421972,-0.0906 -0.07203,-0.31959 1.11881,-0.2645 1.686986,0.0775 0.413642,0.24921 0.5754,0.27344 0.683508,0.10243 0.0977,-0.1546 0.212641,-0.18792 0.370633,-0.10748 0.176644,0.0899 0.192975,-0.16267 0.07142,-1.10478 -0.08667,-0.67178 -0.08667,-1.14904 1.9e-5,-1.06059 0.10006,0.10208 0.152586,0.007 0.143845,-0.25776 -0.0173,-0.52637 -0.485151,-0.8125 -1.105425,-0.67606 -0.802521,0.17651 -0.900452,0.0118 -0.472149,-0.79458 1.435804,-2.70291 1.348107,-2.4449 0.940456,-2.7668 -0.283323,-0.22372 -0.386491,-0.23658 -0.448729,-0.0559 -0.05734,0.16637 -0.02902,0.18378 0.09738,0.0599 0.307015,-0.30089 0.14614,0.23174 -0.697431,2.30906 -0.860445,2.11886 -1.354749,3.16351 -1.401514,2.9619 -0.01607,-0.0691 0.158254,-0.62589 0.387296,-1.23729 0.350479,-0.93553 0.359338,-1.00766 0.05593,-0.45536 -0.548739,0.99891 -0.926962,2.00934 -0.785577,2.09871 0.06962,0.044 0.306365,-0.12809 0.526067,-0.38246 0.496196,-0.57449 0.711724,-0.49238 0.299007,0.1139 -0.167504,0.24606 -0.365342,0.68305 -0.439646,0.97107 -0.155668,0.60344 -0.638662,1.35396 -0.699027,1.08622 -0.02235,-0.0993 -0.134505,-0.15942 -0.249153,-0.13357 -0.11461,0.026 -0.232236,-0.0585 -0.261314,-0.1875 -0.07069,-0.31372 0.312462,-0.38709 0.447771,-0.0858 0.07922,0.17642 0.170365,0.0924 0.354108,-0.32626 0.192019,-0.43755 0.194964,-0.55199 0.01312,-0.51101 -0.154832,0.0348 -0.220232,-0.0436 -0.192862,-0.23145 0.03137,-0.21536 -0.01652,-0.24564 -0.197589,-0.12489 -0.131459,0.0877 -0.254366,0.0913 -0.273152,0.008 -0.01874,-0.0833 0.04036,-0.16823 0.131421,-0.18876 0.09113,-0.0202 0.11485,-0.089 0.05286,-0.15231 -0.062,-0.0633 0.03002,-0.32426 0.204448,-0.58 0.174429,-0.25576 0.461484,-0.76339 0.637899,-1.12806 0.289446,-0.59834 0.292799,-0.71531 0.03435,-1.19851 -0.191468,-0.35798 -0.454421,-0.57936 -0.793287,-0.66788 -0.54934,-0.14349 -0.916852,-0.12863 -0.499354,0.0202 0.384901,0.13721 0.06979,0.65139 -0.474387,0.77407 -0.45954,0.10319 -1.528595,1.28978 -1.393765,1.54634 0.04244,0.0807 0.291412,0.19742 0.553245,0.25918 0.688762,0.16248 1.704077,1.28539 1.253984,1.38687 -0.07544,0.0174 -0.274493,-0.16338 -0.442088,-0.40092 -0.32656,-0.46284 -1.205223,-0.78701 -1.535739,-0.56659 -0.11074,0.0738 -0.21668,0.0662 -0.235464,-0.0171 -0.01874,-0.0833 -0.143818,-0.1267 -0.277866,-0.0965 -0.134154,0.0297 -0.1893,0.11046 -0.122757,0.17838 0.06652,0.0678 -0.06062,0.33681 -0.282571,0.59762 -0.221948,0.2608 -0.691138,0.92713 -1.042648,1.48074 -0.35151,0.55362 -0.687728,1.01753 -0.747156,1.03093 -0.131117,0.03 0.501624,-1.49116 0.792399,-1.90411 0.114357,-0.16242 0.451542,-0.49772 0.7493,-0.74512 0.483196,-0.40147 0.493478,-0.42734 0.09568,-0.24068 -0.588797,0.27628 -1.19913,1.0164 -1.519198,1.84226 -0.142544,0.3678 -0.560162,1.17079 -0.928041,1.78443 -0.566635,0.94514 -0.976252,1.95525 -0.910739,2.24583 0.0094,0.0419 0.228358,-0.31038 0.486479,-0.78282 0.258119,-0.47244 0.614487,-0.94113 0.791929,-1.04152 0.177433,-0.10046 0.46268,-0.38108 0.633863,-0.6237 0.171181,-0.24264 0.493053,-0.61841 0.71527,-0.83505 0.34036,-0.33184 0.324055,-0.26856 -0.103473,0.40157 -0.279125,0.43751 -0.661847,0.92771 -0.850492,1.08934 -0.188645,0.16163 -0.623799,0.71338 -0.967008,1.22611 -0.343208,0.51274 -0.644619,0.84085 -0.669802,0.72915 -0.02517,-0.1117 -0.221377,0.0837 -0.43598,0.43436 -0.279769,0.45706 -0.324826,0.64629 -0.159216,0.66867 0.187792,0.0254 0.198203,0.0633 0.05566,0.20307 -0.102871,0.10084 -0.108979,0.50076 -0.01477,0.96774 0.13095,0.64909 0.09701,0.9014 -0.18398,1.36781 -0.33899,0.56266 -0.685947,0.83294 -0.545313,0.4248 0.03953,-0.1147 -0.07788,-0.0328 -0.260899,0.18203 -0.183018,0.21481 -0.280129,0.44494 -0.215806,0.51138 0.06568,0.0678 -0.09191,0.12039 -0.359526,0.11989 -0.383694,-7.3e-4 -0.415185,0.0196 -0.161713,0.10473 0.173124,0.0581 0.288601,0.18162 0.256618,0.27444 -0.08401,0.24382 0.259123,0.77363 0.407117,0.62859 0.06867,-0.0674 0.14217,-0.0456 0.163306,0.0482 0.02109,0.0938 -0.05796,0.23475 -0.175779,0.31332 -0.117823,0.0785 -0.174537,0.31883 -0.126047,0.53391 0.07851,0.34819 0.03856,0.38986 -0.364422,0.38012 -0.248916,-0.006 -0.500266,-0.0551 -0.558533,-0.10926 -0.05825,-0.054 -0.239296,-0.11595 -0.402284,-0.13753 -0.162983,-0.0216 -0.31236,-0.11032 -0.331939,-0.19716 -0.03606,-0.15997 0.675197,-0.0872 1.135085,0.1162 0.256337,0.11335 0.250935,-0.0821 -0.0094,-0.34144 -0.245771,-0.24485 -0.903317,-0.19184 -1.331697,0.10739 -0.316964,0.2214 -0.347367,0.35517 -0.219428,0.9655 -0.271666,1.57439 -0.648505,-0.5876 0.06355,-1.33946 z m -0.423032,1.31715 c 0.423032,-1.31715 1.641094,-1.50468 0,0 z m 1.901959,-1.59429 c 0.02732,-0.24896 -0.160189,-0.33001 -0.344818,-0.14906 -0.117053,0.1147 -0.09535,0.17641 0.08396,0.23867 0.142027,0.0493 0.249671,0.0123 0.260867,-0.0896 z m 1.200258,-2.39658 c 0.208036,-0.33291 0.192845,-1.43084 -0.01695,-1.22522 -0.07605,0.0745 -0.09956,0.30724 -0.05224,0.51711 0.04734,0.20989 0.01569,0.39748 -0.0703,0.41687 -0.08608,0.019 -0.129144,0.15585 -0.09591,0.30324 0.053,0.23513 0.08188,0.23366 0.235397,-0.012 z m 8.175168,-13.15926 c 0.352522,0.084 0.662167,0.30271 0.835095,0.58997 l 0.274832,0.45654 0.330361,-1.01701 c 0.181701,-0.55935 0.500491,-1.32924 0.708422,-1.71088 0.591056,-1.08481 0.952369,-2.91402 0.485144,-2.45611 -0.07522,0.0737 -0.08151,0.19039 -0.01402,0.25926 0.06752,0.0689 0.01151,0.15033 -0.124463,0.181 -0.136071,0.0302 -0.48906,0.40596 -0.784642,0.83401 -0.295582,0.42807 -0.652669,0.80427 -0.793523,0.83603 -0.140947,0.0314 -0.244337,0.11054 -0.229967,0.17506 0.01435,0.0645 -0.271451,0.43624 -0.635165,0.82603 -0.363715,0.38979 -0.650287,0.7501 -0.636829,0.8007 0.01343,0.0507 0.276584,0.15201 0.584727,0.2254 z m 2.592961,1.48296 c 0.298528,-0.0669 0.666726,0.0106 1.000334,0.21161 l 0.528001,0.31811 0.582335,-2.30706 c 0.320284,-1.26889 0.568618,-2.3647 0.551855,-2.43514 -0.01677,-0.0704 -0.15613,-0.2075 -0.309705,-0.30456 -0.343321,-0.21699 -0.299915,-0.70398 0.06263,-0.70257 0.145787,2.6e-4 0.402125,-0.21079 0.569642,-0.46967 0.16752,-0.25888 0.219295,-0.39191 0.115056,-0.2956 -0.257557,0.23794 0.0962,-0.85491 0.419168,-1.29495 0.152504,-0.20778 0.132029,-0.0612 -0.05493,0.39303 l -0.298083,0.72433 0.349499,-0.64616 c 0.192223,-0.35539 0.29947,-0.72119 0.238325,-0.81286 -0.06114,-0.0916 -0.01606,-0.23012 0.100161,-0.30764 0.295167,-0.19684 -7.4e-4,-0.70425 -0.568504,-0.97486 -0.841183,-0.40092 -1.173956,-0.17462 -2.232037,1.51792 -0.536039,0.85745 -0.841347,1.44513 -0.678467,1.30592 0.482668,-0.41248 0.598548,0.0276 0.3385,1.28474 -0.226249,1.09392 -0.222878,1.13155 0.120831,1.34879 0.343709,0.21724 0.364857,0.20766 0.758144,-0.34342 0.418029,-0.58576 0.685923,-0.68126 0.902022,-0.32151 0.100682,0.1676 0.07183,0.18114 -0.148656,0.0696 -0.337299,-0.17049 -0.645189,0.2496 -1.80149,2.45776 -0.44145,0.84303 -0.856146,1.54485 -0.921548,1.5596 -0.06536,0.015 -0.113635,0.0503 -0.107152,0.0789 0.0065,0.0287 0.224294,0.005 0.484079,-0.0544 z m 0.514363,-4.98959 c 0.05427,-0.14778 0.08281,-0.33903 0.06343,-0.42501 -0.01941,-0.0861 -0.07966,-0.0355 -0.133918,0.11235 -0.05428,0.14776 -0.08282,0.33901 -0.06343,0.425 0.01939,0.0859 0.07966,0.0355 0.133919,-0.11235 z m 3.737701,-4.65544 c 0.287167,0.26118 0.291653,0.25945 0.381923,-0.14576 0.07824,-0.35124 0.02184,-0.45394 -0.393111,-0.71623 -0.514049,-0.3249 -1.219221,-0.27358 -1.459261,0.10621 -0.108584,0.17179 0.01348,0.25602 0.518943,0.35807 0.363507,0.0734 0.791685,0.25235 0.951506,0.39771 z m 0.533031,-0.83889 c 0.407623,0.39447 0.582655,0.40156 0.637394,0.0257 0.02284,-0.15675 -0.01769,-0.20862 -0.1,-0.12796 -0.0883,0.0866 -0.134784,-0.014 -0.12844,-0.27683 0.01453,-0.60314 -0.619902,-0.95606 -1.40186,-0.77977 -0.812573,0.18319 -0.816728,0.521 -0.0084,0.68417 0.355077,0.0717 0.805676,0.28525 1.001331,0.47459 z m -0.493753,-1.56174 c 0.444475,0.10399 0.525314,0.0909 0.419411,-0.0679 -0.180694,-0.27096 0.30634,-0.56944 0.547009,-0.33524 0.105218,0.10233 0.189355,0.37019 0.186974,0.59514 l -0.0043,0.40898 0.231713,-0.48617 c 0.127446,-0.26737 0.211502,-0.58082 0.186799,-0.69654 -0.03426,-0.16064 0.0022,-0.16332 0.154155,-0.0114 0.140322,0.14028 0.129931,0.31633 -0.0352,0.5966 -0.179615,0.30485 -0.180942,0.38558 -0.0057,0.34608 0.125633,-0.0287 0.214918,-0.0916 0.198195,-0.14054 -0.09865,-0.28883 -0.03155,-0.38455 0.148179,-0.21138 0.159414,0.15361 0.173304,0.11257 0.06018,-0.17784 -0.08088,-0.20764 -0.09678,-0.48129 -0.0353,-0.60809 0.07636,-0.15751 0.02489,-0.29902 -0.162424,-0.44669 -0.2365,-0.18642 -0.237673,-0.20439 -0.0085,-0.13082 0.228584,0.0735 0.227647,0.0553 -0.0067,-0.12942 -0.149806,-0.1181 -0.335419,-0.15295 -0.41247,-0.0774 -0.07737,0.0759 -0.110705,0.0521 -0.07448,-0.0531 0.09093,-0.26391 -0.263139,-0.28068 -0.872983,-0.0414 -0.413921,0.16244 -0.49783,0.15311 -0.43106,-0.048 0.06887,-0.20736 0.04453,-0.20092 -0.143544,0.0382 -0.173013,0.21971 -0.582293,1.46568 -0.50446,1.5357 0.0078,0.007 0.261801,0.0706 0.56463,0.14144 z m 0.16449,-2.27208 c 0.185921,-0.18221 1.478819,0.16198 1.902701,0.50654 0.287547,0.23373 0.444915,0.2711 0.535849,0.12722 0.07081,-0.11204 0.274088,-0.32441 0.451726,-0.47196 0.194794,-0.16178 0.27821,-0.37518 0.210178,-0.53768 -0.06277,-0.14994 -0.03399,-0.24227 0.06492,-0.2082 0.09775,0.0337 0.203368,-0.0131 0.2347,-0.10417 0.03134,-0.0909 -0.02774,-0.12977 -0.131302,-0.0863 -0.559715,0.23527 -0.810647,0.49992 -0.819453,0.86437 -0.01077,0.44491 -0.232591,0.60566 -0.317301,0.22992 -0.02909,-0.12896 0.0058,-0.24771 0.0774,-0.26386 0.07156,-0.0165 0.113486,-0.10385 0.09295,-0.19493 -0.02053,-0.091 -0.09101,-0.11295 -0.156642,-0.0487 -0.14816,0.1452 -0.58834,-0.17417 -0.478835,-0.34742 0.04383,-0.0693 -0.05641,-0.1012 -0.222747,-0.0709 -0.18259,0.0334 -0.228716,0.004 -0.116409,-0.0727 0.102299,-0.0703 0.355682,-0.0322 0.563066,0.0849 0.314549,0.17752 0.391332,0.17137 0.463139,-0.037 0.09604,-0.27873 -0.362481,-0.56431 -0.771924,-0.48079 -0.133812,0.0276 -0.343246,-0.0131 -0.465213,-0.0905 -0.167107,-0.10562 -0.265146,-0.0838 -0.397739,0.0881 -0.09677,0.1256 -0.24526,0.18923 -0.329983,0.14138 -0.08473,-0.0479 -0.09781,-0.025 -0.02906,0.0509 0.06874,0.0758 0.05633,0.29608 -0.02761,0.48939 -0.08393,0.19336 -0.172423,0.26359 -0.196657,0.1561 -0.02424,-0.10749 -0.104608,-0.13611 -0.178614,-0.0636 -0.074,0.0726 -0.118689,0.20223 -0.0993,0.2882 0.01941,0.0861 0.08333,0.1092 0.142116,0.0516 z m 1.405296,-1.40554 c 0.195911,-0.0438 0.543957,-0.003 0.773624,0.091 0.31295,0.12837 0.452215,0.11649 0.555834,-0.0475 0.103612,-0.16394 0.213686,-0.16239 0.439321,0.006 0.165582,0.1237 0.28043,0.20143 0.25522,0.17276 -0.02521,-0.0286 0.0785,-0.22446 0.230463,-0.4351 0.151965,-0.21063 0.188147,-0.30838 0.0804,-0.21721 -0.14337,0.12135 -0.184852,0.09 -0.154718,-0.11688 0.02734,-0.18761 -0.03912,-0.26455 -0.197642,-0.22881 -0.131253,0.0301 -0.180167,0.11368 -0.108464,0.18686 0.07355,0.0751 0.02018,0.11695 -0.122521,0.0962 -0.139091,-0.0203 -0.238539,-0.1353 -0.221009,-0.25565 0.0474,-0.32536 -0.460225,-0.33744 -0.663536,-0.0155 -0.09688,0.15328 -0.288741,0.26228 -0.426367,0.24223 -0.137628,-0.0201 -0.278528,0.0456 -0.313109,0.146 -0.03458,0.1004 -0.175082,0.16615 -0.312216,0.1462 -0.137151,-0.02 -0.231794,0.0415 -0.210338,0.13671 0.02143,0.0951 0.199241,0.13694 0.395067,0.0927 z m 1.582709,-1.5807 c 0.105918,0.0366 0.375708,0.25594 0.599565,0.48766 l 0.407015,0.42132 -0.272736,-0.7719 c -0.164694,-0.46615 -0.231759,-0.92021 -0.169271,-1.14627 0.08501,-0.3076 0.06664,-0.3498 -0.103011,-0.23666 -0.113569,0.0757 -0.222316,0.24644 -0.241678,0.37935 -0.01936,0.13291 -0.142937,0.26594 -0.274612,0.29562 -0.273634,0.0618 -0.234404,0.47125 0.05473,0.57088 z m 1.462047,-2.49267 c 0.420373,-0.77045 0.3195,-0.90672 -0.180479,-0.24381 -0.233882,0.31011 -0.355259,0.61335 -0.269728,0.67387 0.08552,0.0605 0.288127,-0.13299 0.450207,-0.43006 z m -21.937929,35.60338 c 0,0 1.081741,-0.8487 0,0 z m 3.654979,-6.92334 c 0.20411,-0.25037 0.210887,-0.24608 0.07232,0.0457 -0.08409,0.17708 -0.17944,0.32794 -0.211901,0.33526 -0.128579,0.0294 -0.0748,-0.11803 0.13957,-0.38098 z m 3.378764,9.04337 c 0.06707,-0.0657 0.05637,-0.24616 -0.02374,-0.40098 -0.09386,-0.18136 -0.04959,-0.36459 0.124419,-0.5151 0.257087,-0.2224 0.266969,-0.20528 0.205374,0.35561 0.02488,0.60164 -0.623988,1.36786 -0.306047,0.56047 z m 2.89897,-6.84141 c 0.124892,-0.24425 0.24621,-0.37013 0.269597,-0.27974 0.06229,0.24067 -0.244374,0.88331 -0.380431,0.79731 -0.06393,-0.0404 -0.01406,-0.27332 0.110834,-0.51757 z m 0.776964,-0.23954 c 0.171308,-0.16789 0.252963,0.1943 0.123365,0.54716 -0.08022,0.21843 -0.113566,0.20471 -0.178296,-0.0733 -0.04376,-0.18809 -0.01906,-0.40132 0.05494,-0.47384 z m -1.205195,-7.53158 c 0.11232,-0.24851 0.269984,-0.41026 0.350364,-0.35945 0.08038,0.0507 0.02808,0.27916 -0.116212,0.50745 -0.339444,0.53706 -0.498378,0.43661 -0.234152,-0.148 z m 0.208118,0.97026 c 0.189832,0.0664 0.321722,0.18873 0.293082,0.27184 -0.05851,0.16982 -0.558635,-0.0395 -0.607008,-0.25406 -0.01718,-0.0761 0.124086,-0.0842 0.313916,-0.0178 z m -0.856677,-3.94426 c 0.266375,-0.0611 1.743039,0.88886 1.638553,1.05417 -0.06966,0.11022 -0.868325,-0.36607 -0.837219,-0.49929 0.0115,-0.0491 -0.221517,-0.18102 -0.517797,-0.29288 -0.348058,-0.13141 -0.448399,-0.22414 -0.283537,-0.262 z m 3.965975,1.8806 c 0.379295,0.096 0.702695,0.32732 0.618112,0.4421 -0.02422,0.0329 -0.259228,-0.075 -0.522229,-0.23955 -0.436934,-0.27351 -0.445203,-0.29097 -0.09588,-0.20255 z"
       id="path6358"
       inkscape:connector-curvature="0"
       sodipodi:nodetypes="cccccccccccscccccccscccccccccccccccccccccccsscsscccsccccccccscccccccccccscccccccccccccccccccccccccccccccscccccccccccccccccscccscccccccccccccccccccccccccccccccccccccccccccccccccccccccccccccsccccccscccccccsccccccscccscccccccccccsccccccccccccccccsccccccccccccccccccccccccccccccccccccccccccccccccsccccccccscccccccccccscccccccscccccccccsccccccccccccccccccccccccccccccccccccccccccccccccc" />
    <ellipse
       style="opacity:1;fill:none;stroke:#550000;stroke-width:0.3311215;stroke-linejoin:round;stroke-miterlimit:4;stroke-dasharray:none;stroke-opacity:1"
       id="path70"
       cx="173.211"
       cy="53.224789"
       rx="21.942673"
       ry="25.686382"
       transform="matrix(0.71470351,0.69942755,-0.74934613,0.66217851,0,0)" />
    <ellipse
       style="opacity:1;fill:none;stroke:#550000;stroke-width:0.23416704;stroke-linejoin:round;stroke-miterlimit:4;stroke-dasharray:none;stroke-opacity:1"
       id="path6210"
       cx="98.786972"
       cy="142.84633"
       rx="2.6594422"
       ry="2.4932275" />
    <text
       xml:space="preserve"
       style="font-style:normal;font-weight:normal;font-size:10.58333302px;line-height:1.25;font-family:sans-serif;letter-spacing:0px;word-spacing:0px;fill:#000000;fill-opacity:1;stroke:none;stroke-width:0.26458332"
       x="-110.76553"
       y="161.82266"
       id="text6362"
       transform="rotate(-61.132463)"><tspan
         sodipodi:role="line"
         id="tspan6360"
         x="-110.76553"
         y="161.82266"
         style="font-style:normal;font-variant:normal;font-weight:bold;font-stretch:normal;font-size:4.93888903px;font-family:sans-serif;-inkscape-font-specification:'sans-serif Bold';stroke-width:0.26458332">СОЮЗ-ФГ</tspan></text>
  </g>
</svg>
