  0
SECTION
  2
HEADER
  9
$ACADVER
  1
AC1014
  9
$HANDSEED
  5
FFFF
  9
$MEASUREMENT
 70
     1
  0
ENDSEC
  0
SECTION
  2
TABLES
  0
TABLE
  2
VPORT
  5
8
330
0
100
AcDbSymbolTable
 70
     4
  0
VPORT
  5
2E
330
8
100
AcDbSymbolTableRecord
100
AcDbViewportTableRecord
  2
*ACTIVE
 70
     0
 10
0.0
 20
0.0
 11
1.0
 21
1.0
 12
210.0
 22
148.5
 13
0.0
 23
0.0
 14
10.0
 24
10.0
 15
10.0
 25
10.0
 16
0.0
 26
0.0
 36
1.0
 17
0.0
 27
0.0
 37
0.0
 40
341.0
 41
1.24
 42
50.0
 43
0.0
 44
0.0
 50
0.0
 51
0.0
 71
     0
 72
   100
 73
     1
 74
     3
 75
     0
 76
     0
 77
     0
 78
     0
  0
ENDTAB
  0
TABLE
  2
LTYPE
  5
5
330
0
100
AcDbSymbolTable
 70
     1
  0
LTYPE
  5
14
330
5
100
AcDbSymbolTableRecord
100
AcDbLinetypeTableRecord
  2
BYBLOCK
 70
     0
  3

 72
    65
 73
     0
 40
0.0
  0
LTYPE
  5
15
330
5
100
AcDbSymbolTableRecord
100
AcDbLinetypeTableRecord
  2
BYLAYER
 70
     0
  3

 72
    65
 73
     0
 40
0.0
  0
LTYPE
  5
16
330
5
100
AcDbSymbolTableRecord
100
AcDbLinetypeTableRecord
  2
CONTINUOUS
 70
     0
  3
Solid line
 72
    65
 73
     0
 40
0.0
  0
ENDTAB
  0
TABLE
  2
LAYER
  5
2
100
AcDbSymbolTable
 70
2
  0
LAYER
  5
50
100
AcDbSymbolTableRecord
100
AcDbLayerTableRecord
  2
0
 70
0
  6
CONTINUOUS
  0
LAYER
  5
51
100
AcDbSymbolTableRecord
100
AcDbLayerTableRecord
  2
Layer_1
 70
0
  6
CONTINUOUS
  0
ENDTAB
  0
TABLE
  2
STYLE
  5
3
330
0
100
AcDbSymbolTable
 70
     1
  0
STYLE
  5
11
330
3
100
AcDbSymbolTableRecord
100
AcDbTextStyleTableRecord
  2
STANDARD
 70
     0
 40
0.0
 41
1.0
 50
0.0
 71
     0
 42
2.5
  3
txt
  4

  0
ENDTAB
  0
TABLE
  2
VIEW
  5
6
330
0
100
AcDbSymbolTable
 70
     0
  0
ENDTAB
  0
TABLE
  2
UCS
  5
7
330
0
100
AcDbSymbolTable
 70
     0
  0
ENDTAB
  0
TABLE
  2
APPID
  5
9
330
0
100
AcDbSymbolTable
 70
     2
  0
APPID
  5
12
330
9
100
AcDbSymbolTableRecord
100
AcDbRegAppTableRecord
  2
ACAD
 70
     0
  0
ENDTAB
  0
TABLE
  2
DIMSTYLE
  5
A
330
0
100
AcDbSymbolTable
 70
     1
  0
DIMSTYLE
105
27
330
A
100
AcDbSymbolTableRecord
100
AcDbDimStyleTableRecord
  2
ISO-25
 70
     0
  3

  4

  5

  6

  7

 40
1.0
 41
2.5
 42
0.625
 43
3.75
 44
1.25
 45
0.0
 46
0.0
 47
0.0
 48
0.0
140
2.5
141
2.5
142
0.0
143
0.03937007874016
144
1.0
145
0.0
146
1.0
147
0.625
 71
     0
 72
     0
 73
     0
 74
     0
 75
     0
 76
     0
 77
     1
 78
     8
170
     0
171
     3
172
     1
173
     0
174
     0
175
     0
176
     0
177
     0
178
     0
270
     2
271
     2
272
     2
273
     2
274
     3
340
11
275
     0
280
     0
281
     0
282
     0
283
     0
284
     8
285
     0
286
     0
287
     3
288
     0
  0
ENDTAB
  0
TABLE
  2
BLOCK_RECORD
  5
1
330
0
100
AcDbSymbolTable
 70
     1
  0
BLOCK_RECORD
  5
1F
330
1
100
AcDbSymbolTableRecord
100
AcDbBlockTableRecord
  2
*MODEL_SPACE
  0
BLOCK_RECORD
  5
1B
330
1
100
AcDbSymbolTableRecord
100
AcDbBlockTableRecord
  2
*PAPER_SPACE
  0
ENDTAB
  0
ENDSEC
  0
SECTION
  2
BLOCKS
  0
BLOCK
  5
20
330
1F
100
AcDbEntity
  8
0
100
AcDbBlockBegin
  2
*MODEL_SPACE
 70
     0
 10
0.0
 20
0.0
 30
0.0
  3
*MODEL_SPACE
  1

  0
ENDBLK
  5
21
330
1F
100
AcDbEntity
  8
0
100
AcDbBlockEnd
  0
BLOCK
  5
1C
330
1B
100
AcDbEntity
 67
     1
  8
0
100
AcDbBlockBegin
  2
*PAPER_SPACE
  1

  0
ENDBLK
  5
1D
330
1B
100
AcDbEntity
 67
     1
  8
0
100
AcDbBlockEnd
  0
ENDSEC
  0
SECTION
  2
ENTITIES
  0
SPLINE
  5
100
100
AcDbEntity
  8
Layer_1
 62
7
100
AcDbSpline
 70
0
 71
3
 72
73
 73
69
 74
67
 40
0.000000
 40
0.000000
 40
0.000000
 40
0.000000
 40
0.467424
 40
0.934394
 40
1.303397
 40
1.632536
 40
1.864860
 40
2.082179
 40
2.296026
 40
2.466099
 40
2.830626
 40
3.347671
 40
3.745631
 40
4.116252
 40
4.282484
 40
4.423272
 40
4.662284
 40
4.930314
 40
5.204331
 40
5.598571
 40
5.942551
 40
6.260465
 40
6.486689
 40
6.911682
 40
7.755737
 40
8.837996
 40
10.145393
 40
10.838453
 40
11.174226
 40
11.563499
 40
11.953022
 40
12.215674
 40
12.305272
 40
12.431722
 40
12.572478
 40
12.694450
 40
12.770661
 40
12.797239
 40
12.989117
 40
13.853479
 40
15.720824
 40
16.421191
 40
17.100124
 40
17.610757
 40
18.535778
 40
19.863457
 40
21.666462
 40
22.417531
 40
23.099820
 40
23.565740
 40
23.924072
 40
24.326893
 40
24.689863
 40
25.008802
 40
25.294899
 40
25.489033
 40
25.674984
 40
25.938529
 40
26.225159
 40
26.551666
 40
26.924136
 40
27.267537
 40
27.607004
 40
27.964581
 40
28.263389
 40
28.524841
 40
28.787562
 40
28.999782
 40
28.999782
 40
28.999782
 40
28.999782
 10
52.747611
 20
94.196813
 30
0.0
 10
52.851369
 20
94.313125
 30
0.0
 10
53.058785
 20
94.545638
 30
0.0
 10
53.316570
 20
94.896358
 30
0.0
 10
53.513710
 20
95.232108
 30
0.0
 10
53.639456
 20
95.515481
 30
0.0
 10
53.826885
 20
95.712142
 30
0.0
 10
54.038428
 20
95.772066
 30
0.0
 10
54.270642
 20
95.772206
 30
0.0
 10
54.348493
 20
96.048292
 30
0.0
 10
54.255146
 20
96.381337
 30
0.0
 10
54.233670
 20
96.813810
 30
0.0
 10
54.374520
 20
97.244456
 30
0.0
 10
54.639342
 20
97.422727
 30
0.0
 10
54.869945
 20
97.503847
 30
0.0
 10
54.908539
 20
97.704105
 30
0.0
 10
54.825693
 20
97.903386
 30
0.0
 10
54.765039
 20
98.163428
 30
0.0
 10
54.851895
 20
98.473454
 30
0.0
 10
55.034524
 20
98.757666
 30
0.0
 10
55.208767
 20
99.063145
 30
0.0
 10
55.341923
 20
99.329421
 30
0.0
 10
55.422293
 20
99.643414
 30
0.0
 10
55.628423
 20
100.099214
 30
0.0
 10
55.992670
 20
100.791937
 30
0.0
 10
56.510957
 20
101.740803
 30
0.0
 10
57.042698
 20
102.607760
 30
0.0
 10
57.433717
 20
103.305231
 30
0.0
 10
57.839150
 20
103.565047
 30
0.0
 10
58.192670
 20
103.685602
 30
0.0
 10
58.462103
 20
103.922264
 30
0.0
 10
58.568104
 20
104.158619
 30
0.0
 10
58.561519
 20
104.320406
 30
0.0
 10
58.607289
 20
104.431834
 30
0.0
 10
58.664724
 20
104.552179
 30
0.0
 10
58.732969
 20
104.630357
 30
0.0
 10
58.778374
 20
104.713801
 30
0.0
 10
58.880575
 20
104.680641
 30
0.0
 10
59.120970
 20
105.068501
 30
0.0
 10
59.741972
 20
105.667574
 30
0.0
 10
60.455634
 20
106.643438
 30
0.0
 10
61.140410
 20
107.471295
 30
0.0
 10
61.541839
 20
107.958527
 30
0.0
 10
62.011911
 20
108.483567
 30
0.0
 10
62.566043
 20
109.222076
 30
0.0
 10
63.252855
 20
110.388346
 30
0.0
 10
63.862459
 20
111.529473
 30
0.0
 10
64.366766
 20
112.483098
 30
0.0
 10
64.665751
 20
113.041278
 30
0.0
 10
64.920496
 20
113.474109
 30
0.0
 10
65.109562
 20
113.837182
 30
0.0
 10
65.249785
 20
114.185534
 30
0.0
 10
65.351046
 20
114.532989
 30
0.0
 10
65.431737
 20
114.845133
 30
0.0
 10
65.518661
 20
115.098286
 30
0.0
 10
65.626458
 20
115.292844
 30
0.0
 10
65.736421
 20
115.477368
 30
0.0
 10
65.822857
 20
115.708426
 30
0.0
 10
65.900102
 20
115.990014
 30
0.0
 10
66.010343
 20
116.300334
 30
0.0
 10
66.173538
 20
116.608689
 30
0.0
 10
66.377763
 20
116.895866
 30
0.0
 10
66.599788
 20
117.162353
 30
0.0
 10
66.796959
 20
117.429783
 30
0.0
 10
66.962602
 20
117.687100
 30
0.0
 10
67.122340
 20
117.910206
 30
0.0
 10
67.290921
 20
118.091198
 30
0.0
 10
67.421082
 20
118.181882
 30
0.0
 10
67.479242
 20
118.222403
 30
0.0
 11
52.747611
 21
94.196813
 31
0.0
 11
53.053227
 21
94.550484
 31
0.0
 11
53.328492
 21
94.927699
 31
0.0
 11
53.513813
 21
95.246790
 31
0.0
 11
53.672901
 21
95.534928
 31
0.0
 11
53.839879
 21
95.696460
 31
0.0
 11
54.046917
 21
95.762513
 31
0.0
 11
54.253934
 21
95.816127
 31
0.0
 11
54.317836
 21
95.973738
 31
0.0
 11
54.279533
 21
96.336248
 31
0.0
 11
54.268585
 21
96.853177
 31
0.0
 11
54.413314
 21
97.223886
 31
0.0
 11
54.711831
 21
97.443540
 31
0.0
 11
54.854337
 21
97.529128
 31
0.0
 11
54.891234
 21
97.664994
 31
0.0
 11
54.835063
 21
97.897313
 31
0.0
 11
54.788091
 21
98.161194
 31
0.0
 11
54.850591
 21
98.427988
 31
0.0
 11
55.040342
 21
98.773560
 31
0.0
 11
55.210377
 21
99.072576
 31
0.0
 11
55.343225
 21
99.361402
 31
0.0
 11
55.410125
 21
99.577508
 31
0.0
 11
55.573081
 21
99.970018
 31
0.0
 11
55.957753
 21
100.721322
 31
0.0
 11
56.480860
 21
101.668763
 31
0.0
 11
57.144292
 21
102.795325
 31
0.0
 11
57.548853
 21
103.358053
 31
0.0
 11
57.828719
 21
103.543575
 31
0.0
 11
58.181214
 21
103.708745
 31
0.0
 11
58.467983
 21
103.972357
 31
0.0
 11
58.562153
 21
104.217548
 31
0.0
 11
58.567303
 21
104.306997
 31
0.0
 11
58.606609
 21
104.427183
 31
0.0
 11
58.671551
 21
104.552063
 31
0.0
 11
58.742233
 21
104.651467
 31
0.0
 11
58.796584
 21
104.704891
 31
0.0
 11
58.822839
 21
104.700765
 31
0.0
 11
58.971338
 21
104.822278
 31
0.0
 11
59.527704
 21
105.483775
 31
0.0
 11
60.702340
 21
106.935398
 31
0.0
 11
61.145460
 21
107.477762
 31
0.0
 11
61.581421
 21
107.998230
 31
0.0
 11
61.915839
 21
108.384120
 31
0.0
 11
62.473452
 21
109.122179
 31
0.0
 11
63.165435
 21
110.255269
 31
0.0
 11
64.026108
 21
111.839588
 31
0.0
 11
64.378112
 21
112.503062
 31
0.0
 11
64.704544
 21
113.102195
 31
0.0
 11
64.934734
 21
113.507280
 31
0.0
 11
65.097758
 21
113.826380
 31
0.0
 11
65.248105
 21
114.200092
 31
0.0
 11
65.353225
 21
114.547508
 31
0.0
 11
65.438747
 21
114.854766
 31
0.0
 11
65.537705
 21
115.123204
 31
0.0
 11
65.628678
 21
115.294703
 31
0.0
 11
65.719054
 21
115.457214
 31
0.0
 11
65.816446
 21
115.702104
 31
0.0
 11
65.899769
 21
115.976355
 31
0.0
 11
66.012021
 21
116.282960
 31
0.0
 11
66.185251
 21
116.612695
 31
0.0
 11
66.381957
 21
116.894175
 31
0.0
 11
66.593377
 21
117.159768
 31
0.0
 11
66.805182
 21
117.447865
 31
0.0
 11
66.971516
 21
117.696098
 31
0.0
 11
67.126636
 21
117.906560
 31
0.0
 11
67.309041
 21
118.095640
 31
0.0
 11
67.479242
 21
118.222403
 31
0.0
  0
SPLINE
  5
101
100
AcDbEntity
  8
Layer_1
 62
7
100
AcDbSpline
 70
0
 71
3
 72
103
 73
99
 74
97
 40
0.000000
 40
0.000000
 40
0.000000
 40
0.000000
 40
0.501053
 40
0.963677
 40
1.181138
 40
1.244490
 40
1.367115
 40
1.528384
 40
1.703283
 40
1.862898
 40
1.978145
 40
2.081889
 40
2.253340
 40
2.478033
 40
2.744811
 40
2.960207
 40
3.163019
 40
3.354989
 40
3.523113
 40
3.726246
 40
3.941371
 40
4.149151
 40
4.411204
 40
4.667635
 40
4.942211
 40
5.182927
 40
5.570709
 40
5.848371
 40
6.088931
 40
6.234231
 40
6.414137
 40
6.599204
 40
6.785473
 40
6.969015
 40
7.119960
 40
7.521971
 40
7.972424
 40
8.322137
 40
8.466336
 40
8.561018
 40
8.728848
 40
9.124323
 40
9.509617
 40
9.903984
 40
10.158891
 40
10.478164
 40
10.793814
 40
11.087405
 40
11.334173
 40
11.509744
 40
11.918100
 40
12.350975
 40
12.726492
 40
12.988052
 40
13.400426
 40
14.024946
 40
14.674245
 40
15.373609
 40
15.973271
 40
16.459989
 40
16.862949
 40
17.098668
 40
17.841898
 40
18.986463
 40
19.681746
 40
19.788210
 40
19.924399
 40
20.063252
 40
20.440703
 40
21.200914
 40
22.179329
 40
23.181033
 40
24.002318
 40
24.465401
 40
24.718519
 40
24.993745
 40
25.236443
 40
25.672633
 40
25.947796
 40
26.171018
 40
26.407441
 40
26.652862
 40
26.990233
 40
27.735759
 40
28.261302
 40
28.989348
 40
29.572389
 40
30.165840
 40
30.641592
 40
31.552863
 40
32.457393
 40
32.988441
 40
33.738030
 40
34.917973
 40
35.684305
 40
36.083332
 40
36.591493
 40
36.907348
 40
36.907348
 40
36.907348
 40
36.907348
 10
67.509427
 20
118.092150
 30
0.0
 10
67.402389
 20
117.951536
 30
0.0
 10
67.196522
 20
117.681092
 30
0.0
 10
67.060316
 20
117.427622
 30
0.0
 10
66.879601
 20
117.047600
 30
0.0
 10
67.038049
 20
117.080018
 30
0.0
 10
67.128618
 20
117.143069
 30
0.0
 10
67.250328
 20
117.239789
 30
0.0
 10
67.381367
 20
117.337685
 30
0.0
 10
67.512702
 20
117.417875
 30
0.0
 10
67.641183
 20
117.427574
 30
0.0
 10
67.755025
 20
117.504099
 30
0.0
 10
67.811274
 20
117.669316
 30
0.0
 10
67.849294
 20
117.884368
 30
0.0
 10
67.881654
 20
118.119127
 30
0.0
 10
67.991481
 20
118.329522
 30
0.0
 10
68.164085
 20
118.442843
 30
0.0
 10
68.333130
 20
118.532492
 30
0.0
 10
68.424158
 20
118.710774
 30
0.0
 10
68.410000
 20
118.907877
 30
0.0
 10
68.405605
 20
119.120395
 30
0.0
 10
68.524305
 20
119.327874
 30
0.0
 10
68.721124
 20
119.471615
 30
0.0
 10
68.920227
 20
119.645683
 30
0.0
 10
69.084116
 20
119.847012
 30
0.0
 10
69.216988
 20
120.119044
 30
0.0
 10
69.353325
 20
120.382885
 30
0.0
 10
69.671897
 20
120.560125
 30
0.0
 10
69.861748
 20
120.350218
 30
0.0
 10
69.842063
 20
120.158854
 30
0.0
 10
69.797461
 20
119.993680
 30
0.0
 10
69.702102
 20
119.835128
 30
0.0
 10
69.610224
 20
119.674982
 30
0.0
 10
69.558589
 20
119.505137
 30
0.0
 10
69.573478
 20
119.258964
 30
0.0
 10
69.575242
 20
118.920239
 30
0.0
 10
69.423387
 20
118.542899
 30
0.0
 10
69.246418
 20
118.272989
 30
0.0
 10
69.037699
 20
118.198786
 30
0.0
 10
69.028590
 20
118.042829
 30
0.0
 10
69.200146
 20
117.887303
 30
0.0
 10
69.353265
 20
117.607677
 30
0.0
 10
69.415686
 20
117.207424
 30
0.0
 10
69.307944
 20
116.872541
 30
0.0
 10
69.179700
 20
116.577208
 30
0.0
 10
69.091222
 20
116.293259
 30
0.0
 10
69.019566
 20
115.991830
 30
0.0
 10
68.939589
 20
115.719181
 30
0.0
 10
68.834205
 20
115.497835
 30
0.0
 10
68.615795
 20
115.322159
 30
0.0
 10
68.326424
 20
115.142403
 30
0.0
 10
68.110052
 20
114.770391
 30
0.0
 10
68.100257
 20
114.410793
 30
0.0
 10
68.098462
 20
114.056884
 30
0.0
 10
67.886513
 20
113.664979
 30
0.0
 10
67.591387
 20
113.192912
 30
0.0
 10
67.244016
 20
112.632270
 30
0.0
 10
66.933386
 20
112.061976
 30
0.0
 10
66.681616
 20
111.521925
 30
0.0
 10
66.476935
 20
111.070779
 30
0.0
 10
66.308650
 20
110.732429
 30
0.0
 10
66.013121
 20
110.377721
 30
0.0
 10
65.659042
 20
109.754790
 30
0.0
 10
65.355271
 20
108.970865
 30
0.0
 10
65.035551
 20
108.358156
 30
0.0
 10
65.078550
 20
108.045598
 30
0.0
 10
65.063326
 20
107.918350
 30
0.0
 10
65.014446
 20
107.706538
 30
0.0
 10
64.902679
 20
107.295776
 30
0.0
 10
64.737735
 20
106.610009
 30
0.0
 10
64.520649
 20
105.722713
 30
0.0
 10
64.297375
 20
104.816029
 30
0.0
 10
64.121696
 20
104.074433
 30
0.0
 10
63.981729
 20
103.581225
 30
0.0
 10
63.921054
 20
103.255652
 30
0.0
 10
63.911891
 20
102.997822
 30
0.0
 10
63.951471
 20
102.679838
 30
0.0
 10
64.022160
 20
102.379338
 30
0.0
 10
63.986671
 20
102.032405
 30
0.0
 10
63.752282
 20
101.916290
 30
0.0
 10
63.521282
 20
101.833517
 30
0.0
 10
63.428969
 20
101.545872
 30
0.0
 10
63.491048
 20
101.109442
 30
0.0
 10
63.629404
 20
100.583811
 30
0.0
 10
63.533778
 20
99.907660
 30
0.0
 10
63.222532
 20
99.372674
 30
0.0
 10
62.941714
 20
98.804796
 30
0.0
 10
62.699443
 20
98.309799
 30
0.0
 10
62.444839
 20
97.699901
 30
0.0
 10
62.083863
 20
97.029151
 30
0.0
 10
61.674119
 20
96.348352
 30
0.0
 10
61.105809
 20
95.885544
 30
0.0
 10
60.564578
 20
95.263617
 30
0.0
 10
60.121669
 20
94.475056
 30
0.0
 10
59.849152
 20
93.734491
 30
0.0
 10
59.781250
 20
93.180552
 30
0.0
 10
59.583544
 20
92.798445
 30
0.0
 10
59.356129
 20
92.640726
 30
0.0
 10
59.268958
 20
92.580270
 30
0.0
 11
67.509427
 21
118.092150
 31
0.0
 11
67.213924
 21
117.687511
 31
0.0
 11
66.991838
 21
117.281681
 31
0.0
 11
66.949214
 21
117.068438
 31
0.0
 11
67.011923
 21
117.077439
 31
0.0
 11
67.118775
 21
117.137601
 31
0.0
 11
67.246637
 21
117.235883
 31
0.0
 11
67.387940
 21
117.338951
 31
0.0
 11
67.530046
 21
117.411634
 31
0.0
 11
67.642189
 21
117.438203
 31
0.0
 11
67.728281
 21
117.496089
 31
0.0
 11
67.801189
 21
117.651266
 31
0.0
 11
67.845692
 21
117.871508
 31
0.0
 11
67.900915
 21
118.132507
 31
0.0
 11
68.007093
 21
118.319915
 31
0.0
 11
68.168969
 21
118.442100
 31
0.0
 11
68.326097
 21
118.552386
 31
0.0
 11
68.404357
 21
118.701184
 31
0.0
 11
68.411979
 21
118.904175
 31
0.0
 11
68.425286
 21
119.118888
 31
0.0
 11
68.523878
 21
119.301787
 31
0.0
 11
68.720006
 21
119.475585
 31
0.0
 11
68.910881
 21
119.646827
 31
0.0
 11
69.081763
 21
119.861748
 31
0.0
 11
69.195656
 21
120.073815
 31
0.0
 11
69.415353
 21
120.393359
 31
0.0
 11
69.675199
 21
120.491216
 31
0.0
 11
69.840875
 21
120.316800
 31
0.0
 11
69.839851
 21
120.171503
 31
0.0
 11
69.790322
 21
119.998549
 31
0.0
 11
69.702993
 21
119.835383
 31
0.0
 11
69.616005
 21
119.670673
 31
0.0
 11
69.567379
 21
119.493689
 31
0.0
 11
69.567642
 21
119.342745
 31
0.0
 11
69.550876
 21
118.941084
 31
0.0
 11
69.395173
 21
118.518396
 31
0.0
 11
69.166502
 21
118.253805
 31
0.0
 11
69.049057
 21
118.170139
 31
0.0
 11
69.039897
 21
118.075901
 31
0.0
 11
69.135827
 21
117.938190
 31
0.0
 11
69.333215
 21
117.595496
 31
0.0
 11
69.385261
 21
117.213734
 31
0.0
 11
69.286649
 21
116.831895
 31
0.0
 11
69.191954
 21
116.595230
 31
0.0
 11
69.094435
 21
116.291215
 31
0.0
 11
69.015205
 21
115.985670
 31
0.0
 11
68.926637
 21
115.705757
 31
0.0
 11
68.807039
 21
115.489908
 31
0.0
 11
68.675856
 21
115.373220
 31
0.0
 11
68.354565
 21
115.121175
 31
0.0
 11
68.138950
 21
114.745820
 31
0.0
 11
68.100862
 21
114.372240
 31
0.0
 11
68.082324
 21
114.111338
 31
0.0
 11
67.919208
 21
113.732595
 31
0.0
 11
67.595411
 21
113.198573
 31
0.0
 11
67.258022
 21
112.643813
 31
0.0
 11
66.924435
 21
112.029134
 31
0.0
 11
66.666870
 21
111.487605
 31
0.0
 11
66.462201
 21
111.046011
 31
0.0
 11
66.267288
 21
110.693327
 31
0.0
 11
66.124329
 21
110.505908
 31
0.0
 11
65.740341
 21
109.869556
 31
0.0
 11
65.269205
 21
108.826454
 31
0.0
 11
65.065515
 21
108.161678
 31
0.0
 11
65.073181
 21
108.055490
 31
0.0
 11
65.061071
 21
107.919840
 31
0.0
 11
65.031848
 21
107.784098
 31
0.0
 11
64.937395
 21
107.418655
 31
0.0
 11
64.754321
 21
106.680818
 31
0.0
 11
64.522261
 21
105.730320
 31
0.0
 11
64.284566
 21
104.757227
 31
0.0
 11
64.086718
 21
103.960128
 31
0.0
 11
63.971549
 21
103.511595
 31
0.0
 11
63.928387
 21
103.262185
 31
0.0
 11
63.919310
 21
102.987108
 31
0.0
 11
63.946274
 21
102.745913
 31
0.0
 11
64.004117
 21
102.313574
 31
0.0
 11
63.942008
 21
102.045513
 31
0.0
 11
63.755555
 21
101.922780
 31
0.0
 11
63.549164
 21
101.807460
 31
0.0
 11
63.455806
 21
101.580490
 31
0.0
 11
63.476102
 21
101.243730
 31
0.0
 11
63.589796
 21
100.506924
 31
0.0
 11
63.516666
 21
99.986493
 31
0.0
 11
63.206861
 21
99.327653
 31
0.0
 11
62.943485
 21
98.807490
 31
0.0
 11
62.688138
 21
98.271783
 31
0.0
 11
62.496101
 21
97.836510
 31
0.0
 11
62.074995
 21
97.028374
 31
0.0
 11
61.560192
 21
96.284631
 31
0.0
 11
61.171480
 21
95.922810
 31
0.0
 11
60.675450
 21
95.360816
 31
0.0
 11
60.088121
 21
94.337434
 31
0.0
 11
59.844581
 21
93.610830
 31
0.0
 11
59.764428
 21
93.219936
 31
0.0
 11
59.516628
 21
92.776289
 31
0.0
 11
59.268958
 21
92.580270
 31
0.0
  0
SPLINE
  5
102
100
AcDbEntity
  8
Layer_1
 62
7
100
AcDbSpline
 70
0
 71
3
 72
10
 73
6
 74
4
 40
0.000000
 40
0.000000
 40
0.000000
 40
0.000000
 40
0.334868
 40
1.035683
 40
1.524928
 40
1.524928
 40
1.524928
 40
1.524928
 10
59.268958
 20
92.580270
 30
0.0
 10
59.129603
 20
92.581855
 30
0.0
 10
58.698604
 20
92.586756
 30
0.0
 10
59.370047
 20
93.644431
 30
0.0
 10
59.195226
 20
93.062899
 30
0.0
 10
59.123355
 20
92.823825
 30
0.0
 11
59.268958
 21
92.580270
 31
0.0
 11
58.943624
 21
92.659609
 31
0.0
 11
59.220859
 21
93.303256
 31
0.0
 11
59.123355
 21
92.823825
 31
0.0
  0
LWPOLYLINE
  5
103
100
AcDbEntity
  8
Layer_1
 62
7
100
AcDbPolyline
 90
3
 70
0
 10
67.479242
 20
118.222403
 30
0.0
 10
67.753669
 20
118.371420
 30
0.0
 10
67.509427
 20
118.092150
 30
0.0
  0
SPLINE
  5
104
100
AcDbEntity
  8
Layer_1
 62
7
100
AcDbSpline
 70
0
 71
3
 72
31
 73
27
 74
25
 40
0.000000
 40
0.000000
 40
0.000000
 40
0.000000
 40
0.183547
 40
0.471510
 40
0.671240
 40
0.721977
 40
0.764694
 40
0.835822
 40
0.930598
 40
1.069553
 40
1.279976
 40
1.514660
 40
1.621077
 40
1.735528
 40
1.870746
 40
2.124117
 40
2.577211
 40
2.971193
 40
3.159061
 40
3.385634
 40
3.558031
 40
3.745127
 40
3.908273
 40
3.978581
 40
4.464421
 40
5.444166
 40
5.444166
 40
5.444166
 40
5.444166
 10
59.123355
 20
92.823825
 30
0.0
 10
59.183642
 20
92.843099
 30
0.0
 10
59.338512
 20
92.892613
 30
0.0
 10
59.443876
 20
93.101284
 30
0.0
 10
59.508080
 20
93.292416
 30
0.0
 10
59.427971
 20
93.378589
 30
0.0
 10
59.475255
 20
93.428743
 30
0.0
 10
59.546406
 20
93.420419
 30
0.0
 10
59.644413
 20
93.477558
 30
0.0
 10
59.666331
 20
93.636238
 30
0.0
 10
59.649107
 20
93.829659
 30
0.0
 10
59.640715
 20
94.000872
 30
0.0
 10
59.545350
 20
94.168890
 30
0.0
 10
59.432594
 20
94.076298
 30
0.0
 10
59.219853
 20
94.078929
 30
0.0
 10
59.375557
 20
94.457074
 30
0.0
 10
59.512433
 20
94.743746
 30
0.0
 10
59.665359
 20
95.018840
 30
0.0
 10
60.013088
 20
95.217943
 30
0.0
 10
59.898238
 20
94.918551
 30
0.0
 10
59.815555
 20
94.764173
 30
0.0
 10
59.788361
 20
94.607075
 30
0.0
 10
59.682963
 20
94.426496
 30
0.0
 10
59.971392
 20
94.374129
 30
0.0
 10
60.090721
 20
95.072934
 30
0.0
 10
60.369055
 20
95.428029
 30
0.0
 10
60.555122
 20
95.665410
 30
0.0
 11
59.123355
 21
92.823825
 31
0.0
 11
59.291963
 21
92.896357
 31
0.0
 11
59.451311
 21
93.136213
 31
0.0
 11
59.463336
 21
93.335580
 31
0.0
 11
59.441220
 21
93.381244
 31
0.0
 11
59.467954
 21
93.414561
 31
0.0
 11
59.537744
 21
93.428295
 31
0.0
 11
59.619752
 21
93.475805
 31
0.0
 11
59.658447
 21
93.609263
 31
0.0
 11
59.651243
 21
93.819563
 31
0.0
 11
59.607419
 21
94.050118
 31
0.0
 11
59.541529
 21
94.133684
 31
0.0
 11
59.433596
 21
94.095615
 31
0.0
 11
59.298424
 21
94.099204
 31
0.0
 11
59.333103
 21
94.350191
 31
0.0
 11
59.525452
 21
94.760430
 31
0.0
 11
59.771143
 21
95.068419
 31
0.0
 11
59.943142
 21
95.143989
 31
0.0
 11
59.894664
 21
94.922663
 31
0.0
 11
59.824991
 21
94.764972
 31
0.0
 11
59.767267
 21
94.587003
 31
0.0
 11
59.733988
 21
94.427288
 31
0.0
 11
59.801895
 21
94.409072
 31
0.0
 11
60.070421
 21
94.813960
 31
0.0
 11
60.555122
 21
95.665410
 31
0.0
  0
LWPOLYLINE
  5
105
100
AcDbEntity
  8
Layer_1
 62
7
100
AcDbPolyline
 90
3
 70
0
 10
60.555122
 20
95.665410
 30
0.0
 10
60.727793
 20
95.978010
 30
0.0
 10
60.501969
 20
95.785958
 30
0.0
  0
SPLINE
  5
106
100
AcDbEntity
  8
Layer_1
 62
7
100
AcDbSpline
 70
0
 71
3
 72
28
 73
24
 74
22
 40
0.000000
 40
0.000000
 40
0.000000
 40
0.000000
 40
0.342930
 40
0.482874
 40
0.683590
 40
0.858799
 40
1.002340
 40
1.244771
 40
1.690279
 40
2.120063
 40
2.397749
 40
2.546898
 40
2.816826
 40
3.152940
 40
3.507350
 40
3.826090
 40
4.044377
 40
4.189460
 40
4.315193
 40
4.409318
 40
4.532632
 40
4.730558
 40
4.967465
 40
4.967465
 40
4.967465
 40
4.967465
 10
60.501969
 20
95.785958
 30
0.0
 10
60.425174
 20
95.704812
 30
0.0
 10
60.317041
 20
95.590552
 30
0.0
 10
60.022986
 20
95.558777
 30
0.0
 10
60.090912
 20
95.795199
 30
0.0
 10
60.132031
 20
95.957258
 30
0.0
 10
60.323266
 20
96.040313
 30
0.0
 10
60.598637
 20
95.975794
 30
0.0
 10
60.967881
 20
96.057391
 30
0.0
 10
61.338099
 20
96.232025
 30
0.0
 10
61.443446
 20
96.523874
 30
0.0
 10
61.409205
 20
96.755366
 30
0.0
 10
61.466026
 20
97.004999
 30
0.0
 10
61.538931
 20
97.315031
 30
0.0
 10
61.617125
 20
97.642762
 30
0.0
 10
61.659291
 20
97.937772
 30
0.0
 10
61.652149
 20
98.166579
 30
0.0
 10
61.626777
 20
98.326550
 30
0.0
 10
61.643154
 20
98.453836
 30
0.0
 10
61.721566
 20
98.540278
 30
0.0
 10
61.808257
 20
98.648852
 30
0.0
 10
61.864089
 20
98.830319
 30
0.0
 10
61.892117
 20
98.972001
 30
0.0
 10
61.907388
 20
99.049193
 30
0.0
 11
60.501969
 21
95.785958
 31
0.0
 11
60.221360
 21
95.588829
 31
0.0
 11
60.081427
 21
95.590621
 31
0.0
 11
60.088643
 21
95.791208
 31
0.0
 11
60.159734
 21
95.951346
 31
0.0
 11
60.289055
 21
96.013634
 31
0.0
 11
60.531311
 21
96.004418
 31
0.0
 11
60.970977
 21
96.076330
 31
0.0
 11
61.335211
 21
96.304470
 31
0.0
 11
61.428159
 21
96.566138
 31
0.0
 11
61.421743
 21
96.715149
 31
0.0
 11
61.461127
 21
96.982189
 31
0.0
 11
61.537799
 21
97.309440
 31
0.0
 11
61.614258
 21
97.655505
 31
0.0
 11
61.653113
 21
97.971868
 31
0.0
 11
61.645953
 21
98.190038
 31
0.0
 11
61.633293
 21
98.334566
 31
0.0
 11
61.657775
 21
98.457894
 31
0.0
 11
61.714091
 21
98.533313
 31
0.0
 11
61.787540
 21
98.632366
 31
0.0
 11
61.856985
 21
98.817709
 31
0.0
 11
61.907388
 21
99.049193
 31
0.0
  0
LWPOLYLINE
  5
107
100
AcDbEntity
  8
Layer_1
 62
7
100
AcDbPolyline
 90
3
 70
0
 10
61.907388
 20
99.049193
 30
0.0
 10
61.972601
 20
99.487695
 30
0.0
 10
62.001866
 20
99.071138
 30
0.0
  0
SPLINE
  5
108
100
AcDbEntity
  8
Layer_1
 62
7
100
AcDbSpline
 70
0
 71
3
 72
16
 73
12
 74
10
 40
0.000000
 40
0.000000
 40
0.000000
 40
0.000000
 40
0.241652
 40
0.477548
 40
0.662263
 40
0.833080
 40
1.034106
 40
1.230241
 40
1.452652
 40
1.725243
 40
1.996373
 40
1.996373
 40
1.996373
 40
1.996373
 10
62.001866
 20
99.071138
 30
0.0
 10
62.002787
 20
98.990614
 30
0.0
 10
62.004609
 20
98.831486
 30
0.0
 10
61.974755
 20
98.610477
 30
0.0
 10
61.901825
 20
98.426802
 30
0.0
 10
61.833219
 20
98.253777
 30
0.0
 10
61.815362
 20
98.061988
 30
0.0
 10
61.845503
 20
97.857540
 30
0.0
 10
61.864239
 20
97.627102
 30
0.0
 10
61.827006
 20
97.371928
 30
0.0
 10
61.770354
 20
97.199665
 30
0.0
 10
61.742104
 20
97.113765
 30
0.0
 11
62.001866
 21
99.071138
 31
0.0
 11
61.998652
 21
98.829507
 31
0.0
 11
61.962097
 21
98.596460
 31
0.0
 11
61.900115
 21
98.422455
 31
0.0
 11
61.844149
 21
98.261067
 31
0.0
 11
61.823357
 21
98.061118
 31
0.0
 11
61.842245
 21
97.865895
 31
0.0
 11
61.855313
 21
97.643868
 31
0.0
 11
61.819337
 21
97.373662
 31
0.0
 11
61.742104
 21
97.113765
 31
0.0
  0
SPLINE
  5
109
100
AcDbEntity
  8
Layer_1
 62
7
100
AcDbSpline
 70
0
 71
3
 72
292
 73
288
 74
286
 40
0.000000
 40
0.000000
 40
0.000000
 40
0.000000
 40
0.272353
 40
0.636209
 40
1.014361
 40
1.468821
 40
2.032342
 40
2.583417
 40
3.166752
 40
3.624842
 40
4.034150
 40
4.534989
 40
4.603308
 40
5.047799
 40
5.798684
 40
6.665478
 40
7.130860
 40
7.197741
 40
7.341814
 40
7.539318
 40
7.706586
 40
7.771411
 40
7.831519
 40
7.961751
 40
8.049833
 40
8.293874
 40
9.035751
 40
9.902181
 40
10.518804
 40
10.964628
 40
11.463217
 40
11.905137
 40
12.054288
 40
12.170559
 40
12.250055
 40
12.506677
 40
13.033734
 40
13.593675
 40
13.878596
 40
14.040245
 40
14.167451
 40
14.283639
 40
14.378621
 40
14.491602
 40
14.588704
 40
14.846154
 40
15.392875
 40
15.839875
 40
16.125644
 40
16.203587
 40
16.272342
 40
16.347842
 40
16.503454
 40
16.853365
 40
17.196722
 40
17.615544
 40
18.047980
 40
18.259637
 40
18.748584
 40
20.314189
 40
20.836989
 40
21.110732
 40
21.317381
 40
21.422636
 40
21.528472
 40
21.618757
 40
21.646528
 40
21.737521
 40
21.844872
 40
22.406621
 40
23.686794
 40
25.113524
 40
25.943285
 40
26.155752
 40
26.320562
 40
26.669897
 40
27.129455
 40
27.653165
 40
27.754485
 40
28.046625
 40
28.856779
 40
29.472329
 40
29.744086
 40
29.834636
 40
30.009883
 40
30.243527
 40
30.641733
 40
30.742389
 40
31.101108
 40
31.358558
 40
31.645776
 40
31.903119
 40
32.393451
 40
32.793367
 40
32.925213
 40
32.998496
 40
33.074674
 40
33.157615
 40
33.242018
 40
33.328694
 40
33.422156
 40
33.598450
 40
33.752120
 40
33.950178
 40
34.041948
 40
34.156233
 40
34.416373
 40
34.686389
 40
34.804865
 40
34.895833
 40
34.989530
 40
35.065127
 40
35.178577
 40
35.294794
 40
35.349688
 40
35.465905
 40
35.569801
 40
35.643430
 40
35.698842
 40
35.760030
 40
35.821998
 40
35.888063
 40
35.945205
 40
35.988682
 40
36.042499
 40
36.134298
 40
36.299996
 40
36.516468
 40
36.804199
 40
37.153380
 40
37.488959
 40
37.870087
 40
38.122729
 40
38.443625
 40
38.728361
 40
38.987289
 40
39.242837
 40
39.599314
 40
39.757792
 40
39.912243
 40
40.128977
 40
40.406016
 40
40.783513
 40
41.317323
 40
41.988302
 40
42.386427
 40
42.489317
 40
42.653941
 40
42.850337
 40
43.478808
 40
44.094677
 40
44.371889
 40
44.461213
 40
44.622075
 40
44.827788
 40
45.291348
 40
45.765731
 40
46.122393
 40
46.209382
 40
46.272989
 40
46.327862
 40
46.391877
 40
46.471138
 40
46.566867
 40
46.653210
 40
46.711613
 40
46.767920
 40
46.863349
 40
47.041478
 40
47.278979
 40
47.635964
 40
48.123926
 40
48.637808
 40
49.096381
 40
49.439438
 40
49.594469
 40
49.892391
 40
50.568000
 40
51.148956
 40
51.356091
 40
51.640817
 40
51.942710
 40
52.267258
 40
52.322259
 40
52.533493
 40
53.071903
 40
53.696095
 40
54.357529
 40
54.760868
 40
55.302810
 40
55.867022
 40
56.664945
 40
57.317842
 40
57.698754
 40
57.779587
 40
58.027930
 40
58.391730
 40
58.794373
 40
59.146915
 40
59.378569
 40
59.570258
 40
59.809860
 40
60.048811
 40
60.310006
 40
60.606262
 40
60.874176
 40
61.093009
 40
61.184534
 40
61.603341
 40
62.004451
 40
62.376830
 40
62.641763
 40
62.925141
 40
63.345893
 40
63.814563
 40
64.223928
 40
64.490704
 40
64.574344
 40
64.632826
 40
64.798643
 40
65.066079
 40
65.383396
 40
65.549470
 40
65.643177
 40
65.743434
 40
65.790926
 40
65.897326
 40
66.050680
 40
66.305535
 40
66.635735
 40
67.044008
 40
67.354797
 40
67.702657
 40
68.118775
 40
68.326485
 40
68.473733
 40
68.513014
 40
68.598731
 40
68.771668
 40
68.967918
 40
69.117475
 40
69.203833
 40
69.249955
 40
69.351336
 40
69.521808
 40
69.723483
 40
69.767193
 40
69.893982
 40
70.020605
 40
70.121844
 40
70.197183
 40
70.426392
 40
70.677217
 40
70.823538
 40
70.882178
 40
70.928064
 40
70.986707
 40
71.066158
 40
71.162948
 40
71.267987
 40
71.386420
 40
71.534244
 40
71.697062
 40
71.889975
 40
72.001988
 40
72.220625
 40
72.403045
 40
72.556390
 40
72.651026
 40
72.732632
 40
72.847191
 40
72.972539
 40
73.092247
 40
73.196274
 40
73.273626
 40
73.420637
 40
73.761663
 40
74.159300
 40
74.287145
 40
74.386149
 40
74.602340
 40
74.893625
 40
75.263353
 40
75.658596
 40
75.891663
 40
76.107050
 40
76.465243
 40
76.465243
 40
76.465243
 40
76.465243
 10
61.786266
 20
96.981488
 30
0.0
 10
61.834935
 20
97.058180
 30
0.0
 10
61.948623
 20
97.237331
 30
0.0
 10
62.098026
 20
97.541392
 30
0.0
 10
62.253042
 20
97.908764
 30
0.0
 10
62.434074
 20
98.337633
 30
0.0
 10
62.657849
 20
98.810217
 30
0.0
 10
62.918123
 20
99.314222
 30
0.0
 10
63.152285
 20
99.785572
 30
0.0
 10
63.316961
 20
100.257826
 30
0.0
 10
63.288553
 20
100.690602
 30
0.0
 10
63.422345
 20
101.096154
 30
0.0
 10
63.092383
 20
101.294109
 30
0.0
 10
63.233506
 20
100.529063
 30
0.0
 10
62.983598
 20
100.005700
 30
0.0
 10
62.782667
 20
99.493425
 30
0.0
 10
62.620622
 20
98.704210
 30
0.0
 10
62.432061
 20
98.868533
 30
0.0
 10
62.389656
 20
98.996033
 30
0.0
 10
62.333194
 20
99.169020
 30
0.0
 10
62.302798
 20
99.273741
 30
0.0
 10
62.286534
 20
99.426113
 30
0.0
 10
62.356404
 20
99.319767
 30
0.0
 10
62.387319
 20
99.210505
 30
0.0
 10
62.545480
 20
99.324351
 30
0.0
 10
62.647728
 20
99.655022
 30
0.0
 10
62.854894
 20
100.253088
 30
0.0
 10
62.918340
 20
100.977829
 30
0.0
 10
62.980800
 20
101.657284
 30
0.0
 10
62.628414
 20
102.080183
 30
0.0
 10
62.221818
 20
102.316387
 30
0.0
 10
61.847901
 20
102.353460
 30
0.0
 10
61.615455
 20
102.313331
 30
0.0
 10
61.498554
 20
102.324844
 30
0.0
 10
61.371433
 20
102.453148
 30
0.0
 10
61.797050
 20
102.627832
 30
0.0
 10
62.161763
 20
102.527878
 30
0.0
 10
62.634759
 20
102.400426
 30
0.0
 10
62.904264
 20
102.221169
 30
0.0
 10
63.109961
 20
102.158614
 30
0.0
 10
63.216308
 20
102.262021
 30
0.0
 10
63.276797
 20
102.356570
 30
0.0
 10
63.392266
 20
102.395329
 30
0.0
 10
63.481963
 20
102.330203
 30
0.0
 10
63.657697
 20
102.386090
 30
0.0
 10
63.562879
 20
102.763519
 30
0.0
 10
63.551626
 20
103.126778
 30
0.0
 10
63.516471
 20
103.582916
 30
0.0
 10
63.463853
 20
103.812865
 30
0.0
 10
63.534930
 20
104.001948
 30
0.0
 10
63.618362
 20
103.911893
 30
0.0
 10
63.658983
 20
104.050372
 30
0.0
 10
63.656590
 20
104.215790
 30
0.0
 10
63.576488
 20
104.526963
 30
0.0
 10
63.218835
 20
104.712227
 30
0.0
 10
62.832422
 20
104.706859
 30
0.0
 10
62.422448
 20
104.519068
 30
0.0
 10
62.204006
 20
104.914600
 30
0.0
 10
62.749066
 20
105.594431
 30
0.0
 10
62.920977
 20
106.277375
 30
0.0
 10
63.498692
 20
107.102518
 30
0.0
 10
63.182540
 20
107.330606
 30
0.0
 10
63.049911
 20
107.451050
 30
0.0
 10
62.885009
 20
107.494638
 30
0.0
 10
62.847715
 20
107.390945
 30
0.0
 10
62.792145
 20
107.309228
 30
0.0
 10
62.863812
 20
107.263926
 30
0.0
 10
62.904917
 20
107.370713
 30
0.0
 10
63.221067
 20
107.301551
 30
0.0
 10
62.557586
 20
106.457588
 30
0.0
 10
62.484770
 20
105.626455
 30
0.0
 10
61.825387
 20
104.399807
 30
0.0
 10
61.701766
 20
103.814738
 30
0.0
 10
61.296632
 20
103.297343
 30
0.0
 10
61.398118
 20
103.649868
 30
0.0
 10
61.477726
 20
103.894265
 30
0.0
 10
61.630251
 20
104.359077
 30
0.0
 10
61.780005
 20
104.623876
 30
0.0
 10
61.839601
 20
105.014290
 30
0.0
 10
61.521098
 20
104.334519
 30
0.0
 10
61.327269
 20
104.000250
 30
0.0
 10
61.155610
 20
103.549015
 30
0.0
 10
60.997341
 20
103.049712
 30
0.0
 10
61.207632
 20
103.103623
 30
0.0
 10
61.324127
 20
103.216648
 30
0.0
 10
61.521714
 20
103.384597
 30
0.0
 10
61.649054
 20
103.691347
 30
0.0
 10
61.978471
 20
103.572930
 30
0.0
 10
61.679836
 20
103.296973
 30
0.0
 10
61.571263
 20
103.057956
 30
0.0
 10
61.447016
 20
102.809265
 30
0.0
 10
61.353409
 20
102.479083
 30
0.0
 10
61.189152
 20
102.131209
 30
0.0
 10
61.102865
 20
101.798849
 30
0.0
 10
60.841383
 20
101.702433
 30
0.0
 10
60.817645
 20
101.813827
 30
0.0
 10
60.738975
 20
101.846752
 30
0.0
 10
60.658907
 20
101.839459
 30
0.0
 10
60.571023
 20
101.837024
 30
0.0
 10
60.496678
 20
101.895385
 30
0.0
 10
60.443627
 20
102.002098
 30
0.0
 10
60.468746
 20
102.176807
 30
0.0
 10
60.688201
 20
102.205724
 30
0.0
 10
60.772255
 20
102.085048
 30
0.0
 10
60.867132
 20
101.942806
 30
0.0
 10
60.991588
 20
102.114517
 30
0.0
 10
61.063062
 20
102.293115
 30
0.0
 10
61.145868
 20
102.471003
 30
0.0
 10
61.196234
 20
102.677837
 30
0.0
 10
61.069256
 20
102.676468
 30
0.0
 10
60.980835
 20
102.656635
 30
0.0
 10
60.915236
 20
102.744724
 30
0.0
 10
60.923713
 20
102.844914
 30
0.0
 10
60.960369
 20
102.952778
 30
0.0
 10
60.863589
 20
103.014473
 30
0.0
 10
60.784514
 20
102.934162
 30
0.0
 10
60.700704
 20
102.896052
 30
0.0
 10
60.615998
 20
102.880100
 30
0.0
 10
60.566450
 20
102.934278
 30
0.0
 10
60.576145
 20
102.997946
 30
0.0
 10
60.613001
 20
103.052360
 30
0.0
 10
60.671140
 20
103.076267
 30
0.0
 10
60.727553
 20
103.091545
 30
0.0
 10
60.749448
 20
103.148973
 30
0.0
 10
60.698835
 20
103.198305
 30
0.0
 10
60.700853
 20
103.309713
 30
0.0
 10
60.763238
 20
103.454883
 30
0.0
 10
60.879432
 20
103.646255
 30
0.0
 10
61.034040
 20
103.884776
 30
0.0
 10
61.192714
 20
104.168142
 30
0.0
 10
61.351728
 20
104.484643
 30
0.0
 10
61.504245
 20
104.774035
 30
0.0
 10
61.521118
 20
105.104583
 30
0.0
 10
61.380320
 20
105.362537
 30
0.0
 10
61.226229
 20
105.606351
 30
0.0
 10
61.023504
 20
105.783837
 30
0.0
 10
60.733467
 20
105.889474
 30
0.0
 10
60.548617
 20
105.939095
 30
0.0
 10
60.187563
 20
105.949716
 30
0.0
 10
60.452793
 20
105.850452
 30
0.0
 10
60.584654
 20
105.667320
 30
0.0
 10
60.366818
 20
105.383183
 30
0.0
 10
59.994259
 20
105.279955
 30
0.0
 10
59.533004
 20
104.959626
 30
0.0
 10
59.249083
 20
104.606326
 30
0.0
 10
58.902628
 20
104.176896
 30
0.0
 10
59.097266
 20
104.031859
 30
0.0
 10
59.235853
 20
103.970541
 30
0.0
 10
59.560108
 20
103.893955
 30
0.0
 10
59.964390
 20
103.595182
 30
0.0
 10
60.376117
 20
103.384320
 30
0.0
 10
60.433865
 20
102.832260
 30
0.0
 10
60.243233
 20
102.924517
 30
0.0
 10
60.143300
 20
103.029011
 30
0.0
 10
59.977316
 20
103.255618
 30
0.0
 10
59.682911
 20
103.506767
 30
0.0
 10
59.277078
 20
103.670447
 30
0.0
 10
58.947321
 20
103.657391
 30
0.0
 10
58.805766
 20
103.567461
 30
0.0
 10
58.726448
 20
103.565081
 30
0.0
 10
58.695269
 20
103.623108
 30
0.0
 10
58.661450
 20
103.681602
 30
0.0
 10
58.577611
 20
103.702748
 30
0.0
 10
58.490575
 20
103.695987
 30
0.0
 10
58.415199
 20
103.671877
 30
0.0
 10
58.361222
 20
103.611354
 30
0.0
 10
58.411081
 20
103.547159
 30
0.0
 10
58.403619
 20
103.432257
 30
0.0
 10
58.316823
 20
103.282114
 30
0.0
 10
58.160790
 20
103.078240
 30
0.0
 10
57.936706
 20
102.795247
 30
0.0
 10
57.677793
 20
102.421294
 30
0.0
 10
57.415732
 20
102.019441
 30
0.0
 10
57.163428
 20
101.634321
 30
0.0
 10
57.011438
 20
101.413248
 30
0.0
 10
56.773886
 20
101.125220
 30
0.0
 10
56.980677
 20
101.765927
 30
0.0
 10
57.138050
 20
102.071457
 30
0.0
 10
57.350293
 20
102.566160
 30
0.0
 10
57.585735
 20
102.833124
 30
0.0
 10
57.776941
 20
103.015225
 30
0.0
 10
57.994218
 20
103.234825
 30
0.0
 10
58.201425
 20
103.323204
 30
0.0
 10
58.297922
 20
103.541901
 30
0.0
 10
57.880178
 20
103.269428
 30
0.0
 10
57.630500
 20
103.114923
 30
0.0
 10
57.194469
 20
102.591145
 30
0.0
 10
56.965203
 20
102.092794
 30
0.0
 10
56.749271
 20
101.600510
 30
0.0
 10
56.512818
 20
101.153007
 30
0.0
 10
56.198108
 20
100.619164
 30
0.0
 10
55.847432
 20
99.959139
 30
0.0
 10
55.677307
 20
99.604258
 30
0.0
 10
55.466743
 20
98.884834
 30
0.0
 10
55.652545
 20
99.100242
 30
0.0
 10
55.751109
 20
99.288500
 30
0.0
 10
55.923068
 20
99.590294
 30
0.0
 10
56.112756
 20
99.907932
 30
0.0
 10
56.306244
 20
100.176646
 30
0.0
 10
56.496239
 20
100.354147
 30
0.0
 10
56.681684
 20
100.475766
 30
0.0
 10
56.837915
 20
100.637222
 30
0.0
 10
56.992059
 20
100.831060
 30
0.0
 10
57.146963
 20
101.040362
 30
0.0
 10
57.339884
 20
101.266155
 30
0.0
 10
57.478420
 20
101.397586
 30
0.0
 10
57.718728
 20
101.674189
 30
0.0
 10
57.621238
 20
101.364885
 30
0.0
 10
57.446536
 20
101.171616
 30
0.0
 10
57.226609
 20
100.821627
 30
0.0
 10
57.017116
 20
100.549369
 30
0.0
 10
56.802237
 20
100.329142
 30
0.0
 10
56.578169
 20
100.096368
 30
0.0
 10
56.339661
 20
99.786137
 30
0.0
 10
56.096079
 20
99.425693
 30
0.0
 10
55.865848
 20
99.129071
 30
0.0
 10
55.725148
 20
98.902805
 30
0.0
 10
55.587840
 20
98.857142
 30
0.0
 10
55.483305
 20
98.901879
 30
0.0
 10
55.383250
 20
98.712508
 30
0.0
 10
55.235421
 20
98.536175
 30
0.0
 10
55.130398
 20
98.318753
 30
0.0
 10
55.025206
 20
98.117315
 30
0.0
 10
55.128892
 20
98.022011
 30
0.0
 10
55.229414
 20
98.043233
 30
0.0
 10
55.255317
 20
97.942960
 30
0.0
 10
55.144856
 20
97.885602
 30
0.0
 10
55.111251
 20
97.707321
 30
0.0
 10
55.111956
 20
97.463882
 30
0.0
 10
55.165896
 20
97.135535
 30
0.0
 10
55.235851
 20
96.790526
 30
0.0
 10
55.195785
 20
96.432974
 30
0.0
 10
55.005787
 20
96.099149
 30
0.0
 10
54.880905
 20
95.891770
 30
0.0
 10
54.584315
 20
95.589071
 30
0.0
 10
54.621160
 20
95.773530
 30
0.0
 10
54.612087
 20
95.884742
 30
0.0
 10
54.501468
 20
95.765406
 30
0.0
 10
54.417634
 20
95.685683
 30
0.0
 10
54.315046
 20
95.536190
 30
0.0
 10
54.234772
 20
95.403581
 30
0.0
 10
54.259636
 20
95.313101
 30
0.0
 10
54.262808
 20
95.225166
 30
0.0
 10
54.124101
 20
95.219047
 30
0.0
 10
53.982162
 20
95.192850
 30
0.0
 10
53.845925
 20
95.236896
 30
0.0
 10
53.709577
 20
95.158675
 30
0.0
 10
53.893598
 20
95.131926
 30
0.0
 10
53.969870
 20
95.081600
 30
0.0
 10
54.059475
 20
95.009972
 30
0.0
 10
54.060591
 20
94.869064
 30
0.0
 10
54.072558
 20
94.685013
 30
0.0
 10
54.171437
 20
94.494270
 30
0.0
 10
54.345320
 20
94.419184
 30
0.0
 10
54.410006
 20
94.489784
 30
0.0
 10
54.470345
 20
94.469748
 30
0.0
 10
54.495939
 20
94.408386
 30
0.0
 10
54.484199
 20
94.328833
 30
0.0
 10
54.436817
 20
94.244537
 30
0.0
 10
54.350175
 20
94.180835
 30
0.0
 10
54.270057
 20
94.082228
 30
0.0
 10
54.244564
 20
93.936002
 30
0.0
 10
54.252012
 20
93.772191
 30
0.0
 10
54.324202
 20
93.606182
 30
0.0
 10
54.180870
 20
93.466291
 30
0.0
 10
53.997979
 20
93.498743
 30
0.0
 10
53.817011
 20
93.504280
 30
0.0
 10
53.673325
 20
93.527397
 30
0.0
 10
53.572209
 20
93.572146
 30
0.0
 10
53.491795
 20
93.627165
 30
0.0
 10
53.387436
 20
93.658115
 30
0.0
 10
53.270326
 20
93.678044
 30
0.0
 10
53.154180
 20
93.705124
 30
0.0
 10
53.070296
 20
93.749636
 30
0.0
 10
52.979490
 20
93.855342
 30
0.0
 10
53.254180
 20
93.925564
 30
0.0
 10
53.508612
 20
93.851753
 30
0.0
 10
53.746696
 20
93.785498
 30
0.0
 10
54.021164
 20
93.687166
 30
0.0
 10
53.991833
 20
93.883395
 30
0.0
 10
53.855808
 20
94.022450
 30
0.0
 10
53.570446
 20
94.141146
 30
0.0
 10
53.209673
 20
94.091946
 30
0.0
 10
52.907646
 20
93.957959
 30
0.0
 10
52.672706
 20
93.776311
 30
0.0
 10
52.628862
 20
93.494198
 30
0.0
 10
52.672655
 20
93.308116
 30
0.0
 10
52.700003
 20
93.191910
 30
0.0
 11
61.786266
 21
96.981488
 31
0.0
 11
61.928610
 21
97.213683
 31
0.0
 11
62.092758
 21
97.538408
 31
0.0
 11
62.243174
 21
97.885358
 31
0.0
 11
62.422560
 21
98.302915
 31
0.0
 11
62.662665
 21
98.812725
 31
0.0
 11
62.911505
 21
99.304418
 31
0.0
 11
63.159746
 21
99.832296
 31
0.0
 11
63.290013
 21
100.271474
 31
0.0
 11
63.319445
 21
100.679723
 31
0.0
 11
63.277761
 21
101.178823
 31
0.0
 11
63.218813
 21
101.213359
 31
0.0
 11
63.160802
 21
100.772670
 31
0.0
 11
63.006263
 21
100.037859
 31
0.0
 11
62.733026
 21
99.215258
 31
0.0
 11
62.508151
 21
98.807813
 31
0.0
 11
62.457292
 21
98.851245
 31
0.0
 11
62.394769
 21
98.981045
 31
0.0
 11
62.334139
 21
99.169013
 31
0.0
 11
62.297369
 21
99.332189
 31
0.0
 11
62.297354
 21
99.397014
 31
0.0
 11
62.334113
 21
99.349455
 31
0.0
 11
62.409949
 21
99.243581
 31
0.0
 11
62.486363
 21
99.287389
 31
0.0
 11
62.601338
 21
99.502650
 31
0.0
 11
62.812450
 21
100.213855
 31
0.0
 11
62.927420
 21
101.072623
 31
0.0
 11
62.893956
 21
101.688338
 31
0.0
 11
62.626109
 21
102.044732
 31
0.0
 11
62.192019
 21
102.290001
 31
0.0
 11
61.752239
 21
102.333435
 31
0.0
 11
61.603786
 21
102.319018
 31
0.0
 11
61.490090
 21
102.343352
 31
0.0
 11
61.435760
 21
102.401385
 31
0.0
 11
61.645079
 21
102.549846
 31
0.0
 11
62.171577
 21
102.525594
 31
0.0
 11
62.700999
 21
102.343260
 31
0.0
 11
62.953766
 21
102.211771
 31
0.0
 11
63.113630
 21
102.187816
 31
0.0
 11
63.213630
 21
102.266438
 31
0.0
 11
63.291932
 21
102.352276
 31
0.0
 11
63.383157
 21
102.378729
 31
0.0
 11
63.491605
 21
102.347048
 31
0.0
 11
63.584632
 21
102.374881
 31
0.0
 11
63.601242
 21
102.631794
 31
0.0
 11
63.545170
 21
103.175633
 31
0.0
 11
63.501835
 21
103.620527
 31
0.0
 11
63.501839
 21
103.906296
 31
0.0
 11
63.545184
 21
103.971075
 31
0.0
 11
63.607964
 21
103.943042
 31
0.0
 11
63.644688
 21
104.009008
 31
0.0
 11
63.653068
 21
104.164395
 31
0.0
 11
63.535736
 21
104.494048
 31
0.0
 11
63.242817
 21
104.673192
 31
0.0
 11
62.823999
 21
104.671440
 31
0.0
 11
62.393301
 21
104.632708
 31
0.0
 11
62.285173
 21
104.814662
 31
0.0
 11
62.469887
 21
105.267375
 31
0.0
 11
63.199297
 21
106.652684
 31
0.0
 11
63.367547
 21
107.147671
 31
0.0
 11
63.175229
 21
107.342475
 31
0.0
 11
63.003908
 21
107.458031
 31
0.0
 11
62.899461
 21
107.471044
 31
0.0
 11
62.838683
 21
107.384400
 31
0.0
 11
62.817438
 21
107.296649
 31
0.0
 11
62.841093
 21
107.282101
 31
0.0
 11
62.911718
 21
107.339475
 31
0.0
 11
63.019039
 21
107.337008
 31
0.0
 11
62.856615
 21
106.799252
 31
0.0
 11
62.388644
 21
105.607680
 31
0.0
 11
61.837107
 21
104.291867
 31
0.0
 11
61.482206
 21
103.541833
 31
0.0
 11
61.337509
 21
103.386255
 31
0.0
 11
61.369286
 21
103.547973
 31
0.0
 11
61.473648
 21
103.881355
 31
0.0
 11
61.627981
 21
104.314223
 31
0.0
 11
61.806250
 21
104.806658
 31
0.0
 11
61.818602
 21
104.907222
 31
0.0
 11
61.669928
 21
104.655743
 31
0.0
 11
61.310700
 21
103.929585
 31
0.0
 11
61.094912
 21
103.353098
 31
0.0
 11
61.080746
 21
103.081710
 31
0.0
 11
61.169626
 21
103.099016
 31
0.0
 11
61.311374
 21
103.202064
 31
0.0
 11
61.475296
 21
103.368555
 31
0.0
 11
61.767621
 21
103.638951
 31
0.0
 11
61.861682
 21
103.603119
 31
0.0
 11
61.699551
 21
103.283130
 31
0.0
 11
61.570614
 21
103.060294
 31
0.0
 11
61.452154
 21
102.798643
 31
0.0
 11
61.369817
 21
102.554828
 31
0.0
 11
61.192066
 21
102.097848
 31
0.0
 11
60.975645
 21
101.761552
 31
0.0
 11
60.845546
 21
101.740163
 31
0.0
 11
60.808758
 21
101.803543
 31
0.0
 11
60.741619
 21
101.839535
 31
0.0
 11
60.658682
 21
101.840340
 31
0.0
 11
60.574513
 21
101.846632
 31
0.0
 11
60.504098
 21
101.897173
 31
0.0
 11
60.462696
 21
101.980965
 31
0.0
 11
60.503648
 21
102.152437
 31
0.0
 11
60.654573
 21
102.181348
 31
0.0
 11
60.798524
 21
102.045315
 31
0.0
 11
60.863161
 21
101.980171
 31
0.0
 11
60.947207
 21
102.057614
 31
0.0
 11
61.064105
 21
102.290010
 31
0.0
 11
61.160970
 21
102.542053
 31
0.0
 11
61.164012
 21
102.660489
 31
0.0
 11
61.073945
 21
102.673268
 31
0.0
 11
60.980272
 21
102.675363
 31
0.0
 11
60.931871
 21
102.733434
 31
0.0
 11
60.929299
 21
102.846855
 31
0.0
 11
60.931514
 21
102.963051
 31
0.0
 11
60.885112
 21
102.992382
 31
0.0
 11
60.781107
 21
102.940523
 31
0.0
 11
60.687305
 21
102.895850
 31
0.0
 11
60.613708
 21
102.893695
 31
0.0
 11
60.576243
 21
102.934523
 31
0.0
 11
60.580374
 21
102.995571
 31
0.0
 11
60.615778
 21
103.046429
 31
0.0
 11
60.674809
 21
103.076093
 31
0.0
 11
60.725795
 21
103.101890
 31
0.0
 11
60.740027
 21
103.142973
 31
0.0
 11
60.714454
 21
103.190325
 31
0.0
 11
60.704470
 21
103.281579
 31
0.0
 11
60.759560
 21
103.437851
 31
0.0
 11
60.867790
 21
103.625325
 31
0.0
 11
61.020566
 21
103.869145
 31
0.0
 11
61.192445
 21
104.173095
 31
0.0
 11
61.346214
 21
104.471370
 31
0.0
 11
61.492450
 21
104.823327
 31
0.0
 11
61.499688
 21
105.075866
 31
0.0
 11
61.371977
 21
105.370253
 31
0.0
 11
61.210381
 21
105.604691
 31
0.0
 11
61.012306
 21
105.771454
 31
0.0
 11
60.777011
 21
105.871163
 31
0.0
 11
60.427218
 21
105.939870
 31
0.0
 11
60.268870
 21
105.933465
 31
0.0
 11
60.402496
 21
105.856013
 31
0.0
 11
60.529250
 21
105.680209
 31
0.0
 11
60.384490
 21
105.443999
 31
0.0
 11
60.046706
 21
105.275460
 31
0.0
 11
59.600044
 21
104.983146
 31
0.0
 11
59.150858
 21
104.484704
 31
0.0
 11
59.001382
 21
104.115705
 31
0.0
 11
59.079465
 21
104.048702
 31
0.0
 11
59.228536
 21
103.978853
 31
0.0
 11
59.416316
 21
103.921320
 31
0.0
 11
59.964749
 21
103.614404
 31
0.0
 11
60.377798
 21
103.157583
 31
0.0
 11
60.356804
 21
102.881168
 31
0.0
 11
60.273628
 21
102.913734
 31
0.0
 11
60.154491
 21
103.021821
 31
0.0
 11
60.025238
 21
103.181858
 31
0.0
 11
59.672854
 21
103.483044
 31
0.0
 11
59.227795
 21
103.647243
 31
0.0
 11
58.873433
 21
103.606800
 31
0.0
 11
58.793866
 21
103.571642
 31
0.0
 11
58.730425
 21
103.576233
 31
0.0
 11
58.696835
 21
103.619625
 31
0.0
 11
58.658900
 21
103.671189
 31
0.0
 11
58.584025
 21
103.697186
 31
0.0
 11
58.488436
 21
103.692000
 31
0.0
 11
58.408758
 21
103.658735
 31
0.0
 11
58.375697
 21
103.610590
 31
0.0
 11
58.396368
 21
103.558215
 31
0.0
 11
58.400589
 21
103.462879
 31
0.0
 11
58.324454
 21
103.301841
 31
0.0
 11
58.184440
 21
103.110000
 31
0.0
 11
57.966305
 21
102.827413
 31
0.0
 11
57.685370
 21
102.428437
 31
0.0
 11
57.402454
 21
101.999445
 31
0.0
 11
57.149908
 21
101.616680
 31
0.0
 11
56.948591
 21
101.338903
 31
0.0
 11
56.842087
 21
101.226248
 31
0.0
 11
56.903996
 21
101.517666
 31
0.0
 11
57.163531
 21
102.141436
 31
0.0
 11
57.436386
 21
102.654330
 31
0.0
 11
57.570576
 21
102.812121
 31
0.0
 11
57.772471
 21
103.012889
 31
0.0
 11
57.998361
 21
103.213170
 31
0.0
 11
58.244330
 21
103.424902
 31
0.0
 11
58.264649
 21
103.476013
 31
0.0
 11
58.070121
 21
103.393680
 31
0.0
 11
57.631800
 21
103.081013
 31
0.0
 11
57.234679
 21
102.599442
 31
0.0
 11
56.930723
 21
102.011985
 31
0.0
 11
56.764069
 21
101.644686
 31
0.0
 11
56.514013
 21
101.163882
 31
0.0
 11
56.234692
 21
100.673663
 31
0.0
 11
55.857806
 21
99.970357
 31
0.0
 11
55.612449
 21
99.365316
 31
0.0
 11
55.551638
 21
98.989290
 31
0.0
 11
55.606344
 21
99.048798
 31
0.0
 11
55.737430
 21
99.259727
 31
0.0
 11
55.916497
 21
99.576405
 31
0.0
 11
56.126949
 21
99.919671
 31
0.0
 11
56.340330
 21
100.200304
 31
0.0
 11
56.510444
 21
100.357545
 31
0.0
 11
56.664308
 21
100.471870
 31
0.0
 11
56.835101
 21
100.639915
 31
0.0
 11
56.985841
 21
100.825320
 31
0.0
 11
57.144945
 21
101.032464
 31
0.0
 11
57.337671
 21
101.257463
 31
0.0
 11
57.522293
 21
101.451608
 31
0.0
 11
57.686882
 21
101.595826
 31
0.0
 11
57.664044
 21
101.507196
 31
0.0
 11
57.444689
 21
101.150430
 31
0.0
 11
57.217714
 21
100.819716
 31
0.0
 11
56.988554
 21
100.526199
 31
0.0
 11
56.806820
 21
100.333425
 31
0.0
 11
56.613110
 21
100.126593
 31
0.0
 11
56.352555
 21
99.796224
 31
0.0
 11
56.081564
 21
99.413843
 31
0.0
 11
55.841119
 21
99.082533
 31
0.0
 11
55.660644
 21
98.886069
 31
0.0
 11
55.579212
 21
98.866980
 31
0.0
 11
55.521815
 21
98.878198
 31
0.0
 11
55.404340
 21
98.761172
 31
0.0
 11
55.252227
 21
98.541210
 31
0.0
 11
55.100410
 21
98.262568
 31
0.0
 11
55.061942
 21
98.101010
 31
0.0
 11
55.132815
 21
98.039708
 31
0.0
 11
55.229992
 21
98.015050
 31
0.0
 11
55.242550
 21
97.969248
 31
0.0
 11
55.174560
 21
97.887405
 31
0.0
 11
55.121696
 21
97.743450
 31
0.0
 11
55.117806
 21
97.488625
 31
0.0
 11
55.163483
 21
97.161600
 31
0.0
 11
55.218190
 21
96.757009
 31
0.0
 11
55.176760
 21
96.448994
 31
0.0
 11
55.025498
 21
96.135743
 31
0.0
 11
54.783029
 21
95.797566
 31
0.0
 11
54.619170
 21
95.669919
 31
0.0
 11
54.616513
 21
95.817143
 31
0.0
 11
54.609462
 21
95.855786
 31
0.0
 11
54.539164
 21
95.806741
 31
0.0
 11
54.420839
 21
95.680620
 31
0.0
 11
54.307150
 21
95.520655
 31
0.0
 11
54.249002
 21
95.382865
 31
0.0
 11
54.258984
 21
95.297085
 31
0.0
 11
54.255572
 21
95.251090
 31
0.0
 11
54.159399
 21
95.219013
 31
0.0
 11
53.989340
 21
95.207168
 31
0.0
 11
53.787752
 21
95.201235
 31
0.0
 11
53.751059
 21
95.177483
 31
0.0
 11
53.868055
 21
95.128620
 31
0.0
 11
53.980991
 21
95.071360
 31
0.0
 11
54.050135
 21
94.997410
 31
0.0
 11
54.060518
 21
94.922790
 31
0.0
 11
54.087011
 21
94.695118
 31
0.0
 11
54.223361
 21
94.484590
 31
0.0
 11
54.365856
 21
94.451348
 31
0.0
 11
54.416977
 21
94.480075
 31
0.0
 11
54.460981
 21
94.467070
 31
0.0
 11
54.488336
 21
94.415198
 31
0.0
 11
54.480823
 21
94.336103
 31
0.0
 11
54.433469
 21
94.251688
 31
0.0
 11
54.356501
 21
94.180208
 31
0.0
 11
54.284636
 21
94.086072
 31
0.0
 11
54.250675
 21
93.942201
 31
0.0
 11
54.261966
 21
93.779775
 31
0.0
 11
54.284440
 21
93.588176
 31
0.0
 11
54.206922
 21
93.507319
 31
0.0
 11
53.988650
 21
93.494685
 31
0.0
 11
53.806785
 21
93.508903
 31
0.0
 11
53.656290
 21
93.538332
 31
0.0
 11
53.569750
 21
93.576630
 31
0.0
 11
53.499276
 21
93.617775
 31
0.0
 11
53.390880
 21
93.654842
 31
0.0
 11
53.268037
 21
93.679778
 31
0.0
 11
53.152429
 21
93.710841
 31
0.0
 11
53.062989
 21
93.763964
 31
0.0
 11
53.019083
 21
93.827648
 31
0.0
 11
53.151125
 21
93.892276
 31
0.0
 11
53.490379
 21
93.857554
 31
0.0
 11
53.870396
 21
93.740498
 31
0.0
 11
53.997403
 21
93.725882
 31
0.0
 11
53.994675
 21
93.824848
 31
0.0
 11
53.863346
 21
93.996578
 31
0.0
 11
53.593878
 21
94.107184
 31
0.0
 11
53.225346
 21
94.077468
 31
0.0
 11
52.864574
 21
93.916035
 31
0.0
 11
52.694929
 21
93.756221
 31
0.0
 11
52.647195
 21
93.546189
 31
0.0
 11
52.700003
 21
93.191910
 31
0.0
  0
LWPOLYLINE
  5
10a
100
AcDbEntity
  8
Layer_1
 62
7
100
AcDbPolyline
 90
3
 70
0
 10
61.742104
 20
97.113765
 30
0.0
 10
61.568823
 20
96.686040
 30
0.0
 10
61.786266
 20
96.981488
 30
0.0
  0
SPLINE
  5
10b
100
AcDbEntity
  8
Layer_1
 62
7
100
AcDbSpline
 70
0
 71
3
 72
10
 73
6
 74
4
 40
0.000000
 40
0.000000
 40
0.000000
 40
0.000000
 40
0.436568
 40
1.059396
 40
1.887207
 40
1.887207
 40
1.887207
 40
1.887207
 10
52.700003
 20
93.191910
 30
0.0
 10
52.625542
 20
93.001133
 30
0.0
 10
52.444854
 20
92.538183
 30
0.0
 10
52.401024
 20
93.629754
 30
0.0
 10
52.621723
 20
93.990592
 30
0.0
 10
52.747665
 20
94.196505
 30
0.0
 11
52.700003
 21
93.191910
 31
0.0
 11
52.503128
 21
92.802254
 31
0.0
 11
52.452679
 21
93.423036
 31
0.0
 11
52.747665
 21
94.196505
 31
0.0
  0
LWPOLYLINE
  5
10c
100
AcDbEntity
  8
Layer_1
 62
7
100
AcDbPolyline
 90
2
 70
0
 10
52.747665
 20
94.196505
 30
0.0
 10
52.747611
 20
94.196813
 30
0.0
  0
SPLINE
  5
10d
100
AcDbEntity
  8
Layer_1
 62
7
100
AcDbSpline
 70
0
 71
3
 72
10
 73
6
 74
4
 40
0.000000
 40
0.000000
 40
0.000000
 40
0.000000
 40
0.804797
 40
1.010199
 40
1.959575
 40
1.959575
 40
1.959575
 40
1.959575
 10
52.430337
 20
93.208950
 30
0.0
 10
52.501759
 20
93.506171
 30
0.0
 10
52.591409
 20
93.879251
 30
0.0
 10
53.377369
 20
93.986079
 30
0.0
 10
52.857630
 20
93.559584
 30
0.0
 10
52.430337
 20
93.208950
 30
0.0
 11
52.430337
 21
93.208950
 31
0.0
 11
52.844863
 21
93.898780
 31
0.0
 11
53.047874
 21
93.930035
 31
0.0
 11
52.430337
 21
93.208950
 31
0.0
  0
LWPOLYLINE
  5
10e
100
AcDbEntity
  8
Layer_1
 62
7
100
AcDbPolyline
 90
1
 70
1
 10
52.430337
 20
93.208950
 30
0.0
  0
SPLINE
  5
10f
100
AcDbEntity
  8
Layer_1
 62
7
100
AcDbSpline
 70
0
 71
3
 72
16
 73
12
 74
10
 40
0.000000
 40
0.000000
 40
0.000000
 40
0.000000
 40
0.144703
 40
0.251793
 40
0.403553
 40
0.494545
 40
0.554643
 40
0.661641
 40
0.759162
 40
0.831766
 40
0.898852
 40
0.898852
 40
0.898852
 40
0.898852
 10
53.856806
 20
94.404668
 30
0.0
 10
53.858470
 20
94.457944
 30
0.0
 10
53.861365
 20
94.550650
 30
0.0
 10
53.709934
 20
94.613327
 30
0.0
 10
53.615305
 20
94.532630
 30
0.0
 10
53.531232
 20
94.455908
 30
0.0
 10
53.567720
 20
94.362815
 30
0.0
 10
53.659840
 20
94.338043
 30
0.0
 10
53.746531
 20
94.313606
 30
0.0
 10
53.833626
 20
94.335363
 30
0.0
 10
53.849290
 20
94.382177
 30
0.0
 10
53.856813
 20
94.404660
 30
0.0
 11
53.856806
 21
94.404668
 31
0.0
 11
53.829636
 21
94.546796
 31
0.0
 11
53.731337
 21
94.589289
 31
0.0
 11
53.598193
 21
94.516462
 31
0.0
 11
53.545616
 21
94.442198
 31
0.0
 11
53.565558
 21
94.385505
 31
0.0
 11
53.661163
 21
94.337460
 31
0.0
 11
53.757363
 21
94.321466
 31
0.0
 11
53.826028
 21
94.345054
 31
0.0
 11
53.856813
 21
94.404660
 31
0.0
  0
LWPOLYLINE
  5
110
100
AcDbEntity
  8
Layer_1
 62
7
100
AcDbPolyline
 90
1
 70
1
 10
53.856813
 20
94.404660
 30
0.0
  0
SPLINE
  5
111
100
AcDbEntity
  8
Layer_1
 62
7
100
AcDbSpline
 70
0
 71
3
 72
22
 73
18
 74
16
 40
0.000000
 40
0.000000
 40
0.000000
 40
0.000000
 40
0.396559
 40
0.817825
 40
0.974945
 40
1.075225
 40
1.215273
 40
1.374417
 40
1.523118
 40
1.637028
 40
1.709710
 40
1.776460
 40
1.862213
 40
1.967359
 40
2.090316
 40
2.140967
 40
2.292602
 40
2.292602
 40
2.292602
 40
2.292602
 10
54.757000
 20
96.202103
 30
0.0
 10
54.790288
 20
96.332008
 30
0.0
 10
54.858938
 20
96.599913
 30
0.0
 10
54.946612
 20
96.887653
 30
0.0
 10
54.746246
 20
97.179067
 30
0.0
 10
54.690331
 20
97.008025
 30
0.0
 10
54.681552
 20
96.888373
 30
0.0
 10
54.704814
 20
96.734960
 30
0.0
 10
54.725442
 20
96.599734
 30
0.0
 10
54.719565
 20
96.479552
 30
0.0
 10
54.655969
 20
96.418974
 30
0.0
 10
54.586975
 20
96.382824
 30
0.0
 10
54.567150
 20
96.287897
 30
0.0
 10
54.583999
 20
96.196600
 30
0.0
 10
54.584049
 20
96.065596
 30
0.0
 10
54.711985
 20
96.078947
 30
0.0
 10
54.737712
 20
96.149337
 30
0.0
 10
54.756998
 20
96.202103
 30
0.0
 11
54.757000
 21
96.202103
 31
0.0
 11
54.858015
 21
96.585580
 31
0.0
 11
54.852187
 21
97.006805
 31
0.0
 11
54.744287
 21
97.121018
 31
0.0
 11
54.700893
 21
97.030613
 31
0.0
 11
54.686817
 21
96.891274
 31
0.0
 11
54.705107
 21
96.733185
 31
0.0
 11
54.721549
 21
96.585395
 31
0.0
 11
54.702605
 21
96.473072
 31
0.0
 11
54.652382
 21
96.420533
 31
0.0
 11
54.599501
 21
96.379801
 31
0.0
 11
54.573674
 21
96.298029
 31
0.0
 11
54.580450
 21
96.193103
 31
0.0
 11
54.618302
 21
96.076116
 31
0.0
 11
54.668887
 21
96.078694
 31
0.0
 11
54.756998
 21
96.202103
 31
0.0
  0
LWPOLYLINE
  5
112
100
AcDbEntity
  8
Layer_1
 62
7
100
AcDbPolyline
 90
1
 70
1
 10
54.756998
 20
96.202103
 30
0.0
  0
SPLINE
  5
113
100
AcDbEntity
  8
Layer_1
 62
7
100
AcDbSpline
 70
0
 71
3
 72
10
 73
6
 74
4
 40
0.000000
 40
0.000000
 40
0.000000
 40
0.000000
 40
0.268381
 40
0.530378
 40
0.784559
 40
0.784559
 40
0.784559
 40
0.784559
 10
60.888376
 20
106.071548
 30
0.0
 10
60.973814
 20
106.044133
 30
0.0
 10
61.142658
 20
105.989956
 30
0.0
 10
61.362093
 20
105.837047
 30
0.0
 10
61.464345
 20
105.697692
 30
0.0
 10
61.514697
 20
105.629070
 30
0.0
 11
60.888376
 21
106.071548
 31
0.0
 11
61.139441
 21
105.976708
 31
0.0
 11
61.353428
 21
105.825540
 31
0.0
 11
61.514697
 21
105.629070
 31
0.0
  0
LWPOLYLINE
  5
114
100
AcDbEntity
  8
Layer_1
 62
7
100
AcDbPolyline
 90
3
 70
0
 10
61.514697
 20
105.629070
 30
0.0
 10
61.720821
 20
105.286665
 30
0.0
 10
61.968592
 20
106.049423
 30
0.0
  0
SPLINE
  5
115
100
AcDbEntity
  8
Layer_1
 62
7
100
AcDbSpline
 70
0
 71
3
 72
37
 73
33
 74
31
 40
0.000000
 40
0.000000
 40
0.000000
 40
0.000000
 40
0.484023
 40
0.982965
 40
1.390014
 40
2.377163
 40
3.174726
 40
3.390016
 40
3.464561
 40
3.534523
 40
3.603625
 40
3.660668
 40
3.719853
 40
3.807470
 40
3.987136
 40
4.295719
 40
4.672635
 40
5.050227
 40
5.360803
 40
5.543732
 40
5.643696
 40
5.721594
 40
5.774523
 40
5.905291
 40
6.186053
 40
6.559365
 40
6.930842
 40
7.206501
 40
7.329077
 40
7.411638
 40
7.580486
 40
7.802862
 40
7.802862
 40
7.802862
 40
7.802862
 10
61.968592
 20
106.049423
 30
0.0
 10
62.022132
 20
106.201628
 30
0.0
 10
62.130864
 20
106.510731
 30
0.0
 10
62.302344
 20
106.941403
 30
0.0
 10
62.601014
 20
107.500734
 30
0.0
 10
62.769988
 20
108.208046
 30
0.0
 10
63.233799
 20
108.776015
 30
0.0
 10
62.888374
 20
109.239184
 30
0.0
 10
62.819306
 20
109.112397
 30
0.0
 10
62.813253
 20
109.039252
 30
0.0
 10
62.850684
 20
108.985177
 30
0.0
 10
62.887358
 20
108.926085
 30
0.0
 10
62.835111
 20
108.864024
 30
0.0
 10
62.727956
 20
108.842949
 30
0.0
 10
62.573732
 20
108.717125
 30
0.0
 10
62.381080
 20
108.505633
 30
0.0
 10
62.171480
 20
108.218542
 30
0.0
 10
61.960409
 20
107.932260
 30
0.0
 10
61.766533
 20
107.718121
 30
0.0
 10
61.604512
 20
107.593489
 30
0.0
 10
61.488989
 20
107.566138
 30
0.0
 10
61.416172
 20
107.522852
 30
0.0
 10
61.401008
 20
107.433119
 30
0.0
 10
61.321852
 20
107.298936
 30
0.0
 10
61.155765
 20
107.095306
 30
0.0
 10
60.932058
 20
106.842847
 30
0.0
 10
60.686413
 20
106.584701
 30
0.0
 10
60.561674
 20
106.402518
 30
0.0
 10
60.412364
 20
106.243128
 30
0.0
 10
60.550874
 20
106.173960
 30
0.0
 10
60.686325
 20
106.124471
 30
0.0
 10
60.815137
 20
106.090727
 30
0.0
 10
60.888355
 20
106.071547
 30
0.0
 11
61.968592
 21
106.049423
 31
0.0
 11
62.132252
 21
106.504937
 31
0.0
 11
62.323133
 21
106.965923
 31
0.0
 11
62.499908
 21
107.332583
 31
0.0
 11
62.869131
 21
108.248081
 31
0.0
 11
63.023684
 21
109.030526
 31
0.0
 11
62.863766
 21
109.174665
 31
0.0
 11
62.824718
 21
109.111165
 31
0.0
 11
62.820944
 21
109.041305
 31
0.0
 11
62.853251
 21
108.980220
 31
0.0
 11
62.874219
 21
108.927171
 31
0.0
 11
62.840683
 21
108.878404
 31
0.0
 11
62.759904
 21
108.844470
 31
0.0
 11
62.611241
 21
108.743576
 31
0.0
 11
62.399841
 21
108.518781
 31
0.0
 11
62.171422
 21
108.218962
 31
0.0
 11
61.942075
 21
107.919004
 31
0.0
 11
61.728264
 21
107.693743
 31
0.0
 11
61.576280
 21
107.591940
 31
0.0
 11
61.482187
 21
107.558187
 31
0.0
 11
61.420240
 21
107.510958
 31
0.0
 11
61.403805
 21
107.460645
 31
0.0
 11
61.345703
 21
107.343493
 31
0.0
 11
61.174565
 21
107.120919
 31
0.0
 11
60.927431
 21
106.841122
 31
0.0
 11
60.680122
 21
106.563934
 31
0.0
 11
60.508532
 21
106.348191
 31
0.0
 11
60.449809
 21
106.240597
 31
0.0
 11
60.516626
 21
106.192101
 31
0.0
 11
60.674182
 21
106.131389
 31
0.0
 11
60.888355
 21
106.071547
 31
0.0
  0
LWPOLYLINE
  5
116
100
AcDbEntity
  8
Layer_1
 62
7
100
AcDbPolyline
 90
1
 70
1
 10
60.888355
 20
106.071547
 30
0.0
  0
SPLINE
  5
117
100
AcDbEntity
  8
Layer_1
 62
7
100
AcDbSpline
 70
0
 71
3
 72
10
 73
6
 74
4
 40
0.000000
 40
0.000000
 40
0.000000
 40
0.000000
 40
0.238867
 40
0.500392
 40
0.782787
 40
0.782787
 40
0.782787
 40
0.782787
 10
62.833096
 20
104.959328
 30
0.0
 10
62.912618
 20
104.968597
 30
0.0
 10
63.079203
 20
104.988015
 30
0.0
 10
63.338796
 20
104.928096
 30
0.0
 10
63.499771
 20
104.844185
 30
0.0
 10
63.583347
 20
104.800620
 30
0.0
 11
62.833096
 21
104.959328
 31
0.0
 11
63.071514
 21
104.973983
 31
0.0
 11
63.327390
 21
104.919920
 31
0.0
 11
63.583347
 21
104.800620
 31
0.0
  0
LWPOLYLINE
  5
118
100
AcDbEntity
  8
Layer_1
 62
7
100
AcDbPolyline
 90
3
 70
0
 10
63.583347
 20
104.800620
 30
0.0
 10
63.979348
 20
104.562038
 30
0.0
 10
64.416099
 20
106.292333
 30
0.0
  0
SPLINE
  5
119
100
AcDbEntity
  8
Layer_1
 62
7
100
AcDbSpline
 70
0
 71
3
 72
28
 73
24
 74
22
 40
0.000000
 40
0.000000
 40
0.000000
 40
0.000000
 40
0.910913
 40
1.583685
 40
1.873246
 40
1.950969
 40
2.068011
 40
2.202815
 40
2.467808
 40
2.686447
 40
2.901363
 40
3.041325
 40
3.240223
 40
3.467850
 40
3.654075
 40
3.739545
 40
3.783585
 40
3.898535
 40
4.354641
 40
4.850448
 40
4.949360
 40
5.051193
 40
5.331501
 40
5.331501
 40
5.331501
 40
5.331501
 10
64.416099
 20
106.292333
 30
0.0
 10
64.497312
 20
106.588712
 30
0.0
 10
64.638506
 20
107.103987
 30
0.0
 10
64.709777
 20
107.697692
 30
0.0
 10
64.876047
 20
108.058380
 30
0.0
 10
64.783912
 20
108.198428
 30
0.0
 10
64.704040
 20
108.273952
 30
0.0
 10
64.559626
 20
108.367552
 30
0.0
 10
64.410066
 20
108.522177
 30
0.0
 10
64.415143
 20
108.805163
 30
0.0
 10
64.623562
 20
108.867866
 30
0.0
 10
64.798782
 20
108.919793
 30
0.0
 10
64.938730
 20
109.049936
 30
0.0
 10
65.076751
 20
109.225660
 30
0.0
 10
65.132746
 20
109.324005
 30
0.0
 10
65.226174
 20
109.490727
 30
0.0
 10
65.125451
 20
109.416792
 30
0.0
 10
65.050489
 20
109.722347
 30
0.0
 10
65.287767
 20
109.987467
 30
0.0
 10
65.336642
 20
110.265271
 30
0.0
 10
65.567014
 20
110.531995
 30
0.0
 10
65.507470
 20
110.290450
 30
0.0
 10
65.463580
 20
110.194678
 30
0.0
 10
65.431386
 20
110.124428
 30
0.0
 11
64.416099
 21
106.292333
 31
0.0
 11
64.632959
 21
107.177055
 31
0.0
 11
64.781653
 21
107.833190
 31
0.0
 11
64.829990
 21
108.118688
 31
0.0
 11
64.789776
 21
108.185198
 31
0.0
 11
64.706329
 21
108.267268
 31
0.0
 11
64.597712
 21
108.347108
 31
0.0
 11
64.435025
 21
108.556283
 31
0.0
 11
64.454437
 21
108.774059
 31
0.0
 11
64.644684
 21
108.874035
 31
0.0
 11
64.776124
 21
108.922126
 31
0.0
 11
64.929611
 21
109.048626
 31
0.0
 11
65.071916
 21
109.226288
 31
0.0
 11
65.167501
 21
109.386110
 31
0.0
 11
65.198502
 21
109.465760
 31
0.0
 11
65.158208
 21
109.447988
 31
0.0
 11
65.100032
 21
109.547130
 31
0.0
 11
65.240496
 21
109.981068
 31
0.0
 11
65.472583
 21
110.419200
 31
0.0
 11
65.543897
 21
110.487743
 31
0.0
 11
65.529804
 21
110.386890
 31
0.0
 11
65.431386
 21
110.124428
 31
0.0
  0
LWPOLYLINE
  5
11a
100
AcDbEntity
  8
Layer_1
 62
7
100
AcDbPolyline
 90
3
 70
0
 10
65.431386
 20
110.124428
 30
0.0
 10
65.207824
 20
109.581180
 30
0.0
 10
65.469948
 20
110.065800
 30
0.0
  0
SPLINE
  5
11b
100
AcDbEntity
  8
Layer_1
 62
7
100
AcDbSpline
 70
0
 71
3
 72
49
 73
45
 74
43
 40
0.000000
 40
0.000000
 40
0.000000
 40
0.000000
 40
0.287737
 40
0.515980
 40
0.645504
 40
0.725546
 40
0.812734
 40
0.910889
 40
1.136567
 40
1.453899
 40
1.881428
 40
2.432828
 40
3.024758
 40
4.154237
 40
4.810731
 40
5.207261
 40
5.272930
 40
5.559942
 40
5.894125
 40
6.638654
 40
7.239362
 40
7.508974
 40
7.741587
 40
7.960884
 40
8.126590
 40
8.488701
 40
8.911354
 40
9.144957
 40
9.380817
 40
9.478062
 40
9.515290
 40
9.645154
 40
9.920320
 40
10.599654
 40
12.015706
 40
12.677523
 40
13.165627
 40
13.376215
 40
13.422609
 40
13.458451
 40
13.482140
 40
13.535876
 40
13.667108
 40
13.850155
 40
13.850155
 40
13.850155
 40
13.850155
 10
65.469948
 20
110.065800
 30
0.0
 10
65.511950
 20
110.151912
 30
0.0
 10
65.587270
 20
110.306330
 30
0.0
 10
65.659771
 20
110.511201
 30
0.0
 10
65.660568
 20
110.660771
 30
0.0
 10
65.616748
 20
110.753884
 30
0.0
 10
65.651083
 20
110.845710
 30
0.0
 10
65.761805
 20
110.926469
 30
0.0
 10
65.856072
 20
111.155073
 30
0.0
 10
65.623038
 20
111.437463
 30
0.0
 10
65.282347
 20
111.670489
 30
0.0
 10
64.722514
 20
111.861168
 30
0.0
 10
64.104149
 20
111.296488
 30
0.0
 10
63.685121
 20
110.647156
 30
0.0
 10
63.366628
 20
109.992767
 30
0.0
 10
63.085750
 20
109.715050
 30
0.0
 10
63.118245
 20
109.421459
 30
0.0
 10
63.480116
 20
109.783912
 30
0.0
 10
63.471945
 20
109.038301
 30
0.0
 10
63.386296
 20
108.626923
 30
0.0
 10
63.262675
 20
108.091030
 30
0.0
 10
63.236490
 20
107.682542
 30
0.0
 10
63.457001
 20
107.553956
 30
0.0
 10
63.635359
 20
107.406281
 30
0.0
 10
63.878974
 20
107.546688
 30
0.0
 10
64.033677
 20
107.824058
 30
0.0
 10
64.222834
 20
108.093613
 30
0.0
 10
64.547275
 20
108.250869
 30
0.0
 10
64.655724
 20
108.095037
 30
0.0
 10
64.775220
 20
107.962313
 30
0.0
 10
64.676314
 20
107.920940
 30
0.0
 10
64.558456
 20
108.052793
 30
0.0
 10
64.152533
 20
107.889522
 30
0.0
 10
63.828485
 20
107.155221
 30
0.0
 10
63.349982
 20
106.381392
 30
0.0
 10
62.964447
 20
105.602097
 30
0.0
 10
62.716396
 20
105.247211
 30
0.0
 10
62.606827
 20
104.988651
 30
0.0
 10
62.509003
 20
104.965256
 30
0.0
 10
62.478590
 20
104.947819
 30
0.0
 10
62.460372
 20
104.903725
 30
0.0
 10
62.566146
 20
104.913839
 30
0.0
 10
62.662636
 20
104.922796
 30
0.0
 10
62.770361
 20
104.945924
 30
0.0
 10
62.833104
 20
104.959395
 30
0.0
 11
65.469948
 21
110.065800
 31
0.0
 11
65.590554
 21
110.327041
 31
0.0
 11
65.654770
 21
110.546064
 31
0.0
 11
65.648692
 21
110.675445
 31
0.0
 11
65.628417
 21
110.752877
 31
0.0
 11
65.655406
 21
110.835783
 31
0.0
 11
65.723812
 21
110.906175
 31
0.0
 11
65.806286
 21
111.116243
 31
0.0
 11
65.646426
 21
111.390367
 31
0.0
 11
65.297434
 21
111.637320
 31
0.0
 11
64.759380
 21
111.757899
 31
0.0
 11
64.269910
 21
111.425031
 31
0.0
 11
63.623407
 21
110.498880
 31
0.0
 11
63.285656
 21
109.935933
 31
0.0
 11
63.102847
 21
109.584057
 31
0.0
 11
63.114556
 21
109.519440
 31
0.0
 11
63.384607
 21
109.616646
 31
0.0
 11
63.469739
 21
109.293489
 31
0.0
 11
63.368431
 21
108.555885
 31
0.0
 11
63.259225
 21
107.965187
 31
0.0
 11
63.283282
 21
107.696651
 31
0.0
 11
63.459055
 21
107.544293
 31
0.0
 11
63.655493
 21
107.446809
 31
0.0
 11
63.806435
 21
107.515181
 31
0.0
 11
64.027663
 21
107.801858
 31
0.0
 11
64.306382
 21
108.119585
 31
0.0
 11
64.526425
 21
108.198018
 31
0.0
 11
64.704179
 21
108.042990
 31
0.0
 11
64.745582
 21
107.955000
 31
0.0
 11
64.711868
 21
107.939210
 31
0.0
 11
64.592687
 21
107.990790
 31
0.0
 11
64.322681
 21
107.937749
 31
0.0
 11
63.921077
 21
107.389836
 31
0.0
 11
63.241570
 21
106.147470
 31
0.0
 11
62.926130
 21
105.565663
 31
0.0
 11
62.677824
 21
105.145437
 31
0.0
 11
62.550409
 21
104.977770
 31
0.0
 11
62.506706
 21
104.962195
 31
0.0
 11
62.477826
 21
104.940970
 31
0.0
 11
62.470045
 21
104.918595
 31
0.0
 11
62.523040
 21
104.909706
 31
0.0
 11
62.653466
 21
104.924234
 31
0.0
 11
62.833104
 21
104.959395
 31
0.0
  0
LWPOLYLINE
  5
11c
100
AcDbEntity
  8
Layer_1
 62
7
100
AcDbPolyline
 90
1
 70
1
 10
62.833104
 20
104.959395
 30
0.0
  0
SPLINE
  5
11d
100
AcDbEntity
  8
Layer_1
 62
7
100
AcDbSpline
 70
0
 71
3
 72
19
 73
15
 74
13
 40
0.000000
 40
0.000000
 40
0.000000
 40
0.000000
 40
0.122293
 40
0.238077
 40
0.324805
 40
0.364082
 40
0.411185
 40
0.505941
 40
0.628225
 40
0.744008
 40
0.830741
 40
0.869961
 40
0.917045
 40
1.011773
 40
1.011773
 40
1.011773
 40
1.011773
 10
63.218869
 20
108.701520
 30
0.0
 10
63.231521
 20
108.740261
 30
0.0
 10
63.256153
 20
108.815682
 30
0.0
 10
63.267503
 20
108.925544
 30
0.0
 10
63.279949
 20
109.000881
 30
0.0
 10
63.242605
 20
109.068191
 30
0.0
 10
63.190157
 20
109.002974
 30
0.0
 10
63.163304
 20
108.930894
 30
0.0
 10
63.128666
 20
108.820839
 30
0.0
 10
63.117383
 20
108.712223
 30
0.0
 10
63.104896
 20
108.636612
 30
0.0
 10
63.142279
 20
108.569493
 30
0.0
 10
63.194701
 20
108.634284
 30
0.0
 10
63.209191
 20
108.674598
 30
0.0
 10
63.218870
 20
108.701527
 30
0.0
 11
63.218869
 21
108.701520
 31
0.0
 11
63.252522
 21
108.819091
 31
0.0
 11
63.269613
 21
108.933607
 31
0.0
 11
63.266441
 21
109.020277
 31
0.0
 11
63.242975
 21
109.051773
 31
0.0
 11
63.206893
 21
109.021494
 31
0.0
 11
63.166003
 21
108.936015
 31
0.0
 11
63.132344
 21
108.818454
 31
0.0
 11
63.115254
 21
108.703941
 31
0.0
 11
63.118430
 21
108.617265
 31
0.0
 11
63.141890
 21
108.585836
 31
0.0
 11
63.177975
 21
108.616082
 31
0.0
 11
63.218870
 21
108.701527
 31
0.0
  0
LWPOLYLINE
  5
11e
100
AcDbEntity
  8
Layer_1
 62
7
100
AcDbPolyline
 90
1
 70
1
 10
63.218870
 20
108.701527
 30
0.0
  0
SPLINE
  5
11f
100
AcDbEntity
  8
Layer_1
 62
7
100
AcDbSpline
 70
0
 71
3
 72
22
 73
18
 74
16
 40
0.000000
 40
0.000000
 40
0.000000
 40
0.000000
 40
0.199865
 40
0.280154
 40
0.494669
 40
0.708130
 40
0.886523
 40
1.169661
 40
1.611343
 40
2.013679
 40
2.357033
 40
2.468635
 40
2.615948
 40
2.913063
 40
3.203173
 40
3.481044
 40
3.691930
 40
3.691930
 40
3.691930
 40
3.691930
 10
66.022144
 20
112.193100
 30
0.0
 10
66.067497
 20
112.129190
 30
0.0
 10
66.131069
 20
112.039607
 30
0.0
 10
66.308823
 20
112.108584
 30
0.0
 10
66.294002
 20
112.309863
 30
0.0
 10
66.358746
 20
112.505665
 30
0.0
 10
66.227051
 20
112.712381
 30
0.0
 10
65.973035
 20
112.872835
 30
0.0
 10
65.616601
 20
113.021325
 30
0.0
 10
65.212904
 20
112.992967
 30
0.0
 10
64.939362
 20
112.853127
 30
0.0
 10
64.872449
 20
112.626149
 30
0.0
 10
65.080665
 20
112.537359
 30
0.0
 10
65.302409
 20
112.496959
 30
0.0
 10
65.586536
 20
112.419504
 30
0.0
 10
65.829236
 20
112.325600
 30
0.0
 10
65.963998
 20
112.233038
 30
0.0
 10
66.022144
 20
112.193100
 30
0.0
 11
66.022144
 21
112.193100
 31
0.0
 11
66.177085
 21
112.066847
 31
0.0
 11
66.252095
 21
112.095478
 31
0.0
 11
66.308587
 21
112.302420
 31
0.0
 11
66.327387
 21
112.515052
 31
0.0
 11
66.241549
 21
112.671436
 31
0.0
 11
66.013754
 21
112.839592
 31
0.0
 11
65.598665
 21
112.990539
 31
0.0
 11
65.197391
 21
112.961334
 31
0.0
 11
64.919308
 21
112.759935
 31
0.0
 11
64.899775
 21
112.650055
 31
0.0
 11
65.021024
 21
112.566392
 31
0.0
 11
65.308515
 21
112.491382
 31
0.0
 11
65.588062
 21
112.413810
 31
0.0
 11
65.844440
 21
112.306652
 31
0.0
 11
66.022144
 21
112.193100
 31
0.0
  0
LWPOLYLINE
  5
120
100
AcDbEntity
  8
Layer_1
 62
7
100
AcDbPolyline
 90
1
 70
1
 10
66.022144
 20
112.193100
 30
0.0
  0
SPLINE
  5
121
100
AcDbEntity
  8
Layer_1
 62
7
100
AcDbSpline
 70
0
 71
3
 72
25
 73
21
 74
19
 40
0.000000
 40
0.000000
 40
0.000000
 40
0.000000
 40
0.320153
 40
0.473387
 40
0.673691
 40
0.764285
 40
0.806834
 40
0.864804
 40
0.923383
 40
1.001192
 40
1.157276
 40
1.563287
 40
1.996201
 40
2.531914
 40
2.972002
 40
3.161351
 40
3.594036
 40
3.886978
 40
4.185550
 40
4.432276
 40
4.432276
 40
4.432276
 40
4.432276
 10
66.421918
 20
112.822267
 30
0.0
 10
66.492129
 20
112.742692
 30
0.0
 10
66.595945
 20
112.625028
 30
0.0
 10
66.868319
 20
112.580783
 30
0.0
 10
66.890249
 20
112.772846
 30
0.0
 10
66.917102
 20
112.875227
 30
0.0
 10
66.873212
 20
112.945031
 30
0.0
 10
66.826936
 20
112.894440
 30
0.0
 10
66.755915
 20
112.861818
 30
0.0
 10
66.725257
 20
112.987949
 30
0.0
 10
66.740119
 20
113.177910
 30
0.0
 10
66.632801
 20
113.539122
 30
0.0
 10
66.173340
 20
113.753276
 30
0.0
 10
65.740325
 20
113.694734
 30
0.0
 10
65.248696
 20
113.648899
 30
0.0
 10
65.239362
 20
113.211801
 30
0.0
 10
65.647229
 20
113.204102
 30
0.0
 10
65.950620
 20
113.097667
 30
0.0
 10
66.213017
 20
112.984025
 30
0.0
 10
66.356855
 20
112.872709
 30
0.0
 10
66.421937
 20
112.822342
 30
0.0
 11
66.421918
 21
112.822267
 31
0.0
 11
66.672607
 21
112.623137
 31
0.0
 11
66.825716
 21
112.616958
 31
0.0
 11
66.899963
 21
112.802992
 31
0.0
 11
66.901850
 21
112.893567
 31
0.0
 11
66.875651
 21
112.927093
 31
0.0
 11
66.824963
 21
112.898962
 31
0.0
 11
66.769498
 21
112.880119
 31
0.0
 11
66.736776
 21
112.950714
 31
0.0
 11
66.728633
 21
113.106585
 31
0.0
 11
66.591219
 21
113.488635
 31
0.0
 11
66.212896
 21
113.699077
 31
0.0
 11
65.677238
 21
113.691412
 31
0.0
 11
65.270026
 21
113.524511
 31
0.0
 11
65.267700
 21
113.335176
 31
0.0
 11
65.670938
 21
113.178285
 31
0.0
 11
65.951391
 21
113.093660
 31
0.0
 11
66.221194
 21
112.965787
 31
0.0
 11
66.421937
 21
112.822342
 31
0.0
  0
LWPOLYLINE
  5
122
100
AcDbEntity
  8
Layer_1
 62
7
100
AcDbPolyline
 90
1
 70
1
 10
66.421937
 20
112.822342
 30
0.0
  0
SPLINE
  5
123
100
AcDbEntity
  8
Layer_1
 62
7
100
AcDbSpline
 70
0
 71
3
 72
16
 73
12
 74
10
 40
0.000000
 40
0.000000
 40
0.000000
 40
0.000000
 40
0.251961
 40
0.348224
 40
0.436208
 40
0.630840
 40
0.850792
 40
1.075132
 40
1.208471
 40
1.376563
 40
1.551146
 40
1.551146
 40
1.551146
 40
1.551146
 10
66.051603
 20
113.993572
 30
0.0
 10
66.122451
 20
113.973136
 30
0.0
 10
66.220366
 20
113.944892
 30
0.0
 10
66.426329
 20
113.941531
 30
0.0
 10
66.332153
 20
114.085985
 30
0.0
 10
66.344834
 20
114.262440
 30
0.0
 10
66.556649
 20
114.385285
 30
0.0
 10
66.772133
 20
114.334695
 30
0.0
 10
66.857433
 20
114.173569
 30
0.0
 10
66.906000
 20
114.022592
 30
0.0
 10
66.913054
 20
113.907970
 30
0.0
 10
66.916649
 20
113.849572
 30
0.0
 11
66.051603
 21
113.993572
 31
0.0
 11
66.298964
 21
113.945645
 31
0.0
 11
66.393989
 21
113.961030
 31
0.0
 11
66.366161
 21
114.044497
 31
0.0
 11
66.372181
 21
114.239036
 31
0.0
 11
66.559716
 21
114.353969
 31
0.0
 11
66.776418
 21
114.295927
 31
0.0
 11
66.848244
 21
114.183588
 31
0.0
 11
66.898622
 21
114.023222
 31
0.0
 11
66.916649
 21
113.849572
 31
0.0
  0
LWPOLYLINE
  5
124
100
AcDbEntity
  8
Layer_1
 62
7
100
AcDbPolyline
 90
3
 70
0
 10
66.916649
 20
113.849572
 30
0.0
 10
66.913424
 20
113.542837
 30
0.0
 10
67.087208
 20
113.907465
 30
0.0
  0
SPLINE
  5
125
100
AcDbEntity
  8
Layer_1
 62
7
100
AcDbSpline
 70
0
 71
3
 72
61
 73
57
 74
55
 40
0.000000
 40
0.000000
 40
0.000000
 40
0.000000
 40
0.221390
 40
0.415702
 40
0.545333
 40
0.626699
 40
0.662848
 40
0.777340
 40
0.911572
 40
1.057172
 40
1.261833
 40
1.459144
 40
1.539903
 40
1.627208
 40
1.715234
 40
1.780680
 40
1.821355
 40
1.991042
 40
2.060719
 40
2.184223
 40
2.290209
 40
2.333936
 40
2.499491
 40
2.671550
 40
2.835674
 40
2.964460
 40
3.081919
 40
3.199436
 40
3.352593
 40
3.507683
 40
3.536176
 40
3.654247
 40
3.772110
 40
3.800346
 40
3.953997
 40
4.089084
 40
4.202163
 40
4.288400
 40
4.344981
 40
4.369593
 40
4.428575
 40
4.569633
 40
4.798648
 40
5.203705
 40
5.449443
 40
5.547849
 40
5.651559
 40
5.756478
 40
5.789557
 40
5.948397
 40
6.346136
 40
6.879021
 40
7.167619
 40
7.232108
 40
7.388930
 40
7.604236
 40
7.604236
 40
7.604236
 40
7.604236
 10
67.087208
 20
113.907465
 30
0.0
 10
67.117083
 20
113.974636
 30
0.0
 10
67.173179
 20
114.100761
 30
0.0
 10
67.215762
 20
114.283622
 30
0.0
 10
67.246186
 20
114.402522
 30
0.0
 10
67.194910
 20
114.515952
 30
0.0
 10
67.290944
 20
114.516384
 30
0.0
 10
67.345532
 20
114.430829
 30
0.0
 10
67.429880
 20
114.324846
 30
0.0
 10
67.405051
 20
114.152979
 30
0.0
 10
67.320185
 20
113.986683
 30
0.0
 10
67.233684
 20
113.870280
 30
0.0
 10
67.203541
 20
113.712499
 30
0.0
 10
67.320507
 20
113.729949
 30
0.0
 10
67.386564
 20
113.754718
 30
0.0
 10
67.450183
 20
113.786636
 30
0.0
 10
67.476121
 20
113.881516
 30
0.0
 10
67.392306
 20
113.966450
 30
0.0
 10
67.478257
 20
114.095428
 30
0.0
 10
67.565285
 20
114.009087
 30
0.0
 10
67.651539
 20
113.894551
 30
0.0
 10
67.686063
 20
114.022373
 30
0.0
 10
67.603355
 20
114.125476
 30
0.0
 10
67.571163
 20
114.292110
 30
0.0
 10
67.554212
 20
114.448138
 30
0.0
 10
67.586804
 20
114.580941
 30
0.0
 10
67.631821
 20
114.699692
 30
0.0
 10
67.573857
 20
114.825555
 30
0.0
 10
67.480554
 20
114.930152
 30
0.0
 10
67.353188
 20
114.969238
 30
0.0
 10
67.342433
 20
115.086494
 30
0.0
 10
67.462577
 20
115.017998
 30
0.0
 10
67.581822
 20
114.949504
 30
0.0
 10
67.572640
 20
115.065797
 30
0.0
 10
67.454850
 20
115.106798
 30
0.0
 10
67.352316
 20
115.187254
 30
0.0
 10
67.237312
 20
115.210292
 30
0.0
 10
67.153122
 20
115.190907
 30
0.0
 10
67.113323
 20
115.128014
 30
0.0
 10
67.066085
 20
115.162570
 30
0.0
 10
67.117608
 20
115.240610
 30
0.0
 10
67.055020
 20
115.408692
 30
0.0
 10
66.748934
 20
115.345226
 30
0.0
 10
66.478673
 20
115.272925
 30
0.0
 10
66.271678
 20
115.164069
 30
0.0
 10
66.080639
 20
115.157512
 30
0.0
 10
66.102823
 20
115.274050
 30
0.0
 10
66.174161
 20
115.395465
 30
0.0
 10
66.058047
 20
115.358191
 30
0.0
 10
65.973063
 20
115.178797
 30
0.0
 10
65.793788
 20
114.842333
 30
0.0
 10
65.749583
 20
114.516178
 30
0.0
 10
65.540118
 20
114.110002
 30
0.0
 10
65.724552
 20
114.075617
 30
0.0
 10
65.858908
 20
114.037414
 30
0.0
 10
65.981035
 20
114.009542
 30
0.0
 10
66.051696
 20
113.993415
 30
0.0
 11
67.087208
 21
113.907465
 31
0.0
 11
67.170129
 21
114.112740
 31
0.0
 11
67.220461
 21
114.300420
 31
0.0
 11
67.227307
 21
114.429870
 31
0.0
 11
67.220536
 21
114.510953
 31
0.0
 11
67.256587
 21
114.513617
 31
0.0
 11
67.342924
 21
114.438420
 31
0.0
 11
67.410375
 21
114.322366
 31
0.0
 11
67.401799
 21
114.177019
 31
0.0
 11
67.316524
 21
113.990970
 31
0.0
 11
67.226337
 21
113.815477
 31
0.0
 11
67.225007
 21
113.734728
 31
0.0
 11
67.312249
 21
113.731410
 31
0.0
 11
67.395452
 21
113.760147
 31
0.0
 11
67.448870
 21
113.797958
 31
0.0
 11
67.460895
 21
113.836815
 31
0.0
 11
67.426869
 21
114.003055
 31
0.0
 11
67.466865
 21
114.060110
 31
0.0
 11
67.572029
 21
113.995350
 31
0.0
 11
67.655723
 21
113.930325
 31
0.0
 11
67.669740
 21
113.971745
 31
0.0
 11
67.617164
 21
114.128730
 31
0.0
 11
67.573094
 21
114.295050
 31
0.0
 11
67.563580
 21
114.458898
 31
0.0
 11
67.590689
 21
114.584797
 31
0.0
 11
67.615779
 21
114.699546
 31
0.0
 11
67.575618
 21
114.809987
 31
0.0
 11
67.468871
 21
114.919815
 31
0.0
 11
67.350190
 21
115.019654
 31
0.0
 11
67.348341
 21
115.048086
 31
0.0
 11
67.462496
 21
115.017930
 31
0.0
 11
67.576446
 21
114.987808
 31
0.0
 11
67.574987
 21
115.016007
 31
0.0
 11
67.457471
 21
115.114995
 31
0.0
 11
67.340175
 21
115.182003
 31
0.0
 11
67.229037
 21
115.202862
 31
0.0
 11
67.148119
 21
115.173045
 31
0.0
 11
67.101809
 21
115.140537
 31
0.0
 11
67.081771
 21
115.154828
 31
0.0
 11
67.092259
 21
115.212870
 31
0.0
 11
67.054463
 21
115.348770
 31
0.0
 11
66.825705
 21
115.359615
 31
0.0
 11
66.437522
 21
115.243920
 31
0.0
 11
66.204602
 21
115.165588
 31
0.0
 11
66.106800
 21
115.176477
 31
0.0
 11
66.114227
 21
115.279920
 31
0.0
 11
66.140618
 21
115.381466
 31
0.0
 11
66.108649
 21
115.372964
 31
0.0
 11
66.006568
 21
115.251270
 31
0.0
 11
65.837836
 21
114.891095
 31
0.0
 11
65.671533
 21
114.384825
 31
0.0
 11
65.628223
 21
114.099495
 31
0.0
 11
65.690141
 21
114.081466
 31
0.0
 11
65.842264
 21
114.043364
 31
0.0
 11
66.051696
 21
113.993415
 31
0.0
  0
LWPOLYLINE
  5
126
100
AcDbEntity
  8
Layer_1
 62
7
100
AcDbPolyline
 90
2
 70
0
 10
66.051696
 20
113.993415
 30
0.0
 10
66.051603
 20
113.993572
 30
0.0
  0
SPLINE
  5
127
100
AcDbEntity
  8
Layer_1
 62
7
100
AcDbSpline
 70
0
 71
3
 72
88
 73
84
 74
82
 40
0.000000
 40
0.000000
 40
0.000000
 40
0.000000
 40
0.361831
 40
0.967675
 40
1.506250
 40
1.730343
 40
1.864389
 40
1.970982
 40
2.103730
 40
2.279757
 40
2.462087
 40
2.638113
 40
2.788553
 40
2.921076
 40
3.020361
 40
3.078886
 40
3.135093
 40
3.208350
 40
3.277533
 40
3.346415
 40
3.400784
 40
3.443123
 40
3.509652
 40
3.900989
 40
4.193369
 40
4.453044
 40
4.713749
 40
4.835598
 40
5.013637
 40
5.105475
 40
5.179571
 40
5.235732
 40
5.289147
 40
5.347287
 40
5.412804
 40
5.469781
 40
5.513980
 40
5.569906
 40
5.730944
 40
5.936616
 40
6.089487
 40
6.131435
 40
6.194420
 40
6.300774
 40
6.403457
 40
6.439260
 40
6.503254
 40
6.615436
 40
6.768864
 40
6.943867
 40
7.146312
 40
7.249492
 40
7.372280
 40
7.578704
 40
7.845565
 40
8.148757
 40
8.263579
 40
8.391292
 40
8.510219
 40
8.630599
 40
8.726552
 40
8.857880
 40
8.970811
 40
9.067540
 40
9.144392
 40
9.193456
 40
9.209248
 40
9.262631
 40
9.356306
 40
9.488388
 40
9.642029
 40
9.770761
 40
9.838411
 40
9.888077
 40
9.955625
 40
10.006710
 40
10.069542
 40
10.150614
 40
10.232738
 40
10.305336
 40
10.359437
 40
10.400163
 40
10.450048
 40
10.450048
 40
10.450048
 40
10.450048
 10
66.174971
 20
115.697632
 30
0.0
 10
66.296002
 20
115.710910
 30
0.0
 10
66.619686
 20
115.746420
 30
0.0
 10
67.103509
 20
115.577205
 30
0.0
 10
67.528594
 20
115.388453
 30
0.0
 10
67.749880
 20
115.200288
 30
0.0
 10
67.913556
 20
115.134943
 30
0.0
 10
68.015452
 20
115.227716
 30
0.0
 10
68.090033
 20
115.340500
 30
0.0
 10
68.207933
 20
115.457403
 30
0.0
 10
68.342471
 20
115.572865
 30
0.0
 10
68.462996
 20
115.694074
 30
0.0
 10
68.527031
 20
115.839714
 30
0.0
 10
68.508939
 20
115.972432
 30
0.0
 10
68.468163
 20
116.056261
 30
0.0
 10
68.482947
 20
116.144280
 30
0.0
 10
68.557892
 20
116.135467
 30
0.0
 10
68.620041
 20
116.121481
 30
0.0
 10
68.689987
 20
116.153393
 30
0.0
 10
68.726767
 20
116.205508
 30
0.0
 10
68.738997
 20
116.269201
 30
0.0
 10
68.683319
 20
116.301640
 30
0.0
 10
68.520435
 20
116.236142
 30
0.0
 10
68.302995
 20
116.127985
 30
0.0
 10
68.062398
 20
115.903842
 30
0.0
 10
67.996253
 20
115.629590
 30
0.0
 10
68.021416
 20
115.414519
 30
0.0
 10
67.834922
 20
115.247660
 30
0.0
 10
67.771926
 20
115.437669
 30
0.0
 10
67.763236
 20
115.541099
 30
0.0
 10
67.777797
 20
115.620969
 30
0.0
 10
67.830348
 20
115.656986
 30
0.0
 10
67.883577
 20
115.679371
 30
0.0
 10
67.907280
 20
115.739040
 30
0.0
 10
67.906035
 20
115.798936
 30
0.0
 10
67.884765
 20
115.854934
 30
0.0
 10
67.826768
 20
115.874438
 30
0.0
 10
67.758216
 20
115.807501
 30
0.0
 10
67.602081
 20
115.816549
 30
0.0
 10
67.446506
 20
115.924141
 30
0.0
 10
67.416050
 20
116.056061
 30
0.0
 10
67.434107
 20
116.154759
 30
0.0
 10
67.342133
 20
116.163086
 30
0.0
 10
67.260057
 20
116.158384
 30
0.0
 10
67.182242
 20
116.126389
 30
0.0
 10
67.104263
 20
116.165765
 30
0.0
 10
67.194580
 20
116.226104
 30
0.0
 10
67.288538
 20
116.239421
 30
0.0
 10
67.442153
 20
116.214419
 30
0.0
 10
67.604108
 20
116.144668
 30
0.0
 10
67.734947
 20
116.050488
 30
0.0
 10
67.896421
 20
116.047337
 30
0.0
 10
67.966050
 20
116.200780
 30
0.0
 10
67.903815
 20
116.408209
 30
0.0
 10
67.654206
 20
116.539773
 30
0.0
 10
67.424071
 20
116.538324
 30
0.0
 10
67.242451
 20
116.520921
 30
0.0
 10
67.122204
 20
116.546252
 30
0.0
 10
67.011781
 20
116.596324
 30
0.0
 10
66.912927
 20
116.659800
 30
0.0
 10
66.789173
 20
116.629886
 30
0.0
 10
66.720038
 20
116.535788
 30
0.0
 10
66.640936
 20
116.453441
 30
0.0
 10
66.549937
 20
116.414003
 30
0.0
 10
66.476882
 20
116.410134
 30
0.0
 10
66.427416
 20
116.460515
 30
0.0
 10
66.404067
 20
116.418192
 30
0.0
 10
66.467123
 20
116.382506
 30
0.0
 10
66.481064
 20
116.287224
 30
0.0
 10
66.474395
 20
116.161881
 30
0.0
 10
66.428489
 20
116.024172
 30
0.0
 10
66.383643
 20
115.933117
 30
0.0
 10
66.312131
 20
115.845716
 30
0.0
 10
66.268878
 20
115.911876
 30
0.0
 10
66.259282
 20
115.967099
 30
0.0
 10
66.192157
 20
115.991873
 30
0.0
 10
66.134349
 20
115.950390
 30
0.0
 10
66.092625
 20
115.888126
 30
0.0
 10
66.065490
 20
115.812769
 30
0.0
 10
66.062868
 20
115.742542
 30
0.0
 10
66.083767
 20
115.686553
 30
0.0
 10
66.135681
 20
115.666224
 30
0.0
 10
66.160999
 20
115.686524
 30
0.0
 10
66.174937
 20
115.697700
 30
0.0
 11
66.174971
 21
115.697632
 31
0.0
 11
66.536267
 21
115.717302
 31
0.0
 11
67.121719
 21
115.561443
 31
0.0
 11
67.601996
 21
115.317727
 31
0.0
 11
67.786882
 21
115.191100
 31
0.0
 11
67.917303
 21
115.160135
 31
0.0
 11
68.003883
 21
115.222312
 31
0.0
 11
68.085716
 21
115.326837
 31
0.0
 11
68.207431
 21
115.454002
 31
0.0
 11
68.342677
 21
115.576282
 31
0.0
 11
68.459815
 21
115.707675
 31
0.0
 11
68.514586
 21
115.847790
 31
0.0
 11
68.500311
 21
115.979542
 31
0.0
 11
68.475526
 21
116.075684
 31
0.0
 11
68.492946
 21
116.131556
 31
0.0
 11
68.549001
 21
116.135692
 31
0.0
 11
68.621998
 21
116.129536
 31
0.0
 11
68.685238
 21
116.157591
 31
0.0
 11
68.725026
 21
116.213820
 31
0.0
 11
68.727202
 21
116.268146
 31
0.0
 11
68.691824
 21
116.291404
 31
0.0
 11
68.626549
 21
116.278545
 31
0.0
 11
68.282107
 21
116.092791
 31
0.0
 11
68.080947
 21
115.880611
 31
0.0
 11
68.011960
 21
115.630267
 31
0.0
 11
67.960791
 21
115.374634
 31
0.0
 11
67.862123
 21
115.303136
 31
0.0
 11
67.773984
 21
115.457827
 31
0.0
 11
67.767404
 21
115.549429
 31
0.0
 11
67.788269
 21
115.620526
 31
0.0
 11
67.832034
 21
115.655722
 31
0.0
 11
67.877384
 21
115.683946
 31
0.0
 11
67.902445
 21
115.736407
 31
0.0
 11
67.901746
 21
115.801920
 31
0.0
 11
67.875384
 21
115.852431
 31
0.0
 11
67.833179
 21
115.865559
 31
0.0
 11
67.784265
 21
115.838445
 31
0.0
 11
67.623521
 21
115.828724
 31
0.0
 11
67.457051
 21
115.949506
 31
0.0
 11
67.425139
 21
116.099010
 31
0.0
 11
67.424160
 21
116.140946
 31
0.0
 11
67.364141
 21
116.160049
 31
0.0
 11
67.258078
 21
116.152185
 31
0.0
 11
67.155862
 21
116.142404
 31
0.0
 11
67.125539
 21
116.161441
 31
0.0
 11
67.170772
 21
116.206710
 31
0.0
 11
67.279792
 21
116.233152
 31
0.0
 11
67.431508
 21
116.210293
 31
0.0
 11
67.593071
 21
116.143035
 31
0.0
 11
67.776008
 21
116.056328
 31
0.0
 11
67.878860
 21
116.064547
 31
0.0
 11
67.940425
 21
116.170785
 31
0.0
 11
67.890583
 21
116.371102
 31
0.0
 11
67.664066
 21
116.512186
 31
0.0
 11
67.361482
 21
116.531377
 31
0.0
 11
67.246748
 21
116.526875
 31
0.0
 11
67.121384
 21
116.551255
 31
0.0
 11
67.012573
 21
116.599252
 31
0.0
 11
66.901631
 21
116.645979
 31
0.0
 11
66.807953
 21
116.625211
 31
0.0
 11
66.714268
 21
116.533177
 31
0.0
 11
66.631969
 21
116.455845
 31
0.0
 11
66.543057
 21
116.417750
 31
0.0
 11
66.466781
 21
116.427142
 31
0.0
 11
66.421429
 21
116.445862
 31
0.0
 11
66.413598
 21
116.432148
 31
0.0
 11
66.444986
 21
116.388967
 31
0.0
 11
66.476521
 21
116.300760
 31
0.0
 11
66.469084
 21
116.168887
 31
0.0
 11
66.424279
 21
116.021925
 31
0.0
 11
66.362102
 21
115.909204
 31
0.0
 11
66.309115
 21
115.867146
 31
0.0
 11
66.276786
 21
115.904850
 31
0.0
 11
66.246310
 21
115.965132
 31
0.0
 11
66.198185
 21
115.982268
 31
0.0
 11
66.142825
 21
115.952550
 31
0.0
 11
66.095619
 21
115.886639
 31
0.0
 11
66.068862
 21
115.808996
 31
0.0
 11
66.068350
 21
115.736400
 31
0.0
 11
66.092656
 21
115.688067
 31
0.0
 11
66.130943
 21
115.674183
 31
0.0
 11
66.174937
 21
115.697700
 31
0.0
  0
LWPOLYLINE
  5
128
100
AcDbEntity
  8
Layer_1
 62
7
100
AcDbPolyline
 90
1
 70
1
 10
66.174937
 20
115.697700
 30
0.0
  0
SPLINE
  5
129
100
AcDbEntity
  8
Layer_1
 62
7
100
AcDbSpline
 70
0
 71
3
 72
58
 73
54
 74
52
 40
0.000000
 40
0.000000
 40
0.000000
 40
0.000000
 40
0.177898
 40
0.387766
 40
0.590096
 40
0.794500
 40
0.926268
 40
1.050599
 40
1.166495
 40
1.270274
 40
1.436751
 40
1.571742
 40
1.654782
 40
1.668830
 40
1.728890
 40
1.861566
 40
2.041701
 40
2.194637
 40
2.257044
 40
2.308243
 40
2.406207
 40
2.452576
 40
2.564554
 40
2.677576
 40
2.753311
 40
2.849148
 40
2.933199
 40
2.991350
 40
3.052286
 40
3.105452
 40
3.147045
 40
3.230697
 40
3.329884
 40
3.420934
 40
3.508495
 40
3.691689
 40
3.905373
 40
4.164273
 40
4.301464
 40
4.433591
 40
4.547202
 40
4.648318
 40
4.741404
 40
4.823253
 40
4.905057
 40
4.997946
 40
5.098729
 40
5.189012
 40
5.256602
 40
5.319209
 40
5.395984
 40
5.505334
 40
5.644425
 40
5.644425
 40
5.644425
 40
5.644425
 10
67.228943
 20
116.751787
 30
0.0
 10
67.288070
 20
116.758185
 30
0.0
 10
67.416951
 20
116.772128
 30
0.0
 10
67.613588
 20
116.745492
 30
0.0
 10
67.811726
 20
116.687154
 30
0.0
 10
67.974606
 20
116.615805
 30
0.0
 10
68.142460
 20
116.615819
 30
0.0
 10
68.225406
 20
116.714862
 30
0.0
 10
68.295425
 20
116.817437
 30
0.0
 10
68.440331
 20
116.804105
 30
0.0
 10
68.545184
 20
116.719059
 30
0.0
 10
68.653856
 20
116.647614
 30
0.0
 10
68.708368
 20
116.596432
 30
0.0
 10
68.764625
 20
116.577915
 30
0.0
 10
68.744604
 20
116.689887
 30
0.0
 10
68.835783
 20
116.763401
 30
0.0
 10
68.916094
 20
116.915846
 30
0.0
 10
68.980250
 20
116.991175
 30
0.0
 10
69.045820
 20
117.117134
 30
0.0
 10
68.956675
 20
117.063778
 30
0.0
 10
68.915559
 20
117.000591
 30
0.0
 10
68.832686
 20
117.065031
 30
0.0
 10
68.870763
 20
117.163981
 30
0.0
 10
68.877527
 20
117.264921
 30
0.0
 10
68.811544
 20
117.350071
 30
0.0
 10
68.717426
 20
117.336532
 30
0.0
 10
68.642522
 20
117.313132
 30
0.0
 10
68.597636
 20
117.247515
 30
0.0
 10
68.629540
 20
117.196385
 30
0.0
 10
68.675086
 20
117.147147
 30
0.0
 10
68.610507
 20
117.107253
 30
0.0
 10
68.537370
 20
117.120635
 30
0.0
 10
68.449174
 20
117.148336
 30
0.0
 10
68.379956
 20
117.222395
 30
0.0
 10
68.380897
 20
117.344316
 30
0.0
 10
68.316723
 20
117.523731
 30
0.0
 10
68.049353
 20
117.500754
 30
0.0
 10
67.902186
 20
117.358518
 30
0.0
 10
67.794553
 20
117.218238
 30
0.0
 10
67.680308
 20
117.150688
 30
0.0
 10
67.563379
 20
117.140454
 30
0.0
 10
67.460784
 20
117.146232
 30
0.0
 10
67.370314
 20
117.107628
 30
0.0
 10
67.324553
 20
117.033560
 30
0.0
 10
67.278949
 20
116.959175
 30
0.0
 10
67.188737
 20
116.921575
 30
0.0
 10
67.094071
 20
116.922521
 30
0.0
 10
67.007022
 20
116.929618
 30
0.0
 10
66.936347
 20
116.891040
 30
0.0
 10
66.921838
 20
116.812295
 30
0.0
 10
66.991237
 20
116.749674
 30
0.0
 10
67.100715
 20
116.732817
 30
0.0
 10
67.182924
 20
116.744974
 30
0.0
 10
67.228949
 20
116.751780
 30
0.0
 11
67.228943
 21
116.751787
 31
0.0
 11
67.406395
 21
116.764360
 31
0.0
 11
67.614830
 21
116.739865
 31
0.0
 11
67.809161
 21
116.683537
 31
0.0
 11
68.004286
 21
116.622652
 31
0.0
 11
68.135576
 21
116.633868
 31
0.0
 11
68.226036
 21
116.719162
 31
0.0
 11
68.308391
 21
116.800707
 31
0.0
 11
68.412160
 21
116.799282
 31
0.0
 11
68.555527
 21
116.714662
 31
0.0
 11
68.664549
 21
116.635059
 31
0.0
 11
68.733316
 21
116.588511
 31
0.0
 11
68.746942
 21
116.585092
 31
0.0
 11
68.758024
 21
116.644122
 31
0.0
 11
68.820121
 21
116.761368
 31
0.0
 11
68.919789
 21
116.911417
 31
0.0
 11
69.004035
 21
117.039058
 31
0.0
 11
69.025699
 21
117.097585
 31
0.0
 11
68.980089
 21
117.074325
 31
0.0
 11
68.897193
 21
117.022122
 31
0.0
 11
68.860195
 21
117.050073
 31
0.0
 11
68.864051
 21
117.161985
 31
0.0
 11
68.861154
 21
117.274969
 31
0.0
 11
68.811647
 21
117.332283
 31
0.0
 11
68.715819
 21
117.333592
 31
0.0
 11
68.639027
 21
117.299422
 31
0.0
 11
68.609785
 21
117.249158
 31
0.0
 11
68.634471
 21
117.193447
 31
0.0
 11
68.658948
 21
117.146250
 31
0.0
 11
68.626229
 21
117.120570
 31
0.0
 11
68.542580
 21
117.121297
 31
0.0
 11
68.450321
 21
117.157716
 31
0.0
 11
68.390772
 21
117.226592
 31
0.0
 11
68.376824
 21
117.313035
 31
0.0
 11
68.297488
 21
117.478159
 31
0.0
 11
68.083863
 21
117.483186
 31
0.0
 11
67.879172
 21
117.324660
 31
0.0
 11
67.786911
 21
117.223125
 31
0.0
 11
67.672030
 21
117.157858
 31
0.0
 11
67.559396
 21
117.142987
 31
0.0
 11
67.458401
 21
117.138032
 31
0.0
 11
67.374036
 21
117.098693
 31
0.0
 11
67.324565
 21
117.033487
 31
0.0
 11
67.275185
 21
116.968268
 31
0.0
 11
67.191059
 21
116.928882
 31
0.0
 11
67.090403
 21
116.923837
 31
0.0
 11
67.000210
 21
116.919790
 31
0.0
 11
66.943538
 21
116.882958
 31
0.0
 11
66.932649
 21
116.821305
 31
0.0
 11
66.983973
 21
116.764207
 31
0.0
 11
67.090427
 21
116.739208
 31
0.0
 11
67.228949
 21
116.751780
 31
0.0
  0
LWPOLYLINE
  5
12a
100
AcDbEntity
  8
Layer_1
 62
7
100
AcDbPolyline
 90
1
 70
1
 10
67.228949
 20
116.751780
 30
0.0
  0
SPLINE
  5
12b
100
AcDbEntity
  8
Layer_1
 62
7
100
AcDbSpline
 70
0
 71
3
 72
10
 73
6
 74
4
 40
0.000000
 40
0.000000
 40
0.000000
 40
0.000000
 40
0.133444
 40
0.341669
 40
0.581800
 40
0.581800
 40
0.581800
 40
0.581800
 10
68.415974
 20
117.937312
 30
0.0
 10
68.454826
 20
117.915487
 30
0.0
 10
68.554302
 20
117.859606
 30
0.0
 10
68.701629
 20
117.731776
 30
0.0
 10
68.808442
 20
117.627445
 30
0.0
 10
68.865648
 20
117.571567
 30
0.0
 11
68.415974
 21
117.937312
 31
0.0
 11
68.530553
 21
117.868910
 31
0.0
 11
68.692100
 21
117.737530
 31
0.0
 11
68.865648
 21
117.571567
 31
0.0
  0
LWPOLYLINE
  5
12c
100
AcDbEntity
  8
Layer_1
 62
7
100
AcDbPolyline
 90
3
 70
0
 10
68.865648
 20
117.571567
 30
0.0
 10
69.170909
 20
117.255577
 30
0.0
 10
68.966357
 20
117.834502
 30
0.0
  0
SPLINE
  5
12d
100
AcDbEntity
  8
Layer_1
 62
7
100
AcDbSpline
 70
0
 71
3
 72
22
 73
18
 74
16
 40
0.000000
 40
0.000000
 40
0.000000
 40
0.000000
 40
0.354474
 40
0.656274
 40
0.877356
 40
1.048714
 40
1.106572
 40
1.206977
 40
1.319081
 40
1.440279
 40
1.551234
 40
1.655227
 40
1.763945
 40
1.868313
 40
2.040950
 40
2.221018
 40
2.424064
 40
2.424064
 40
2.424064
 40
2.424064
 10
68.966357
 20
117.834502
 30
0.0
 10
68.930300
 20
117.947457
 30
0.0
 10
68.863544
 20
118.156582
 30
0.0
 10
68.819869
 20
118.444077
 30
0.0
 10
68.817946
 20
118.684043
 30
0.0
 10
68.894778
 20
118.814289
 30
0.0
 10
68.852836
 20
118.946924
 30
0.0
 10
68.749981
 20
118.862179
 30
0.0
 10
68.677296
 20
118.798759
 30
0.0
 10
68.610281
 20
118.697344
 30
0.0
 10
68.582664
 20
118.589340
 30
0.0
 10
68.549263
 20
118.485823
 30
0.0
 10
68.474334
 20
118.403215
 30
0.0
 10
68.353170
 20
118.362623
 30
0.0
 10
68.213240
 20
118.264133
 30
0.0
 10
68.244718
 20
118.044009
 30
0.0
 10
68.356652
 20
117.974272
 30
0.0
 10
68.415976
 20
117.937312
 30
0.0
 11
68.966357
 21
117.834502
 31
0.0
 11
68.868131
 21
118.175095
 31
0.0
 11
68.824039
 21
118.473657
 31
0.0
 11
68.839404
 21
118.694205
 31
0.0
 11
68.875986
 21
118.861612
 31
0.0
 11
68.852894
 21
118.914663
 31
0.0
 11
68.762146
 21
118.871700
 31
0.0
 11
68.680523
 21
118.794856
 31
0.0
 11
68.615406
 21
118.692637
 31
0.0
 11
68.580887
 21
118.587187
 31
0.0
 11
68.542983
 21
118.490349
 31
0.0
 11
68.468990
 21
118.410696
 31
0.0
 11
68.374928
 21
118.365472
 31
0.0
 11
68.246170
 21
118.250473
 31
0.0
 11
68.263350
 21
118.071227
 31
0.0
 11
68.415976
 21
117.937312
 31
0.0
  0
LWPOLYLINE
  5
12e
100
AcDbEntity
  8
Layer_1
 62
7
100
AcDbPolyline
 90
1
 70
1
 10
68.415976
 20
117.937312
 30
0.0
  0
SPLINE
  5
12f
100
AcDbEntity
  8
Layer_1
 62
7
100
AcDbSpline
 70
0
 71
3
 72
16
 73
12
 74
10
 40
0.000000
 40
0.000000
 40
0.000000
 40
0.000000
 40
0.455482
 40
0.542722
 40
0.949010
 40
1.215925
 40
1.411501
 40
1.512150
 40
1.602269
 40
1.770024
 40
2.001007
 40
2.001007
 40
2.001007
 40
2.001007
 10
69.512509
 20
119.806815
 30
0.0
 10
69.639377
 20
119.942011
 30
0.0
 10
69.790543
 20
120.103101
 30
0.0
 10
69.577619
 20
120.407431
 30
0.0
 10
69.395326
 20
119.986812
 30
0.0
 10
69.241040
 20
119.789545
 30
0.0
 10
69.156081
 20
119.632477
 30
0.0
 10
69.151804
 20
119.458261
 30
0.0
 10
69.304247
 20
119.504249
 30
0.0
 10
69.398038
 20
119.627864
 30
0.0
 10
69.470521
 20
119.741175
 30
0.0
 10
69.512509
 20
119.806815
 30
0.0
 11
69.512509
 21
119.806815
 31
0.0
 11
69.700871
 21
120.221524
 31
0.0
 11
69.648965
 21
120.291643
 31
0.0
 11
69.377150
 21
119.989672
 31
0.0
 11
69.232487
 21
119.765359
 31
0.0
 11
69.159811
 21
119.583789
 31
0.0
 11
69.174854
 21
119.484270
 31
0.0
 11
69.263888
 21
119.498214
 31
0.0
 11
69.385196
 21
119.614086
 31
0.0
 11
69.512509
 21
119.806815
 31
0.0
  0
LWPOLYLINE
  5
130
100
AcDbEntity
  8
Layer_1
 62
7
100
AcDbPolyline
 90
1
 70
1
 10
69.512509
 20
119.806815
 30
0.0
  0
SPLINE
  5
131
100
AcDbEntity
  8
Layer_1
 62
7
100
AcDbSpline
 70
0
 71
3
 72
10
 73
6
 74
4
 40
0.000000
 40
0.000000
 40
0.000000
 40
0.000000
 40
0.229156
 40
0.458313
 40
0.916626
 40
0.916626
 40
0.916626
 40
0.916626
 10
53.059063
 20
93.104280
 30
0.0
 10
53.113934
 20
93.147330
 30
0.0
 10
53.223676
 20
93.233430
 30
0.0
 10
53.568578
 20
93.504030
 30
0.0
 10
53.262869
 20
93.264180
 30
0.0
 10
53.059063
 20
93.104280
 30
0.0
 11
53.059063
 21
93.104280
 31
0.0
 11
53.239353
 21
93.245730
 31
0.0
 11
53.419643
 21
93.387180
 31
0.0
 11
53.059063
 21
93.104280
 31
0.0
  0
LWPOLYLINE
  5
132
100
AcDbEntity
  8
Layer_1
 62
7
100
AcDbPolyline
 90
1
 70
1
 10
53.059063
 20
93.104280
 30
0.0
  0
SPLINE
  5
133
100
AcDbEntity
  8
Layer_1
 62
7
100
AcDbSpline
 70
0
 71
3
 72
16
 73
12
 74
10
 40
0.000000
 40
0.000000
 40
0.000000
 40
0.000000
 40
0.162000
 40
0.179971
 40
0.341965
 40
0.480534
 40
0.587398
 40
0.641226
 40
0.696592
 40
0.801642
 40
1.006999
 40
1.006999
 40
1.006999
 40
1.006999
 10
55.800297
 20
98.296785
 30
0.0
 10
55.828844
 20
98.368880
 30
0.0
 10
55.860559
 20
98.448972
 30
0.0
 10
55.966668
 20
98.382870
 30
0.0
 10
55.835326
 20
98.263612
 30
0.0
 10
55.802050
 20
98.146855
 30
0.0
 10
55.744151
 20
98.067768
 30
0.0
 10
55.701526
 20
97.996772
 30
0.0
 10
55.609052
 20
98.037693
 30
0.0
 10
55.712743
 20
98.171024
 30
0.0
 10
55.765432
 20
98.246721
 30
0.0
 10
55.800289
 20
98.296800
 30
0.0
 11
55.800297
 21
98.296785
 31
0.0
 11
55.905490
 21
98.419986
 31
0.0
 11
55.920682
 21
98.410384
 31
0.0
 11
55.854537
 21
98.262510
 31
0.0
 11
55.790714
 21
98.139514
 31
0.0
 11
55.733620
 21
98.049181
 31
0.0
 11
55.695611
 21
98.011065
 31
0.0
 11
55.644162
 21
98.031519
 31
0.0
 11
55.680264
 21
98.130171
 31
0.0
 11
55.800289
 21
98.296800
 31
0.0
  0
SPLINE
  5
134
100
AcDbEntity
  8
Layer_1
 62
7
100
AcDbSpline
 70
0
 71
3
 72
16
 73
12
 74
10
 40
0.000000
 40
0.000000
 40
0.000000
 40
0.000000
 40
0.080327
 40
0.188561
 40
0.314569
 40
0.454820
 40
0.589275
 40
0.744185
 40
0.912005
 40
0.995149
 40
1.289261
 40
1.289261
 40
1.289261
 40
1.289261
 10
58.334370
 20
91.514257
 30
0.0
 10
58.347063
 20
91.538390
 30
0.0
 10
58.376857
 20
91.595038
 30
0.0
 10
58.362348
 20
91.704883
 30
0.0
 10
58.314337
 20
91.818364
 30
0.0
 10
58.265664
 20
91.946140
 30
0.0
 10
58.306531
 20
92.098320
 30
0.0
 10
58.404571
 20
92.188118
 30
0.0
 10
58.535694
 20
92.353729
 30
0.0
 10
58.627881
 20
92.146312
 30
0.0
 10
58.591934
 20
92.027352
 30
0.0
 10
58.563910
 20
91.934610
 30
0.0
 11
58.334370
 21
91.514257
 31
0.0
 11
58.365462
 21
91.588322
 31
0.0
 11
58.359063
 21
91.696367
 31
0.0
 11
58.316565
 21
91.814992
 31
0.0
 11
58.280469
 21
91.950519
 31
0.0
 11
58.312040
 21
92.081216
 31
0.0
 11
58.409879
 21
92.201317
 31
0.0
 11
58.545775
 21
92.299786
 31
0.0
 11
58.587355
 21
92.227786
 31
0.0
 11
58.563910
 21
91.934610
 31
0.0
  0
LWPOLYLINE
  5
135
100
AcDbEntity
  8
Layer_1
 62
7
100
AcDbPolyline
 90
1
 70
1
 10
55.800289
 20
98.296800
 30
0.0
  0
SPLINE
  5
136
100
AcDbEntity
  8
Layer_1
 62
7
100
AcDbSpline
 70
0
 71
3
 72
10
 73
6
 74
4
 40
0.000000
 40
0.000000
 40
0.000000
 40
0.000000
 40
0.456154
 40
0.746201
 40
1.010040
 40
1.010040
 40
1.010040
 40
1.010040
 10
58.563910
 20
91.934610
 30
0.0
 10
58.555759
 20
91.801982
 30
0.0
 10
58.542427
 20
91.585022
 30
0.0
 10
58.235492
 20
91.123976
 30
0.0
 10
58.302470
 20
91.388333
 30
0.0
 10
58.334375
 20
91.514257
 30
0.0
 11
58.563910
 21
91.934610
 31
0.0
 11
58.459704
 21
91.490518
 31
0.0
 11
58.292050
 21
91.253834
 31
0.0
 11
58.334375
 21
91.514257
 31
0.0
  0
LWPOLYLINE
  5
137
100
AcDbEntity
  8
Layer_1
 62
7
100
AcDbPolyline
 90
1
 70
1
 10
58.334375
 20
91.514257
 30
0.0
  0
SPLINE
  5
138
100
AcDbEntity
  8
Layer_1
 62
7
100
AcDbSpline
 70
0
 71
3
 72
16
 73
12
 74
10
 40
0.000000
 40
0.000000
 40
0.000000
 40
0.000000
 40
0.175759
 40
0.280439
 40
0.323135
 40
0.574585
 40
0.865038
 40
1.020806
 40
1.097032
 40
1.239652
 40
1.429888
 40
1.429888
 40
1.429888
 40
1.429888
 10
60.508598
 20
96.645315
 30
0.0
 10
60.537292
 20
96.690886
 30
0.0
 10
60.583075
 20
96.763599
 30
0.0
 10
60.647776
 20
96.888927
 30
0.0
 10
60.787741
 20
96.821528
 30
0.0
 10
60.645295
 20
96.563686
 30
0.0
 10
60.627558
 20
96.403324
 30
0.0
 10
60.423727
 20
96.203170
 30
0.0
 10
60.394978
 20
96.362103
 30
0.0
 10
60.437914
 20
96.483263
 30
0.0
 10
60.482892
 20
96.586381
 30
0.0
 10
60.508598
 20
96.645315
 30
0.0
 11
60.508598
 21
96.645315
 31
0.0
 11
60.598752
 21
96.796191
 31
0.0
 11
60.671393
 21
96.871564
 31
0.0
 11
60.710795
 21
96.855120
 31
0.0
 11
60.680262
 21
96.605531
 31
0.0
 11
60.555179
 21
96.343392
 31
0.0
 11
60.425472
 21
96.257137
 31
0.0
 11
60.404897
 21
96.330534
 31
0.0
 11
60.434760
 21
96.469993
 31
0.0
 11
60.508598
 21
96.645315
 31
0.0
  0
LWPOLYLINE
  5
139
100
AcDbEntity
  8
Layer_1
 62
7
100
AcDbPolyline
 90
1
 70
1
 10
60.508598
 20
96.645315
 30
0.0
  0
SPLINE
  5
13a
100
AcDbEntity
  8
Layer_1
 62
7
100
AcDbSpline
 70
0
 71
3
 72
16
 73
12
 74
10
 40
0.000000
 40
0.000000
 40
0.000000
 40
0.000000
 40
0.103031
 40
0.273974
 40
0.530455
 40
0.646923
 40
0.690417
 40
0.840020
 40
0.983686
 40
1.112215
 40
1.207276
 40
1.207276
 40
1.207276
 40
1.207276
 10
61.091321
 20
96.824970
 30
0.0
 10
61.130333
 20
96.835300
 30
0.0
 10
61.234073
 20
96.862769
 30
0.0
 10
61.238500
 20
96.606424
 30
0.0
 10
61.193883
 20
96.493417
 30
0.0
 10
61.163137
 20
96.289488
 30
0.0
 10
61.050750
 20
96.342160
 30
0.0
 10
61.056516
 20
96.473084
 30
0.0
 10
61.027836
 20
96.604916
 30
0.0
 10
61.037147
 20
96.732649
 30
0.0
 10
61.075164
 20
96.797418
 30
0.0
 10
61.091327
 20
96.824955
 30
0.0
 11
61.091321
 21
96.824970
 31
0.0
 11
61.194010
 21
96.833351
 31
0.0
 11
61.231607
 21
96.666594
 31
0.0
 11
61.183844
 21
96.414600
 31
0.0
 11
61.133224
 21
96.309708
 31
0.0
 11
61.092998
 21
96.326247
 31
0.0
 11
61.050122
 21
96.469575
 31
0.0
 11
61.033885
 21
96.612321
 31
0.0
 11
61.048684
 21
96.739994
 31
0.0
 11
61.091327
 21
96.824955
 31
0.0
  0
LWPOLYLINE
  5
13b
100
AcDbEntity
  8
Layer_1
 62
7
100
AcDbPolyline
 90
1
 70
1
 10
61.091327
 20
96.824955
 30
0.0
  0
SPLINE
  5
13c
100
AcDbEntity
  8
Layer_1
 62
7
100
AcDbSpline
 70
0
 71
3
 72
16
 73
12
 74
10
 40
0.000000
 40
0.000000
 40
0.000000
 40
0.000000
 40
0.185688
 40
0.320937
 40
0.398005
 40
0.480513
 40
0.620800
 40
0.807167
 40
1.127226
 40
1.212424
 40
1.540894
 40
1.540894
 40
1.540894
 40
1.540894
 10
60.187424
 20
102.473655
 30
0.0
 10
60.217024
 20
102.528433
 30
0.0
 10
60.268183
 20
102.623109
 30
0.0
 10
60.344115
 20
102.728905
 30
0.0
 10
60.464638
 20
102.763932
 30
0.0
 10
60.488796
 20
102.638082
 30
0.0
 10
60.445451
 20
102.511734
 30
0.0
 10
60.342554
 20
102.344331
 30
0.0
 10
60.241632
 20
102.050734
 30
0.0
 10
59.996746
 20
102.211414
 30
0.0
 10
60.103030
 20
102.357587
 30
0.0
 10
60.187424
 20
102.473655
 30
0.0
 11
60.187424
 21
102.473655
 31
0.0
 11
60.279594
 21
102.634853
 31
0.0
 11
60.373998
 21
102.731704
 31
0.0
 11
60.450197
 21
102.743242
 31
0.0
 11
60.478442
 21
102.665720
 31
0.0
 11
60.447129
 21
102.528972
 31
0.0
 11
60.363038
 21
102.362655
 31
0.0
 11
60.160323
 21
102.114978
 31
0.0
 11
60.088304
 21
102.160497
 31
0.0
 11
60.187424
 21
102.473655
 31
0.0
  0
LWPOLYLINE
  5
13d
100
AcDbEntity
  8
Layer_1
 62
7
100
AcDbPolyline
 90
1
 70
1
 10
60.187424
 20
102.473655
 30
0.0
  0
SPLINE
  5
13e
100
AcDbEntity
  8
Layer_1
 62
7
100
AcDbSpline
 70
0
 71
3
 72
16
 73
12
 74
10
 40
0.000000
 40
0.000000
 40
0.000000
 40
0.000000
 40
0.139186
 40
0.246895
 40
0.318164
 40
0.454577
 40
0.672888
 40
0.867165
 40
0.913555
 40
0.998276
 40
1.129263
 40
1.129263
 40
1.129263
 40
1.129263
 10
60.343513
 20
101.745960
 30
0.0
 10
60.386227
 20
101.727238
 30
0.0
 10
60.461996
 20
101.694027
 30
0.0
 10
60.547050
 20
101.631069
 30
0.0
 10
60.586258
 20
101.508892
 30
0.0
 10
60.380815
 20
101.482382
 30
0.0
 10
60.257774
 20
101.569982
 30
0.0
 10
60.075770
 20
101.681299
 30
0.0
 10
60.135425
 20
101.792289
 30
0.0
 10
60.236884
 20
101.774782
 30
0.0
 10
60.303222
 20
101.756859
 30
0.0
 10
60.343505
 20
101.745975
 30
0.0
 11
60.343513
 21
101.745960
 31
0.0
 11
60.468552
 21
101.684821
 31
0.0
 11
60.547521
 21
101.611574
 31
0.0
 11
60.563324
 21
101.542080
 31
0.0
 11
60.433854
 21
101.499114
 31
0.0
 11
60.232470
 21
101.583401
 31
0.0
 11
60.108068
 21
101.732625
 31
0.0
 11
60.131742
 21
101.772519
 31
0.0
 11
60.216326
 21
101.777331
 31
0.0
 11
60.343505
 21
101.745975
 31
0.0
  0
LWPOLYLINE
  5
13f
100
AcDbEntity
  8
Layer_1
 62
7
100
AcDbPolyline
 90
1
 70
1
 10
60.343505
 20
101.745975
 30
0.0
  0
SPLINE
  5
140
100
AcDbEntity
  8
Layer_1
 62
7
100
AcDbSpline
 70
0
 71
3
 72
19
 73
15
 74
13
 40
0.000000
 40
0.000000
 40
0.000000
 40
0.000000
 40
0.452917
 40
1.124406
 40
1.485442
 40
1.680406
 40
2.024933
 40
2.237968
 40
2.310373
 40
2.470673
 40
2.689650
 40
2.907077
 40
3.004914
 40
3.076190
 40
3.076190
 40
3.076190
 40
3.076190
 10
59.701005
 20
104.704155
 30
0.0
 10
59.850342
 20
104.652428
 30
0.0
 10
60.221083
 20
104.524012
 30
0.0
 10
60.521993
 20
104.339064
 30
0.0
 10
61.067630
 20
103.858432
 30
0.0
 10
60.655386
 20
103.967240
 30
0.0
 10
60.469710
 20
104.084859
 30
0.0
 10
60.330706
 20
104.250562
 30
0.0
 10
60.238884
 20
104.369047
 30
0.0
 10
60.096629
 20
104.428657
 30
0.0
 10
59.907896
 20
104.513478
 30
0.0
 10
59.769317
 20
104.560036
 30
0.0
 10
59.609074
 20
104.659803
 30
0.0
 10
59.673747
 20
104.691004
 30
0.0
 10
59.701005
 20
104.704155
 30
0.0
 11
59.701005
 21
104.704155
 31
0.0
 11
60.125819
 21
104.547096
 31
0.0
 11
60.690537
 21
104.183792
 31
0.0
 11
60.929920
 21
103.913527
 31
0.0
 11
60.738723
 21
103.951668
 31
0.0
 11
60.442819
 21
104.128134
 31
0.0
 11
60.302006
 21
104.287995
 31
0.0
 11
60.254536
 21
104.342667
 31
0.0
 11
60.115017
 21
104.421603
 31
0.0
 11
59.913658
 21
104.507655
 31
0.0
 11
59.715029
 21
104.596093
 31
0.0
 11
59.643174
 21
104.662492
 31
0.0
 11
59.701005
 21
104.704155
 31
0.0
  0
LWPOLYLINE
  5
141
100
AcDbEntity
  8
Layer_1
 62
7
100
AcDbPolyline
 90
1
 70
1
 10
59.701005
 20
104.704155
 30
0.0
  0
SPLINE
  5
142
100
AcDbEntity
  8
Layer_1
 62
7
100
AcDbSpline
 70
0
 71
3
 72
16
 73
12
 74
10
 40
0.000000
 40
0.000000
 40
0.000000
 40
0.000000
 40
0.278822
 40
0.492858
 40
0.604842
 40
0.671134
 40
0.825951
 40
1.039774
 40
1.305517
 40
1.352312
 40
1.526621
 40
1.526621
 40
1.526621
 40
1.526621
 10
62.675486
 20
103.293705
 30
0.0
 10
62.764389
 20
103.260071
 30
0.0
 10
62.921537
 20
103.200618
 30
0.0
 10
63.091420
 20
103.135587
 30
0.0
 10
63.174272
 20
102.941915
 30
0.0
 10
63.032233
 20
102.980016
 30
0.0
 10
62.919063
 20
103.039127
 30
0.0
 10
62.736015
 20
103.162151
 30
0.0
 10
62.564272
 20
103.207418
 30
0.0
 10
62.474493
 20
103.380366
 30
0.0
 10
62.586884
 20
103.331908
 30
0.0
 10
62.675489
 20
103.293705
 30
0.0
 11
62.675486
 21
103.293705
 31
0.0
 11
62.936204
 21
103.194871
 31
0.0
 11
63.110292
 21
103.070354
 31
0.0
 11
63.139070
 21
102.962130
 31
0.0
 11
63.073286
 21
102.970317
 31
0.0
 11
62.932573
 21
103.034880
 31
0.0
 11
62.747399
 21
103.141792
 31
0.0
 11
62.524890
 21
103.287084
 31
0.0
 11
62.504869
 21
103.329379
 31
0.0
 11
62.675489
 21
103.293705
 31
0.0
  0
LWPOLYLINE
  5
143
100
AcDbEntity
  8
Layer_1
 62
7
100
AcDbPolyline
 90
1
 70
1
 10
62.675489
 20
103.293705
 30
0.0
  0
SPLINE
  5
144
100
AcDbEntity
  8
Layer_1
 62
1
100
AcDbSpline
 70
0
 71
3
 72
22
 73
18
 74
16
 40
0.000000
 40
0.000000
 40
0.000000
 40
0.000000
 40
6.766367
 40
13.346357
 40
19.733160
 40
25.749556
 40
31.410270
 40
37.120766
 40
43.060724
 40
49.272926
 40
55.895829
 40
66.032651
 40
75.441806
 40
84.334187
 40
92.863332
 40
101.621928
 40
111.441654
 40
111.441654
 40
111.441654
 40
111.441654
 10
74.694919
 20
93.944875
 30
0.0
 10
72.869656
 20
92.592637
 30
0.0
 10
69.269406
 20
89.925407
 30
0.0
 10
62.792320
 20
88.133281
 30
0.0
 10
56.370706
 20
88.262726
 30
0.0
 10
50.626074
 20
90.512719
 30
0.0
 10
46.340909
 20
94.652219
 30
0.0
 10
44.138054
 20
100.172863
 30
0.0
 10
44.308668
 20
106.273106
 30
0.0
 10
46.707657
 20
112.180209
 30
0.0
 10
51.717740
 20
118.114832
 30
0.0
 10
59.622760
 20
122.463635
 30
0.0
 10
69.406421
 20
123.123393
 30
0.0
 10
77.957240
 20
119.001367
 30
0.0
 10
82.240270
 20
110.748619
 30
0.0
 10
81.082191
 20
101.172240
 30
0.0
 10
76.903566
 20
96.444016
 30
0.0
 10
74.694919
 20
93.944875
 30
0.0
 11
74.694919
 21
93.944875
 31
0.0
 11
69.018524
 21
90.262177
 31
0.0
 11
62.695368
 21
88.441747
 31
0.0
 11
56.312043
 21
88.652466
 31
0.0
 11
50.734808
 21
90.908898
 31
0.0
 11
46.689076
 21
94.868157
 31
0.0
 11
44.550164
 21
100.162948
 31
0.0
 11
44.649324
 21
106.102078
 31
0.0
 11
46.926748
 21
111.881767
 31
0.0
 11
51.171161
 21
116.965840
 31
0.0
 11
60.063124
 21
121.832886
 31
0.0
 11
69.461651
 21
122.279978
 31
0.0
 11
77.369033
 21
118.212085
 31
0.0
 11
81.334542
 21
110.660857
 31
0.0
 11
80.375200
 21
101.954958
 31
0.0
 11
74.694919
 21
93.944875
 31
0.0
  0
LWPOLYLINE
  5
145
100
AcDbEntity
  8
Layer_1
 62
1
100
AcDbPolyline
 90
1
 70
1
 10
74.694919
 20
93.944875
 30
0.0
  0
SPLINE
  5
146
100
AcDbEntity
  8
Layer_1
 62
1
100
AcDbSpline
 70
0
 71
3
 72
25
 73
21
 74
19
 40
0.000000
 40
0.000000
 40
0.000000
 40
0.000000
 40
0.653902
 40
1.308082
 40
1.986449
 40
2.677561
 40
3.363637
 40
4.054749
 40
4.733116
 40
5.387296
 40
6.041198
 40
6.695099
 40
7.349279
 40
8.027647
 40
8.718759
 40
9.404835
 40
10.095947
 40
10.774314
 40
11.428494
 40
12.082395
 40
12.082395
 40
12.082395
 40
12.082395
 10
76.084811
 20
115.615252
 30
0.0
 10
76.060674
 20
115.396067
 30
0.0
 10
76.012391
 20
114.957604
 30
0.0
 10
75.641246
 20
114.383061
 30
0.0
 10
75.103032
 20
113.959325
 30
0.0
 10
74.440708
 20
113.736042
 30
0.0
 10
73.739581
 20
113.736042
 30
0.0
 10
73.078276
 20
113.959325
 30
0.0
 10
72.536095
 20
114.383061
 30
0.0
 10
72.179257
 20
114.957604
 30
0.0
 10
72.053852
 20
115.615253
 30
0.0
 10
72.179257
 20
116.272901
 30
0.0
 10
72.536095
 20
116.847444
 30
0.0
 10
73.078276
 20
117.271180
 30
0.0
 10
73.739581
 20
117.494463
 30
0.0
 10
74.440708
 20
117.494463
 30
0.0
 10
75.103032
 20
117.271180
 30
0.0
 10
75.641246
 20
116.847444
 30
0.0
 10
76.012391
 20
116.272901
 30
0.0
 10
76.060674
 20
115.834438
 30
0.0
 10
76.084811
 20
115.615252
 30
0.0
 11
76.084811
 21
115.615252
 31
0.0
 11
75.963393
 21
114.972722
 31
0.0
 11
75.620355
 21
114.415698
 31
0.0
 11
75.087520
 21
113.995854
 31
0.0
 11
74.433267
 21
113.773168
 31
0.0
 11
73.747191
 21
113.773168
 31
0.0
 11
73.092938
 21
113.995854
 31
0.0
 11
72.560103
 21
114.415698
 31
0.0
 11
72.217065
 21
114.972722
 31
0.0
 11
72.095647
 21
115.615252
 31
0.0
 11
72.217065
 21
116.257783
 31
0.0
 11
72.560103
 21
116.814807
 31
0.0
 11
73.092938
 21
117.234651
 31
0.0
 11
73.747191
 21
117.457337
 31
0.0
 11
74.433267
 21
117.457337
 31
0.0
 11
75.087520
 21
117.234651
 31
0.0
 11
75.620355
 21
116.814807
 31
0.0
 11
75.963393
 21
116.257783
 31
0.0
 11
76.084811
 21
115.615252
 31
0.0
  0
LWPOLYLINE
  5
147
100
AcDbEntity
  8
Layer_1
 62
1
100
AcDbPolyline
 90
1
 70
1
 10
76.084811
 20
115.615252
 30
0.0
  0
SPLINE
  5
148
100
AcDbEntity
  8
Layer_1
 62
7
100
AcDbSpline
 70
0
 71
3
 72
43
 73
39
 74
37
 40
0.000000
 40
0.000000
 40
0.000000
 40
0.000000
 40
0.195384
 40
0.382815
 40
0.564647
 40
0.739679
 40
0.909559
 40
1.077839
 40
1.247368
 40
1.421283
 40
1.603358
 40
1.795362
 40
2.000034
 40
2.220367
 40
2.427433
 40
2.623581
 40
2.811545
 40
2.992557
 40
3.168045
 40
3.341579
 40
3.509211
 40
3.680807
 40
3.860051
 40
4.046957
 40
4.239043
 40
4.439097
 40
4.548646
 40
4.650751
 40
4.745649
 40
4.835883
 40
4.921840
 40
5.003679
 40
5.085430
 40
5.162849
 40
5.236110
 40
5.305173
 40
5.368592
 40
5.426389
 40
5.426389
 40
5.426389
 40
5.426389
 10
66.978167
 20
92.746077
 30
0.0
 10
66.945133
 20
92.689877
 30
0.0
 10
66.880411
 20
92.579765
 30
0.0
 10
66.763815
 20
92.431315
 30
0.0
 10
66.636809
 20
92.301229
 30
0.0
 10
66.498304
 20
92.192376
 30
0.0
 10
66.349636
 20
92.106557
 30
0.0
 10
66.191669
 20
92.044130
 30
0.0
 10
66.024664
 20
92.006098
 30
0.0
 10
65.849276
 20
91.994225
 30
0.0
 10
65.666448
 20
92.006926
 30
0.0
 10
65.477385
 20
92.048431
 30
0.0
 10
65.283420
 20
92.118264
 30
0.0
 10
65.093985
 20
92.211317
 30
0.0
 10
64.916613
 20
92.320338
 30
0.0
 10
64.761124
 20
92.442181
 30
0.0
 10
64.628072
 20
92.576246
 30
0.0
 10
64.517776
 20
92.721075
 30
0.0
 10
64.431116
 20
92.875723
 30
0.0
 10
64.369280
 20
93.037134
 30
0.0
 10
64.332594
 20
93.204757
 30
0.0
 10
64.322126
 20
93.377904
 30
0.0
 10
64.336438
 20
93.557124
 30
0.0
 10
64.375589
 20
93.739555
 30
0.0
 10
64.439169
 20
93.922304
 30
0.0
 10
64.512760
 20
94.072868
 30
0.0
 10
64.581644
 20
94.191581
 30
0.0
 10
64.636312
 20
94.277979
 30
0.0
 10
64.692472
 20
94.355562
 30
0.0
 10
64.747126
 20
94.427544
 30
0.0
 10
64.802244
 20
94.493598
 30
0.0
 10
64.857931
 20
94.555463
 30
0.0
 10
64.916027
 20
94.611010
 30
0.0
 10
64.973676
 20
94.662824
 30
0.0
 10
65.031376
 20
94.707991
 30
0.0
 10
65.085256
 20
94.750410
 30
0.0
 10
65.135861
 20
94.788662
 30
0.0
 10
65.168722
 20
94.812174
 30
0.0
 10
65.184390
 20
94.823386
 30
0.0
 11
66.978167
 21
92.746077
 31
0.0
 11
66.875334
 21
92.579943
 31
0.0
 11
66.760105
 21
92.432118
 31
0.0
 11
66.632479
 21
92.302601
 31
0.0
 11
66.494574
 21
92.194813
 31
0.0
 11
66.347341
 21
92.110067
 31
0.0
 11
66.190782
 21
92.048361
 31
0.0
 11
66.025478
 21
92.010753
 31
0.0
 11
65.852009
 21
91.998298
 31
0.0
 11
65.670377
 21
92.010998
 31
0.0
 11
65.482667
 21
92.051376
 31
0.0
 11
65.289789
 21
92.119846
 31
0.0
 11
65.091741
 21
92.216407
 31
0.0
 11
64.915787
 21
92.325571
 31
0.0
 11
64.761734
 21
92.446986
 31
0.0
 11
64.629582
 21
92.580651
 31
0.0
 11
64.520249
 21
92.724913
 31
0.0
 11
64.434662
 21
92.878115
 31
0.0
 11
64.372823
 21
93.040257
 31
0.0
 11
64.337132
 21
93.204045
 31
0.0
 11
64.326209
 21
93.375294
 31
0.0
 11
64.340052
 21
93.554002
 31
0.0
 11
64.378882
 21
93.736830
 31
0.0
 11
64.441765
 21
93.918332
 31
0.0
 11
64.528702
 21
94.098508
 31
0.0
 11
64.583514
 21
94.193359
 31
0.0
 11
64.638507
 21
94.279389
 31
0.0
 11
64.693681
 21
94.356600
 31
0.0
 11
64.748543
 21
94.428239
 31
0.0
 11
64.803544
 21
94.494296
 31
0.0
 11
64.858684
 21
94.554771
 31
0.0
 11
64.917364
 21
94.611691
 31
0.0
 11
64.975286
 21
94.663060
 31
0.0
 11
65.032452
 21
94.708878
 31
0.0
 11
65.086881
 21
94.751388
 31
0.0
 11
65.137527
 21
94.789558
 31
0.0
 11
65.184390
 21
94.823386
 31
0.0
  0
LWPOLYLINE
  5
149
100
AcDbEntity
  8
Layer_1
 62
7
100
AcDbPolyline
 90
3
 70
0
 10
65.184390
 20
94.823386
 30
0.0
 10
65.756183
 20
94.508161
 30
0.0
 10
65.717766
 20
94.438474
 30
0.0
  0
SPLINE
  5
14a
100
AcDbEntity
  8
Layer_1
 62
7
100
AcDbSpline
 70
0
 71
3
 72
55
 73
51
 74
49
 40
0.000000
 40
0.000000
 40
0.000000
 40
0.000000
 40
0.047936
 40
0.102831
 40
0.164702
 40
0.230901
 40
0.300797
 40
0.374523
 40
0.451849
 40
0.530632
 40
0.611211
 40
0.693231
 40
0.776888
 40
0.863218
 40
0.959418
 40
1.053577
 40
1.146938
 40
1.240378
 40
1.336239
 40
1.436538
 40
1.537793
 40
1.645668
 40
1.762375
 40
1.889032
 40
2.028194
 40
2.181901
 40
2.341659
 40
2.484680
 40
2.613374
 40
2.730933
 40
2.838620
 40
2.938712
 40
3.035883
 40
3.130705
 40
3.225118
 40
3.318073
 40
3.408376
 40
3.496923
 40
3.581031
 40
3.665185
 40
3.750232
 40
3.836042
 40
3.919967
 40
4.002642
 40
4.070506
 40
4.136893
 40
4.201931
 40
4.262855
 40
4.316813
 40
4.363827
 40
4.363827
 40
4.363827
 40
4.363827
 10
65.717766
 20
94.438474
 30
0.0
 10
65.702846
 20
94.432753
 30
0.0
 10
65.670841
 20
94.420479
 30
0.0
 10
65.620125
 20
94.399439
 30
0.0
 10
65.564112
 20
94.375321
 30
0.0
 10
65.503795
 20
94.348504
 30
0.0
 10
65.441632
 20
94.316393
 30
0.0
 10
65.377245
 20
94.280589
 30
0.0
 10
65.312854
 20
94.238946
 30
0.0
 10
65.249688
 20
94.191596
 30
0.0
 10
65.188108
 20
94.139722
 30
0.0
 10
65.130131
 20
94.081376
 30
0.0
 10
65.078492
 20
94.014869
 30
0.0
 10
65.031798
 20
93.939252
 30
0.0
 10
64.991564
 20
93.856054
 30
0.0
 10
64.960155
 20
93.766614
 30
0.0
 10
64.939692
 20
93.675040
 30
0.0
 10
64.929800
 20
93.581003
 30
0.0
 10
64.935592
 20
93.484287
 30
0.0
 10
64.954085
 20
93.386566
 30
0.0
 10
64.989514
 20
93.289170
 30
0.0
 10
65.042577
 20
93.194023
 30
0.0
 10
65.111757
 20
93.099133
 30
0.0
 10
65.202002
 20
93.008368
 30
0.0
 10
65.313247
 20
92.923083
 30
0.0
 10
65.442366
 20
92.844618
 30
0.0
 10
65.578915
 20
92.776946
 30
0.0
 10
65.714551
 20
92.727920
 30
0.0
 10
65.842312
 20
92.702102
 30
0.0
 10
65.960559
 20
92.697599
 30
0.0
 10
66.069012
 20
92.706320
 30
0.0
 10
66.168021
 20
92.731407
 30
0.0
 10
66.257876
 20
92.769712
 30
0.0
 10
66.340122
 20
92.818798
 30
0.0
 10
66.413121
 20
92.878691
 30
0.0
 10
66.476129
 20
92.946730
 30
0.0
 10
66.531888
 20
93.018293
 30
0.0
 10
66.578254
 20
93.092886
 30
0.0
 10
66.615839
 20
93.169948
 30
0.0
 10
66.645114
 20
93.249310
 30
0.0
 10
66.666153
 20
93.331803
 30
0.0
 10
66.680261
 20
93.415626
 30
0.0
 10
66.687518
 20
93.499593
 30
0.0
 10
66.686094
 20
93.577810
 30
0.0
 10
66.682630
 20
93.650037
 30
0.0
 10
66.676413
 20
93.716206
 30
0.0
 10
66.667343
 20
93.779696
 30
0.0
 10
66.657042
 20
93.838780
 30
0.0
 10
66.647239
 20
93.891853
 30
0.0
 10
66.640101
 20
93.924746
 30
0.0
 10
66.636777
 20
93.940062
 30
0.0
 11
65.717766
 21
94.438474
 31
0.0
 11
65.673081
 21
94.421122
 31
0.0
 11
65.622319
 21
94.400225
 31
0.0
 11
65.565481
 21
94.375783
 31
0.0
 11
65.505192
 21
94.348439
 31
0.0
 11
65.442932
 21
94.316672
 31
0.0
 11
65.378699
 21
94.280484
 31
0.0
 11
65.313771
 21
94.238487
 31
0.0
 11
65.250625
 21
94.191377
 31
0.0
 11
65.189262
 21
94.139152
 31
0.0
 11
65.131756
 21
94.080668
 31
0.0
 11
65.080254
 21
94.014744
 31
0.0
 11
65.034755
 21
93.941378
 31
0.0
 11
64.992955
 21
93.854733
 31
0.0
 11
64.961858
 21
93.765857
 31
0.0
 11
64.941463
 21
93.674751
 31
0.0
 11
64.932422
 21
93.581749
 31
0.0
 11
64.937479
 21
93.486022
 31
0.0
 11
64.956637
 21
93.387570
 31
0.0
 11
64.991126
 21
93.292370
 31
0.0
 11
65.042906
 21
93.197734
 31
0.0
 11
65.111978
 21
93.103662
 31
0.0
 11
65.200817
 21
93.013387
 31
0.0
 11
65.310719
 21
92.928020
 31
0.0
 11
65.441685
 21
92.847560
 31
0.0
 11
65.585205
 21
92.777383
 31
0.0
 11
65.720097
 21
92.729853
 31
0.0
 11
65.846363
 21
92.704968
 31
0.0
 11
65.963812
 21
92.699899
 31
0.0
 11
66.071059
 21
92.709619
 31
0.0
 11
66.168104
 21
92.734130
 31
0.0
 11
66.257593
 21
92.771999
 31
0.0
 11
66.338887
 21
92.820809
 31
0.0
 11
66.411986
 21
92.880560
 31
0.0
 11
66.475704
 21
92.948241
 31
0.0
 11
66.530934
 21
93.019685
 31
0.0
 11
66.577676
 21
93.094890
 31
0.0
 11
66.614538
 21
93.170490
 31
0.0
 11
66.643627
 21
93.249457
 31
0.0
 11
66.664941
 21
93.331790
 31
0.0
 11
66.679210
 21
93.416404
 31
0.0
 11
66.686081
 21
93.500048
 31
0.0
 11
66.685554
 21
93.582722
 31
0.0
 11
66.682084
 21
93.650497
 31
0.0
 11
66.675836
 21
93.716588
 31
0.0
 11
66.666810
 21
93.780997
 31
0.0
 11
66.656537
 21
93.841049
 31
0.0
 11
66.646526
 21
93.894070
 31
0.0
 11
66.636777
 21
93.940062
 31
0.0
  0
LWPOLYLINE
  5
14b
100
AcDbEntity
  8
Layer_1
 62
7
100
AcDbPolyline
 90
3
 70
0
 10
66.636777
 20
93.940062
 30
0.0
 10
66.671719
 20
94.003444
 30
0.0
 10
67.235598
 20
93.692582
 30
0.0
  0
SPLINE
  5
14c
100
AcDbEntity
  8
Layer_1
 62
7
100
AcDbSpline
 70
0
 71
3
 72
19
 73
15
 74
13
 40
0.000000
 40
0.000000
 40
0.000000
 40
0.000000
 40
0.072782
 40
0.143239
 40
0.211370
 40
0.278809
 40
0.347263
 40
0.416861
 40
0.506169
 40
0.590992
 40
0.671439
 40
0.758954
 40
0.865269
 40
0.990687
 40
0.990687
 40
0.990687
 40
0.990687
 10
67.235598
 20
93.692582
 30
0.0
 10
67.233545
 20
93.668409
 30
0.0
 10
67.229504
 20
93.620833
 30
0.0
 10
67.223085
 20
93.550669
 30
0.0
 10
67.216912
 20
93.482272
 30
0.0
 10
67.209121
 20
93.414694
 30
0.0
 10
67.197966
 20
93.347082
 30
0.0
 10
67.182294
 20
93.272918
 30
0.0
 10
67.162989
 20
93.193983
 30
0.0
 10
67.139972
 20
93.112297
 30
0.0
 10
67.114614
 20
93.031898
 30
0.0
 10
67.080628
 20
92.946931
 30
0.0
 10
67.034706
 20
92.850866
 30
0.0
 10
66.998002
 20
92.782891
 30
0.0
 10
66.978138
 20
92.746102
 30
0.0
 11
67.235598
 21
93.692582
 31
0.0
 11
67.229359
 21
93.620068
 31
0.0
 11
67.223029
 21
93.549896
 31
0.0
 11
67.216610
 21
93.482068
 31
0.0
 11
67.208621
 21
93.415104
 31
0.0
 11
67.197531
 21
93.347554
 31
0.0
 11
67.183340
 21
93.279419
 31
0.0
 11
67.162120
 21
93.192668
 31
0.0
 11
67.139145
 21
93.111016
 31
0.0
 11
67.114414
 21
93.034464
 31
0.0
 11
67.082170
 21
92.953106
 31
0.0
 11
67.036745
 21
92.856985
 31
0.0
 11
66.978138
 21
92.746102
 31
0.0
  0
LWPOLYLINE
  5
14d
100
AcDbEntity
  8
Layer_1
 62
7
100
AcDbPolyline
 90
1
 70
1
 10
66.978138
 20
92.746102
 30
0.0
  0
SPLINE
  5
14e
100
AcDbEntity
  8
Layer_1
 62
7
100
AcDbSpline
 70
0
 71
3
 72
31
 73
27
 74
25
 40
0.000000
 40
0.000000
 40
0.000000
 40
0.000000
 40
0.402011
 40
0.764734
 40
1.113812
 40
1.461684
 40
1.824311
 40
2.229225
 40
2.633145
 40
2.995208
 40
3.342921
 40
3.691999
 40
4.054722
 40
4.456733
 40
4.861349
 40
5.224641
 40
5.572580
 40
5.920293
 40
6.282357
 40
6.686276
 40
7.089393
 40
7.451454
 40
7.799807
 40
8.148339
 40
8.511836
 40
8.916472
 40
8.916472
 40
8.916472
 40
8.916472
 10
67.726360
 20
96.999152
 30
0.0
 10
67.840785
 20
96.928307
 30
0.0
 10
68.058452
 20
96.793541
 30
0.0
 10
68.307769
 20
96.510606
 30
0.0
 10
68.461376
 20
96.187450
 30
0.0
 10
68.512992
 20
95.832313
 30
0.0
 10
68.452540
 20
95.460326
 30
0.0
 10
68.293998
 20
95.100436
 30
0.0
 10
68.074400
 20
94.774437
 30
0.0
 10
67.792318
 20
94.525287
 30
0.0
 10
67.464762
 20
94.379793
 30
0.0
 10
67.109143
 20
94.336380
 30
0.0
 10
66.738498
 20
94.399237
 30
0.0
 10
66.379498
 20
94.557878
 30
0.0
 10
66.053566
 20
94.776727
 30
0.0
 10
65.801400
 20
95.056669
 30
0.0
 10
65.649713
 20
95.381024
 30
0.0
 10
65.597614
 20
95.735134
 30
0.0
 10
65.657818
 20
96.106698
 30
0.0
 10
65.815897
 20
96.465900
 30
0.0
 10
66.035309
 20
96.791327
 30
0.0
 10
66.317381
 20
97.040342
 30
0.0
 10
66.644842
 20
97.186136
 30
0.0
 10
67.000026
 20
97.231306
 30
0.0
 10
67.373487
 20
97.171159
 30
0.0
 10
67.604609
 20
97.058499
 30
0.0
 10
67.726360
 20
96.999152
 30
0.0
 11
67.726360
 21
96.999152
 31
0.0
 11
68.056788
 21
96.770176
 31
0.0
 11
68.296243
 21
96.497726
 31
0.0
 11
68.444724
 21
96.181800
 31
0.0
 11
68.494745
 21
95.837542
 31
0.0
 11
68.440930
 21
95.478932
 31
0.0
 11
68.283280
 21
95.105968
 31
0.0
 11
68.052548
 21
94.774435
 31
0.0
 11
67.778329
 21
94.538017
 31
0.0
 11
67.460622
 21
94.396713
 31
0.0
 11
67.114214
 21
94.353615
 31
0.0
 11
66.756004
 21
94.410651
 31
0.0
 11
66.385991
 21
94.567822
 31
0.0
 11
66.053269
 21
94.798062
 31
0.0
 11
65.813285
 21
95.070805
 31
0.0
 11
65.666037
 21
95.386051
 31
0.0
 11
65.615919
 21
95.730133
 31
0.0
 11
65.669444
 21
96.088218
 31
0.0
 11
65.826611
 21
96.460306
 31
0.0
 11
66.056954
 21
96.791132
 31
0.0
 11
66.331172
 21
97.027548
 31
0.0
 11
66.649266
 21
97.169555
 31
0.0
 11
66.994925
 21
97.214212
 31
0.0
 11
67.353956
 21
97.157411
 31
0.0
 11
67.726360
 21
96.999152
 31
0.0
  0
LWPOLYLINE
  5
14f
100
AcDbEntity
  8
Layer_1
 62
7
100
AcDbPolyline
 90
1
 70
1
 10
67.726360
 20
96.999152
 30
0.0
  0
SPLINE
  5
150
100
AcDbEntity
  8
Layer_1
 62
7
100
AcDbSpline
 70
0
 71
3
 72
55
 73
51
 74
49
 40
0.000000
 40
0.000000
 40
0.000000
 40
0.000000
 40
0.106507
 40
0.215176
 40
0.328013
 40
0.449646
 40
0.582080
 40
0.726472
 40
0.880135
 40
1.018861
 40
1.144182
 40
1.258001
 40
1.361840
 40
1.457475
 40
1.549702
 40
1.638091
 40
1.725003
 40
1.810221
 40
1.894995
 40
1.980776
 40
2.067351
 40
2.152014
 40
2.236156
 40
2.320459
 40
2.408489
 40
2.502284
 40
2.597219
 40
2.702938
 40
2.821440
 40
2.949875
 40
3.088601
 40
3.239054
 40
3.391701
 40
3.529748
 40
3.654628
 40
3.767699
 40
3.871538
 40
3.967823
 40
4.058773
 40
4.146677
 40
4.233776
 40
4.320647
 40
4.407313
 40
4.495316
 40
4.583315
 40
4.669981
 40
4.756856
 40
4.844504
 40
4.933131
 40
5.024954
 40
5.024954
 40
5.024954
 40
5.024954
 10
67.879038
 20
95.863735
 30
0.0
 10
67.864550
 20
95.896212
 30
0.0
 10
67.835280
 20
95.961827
 30
0.0
 10
67.773368
 20
96.052587
 30
0.0
 10
67.697806
 20
96.138764
 30
0.0
 10
67.605816
 20
96.219812
 30
0.0
 10
67.497851
 20
96.297461
 30
0.0
 10
67.374502
 20
96.371060
 30
0.0
 10
67.244383
 20
96.436702
 30
0.0
 10
67.114581
 20
96.487832
 30
0.0
 10
66.992357
 20
96.519618
 30
0.0
 10
66.878834
 20
96.534918
 30
0.0
 10
66.774122
 20
96.537290
 30
0.0
 10
66.677325
 20
96.524844
 30
0.0
 10
66.588282
 20
96.500155
 30
0.0
 10
66.506722
 20
96.463006
 30
0.0
 10
66.434980
 20
96.413393
 30
0.0
 10
66.371842
 20
96.355206
 30
0.0
 10
66.316908
 20
96.289678
 30
0.0
 10
66.270919
 20
96.217084
 30
0.0
 10
66.233950
 20
96.139551
 30
0.0
 10
66.207343
 20
96.058469
 30
0.0
 10
66.190993
 20
95.975424
 30
0.0
 10
66.188033
 20
95.889559
 30
0.0
 10
66.199867
 20
95.801326
 30
0.0
 10
66.224102
 20
95.711978
 30
0.0
 10
66.265150
 20
95.622302
 30
0.0
 10
66.324633
 20
95.533705
 30
0.0
 10
66.400784
 20
95.443836
 30
0.0
 10
66.495476
 20
95.356423
 30
0.0
 10
66.607750
 20
95.273720
 30
0.0
 10
66.734119
 20
95.197772
 30
0.0
 10
66.865511
 20
95.131392
 30
0.0
 10
66.994482
 20
95.080262
 30
0.0
 10
67.115743
 20
95.047134
 30
0.0
 10
67.229025
 20
95.032631
 30
0.0
 10
67.333642
 20
95.030328
 30
0.0
 10
67.430335
 20
95.041999
 30
0.0
 10
67.519042
 20
95.066587
 30
0.0
 10
67.600186
 20
95.103268
 30
0.0
 10
67.672865
 20
95.152300
 30
0.0
 10
67.737224
 20
95.211045
 30
0.0
 10
67.793569
 20
95.277907
 30
0.0
 10
67.840641
 20
95.352016
 30
0.0
 10
67.878205
 20
95.431388
 30
0.0
 10
67.904549
 20
95.514725
 30
0.0
 10
67.920330
 20
95.600687
 30
0.0
 10
67.921341
 20
95.688756
 30
0.0
 10
67.908739
 20
95.777761
 30
0.0
 10
67.889049
 20
95.834720
 30
0.0
 10
67.879030
 20
95.863705
 30
0.0
 11
67.879038
 21
95.863735
 31
0.0
 11
67.832795
 21
95.959679
 31
0.0
 11
67.772478
 21
96.050072
 31
0.0
 11
67.698086
 21
96.134913
 31
0.0
 11
67.607345
 21
96.215911
 31
0.0
 11
67.500104
 21
96.293616
 31
0.0
 11
67.376363
 21
96.368028
 31
0.0
 11
67.238896
 21
96.436695
 31
0.0
 11
67.109489
 21
96.486683
 31
0.0
 11
66.988142
 21
96.517991
 31
0.0
 11
66.875338
 21
96.533159
 31
0.0
 11
66.771509
 21
96.534637
 31
0.0
 11
66.676657
 21
96.522425
 31
0.0
 11
66.587867
 21
96.497481
 31
0.0
 11
66.507586
 21
96.460502
 31
0.0
 11
66.435813
 21
96.411488
 31
0.0
 11
66.373057
 21
96.353837
 31
0.0
 11
66.318637
 21
96.288835
 31
0.0
 11
66.272556
 21
96.216483
 31
0.0
 11
66.235410
 21
96.138282
 31
0.0
 11
66.208970
 21
96.057853
 31
0.0
 11
66.193234
 21
95.975196
 31
0.0
 11
66.190386
 21
95.890941
 31
0.0
 11
66.201448
 21
95.803608
 31
0.0
 11
66.226419
 21
95.713198
 31
0.0
 11
66.265756
 21
95.626798
 31
0.0
 11
66.323724
 21
95.538388
 31
0.0
 11
66.400322
 21
95.447970
 31
0.0
 11
66.494389
 21
95.360522
 31
0.0
 11
66.605740
 21
95.277782
 31
0.0
 11
66.734375
 21
95.199749
 31
0.0
 11
66.870862
 21
95.131394
 31
0.0
 11
66.999450
 21
95.081174
 31
0.0
 11
67.120137
 21
95.049087
 31
0.0
 11
67.232238
 21
95.034307
 31
0.0
 11
67.336067
 21
95.032829
 31
0.0
 11
67.431622
 21
95.044653
 31
0.0
 11
67.519224
 21
95.069105
 31
0.0
 11
67.599214
 21
95.105556
 31
0.0
 11
67.671593
 21
95.154006
 31
0.0
 11
67.735905
 21
95.212407
 31
0.0
 11
67.791723
 21
95.278704
 31
0.0
 11
67.839049
 21
95.352898
 31
0.0
 11
67.876521
 21
95.432520
 31
0.0
 11
67.902783
 21
95.515112
 31
0.0
 11
67.917836
 21
95.600672
 31
0.0
 11
67.919121
 21
95.688311
 31
0.0
 11
67.906186
 21
95.775989
 31
0.0
 11
67.879030
 21
95.863705
 31
0.0
  0
LWPOLYLINE
  5
151
100
AcDbEntity
  8
Layer_1
 62
7
100
AcDbPolyline
 90
1
 70
1
 10
67.879030
 20
95.863705
 30
0.0
  0
LWPOLYLINE
  5
152
100
AcDbEntity
  8
Layer_1
 62
7
100
AcDbPolyline
 90
1
 70
1
 10
70.019276
 20
99.745919
 30
0.0
  0
SPLINE
  5
153
100
AcDbEntity
  8
Layer_1
 62
7
100
AcDbSpline
 70
0
 71
3
 72
55
 73
51
 74
49
 40
0.000000
 40
0.000000
 40
0.000000
 40
0.000000
 40
0.105241
 40
0.213090
 40
0.325456
 40
0.446870
 40
0.579231
 40
0.723616
 40
0.873458
 40
1.010311
 40
1.135577
 40
1.250699
 40
1.355312
 40
1.451260
 40
1.540946
 40
1.626559
 40
1.710341
 40
1.793799
 40
1.876920
 40
1.961312
 40
2.045477
 40
2.127771
 40
2.209624
 40
2.291785
 40
2.377879
 40
2.469966
 40
2.564185
 40
2.669345
 40
2.787423
 40
2.915614
 40
3.054259
 40
3.204703
 40
3.357343
 40
3.495310
 40
3.619946
 40
3.733342
 40
3.836620
 40
3.931538
 40
4.021369
 40
4.107348
 40
4.191601
 40
4.276196
 40
4.360499
 40
4.446094
 40
4.532704
 40
4.617718
 40
4.702840
 40
4.788096
 40
4.873970
 40
4.962717
 40
4.962717
 40
4.962717
 40
4.962717
 10
70.019260
 20
99.745938
 30
0.0
 10
70.004382
 20
99.777771
 30
0.0
 10
69.974258
 20
99.842226
 30
0.0
 10
69.911488
 20
99.931328
 30
0.0
 10
69.835250
 20
100.016210
 30
0.0
 10
69.742828
 20
100.096350
 30
0.0
 10
69.634606
 20
100.173442
 30
0.0
 10
69.512328
 20
100.246286
 30
0.0
 10
69.383925
 20
100.311071
 30
0.0
 10
69.256030
 20
100.361850
 30
0.0
 10
69.134208
 20
100.393989
 30
0.0
 10
69.020571
 20
100.412833
 30
0.0
 10
68.915122
 20
100.417522
 30
0.0
 10
68.818501
 20
100.407423
 30
0.0
 10
68.730823
 20
100.384045
 30
0.0
 10
68.651250
 20
100.349417
 30
0.0
 10
68.580958
 20
100.302268
 30
0.0
 10
68.518121
 20
100.247008
 30
0.0
 10
68.463531
 20
100.183225
 30
0.0
 10
68.418285
 20
100.112297
 30
0.0
 10
68.382336
 20
100.036545
 30
0.0
 10
68.356892
 20
99.957557
 30
0.0
 10
68.341702
 20
99.876585
 30
0.0
 10
68.339971
 20
99.792808
 30
0.0
 10
68.352936
 20
99.706661
 30
0.0
 10
68.378692
 20
99.619294
 30
0.0
 10
68.419973
 20
99.530866
 30
0.0
 10
68.480121
 20
99.443377
 30
0.0
 10
68.556849
 20
99.354561
 30
0.0
 10
68.652057
 20
99.268097
 30
0.0
 10
68.764569
 20
99.185941
 30
0.0
 10
68.890999
 20
99.110173
 30
0.0
 10
69.022272
 20
99.043658
 30
0.0
 10
69.150901
 20
98.991996
 30
0.0
 10
69.271890
 20
98.957988
 30
0.0
 10
69.384780
 20
98.941970
 30
0.0
 10
69.488879
 20
98.938431
 30
0.0
 10
69.584567
 20
98.949814
 30
0.0
 10
69.672156
 20
98.972723
 30
0.0
 10
69.752079
 20
99.007246
 30
0.0
 10
69.823781
 20
99.053518
 30
0.0
 10
69.886725
 20
99.110157
 30
0.0
 10
69.941950
 20
99.174879
 30
0.0
 10
69.988058
 20
99.247187
 30
0.0
 10
70.024601
 20
99.325041
 30
0.0
 10
70.049697
 20
99.407153
 30
0.0
 10
70.063044
 20
99.491547
 30
0.0
 10
70.063340
 20
99.577273
 30
0.0
 10
70.049719
 20
99.663395
 30
0.0
 10
70.029534
 20
99.718111
 30
0.0
 10
70.019276
 20
99.745919
 30
0.0
 11
70.019260
 21
99.745938
 31
0.0
 11
69.971950
 21
99.839946
 31
0.0
 11
69.910759
 21
99.928754
 31
0.0
 11
69.835689
 21
100.012364
 31
0.0
 11
69.744465
 21
100.092487
 31
0.0
 11
69.636935
 21
100.169667
 31
0.0
 11
69.513097
 21
100.243904
 31
0.0
 11
69.379070
 21
100.310907
 31
0.0
 11
69.251542
 21
100.360558
 31
0.0
 11
69.130512
 21
100.392857
 31
0.0
 11
69.016829
 21
100.411009
 31
0.0
 11
68.912290
 21
100.414942
 31
0.0
 11
68.816895
 21
100.404656
 31
0.0
 11
68.730246
 21
100.381516
 31
0.0
 11
68.651948
 21
100.346887
 31
0.0
 11
68.582002
 21
100.300770
 31
0.0
 11
68.519436
 21
100.245536
 31
0.0
 11
68.465364
 21
100.182406
 31
0.0
 11
68.419785
 21
100.111381
 31
0.0
 11
68.383806
 21
100.035294
 31
0.0
 11
68.358530
 21
99.956978
 31
0.0
 11
68.343958
 21
99.876432
 31
0.0
 11
68.342274
 21
99.794289
 31
0.0
 11
68.354499
 21
99.709067
 31
0.0
 11
68.380633
 21
99.620767
 31
0.0
 11
68.420553
 21
99.535423
 31
0.0
 11
68.479104
 21
99.448070
 31
0.0
 11
68.556284
 21
99.358708
 31
0.0
 11
68.650844
 21
99.272154
 31
0.0
 11
68.762490
 21
99.189951
 31
0.0
 11
68.891223
 21
99.112097
 31
0.0
 11
69.027612
 21
99.043561
 31
0.0
 11
69.155901
 21
98.992800
 31
0.0
 11
69.276092
 21
98.959812
 31
0.0
 11
69.388324
 21
98.943606
 31
0.0
 11
69.491571
 21
98.941074
 31
0.0
 11
69.585833
 21
98.952214
 31
0.0
 11
69.672658
 21
98.975258
 31
0.0
 11
69.751483
 21
99.009596
 31
0.0
 11
69.822309
 21
99.055228
 31
0.0
 11
69.885457
 21
99.111518
 31
0.0
 11
69.940112
 21
99.175704
 31
0.0
 11
69.986272
 21
99.247785
 31
0.0
 11
70.022891
 21
99.326273
 31
0.0
 11
70.047754
 21
99.407571
 31
0.0
 11
70.060864
 21
99.491677
 31
0.0
 11
70.061064
 21
99.576933
 31
0.0
 11
70.047201
 21
99.661680
 31
0.0
 11
70.019276
 21
99.745919
 31
0.0
  0
LWPOLYLINE
  5
154
100
AcDbEntity
  8
Layer_1
 62
7
100
AcDbPolyline
 90
8
 70
0
 10
68.688786
 20
98.426489
 30
0.0
 10
68.451277
 20
97.995665
 30
0.0
 10
69.495083
 20
97.420225
 30
0.0
 10
69.159773
 20
96.811999
 30
0.0
 10
66.801310
 20
98.112198
 30
0.0
 10
67.136619
 20
98.720424
 30
0.0
 10
67.998273
 20
98.245402
 30
0.0
 10
68.248883
 20
98.699989
 30
0.0
  0
SPLINE
  5
155
100
AcDbEntity
  8
Layer_1
 62
7
100
AcDbSpline
 70
0
 71
3
 72
37
 73
33
 74
31
 40
0.000000
 40
0.000000
 40
0.000000
 40
0.000000
 40
0.314873
 40
0.608158
 40
0.897501
 40
1.192700
 40
1.502183
 40
1.842400
 40
2.237502
 40
2.592577
 40
2.935208
 40
3.281543
 40
3.644795
 40
4.050349
 40
4.252356
 40
4.445146
 40
4.631042
 40
4.808696
 40
4.979509
 40
5.146981
 40
5.316814
 40
5.487876
 40
5.663768
 40
5.848587
 40
6.046820
 40
6.261745
 40
6.631943
 40
6.967140
 40
7.289418
 40
7.611281
 40
7.944965
 40
8.312246
 40
8.312246
 40
8.312246
 40
8.312246
 10
68.248883
 20
98.699989
 30
0.0
 10
68.171292
 20
98.771307
 30
0.0
 10
68.021431
 20
98.909053
 30
0.0
 10
67.864710
 20
99.168855
 30
0.0
 10
67.779373
 20
99.451580
 30
0.0
 10
67.766369
 20
99.752615
 30
0.0
 10
67.832864
 20
100.063570
 30
0.0
 10
67.976949
 20
100.382532
 30
0.0
 10
68.182252
 20
100.685879
 30
0.0
 10
68.460520
 20
100.928883
 30
0.0
 10
68.784755
 20
101.069281
 30
0.0
 10
69.138080
 20
101.111022
 30
0.0
 10
69.508571
 20
101.045214
 30
0.0
 10
69.806659
 20
100.913008
 30
0.0
 10
70.034462
 20
100.773650
 30
0.0
 10
70.188194
 20
100.655341
 30
0.0
 10
70.321807
 20
100.526119
 30
0.0
 10
70.433459
 20
100.386658
 30
0.0
 10
70.521628
 20
100.238298
 30
0.0
 10
70.585806
 20
100.080876
 30
0.0
 10
70.625840
 20
99.915557
 30
0.0
 10
70.641245
 20
99.743395
 30
0.0
 10
70.632182
 20
99.565777
 30
0.0
 10
70.595687
 20
99.382395
 30
0.0
 10
70.529281
 20
99.193819
 30
0.0
 10
70.414360
 20
98.959005
 30
0.0
 10
70.242506
 20
98.702078
 30
0.0
 10
69.986917
 20
98.468233
 30
0.0
 10
69.690593
 20
98.320581
 30
0.0
 10
69.365728
 20
98.263461
 30
0.0
 10
69.021268
 20
98.294995
 30
0.0
 10
68.803099
 20
98.381279
 30
0.0
 10
68.688786
 20
98.426489
 30
0.0
 11
68.248883
 21
98.699989
 31
0.0
 11
68.027816
 21
98.924209
 31
0.0
 11
67.875449
 21
99.174810
 31
0.0
 11
67.791782
 21
99.451791
 31
0.0
 11
67.778814
 21
99.746706
 31
0.0
 11
67.840657
 21
100.049946
 31
0.0
 11
67.977310
 21
100.361513
 31
0.0
 11
68.203596
 21
100.685396
 31
0.0
 11
68.473794
 21
100.915768
 31
0.0
 11
68.787905
 21
101.052628
 31
0.0
 11
69.131799
 21
101.093669
 31
0.0
 11
69.490194
 21
101.034466
 31
0.0
 11
69.863088
 21
100.875018
 31
0.0
 11
70.035030
 21
100.768984
 31
0.0
 11
70.187607
 21
100.651136
 31
0.0
 11
70.320819
 21
100.521475
 31
0.0
 11
70.431442
 21
100.382466
 31
0.0
 11
70.518353
 21
100.235418
 31
0.0
 11
70.581554
 21
100.080329
 31
0.0
 11
70.621602
 21
99.915284
 31
0.0
 11
70.637150
 21
99.744930
 31
0.0
 11
70.628196
 21
99.569266
 31
0.0
 11
70.592482
 21
99.387931
 31
0.0
 11
70.527743
 21
99.200567
 31
0.0
 11
70.433979
 21
99.007174
 31
0.0
 11
70.223930
 21
98.702336
 31
0.0
 11
69.974499
 21
98.478415
 31
0.0
 11
69.685686
 21
98.335409
 31
0.0
 11
69.368938
 21
98.278255
 31
0.0
 11
69.036638
 21
98.308615
 31
0.0
 11
68.688786
 21
98.426489
 31
0.0
  0
LWPOLYLINE
  5
156
100
AcDbEntity
  8
Layer_1
 62
7
100
AcDbPolyline
 90
1
 70
1
 10
68.688786
 20
98.426489
 30
0.0
  0
SPLINE
  5
157
100
AcDbEntity
  8
Layer_1
 62
7
100
AcDbSpline
 70
0
 71
3
 72
25
 73
21
 74
19
 40
0.000000
 40
0.000000
 40
0.000000
 40
0.000000
 40
0.125724
 40
0.246964
 40
0.366757
 40
0.485630
 40
0.605643
 40
0.730433
 40
0.867572
 40
1.011733
 40
1.164850
 40
1.332356
 40
1.520246
 40
1.729749
 40
1.919537
 40
2.101136
 40
2.275286
 40
2.440995
 40
2.599838
 40
2.752364
 40
2.752364
 40
2.752364
 40
2.752364
 10
71.596553
 20
102.895494
 30
0.0
 10
71.632490
 20
102.873786
 30
0.0
 10
71.703083
 20
102.831145
 30
0.0
 10
71.794381
 20
102.748700
 30
0.0
 10
71.870077
 20
102.655117
 30
0.0
 10
71.930199
 20
102.551081
 30
0.0
 10
71.970799
 20
102.436118
 30
0.0
 10
71.991881
 20
102.310051
 30
0.0
 10
71.995511
 20
102.174356
 30
0.0
 10
71.981816
 20
102.029912
 30
0.0
 10
71.951116
 20
101.877724
 30
0.0
 10
71.898112
 20
101.716375
 30
0.0
 10
71.823797
 20
101.543171
 30
0.0
 10
71.734058
 20
101.369074
 30
0.0
 10
71.635991
 20
101.202014
 30
0.0
 10
71.534545
 20
101.050920
 30
0.0
 10
71.427526
 20
100.913792
 30
0.0
 10
71.318325
 20
100.788398
 30
0.0
 10
71.207787
 20
100.673861
 30
0.0
 10
71.130002
 20
100.605094
 30
0.0
 10
71.091899
 20
100.571408
 30
0.0
 11
71.596553
 21
102.895494
 31
0.0
 11
71.702003
 21
102.827034
 31
0.0
 11
71.792386
 21
102.746227
 31
0.0
 11
71.867703
 21
102.653072
 31
0.0
 11
71.926697
 21
102.549870
 31
0.0
 11
71.966945
 21
102.436807
 31
0.0
 11
71.988449
 21
102.313884
 31
0.0
 11
71.992743
 21
102.176813
 31
0.0
 11
71.979684
 21
102.033244
 31
0.0
 11
71.949274
 21
101.883177
 31
0.0
 11
71.898080
 21
101.723686
 31
0.0
 11
71.824750
 21
101.550696
 31
0.0
 11
71.729287
 21
101.364207
 31
0.0
 11
71.632946
 21
101.200690
 31
0.0
 11
71.531373
 21
101.050154
 31
0.0
 11
71.424568
 21
100.912601
 31
0.0
 11
71.315745
 21
100.787633
 31
0.0
 11
71.204855
 21
100.673902
 31
0.0
 11
71.091899
 21
100.571408
 31
0.0
  0
LWPOLYLINE
  5
158
100
AcDbEntity
  8
Layer_1
 62
7
100
AcDbPolyline
 90
3
 70
0
 10
71.091899
 20
100.571408
 30
0.0
 10
70.559697
 20
100.864805
 30
0.0
 10
70.591134
 20
100.921829
 30
0.0
  0
SPLINE
  5
159
100
AcDbEntity
  8
Layer_1
 62
7
100
AcDbSpline
 70
0
 71
3
 72
43
 73
39
 74
37
 40
0.000000
 40
0.000000
 40
0.000000
 40
0.000000
 40
0.045169
 40
0.102908
 40
0.173221
 40
0.249614
 40
0.324664
 40
0.398485
 40
0.488367
 40
0.572639
 40
0.651396
 40
0.731407
 40
0.818095
 40
0.911994
 40
1.004474
 40
1.091644
 40
1.173881
 40
1.250312
 40
1.320315
 40
1.384852
 40
1.450228
 40
1.509967
 40
1.565570
 40
1.622403
 40
1.684403
 40
1.753683
 40
1.819297
 40
1.876999
 40
1.928136
 40
1.975728
 40
2.023947
 40
2.074633
 40
2.128118
 40
2.186847
 40
2.251721
 40
2.322516
 40
2.401040
 40
2.487469
 40
2.487469
 40
2.487469
 40
2.487469
 10
70.591134
 20
100.921829
 30
0.0
 10
70.603948
 20
100.929736
 30
0.0
 10
70.633142
 20
100.947748
 30
0.0
 10
70.681733
 20
100.978936
 30
0.0
 10
70.739422
 20
101.015245
 30
0.0
 10
70.799599
 20
101.058226
 30
0.0
 10
70.859353
 20
101.103727
 30
0.0
 10
70.920354
 20
101.154866
 30
0.0
 10
70.982477
 20
101.209418
 30
0.0
 10
71.043765
 20
101.267296
 30
0.0
 10
71.101638
 20
101.324085
 30
0.0
 10
71.153754
 20
101.387348
 30
0.0
 10
71.203248
 20
101.458830
 30
0.0
 10
71.249509
 20
101.537295
 30
0.0
 10
71.291382
 20
101.618349
 30
0.0
 10
71.326630
 20
101.698276
 30
0.0
 10
71.354564
 20
101.775398
 30
0.0
 10
71.374483
 20
101.849073
 30
0.0
 10
71.385687
 20
101.918705
 30
0.0
 10
71.387020
 20
101.985482
 30
0.0
 10
71.381641
 20
102.048647
 30
0.0
 10
71.367591
 20
102.107447
 30
0.0
 10
71.345286
 20
102.160762
 30
0.0
 10
71.310403
 20
102.207941
 30
0.0
 10
71.263426
 20
102.249995
 30
0.0
 10
71.207730
 20
102.285132
 30
0.0
 10
71.149923
 20
102.313284
 30
0.0
 10
71.094615
 20
102.332080
 30
0.0
 10
71.042745
 20
102.339566
 30
0.0
 10
70.993459
 20
102.338119
 30
0.0
 10
70.945815
 20
102.326162
 30
0.0
 10
70.899013
 20
102.305474
 30
0.0
 10
70.855542
 20
102.272391
 30
0.0
 10
70.812938
 20
102.231412
 30
0.0
 10
70.771896
 20
102.181098
 30
0.0
 10
70.730824
 20
102.122673
 30
0.0
 10
70.688714
 20
102.056278
 30
0.0
 10
70.661706
 20
102.008375
 30
0.0
 10
70.647555
 20
101.983277
 30
0.0
 11
70.591134
 21
100.921829
 31
0.0
 11
70.629513
 21
100.945648
 31
0.0
 11
70.678249
 21
100.976609
 31
0.0
 11
70.737342
 21
101.014712
 31
0.0
 11
70.799728
 21
101.058801
 31
0.0
 11
70.859309
 21
101.104437
 31
0.0
 11
70.916085
 21
101.151619
 31
0.0
 11
70.983503
 21
101.211063
 31
0.0
 11
71.044918
 21
101.268767
 31
0.0
 11
71.100331
 21
101.324732
 31
0.0
 11
71.151476
 21
101.386263
 31
0.0
 11
71.201025
 21
101.457395
 31
0.0
 11
71.248976
 21
101.538127
 31
0.0
 11
71.291315
 21
101.620346
 31
0.0
 11
71.326354
 21
101.700164
 31
0.0
 11
71.354093
 21
101.777581
 31
0.0
 11
71.373686
 21
101.851458
 31
0.0
 11
71.384286
 21
101.920654
 31
0.0
 11
71.385891
 21
101.985171
 31
0.0
 11
71.379794
 21
102.050262
 31
0.0
 11
71.365666
 21
102.108307
 31
0.0
 11
71.343509
 21
102.159304
 31
0.0
 11
71.310084
 21
102.205269
 31
0.0
 11
71.264274
 21
102.247047
 31
0.0
 11
71.206078
 21
102.284637
 31
0.0
 11
71.146958
 21
102.313099
 31
0.0
 11
71.092089
 21
102.330955
 31
0.0
 11
71.041469
 21
102.338208
 31
0.0
 11
70.993910
 21
102.336428
 31
0.0
 11
70.947043
 21
102.325090
 31
0.0
 11
70.900866
 21
102.304193
 31
0.0
 11
70.857611
 21
102.272734
 31
0.0
 11
70.815238
 21
102.232069
 31
0.0
 11
70.773747
 21
102.182198
 31
0.0
 11
70.732747
 21
102.124484
 31
0.0
 11
70.690683
 21
102.058176
 31
0.0
 11
70.647555
 21
101.983277
 31
0.0
  0
LWPOLYLINE
  5
15a
100
AcDbEntity
  8
Layer_1
 62
7
100
AcDbPolyline
 90
4
 70
0
 10
70.647555
 20
101.983277
 30
0.0
 10
70.408297
 20
101.549280
 30
0.0
 10
69.986970
 20
101.781554
 30
0.0
 10
70.217496
 20
102.199710
 30
0.0
  0
SPLINE
  5
15b
100
AcDbEntity
  8
Layer_1
 62
7
100
AcDbSpline
 70
0
 71
3
 72
37
 73
33
 74
31
 40
0.000000
 40
0.000000
 40
0.000000
 40
0.000000
 40
0.086242
 40
0.164297
 40
0.234503
 40
0.296560
 40
0.349852
 40
0.395391
 40
0.440224
 40
0.480993
 40
0.519093
 40
0.558932
 40
0.603532
 40
0.653640
 40
0.737207
 40
0.816977
 40
0.906998
 40
1.012940
 40
1.137032
 40
1.281687
 40
1.372372
 40
1.459059
 40
1.542230
 40
1.622900
 40
1.701740
 40
1.778835
 40
1.856859
 40
1.924708
 40
1.982506
 40
2.035625
 40
2.090374
 40
2.146755
 40
2.146755
 40
2.146755
 40
2.146755
 10
70.217496
 20
102.199710
 30
0.0
 10
70.231055
 20
102.225070
 30
0.0
 10
70.256887
 20
102.273381
 30
0.0
 10
70.288634
 20
102.344867
 30
0.0
 10
70.313190
 20
102.410644
 30
0.0
 10
70.327847
 20
102.470866
 30
0.0
 10
70.335071
 20
102.524144
 30
0.0
 10
70.333636
 20
102.572324
 30
0.0
 10
70.323332
 20
102.615023
 30
0.0
 10
70.307919
 20
102.653537
 30
0.0
 10
70.285180
 20
102.686241
 30
0.0
 10
70.256908
 20
102.715911
 30
0.0
 10
70.221190
 20
102.743289
 30
0.0
 10
70.170922
 20
102.774871
 30
0.0
 10
70.102587
 20
102.800715
 30
0.0
 10
70.015597
 20
102.791092
 30
0.0
 10
69.934774
 20
102.743997
 30
0.0
 10
69.856861
 20
102.670469
 30
0.0
 10
69.780089
 20
102.571454
 30
0.0
 10
69.717849
 20
102.468848
 30
0.0
 10
69.668871
 20
102.373270
 30
0.0
 10
69.634854
 20
102.293251
 30
0.0
 10
69.608766
 20
102.213839
 30
0.0
 10
69.587976
 20
102.135641
 30
0.0
 10
69.569756
 20
102.058907
 30
0.0
 10
69.553822
 20
101.982525
 30
0.0
 10
69.543350
 20
101.908922
 30
0.0
 10
69.535130
 20
101.841499
 30
0.0
 10
69.532092
 20
101.781965
 30
0.0
 10
69.529169
 20
101.726825
 30
0.0
 10
69.525900
 20
101.672171
 30
0.0
 10
69.523442
 20
101.635210
 30
0.0
 10
69.522195
 20
101.616458
 30
0.0
 11
70.217496
 21
102.199710
 31
0.0
 11
70.257185
 21
102.276277
 31
0.0
 11
70.288931
 21
102.347584
 31
0.0
 11
70.312734
 21
102.413632
 31
0.0
 11
70.327402
 21
102.473931
 31
0.0
 11
70.333842
 21
102.526833
 31
0.0
 11
70.332055
 21
102.572337
 31
0.0
 11
70.321932
 21
102.616012
 31
0.0
 11
70.306175
 21
102.653613
 31
0.0
 11
70.284784
 21
102.685141
 31
0.0
 11
70.257354
 21
102.714032
 31
0.0
 11
70.222305
 21
102.741615
 31
0.0
 11
70.179639
 21
102.767891
 31
0.0
 11
70.100380
 21
102.794374
 31
0.0
 11
70.020999
 21
102.786504
 31
0.0
 11
69.941495
 21
102.744279
 31
0.0
 11
69.863160
 21
102.672954
 31
0.0
 11
69.786120
 21
102.575673
 31
0.0
 11
69.710377
 21
102.452434
 31
0.0
 11
69.669261
 21
102.371605
 31
0.0
 11
69.635564
 21
102.291735
 31
0.0
 11
69.609285
 21
102.212825
 31
0.0
 11
69.588173
 21
102.134966
 31
0.0
 11
69.569976
 21
102.058255
 31
0.0
 11
69.554695
 21
101.982689
 31
0.0
 11
69.543148
 21
101.905524
 31
0.0
 11
69.535581
 21
101.838099
 31
0.0
 11
69.531993
 21
101.780412
 31
0.0
 11
69.529138
 21
101.727370
 31
0.0
 11
69.525873
 21
101.672719
 31
0.0
 11
69.522195
 21
101.616458
 31
0.0
  0
LWPOLYLINE
  5
15c
100
AcDbEntity
  8
Layer_1
 62
7
100
AcDbPolyline
 90
3
 70
0
 10
69.522195
 20
101.616458
 30
0.0
 10
69.489886
 20
101.557851
 30
0.0
 10
68.994118
 20
101.831164
 30
0.0
  0
SPLINE
  5
15d
100
AcDbEntity
  8
Layer_1
 62
7
100
AcDbSpline
 70
0
 71
3
 72
25
 73
21
 74
19
 40
0.000000
 40
0.000000
 40
0.000000
 40
0.000000
 40
0.138920
 40
0.294380
 40
0.466736
 40
0.650270
 40
0.836900
 40
1.027515
 40
1.366287
 40
1.649002
 40
1.884862
 40
2.086722
 40
2.271508
 40
2.463925
 40
2.610975
 40
2.752172
 40
2.896641
 40
3.043464
 40
3.191755
 40
3.347962
 40
3.347962
 40
3.347962
 40
3.347962
 10
68.994118
 20
101.831164
 30
0.0
 10
69.002243
 20
101.876765
 30
0.0
 10
69.019462
 20
101.973397
 30
0.0
 10
69.057703
 20
102.124315
 30
0.0
 10
69.105238
 20
102.288011
 30
0.0
 10
69.163598
 20
102.459313
 30
0.0
 10
69.237360
 20
102.631277
 30
0.0
 10
69.346140
 20
102.843844
 30
0.0
 10
69.488510
 20
103.074774
 30
0.0
 10
69.671699
 20
103.296131
 30
0.0
 10
69.863009
 20
103.444985
 30
0.0
 10
70.057976
 20
103.525535
 30
0.0
 10
70.255784
 20
103.531151
 30
0.0
 10
70.422581
 20
103.468055
 30
0.0
 10
70.554775
 20
103.375500
 30
0.0
 10
70.649664
 20
103.264515
 30
0.0
 10
70.711810
 20
103.132872
 30
0.0
 10
70.745776
 20
102.989463
 30
0.0
 10
70.749599
 20
102.837475
 30
0.0
 10
70.727093
 20
102.738179
 30
0.0
 10
70.715548
 20
102.687240
 30
0.0
 11
68.994118
 21
101.831164
 31
0.0
 11
69.020031
 21
101.967646
 31
0.0
 11
69.057132
 21
102.118614
 31
0.0
 11
69.105419
 21
102.284068
 31
0.0
 11
69.165446
 21
102.457507
 31
0.0
 11
69.238718
 21
102.629152
 31
0.0
 11
69.325237
 21
102.799001
 31
0.0
 11
69.505421
 21
103.085881
 31
0.0
 11
69.689707
 21
103.300279
 31
0.0
 11
69.878094
 21
103.442196
 31
0.0
 11
70.066317
 21
103.515130
 31
0.0
 11
70.251056
 21
103.519304
 31
0.0
 11
70.432311
 21
103.454720
 31
0.0
 11
70.552204
 21
103.369577
 31
0.0
 11
70.643671
 21
103.262011
 31
0.0
 11
70.706712
 21
103.132023
 31
0.0
 11
70.740637
 21
102.989173
 31
0.0
 11
70.743583
 21
102.840912
 31
0.0
 11
70.715548
 21
102.687240
 31
0.0
  0
LWPOLYLINE
  5
15e
100
AcDbEntity
  8
Layer_1
 62
7
100
AcDbPolyline
 90
2
 70
0
 10
70.715548
 20
102.687240
 30
0.0
 10
70.739324
 20
102.674133
 30
0.0
  0
LWPOLYLINE
  5
15f
100
AcDbEntity
  8
Layer_1
 62
7
100
AcDbPolyline
 90
1
 70
1
 10
71.596619
 20
102.895460
 30
0.0
  0
SPLINE
  5
160
100
AcDbEntity
  8
Layer_1
 62
7
100
AcDbSpline
 70
0
 71
3
 72
19
 73
15
 74
13
 40
0.000000
 40
0.000000
 40
0.000000
 40
0.000000
 40
0.067515
 40
0.138323
 40
0.212759
 40
0.289172
 40
0.365074
 40
0.441492
 40
0.520228
 40
0.600074
 40
0.682447
 40
0.769213
 40
0.865814
 40
0.974726
 40
0.974726
 40
0.974726
 40
0.974726
 10
70.739324
 20
102.674133
 30
0.0
 10
70.753699
 20
102.691461
 30
0.0
 10
70.783149
 20
102.726963
 30
0.0
 10
70.833386
 20
102.777167
 30
0.0
 10
70.888782
 20
102.826058
 30
0.0
 10
70.948001
 20
102.873238
 30
0.0
 10
71.013627
 20
102.912465
 30
0.0
 10
71.083778
 20
102.944623
 30
0.0
 10
71.158838
 20
102.967953
 30
0.0
 10
71.238346
 20
102.980756
 30
0.0
 10
71.321525
 20
102.984109
 30
0.0
 10
71.409911
 20
102.973243
 30
0.0
 10
71.503252
 20
102.943320
 30
0.0
 10
71.564278
 20
102.912038
 30
0.0
 10
71.596619
 20
102.895460
 30
0.0
 11
70.739324
 21
102.674133
 31
0.0
 11
70.783213
 21
102.725436
 31
0.0
 11
70.833005
 21
102.775779
 31
0.0
 11
70.888701
 21
102.825163
 31
0.0
 11
70.949121
 21
102.871942
 31
0.0
 11
71.014110
 21
102.911154
 31
0.0
 11
71.083669
 21
102.942799
 31
0.0
 11
71.158897
 21
102.966039
 31
0.0
 11
71.237673
 21
102.979063
 31
0.0
 11
71.319998
 21
102.981869
 31
0.0
 11
71.406096
 21
102.971121
 31
0.0
 11
71.498303
 21
102.942318
 31
0.0
 11
71.596619
 21
102.895460
 31
0.0
  0
LWPOLYLINE
  5
161
100
AcDbEntity
  8
Layer_1
 62
7
100
AcDbPolyline
 90
4
 70
1
 10
72.337698
 20
104.517112
 30
0.0
 10
71.671444
 20
103.308577
 30
0.0
 10
71.215274
 20
103.560059
 30
0.0
 10
71.881529
 20
104.768594
 30
0.0
  0
SPLINE
  5
162
100
AcDbEntity
  8
Layer_1
 62
7
100
AcDbSpline
 70
0
 71
3
 72
25
 73
21
 74
19
 40
0.000000
 40
0.000000
 40
0.000000
 40
0.000000
 40
0.137277
 40
0.274380
 40
0.414694
 40
0.559611
 40
0.711904
 40
0.874569
 40
1.035438
 40
1.187253
 40
1.333074
 40
1.475245
 40
1.615963
 40
1.758509
 40
1.905478
 40
2.054976
 40
2.209069
 40
2.370725
 40
2.545014
 40
2.733345
 40
2.733345
 40
2.733345
 40
2.733345
 10
72.836719
 20
107.928594
 30
0.0
 10
72.880198
 20
107.943158
 30
0.0
 10
72.967099
 20
107.972268
 30
0.0
 10
73.105181
 20
107.989338
 30
0.0
 10
73.246266
 20
107.985730
 30
0.0
 10
73.390741
 20
107.962070
 30
0.0
 10
73.536850
 20
107.913901
 30
0.0
 10
73.680130
 20
107.845056
 30
0.0
 10
73.814663
 20
107.760608
 30
0.0
 10
73.932384
 20
107.662293
 30
0.0
 10
74.029827
 20
107.551997
 30
0.0
 10
74.107350
 20
107.431287
 30
0.0
 10
74.165167
 20
107.301207
 30
0.0
 10
74.203009
 20
107.162274
 30
0.0
 10
74.219748
 20
107.016464
 30
0.0
 10
74.219987
 20
106.865977
 30
0.0
 10
74.202041
 20
106.711585
 30
0.0
 10
74.166004
 20
106.552016
 30
0.0
 10
74.111571
 20
106.385610
 30
0.0
 10
74.062654
 20
106.275012
 30
0.0
 10
74.037249
 20
106.217573
 30
0.0
 11
72.836719
 21
107.928594
 31
0.0
 11
72.968271
 21
107.967827
 31
0.0
 11
73.104185
 21
107.985838
 31
0.0
 11
73.244462
 21
107.982626
 31
0.0
 11
73.387423
 21
107.958889
 31
0.0
 11
73.532332
 21
107.912047
 31
0.0
 11
73.679191
 21
107.842100
 31
0.0
 11
73.815052
 21
107.755956
 31
0.0
 11
73.931198
 21
107.658193
 31
0.0
 11
74.027629
 21
107.548809
 31
0.0
 11
74.104402
 21
107.429150
 31
0.0
 11
74.161567
 21
107.300565
 31
0.0
 11
74.199123
 21
107.163056
 31
0.0
 11
74.216912
 21
107.017168
 31
0.0
 11
74.217106
 21
106.867670
 31
0.0
 11
74.199703
 21
106.714563
 31
0.0
 11
74.164577
 21
106.556769
 31
0.0
 11
74.110426
 21
106.391106
 31
0.0
 11
74.037249
 21
106.217573
 31
0.0
  0
LWPOLYLINE
  5
163
100
AcDbEntity
  8
Layer_1
 62
7
100
AcDbPolyline
 90
4
 70
0
 10
74.037249
 20
106.217573
 30
0.0
 10
74.295426
 20
106.075242
 30
0.0
 10
73.961862
 20
105.470183
 30
0.0
 10
73.703686
 20
105.612513
 30
0.0
  0
SPLINE
  5
164
100
AcDbEntity
  8
Layer_1
 62
7
100
AcDbSpline
 70
0
 71
3
 72
31
 73
27
 74
25
 40
0.000000
 40
0.000000
 40
0.000000
 40
0.000000
 40
0.184333
 40
0.358622
 40
0.524142
 40
0.681777
 40
0.832096
 40
0.977400
 40
1.119085
 40
1.258957
 40
1.400146
 40
1.545208
 40
1.697022
 40
1.858697
 40
2.020749
 40
2.171152
 40
2.312895
 40
2.450105
 40
2.586599
 40
2.725438
 40
2.865654
 40
3.014533
 40
3.174486
 40
3.344586
 40
3.522655
 40
3.709917
 40
3.709917
 40
3.709917
 40
3.709917
 10
73.703686
 20
105.612513
 30
0.0
 10
73.669297
 20
105.561553
 30
0.0
 10
73.602395
 20
105.462408
 30
0.0
 10
73.490455
 20
105.327912
 30
0.0
 10
73.374225
 20
105.209305
 30
0.0
 10
73.251186
 20
105.109861
 30
0.0
 10
73.123123
 20
105.029003
 30
0.0
 10
72.990475
 20
104.967521
 30
0.0
 10
72.853855
 20
104.925974
 30
0.0
 10
72.713860
 20
104.905757
 30
0.0
 10
72.571292
 20
104.906426
 30
0.0
 10
72.426513
 20
104.929558
 30
0.0
 10
72.280535
 20
104.976705
 30
0.0
 10
72.137307
 20
105.045504
 30
0.0
 10
72.002953
 20
105.129396
 30
0.0
 10
71.885560
 20
105.225826
 30
0.0
 10
71.789832
 20
105.333018
 30
0.0
 10
71.714583
 20
105.449929
 30
0.0
 10
71.658135
 20
105.575836
 30
0.0
 10
71.620111
 20
105.709624
 30
0.0
 10
71.603657
 20
105.851849
 30
0.0
 10
71.606354
 20
106.001910
 30
0.0
 10
71.628808
 20
106.160274
 30
0.0
 10
71.667006
 20
106.325446
 30
0.0
 10
71.721848
 20
106.495608
 30
0.0
 10
71.770246
 20
106.607414
 30
0.0
 10
71.795054
 20
106.664724
 30
0.0
 11
73.703686
 21
105.612513
 31
0.0
 11
73.597961
 21
105.461513
 31
0.0
 11
73.486786
 21
105.327286
 31
0.0
 11
73.370160
 21
105.209833
 31
0.0
 11
73.247455
 21
105.110877
 31
0.0
 11
73.120117
 21
105.030998
 31
0.0
 11
72.988146
 21
104.970195
 31
0.0
 11
72.852483
 21
104.929327
 31
0.0
 11
72.714059
 21
104.909258
 31
0.0
 11
72.572872
 21
104.909988
 31
0.0
 11
72.429606
 21
104.932747
 31
0.0
 11
72.284935
 21
104.978769
 31
0.0
 11
72.138860
 21
105.048054
 31
0.0
 11
72.001746
 21
105.134430
 31
0.0
 11
71.886071
 21
105.230557
 31
0.0
 11
71.791834
 21
105.336436
 31
0.0
 11
71.717500
 21
105.451767
 31
0.0
 11
71.661523
 21
105.576255
 31
0.0
 11
71.623902
 21
105.709899
 31
0.0
 11
71.607013
 21
105.849094
 31
0.0
 11
71.609221
 21
105.997956
 31
0.0
 11
71.630526
 21
106.156485
 31
0.0
 11
71.668672
 21
106.322252
 31
0.0
 11
71.723514
 21
106.491665
 31
0.0
 11
71.795054
 21
106.664724
 31
0.0
  0
LWPOLYLINE
  5
165
100
AcDbEntity
  8
Layer_1
 62
7
100
AcDbPolyline
 90
4
 70
0
 10
71.795054
 20
106.664724
 30
0.0
 10
71.554296
 20
106.797452
 30
0.0
 10
71.887859
 20
107.402511
 30
0.0
 10
72.128617
 20
107.269784
 30
0.0
  0
SPLINE
  5
166
100
AcDbEntity
  8
Layer_1
 62
7
100
AcDbSpline
 70
0
 71
3
 72
13
 73
9
 74
7
 40
0.000000
 40
0.000000
 40
0.000000
 40
0.000000
 40
0.191915
 40
0.370030
 40
0.535748
 40
0.691938
 40
0.840285
 40
0.983230
 40
0.983230
 40
0.983230
 40
0.983230
 10
72.128617
 20
107.269784
 30
0.0
 10
72.163581
 20
107.323391
 30
0.0
 10
72.230995
 20
107.426750
 30
0.0
 10
72.343063
 20
107.566210
 30
0.0
 10
72.459401
 20
107.685915
 30
0.0
 10
72.579188
 20
107.787340
 30
0.0
 10
72.704012
 20
107.870249
 30
0.0
 10
72.793033
 20
107.909387
 30
0.0
 10
72.836719
 20
107.928594
 30
0.0
 11
72.128617
 21
107.269784
 31
0.0
 11
72.236196
 21
107.428712
 31
0.0
 11
72.347823
 21
107.567508
 31
0.0
 11
72.463500
 21
107.686173
 31
0.0
 11
72.583126
 21
107.786596
 31
0.0
 11
72.707533
 21
107.867403
 31
0.0
 11
72.836719
 21
107.928594
 31
0.0
  0
LWPOLYLINE
  5
167
100
AcDbEntity
  8
Layer_1
 62
7
100
AcDbPolyline
 90
1
 70
1
 10
72.836719
 20
107.928594
 30
0.0
  0
SPLINE
  5
168
100
AcDbEntity
  8
Layer_1
 62
7
100
AcDbSpline
 70
0
 71
3
 72
13
 73
9
 74
7
 40
0.000000
 40
0.000000
 40
0.000000
 40
0.000000
 40
0.163497
 40
0.311829
 40
0.453539
 40
0.594564
 40
0.741507
 40
0.903782
 40
0.903782
 40
0.903782
 40
0.903782
 10
73.323025
 20
107.218521
 30
0.0
 10
73.273941
 20
107.242647
 30
0.0
 10
73.180327
 20
107.288662
 30
0.0
 10
73.030004
 20
107.317679
 30
0.0
 10
72.884965
 20
107.308983
 30
0.0
 10
72.748172
 20
107.261019
 30
0.0
 10
72.622949
 20
107.174443
 30
0.0
 10
72.557409
 20
107.094375
 30
0.0
 10
72.523015
 20
107.052356
 30
0.0
 11
73.323025
 21
107.218521
 31
0.0
 11
73.173096
 21
107.283734
 31
0.0
 11
73.027428
 21
107.311719
 31
0.0
 11
72.886021
 21
107.302473
 31
0.0
 11
72.752835
 21
107.256109
 31
0.0
 11
72.631833
 21
107.172736
 31
0.0
 11
72.523015
 21
107.052356
 31
0.0
  0
LWPOLYLINE
  5
169
100
AcDbEntity
  8
Layer_1
 62
7
100
AcDbPolyline
 90
2
 70
0
 10
72.523015
 20
107.052356
 30
0.0
 10
73.644435
 20
106.434128
 30
0.0
  0
LWPOLYLINE
  5
16a
100
AcDbEntity
  8
Layer_1
 62
7
100
AcDbPolyline
 90
1
 70
1
 10
73.323025
 20
107.218521
 30
0.0
  0
SPLINE
  5
16b
100
AcDbEntity
  8
Layer_1
 62
7
100
AcDbSpline
 70
0
 71
3
 72
13
 73
9
 74
7
 40
0.000000
 40
0.000000
 40
0.000000
 40
0.000000
 40
0.184688
 40
0.339726
 40
0.475319
 40
0.613157
 40
0.767725
 40
0.945857
 40
0.945857
 40
0.945857
 40
0.945857
 10
73.644435
 20
106.434128
 30
0.0
 10
73.662175
 20
106.493230
 30
0.0
 10
73.694809
 20
106.601947
 30
0.0
 10
73.702761
 20
106.762336
 30
0.0
 10
73.665831
 20
106.903022
 30
0.0
 10
73.584742
 20
107.022715
 30
0.0
 10
73.469542
 20
107.130937
 30
0.0
 10
73.374117
 20
107.187979
 30
0.0
 10
73.323025
 20
107.218521
 30
0.0
 11
73.644435
 21
106.434128
 31
0.0
 11
73.689692
 21
106.613185
 31
0.0
 11
73.694575
 21
106.768146
 31
0.0
 11
73.659081
 21
106.899010
 31
0.0
 11
73.584314
 21
107.014810
 31
0.0
 11
73.472296
 21
107.121313
 31
0.0
 11
73.323025
 21
107.218521
 31
0.0
  0
LWPOLYLINE
  5
16c
100
AcDbEntity
  8
Layer_1
 62
7
100
AcDbPolyline
 90
2
 70
0
 10
73.310871
 20
105.829068
 30
0.0
 10
72.189451
 20
106.447297
 30
0.0
  0
LWPOLYLINE
  5
16d
100
AcDbEntity
  8
Layer_1
 62
7
100
AcDbPolyline
 90
1
 70
1
 10
73.310871
 20
105.829068
 30
0.0
  0
SPLINE
  5
16e
100
AcDbEntity
  8
Layer_1
 62
7
100
AcDbSpline
 70
0
 71
3
 72
19
 73
15
 74
13
 40
0.000000
 40
0.000000
 40
0.000000
 40
0.000000
 40
0.166311
 40
0.314067
 40
0.451913
 40
0.589323
 40
0.737862
 40
0.906326
 40
1.082667
 40
1.236807
 40
1.375657
 40
1.513529
 40
1.668306
 40
1.849747
 40
1.849747
 40
1.849747
 40
1.849747
 10
72.189451
 20
106.447297
 30
0.0
 10
72.172476
 20
106.394337
 30
0.0
 10
72.140421
 20
106.294327
 30
0.0
 10
72.132400
 20
106.141987
 30
0.0
 10
72.162051
 20
106.002373
 30
0.0
 10
72.230613
 20
105.876605
 30
0.0
 10
72.337811
 20
105.767311
 30
0.0
 10
72.476394
 20
105.677339
 30
0.0
 10
72.627679
 20
105.606573
 30
0.0
 10
72.779966
 20
105.566991
 30
0.0
 10
72.925648
 20
105.562984
 30
0.0
 10
73.064746
 20
105.608484
 30
0.0
 10
73.196582
 20
105.699151
 30
0.0
 10
73.270812
 20
105.783532
 30
0.0
 10
73.310871
 20
105.829068
 30
0.0
 11
72.189451
 21
106.447297
 31
0.0
 11
72.145953
 21
106.286775
 31
0.0
 11
72.138939
 21
106.139185
 31
0.0
 11
72.168411
 21
106.004526
 31
0.0
 11
72.233707
 21
105.883622
 31
0.0
 11
72.336242
 21
105.776151
 31
0.0
 11
72.476017
 21
105.682112
 31
0.0
 11
72.636412
 21
105.608834
 31
0.0
 11
72.786033
 21
105.571786
 31
0.0
 11
72.924881
 21
105.570970
 31
0.0
 11
73.056421
 21
105.612274
 31
0.0
 11
73.185084
 21
105.698307
 31
0.0
 11
73.310871
 21
105.829068
 31
0.0
  0
LWPOLYLINE
  5
16f
100
AcDbEntity
  8
Layer_1
 62
7
100
AcDbPolyline
 90
6
 70
1
 10
74.161025
 20
110.383231
 30
0.0
 10
73.558515
 20
109.290323
 30
0.0
 10
75.460809
 20
108.241606
 30
0.0
 10
75.125498
 20
107.633378
 30
0.0
 10
72.767035
 20
108.933577
 30
0.0
 10
73.704855
 20
110.634714
 30
0.0
  0
ENDSEC
  0
SECTION
  2
OBJECTS
  0
DICTIONARY
  5
C
330
0
100
AcDbDictionary
  3
ACAD_GROUP
350
D
  3
ACAD_MLINESTYLE
350
17
  0
DICTIONARY
  5
D
330
C
100
AcDbDictionary
  0
DICTIONARY
  5
1A
330
C
100
AcDbDictionary
  0
DICTIONARY
  5
17
330
C
100
AcDbDictionary
  3
STANDARD
350
18
  0
DICTIONARY
  5
19
330
C
100
AcDbDictionary
  0
ENDSEC
  0
EOF
